M48
METRIC,TZ
T1C0.300
T2C0.400
T3C0.500
T4C0.500
T5C0.550
%
G90
G05
T1
X139970Y-98730
X140120Y-99490
X152960Y-98730
X152990Y-99910
X153500Y-104090
X155260Y-97270
X155332Y-92280
X157200Y-96515
X157690Y-94980
X157810Y-99840
X160260Y-102320
X160875Y-101080
X162190Y-106460
T2
X145000Y-99000
X147000Y-93000
X150000Y-97000
X154380Y-103070
X154443Y-94586
X155600Y-110190
X156410Y-105790
X161000Y-106000
X161700Y-98300
T3
X138180Y-105180
X145830Y-106430
T4
G00X136970Y-92165
M15
G01X136970Y-91515
M16
G05
G00X143970Y-92165
M15
G01X143970Y-91515
M16
G05
T5
G00X138120Y-94540
M15
G01X137820Y-94540
M16
G05
G00X143120Y-94540
M15
G01X142820Y-94540
M16
G05
M30
