%TF.GenerationSoftware,KiCad,Pcbnew,8.0.6*%
%TF.CreationDate,2025-02-20T11:34:02+01:00*%
%TF.ProjectId,wled usermod,776c6564-2075-4736-9572-6d6f642e6b69,rev?*%
%TF.SameCoordinates,Original*%
%TF.FileFunction,Copper,L2,Bot*%
%TF.FilePolarity,Positive*%
%FSLAX46Y46*%
G04 Gerber Fmt 4.6, Leading zero omitted, Abs format (unit mm)*
G04 Created by KiCad (PCBNEW 8.0.6) date 2025-02-20 11:34:02*
%MOMM*%
%LPD*%
G01*
G04 APERTURE LIST*
%TA.AperFunction,ComponentPad*%
%ADD10O,0.890000X1.550000*%
%TD*%
%TA.AperFunction,ComponentPad*%
%ADD11O,1.250000X0.950000*%
%TD*%
%TA.AperFunction,ViaPad*%
%ADD12C,0.800000*%
%TD*%
%TA.AperFunction,ViaPad*%
%ADD13C,0.600000*%
%TD*%
%TA.AperFunction,Conductor*%
%ADD14C,0.250000*%
%TD*%
%TA.AperFunction,Conductor*%
%ADD15C,0.500000*%
%TD*%
%ADD16C,0.350000*%
%ADD17C,0.300000*%
%ADD18O,0.500000X1.150000*%
%ADD19O,0.850000X0.550000*%
G04 APERTURE END LIST*
D10*
%TO.P,J1,6,Shield*%
%TO.N,GND*%
X143970000Y-91840000D03*
D11*
X142970000Y-94540000D03*
X137970000Y-94540000D03*
D10*
X136970000Y-91840000D03*
%TD*%
D12*
%TO.N,GND*%
X145000000Y-99000000D03*
X156410000Y-105790000D03*
X154442861Y-94585754D03*
X155600000Y-110190000D03*
D13*
X152990000Y-99910000D03*
D12*
X150000000Y-97000000D03*
D13*
X157690000Y-94980000D03*
D12*
X138180000Y-105180000D03*
X145830000Y-106430000D03*
D13*
X157810000Y-99840000D03*
D12*
%TO.N,3V3*%
X154380000Y-103070000D03*
D13*
X152960000Y-98730000D03*
X155332500Y-92280000D03*
D12*
X161700000Y-98300000D03*
%TO.N,5V*%
X147000000Y-93000000D03*
X161000000Y-106000000D03*
D13*
%TO.N,LEDDATA*%
X153500000Y-104090000D03*
X155260000Y-97270000D03*
%TO.N,D-*%
X140120000Y-99490000D03*
X160260000Y-102320000D03*
%TO.N,D+*%
X139970000Y-98730000D03*
X160875000Y-101080000D03*
%TO.N,PWM*%
X157200000Y-96515000D03*
X162190000Y-106460000D03*
%TD*%
D14*
%TO.N,GND*%
X156410000Y-109380000D02*
X155600000Y-110190000D01*
D15*
X154837107Y-94980000D02*
X157690000Y-94980000D01*
X154442861Y-94585754D02*
X154837107Y-94980000D01*
D14*
X156410000Y-105790000D02*
X156410000Y-109380000D01*
%TO.N,3V3*%
X155920000Y-92440000D02*
X155340000Y-92440000D01*
X154380000Y-103070000D02*
X160850000Y-103070000D01*
X161500000Y-102420000D02*
X161500000Y-100570000D01*
X161700000Y-98300000D02*
X161700000Y-98220000D01*
X159660000Y-98730000D02*
X152960000Y-98730000D01*
X161500000Y-100570000D02*
X159660000Y-98730000D01*
X155340000Y-92440000D02*
X152960000Y-94820000D01*
X152960000Y-94820000D02*
X152960000Y-98730000D01*
X161700000Y-98220000D02*
X155920000Y-92440000D01*
X160850000Y-103070000D02*
X161500000Y-102420000D01*
%TO.N,5V*%
X161000000Y-106000000D02*
X163145018Y-103854982D01*
X156915000Y-91620000D02*
X148380000Y-91620000D01*
X163145018Y-103854982D02*
X163145018Y-97850018D01*
X163145018Y-97850018D02*
X156915000Y-91620000D01*
X148380000Y-91620000D02*
X147000000Y-93000000D01*
%TO.N,LEDDATA*%
X155260000Y-97270000D02*
X156530000Y-96000000D01*
X158003320Y-96590000D02*
X158260000Y-96590000D01*
X160680000Y-104090000D02*
X153500000Y-104090000D01*
X162310000Y-102460000D02*
X160680000Y-104090000D01*
X158260000Y-96590000D02*
X162310000Y-100640000D01*
X157413320Y-96000000D02*
X158003320Y-96590000D01*
X162310000Y-100640000D02*
X162310000Y-102460000D01*
X156530000Y-96000000D02*
X157413320Y-96000000D01*
%TO.N,D-*%
X140120000Y-99490000D02*
X140120000Y-99546471D01*
X140120000Y-99546471D02*
X142893529Y-102320000D01*
X142893529Y-102320000D02*
X160260000Y-102320000D01*
%TO.N,D+*%
X139970000Y-98730000D02*
X140270000Y-98730000D01*
X140270000Y-98730000D02*
X142620000Y-101080000D01*
X142620000Y-101080000D02*
X160875000Y-101080000D01*
%TO.N,PWM*%
X157908320Y-95500000D02*
X155870000Y-95500000D01*
X160385000Y-106265000D02*
X160385000Y-105735000D01*
X162190000Y-106460000D02*
X162035000Y-106615000D01*
X155925000Y-97790000D02*
X157200000Y-96515000D01*
X154530000Y-97790000D02*
X155925000Y-97790000D01*
X162035000Y-106615000D02*
X160735000Y-106615000D01*
X155870000Y-95500000D02*
X154530000Y-96840000D01*
X162660000Y-100251680D02*
X157908320Y-95500000D01*
X160385000Y-105735000D02*
X162660000Y-103460000D01*
X154530000Y-96840000D02*
X154530000Y-97790000D01*
X162660000Y-103460000D02*
X162660000Y-100251680D01*
X160735000Y-106615000D02*
X160385000Y-106265000D01*
%TD*%
%TA.AperFunction,Conductor*%
%TO.N,GND*%
G36*
X155673334Y-93093770D02*
G01*
X155717681Y-93122271D01*
X157258229Y-94662819D01*
X157291714Y-94724142D01*
X157286730Y-94793834D01*
X157244858Y-94849767D01*
X157179394Y-94874184D01*
X157170548Y-94874500D01*
X155808389Y-94874500D01*
X155747971Y-94886518D01*
X155704743Y-94895116D01*
X155687546Y-94898537D01*
X155573716Y-94945687D01*
X155573707Y-94945692D01*
X155471268Y-95014140D01*
X155442638Y-95042771D01*
X155384142Y-95101267D01*
X155384139Y-95101270D01*
X154131270Y-96354139D01*
X154131267Y-96354142D01*
X154087704Y-96397704D01*
X154044142Y-96441266D01*
X154014347Y-96485858D01*
X154014346Y-96485857D01*
X153975688Y-96543713D01*
X153975684Y-96543721D01*
X153962064Y-96576606D01*
X153962063Y-96576608D01*
X153931001Y-96651600D01*
X153930999Y-96651607D01*
X153928537Y-96657549D01*
X153928536Y-96657550D01*
X153906621Y-96767733D01*
X153904500Y-96778396D01*
X153904500Y-97851610D01*
X153925326Y-97956309D01*
X153919099Y-98025901D01*
X153876236Y-98081078D01*
X153810346Y-98104322D01*
X153803709Y-98104500D01*
X153709500Y-98104500D01*
X153642461Y-98084815D01*
X153596706Y-98032011D01*
X153585500Y-97980500D01*
X153585500Y-95130452D01*
X153605185Y-95063413D01*
X153621819Y-95042771D01*
X155542319Y-93122271D01*
X155603642Y-93088786D01*
X155673334Y-93093770D01*
G37*
%TD.AperFunction*%
%TA.AperFunction,Conductor*%
G36*
X143330745Y-90600185D02*
G01*
X143376500Y-90652989D01*
X143386444Y-90722147D01*
X143357419Y-90785703D01*
X143351387Y-90792181D01*
X143235973Y-90907594D01*
X143235970Y-90907598D01*
X143132555Y-91062368D01*
X143132550Y-91062377D01*
X143061316Y-91234353D01*
X143061314Y-91234361D01*
X143025000Y-91416921D01*
X143025000Y-91590000D01*
X143720000Y-91590000D01*
X143720000Y-92090000D01*
X143025000Y-92090000D01*
X143025000Y-92263078D01*
X143061314Y-92445638D01*
X143061316Y-92445646D01*
X143132550Y-92617622D01*
X143132555Y-92617631D01*
X143235970Y-92772401D01*
X143235973Y-92772405D01*
X143367594Y-92904026D01*
X143367598Y-92904029D01*
X143522368Y-93007444D01*
X143522381Y-93007451D01*
X143694350Y-93078682D01*
X143694355Y-93078683D01*
X143720000Y-93083784D01*
X143720000Y-92214728D01*
X143758060Y-92306614D01*
X143828386Y-92376940D01*
X143920272Y-92415000D01*
X144019728Y-92415000D01*
X144111614Y-92376940D01*
X144181940Y-92306614D01*
X144220000Y-92214728D01*
X144220000Y-93083783D01*
X144245644Y-93078683D01*
X144245649Y-93078682D01*
X144417618Y-93007451D01*
X144417631Y-93007444D01*
X144572401Y-92904029D01*
X144572405Y-92904026D01*
X144704026Y-92772405D01*
X144704029Y-92772401D01*
X144807444Y-92617631D01*
X144807449Y-92617622D01*
X144878683Y-92445646D01*
X144878685Y-92445638D01*
X144914999Y-92263078D01*
X144915000Y-92263076D01*
X144915000Y-92090000D01*
X144220000Y-92090000D01*
X144220000Y-91590000D01*
X144915000Y-91590000D01*
X144915000Y-91416923D01*
X144914999Y-91416921D01*
X144878685Y-91234361D01*
X144878683Y-91234353D01*
X144807449Y-91062377D01*
X144807444Y-91062368D01*
X144704029Y-90907598D01*
X144704026Y-90907594D01*
X144588613Y-90792181D01*
X144555128Y-90730858D01*
X144560112Y-90661166D01*
X144601984Y-90605233D01*
X144667448Y-90580816D01*
X144676294Y-90580500D01*
X164335500Y-90580500D01*
X164402539Y-90600185D01*
X164448294Y-90652989D01*
X164459500Y-90704500D01*
X164459500Y-110755500D01*
X164439815Y-110822539D01*
X164387011Y-110868294D01*
X164335500Y-110879500D01*
X136414500Y-110879500D01*
X136347461Y-110859815D01*
X136301706Y-110807011D01*
X136290500Y-110755500D01*
X136290500Y-98729996D01*
X139164435Y-98729996D01*
X139164435Y-98730003D01*
X139184630Y-98909249D01*
X139184631Y-98909254D01*
X139244211Y-99079523D01*
X139322486Y-99204097D01*
X139341486Y-99271334D01*
X139335789Y-99303869D01*
X139336181Y-99303959D01*
X139334630Y-99310751D01*
X139314435Y-99489996D01*
X139314435Y-99490003D01*
X139334630Y-99669249D01*
X139334631Y-99669254D01*
X139394211Y-99839523D01*
X139490184Y-99992262D01*
X139617738Y-100119816D01*
X139770478Y-100215789D01*
X139947318Y-100277668D01*
X139946516Y-100279958D01*
X139996535Y-100307596D01*
X142407670Y-102718732D01*
X142407671Y-102718733D01*
X142494796Y-102805858D01*
X142494797Y-102805859D01*
X142597236Y-102874307D01*
X142597242Y-102874310D01*
X142597243Y-102874311D01*
X142711077Y-102921463D01*
X142740744Y-102927363D01*
X142767509Y-102932688D01*
X142767529Y-102932691D01*
X142767551Y-102932696D01*
X142831920Y-102945499D01*
X142831921Y-102945500D01*
X142831922Y-102945500D01*
X142831923Y-102945500D01*
X153350540Y-102945500D01*
X153417579Y-102965185D01*
X153463334Y-103017989D01*
X153473256Y-103063600D01*
X153473861Y-103063537D01*
X153474438Y-103069034D01*
X153474540Y-103069500D01*
X153474540Y-103069997D01*
X153484247Y-103162358D01*
X153471677Y-103231088D01*
X153423945Y-103282111D01*
X153374811Y-103298539D01*
X153320749Y-103304630D01*
X153320745Y-103304631D01*
X153150476Y-103364211D01*
X152997737Y-103460184D01*
X152870184Y-103587737D01*
X152774211Y-103740476D01*
X152714631Y-103910745D01*
X152714630Y-103910750D01*
X152694435Y-104089996D01*
X152694435Y-104090003D01*
X152714630Y-104269249D01*
X152714631Y-104269254D01*
X152774211Y-104439523D01*
X152870184Y-104592262D01*
X152997738Y-104719816D01*
X153021117Y-104734506D01*
X153106234Y-104787989D01*
X153150478Y-104815789D01*
X153320745Y-104875368D01*
X153320750Y-104875369D01*
X153499996Y-104895565D01*
X153500000Y-104895565D01*
X153500004Y-104895565D01*
X153679249Y-104875369D01*
X153679252Y-104875368D01*
X153679255Y-104875368D01*
X153849522Y-104815789D01*
X153978883Y-104734505D01*
X154044855Y-104715500D01*
X160220548Y-104715500D01*
X160287587Y-104735185D01*
X160333342Y-104787989D01*
X160343286Y-104857147D01*
X160314261Y-104920703D01*
X160308229Y-104927181D01*
X159986270Y-105249139D01*
X159899144Y-105336264D01*
X159899138Y-105336272D01*
X159830692Y-105438705D01*
X159830684Y-105438719D01*
X159807872Y-105493796D01*
X159797347Y-105519207D01*
X159783537Y-105552548D01*
X159783535Y-105552554D01*
X159771517Y-105612968D01*
X159771518Y-105612969D01*
X159761462Y-105663530D01*
X159759500Y-105673394D01*
X159759500Y-106326607D01*
X159766241Y-106360494D01*
X159766242Y-106360501D01*
X159773845Y-106398730D01*
X159783535Y-106447444D01*
X159783536Y-106447446D01*
X159783537Y-106447451D01*
X159830688Y-106561286D01*
X159830689Y-106561287D01*
X159857532Y-106601461D01*
X159857534Y-106601463D01*
X159899141Y-106663732D01*
X159899144Y-106663736D01*
X159990586Y-106755178D01*
X159990608Y-106755198D01*
X160246016Y-107010606D01*
X160246045Y-107010637D01*
X160336264Y-107100856D01*
X160336267Y-107100858D01*
X160413190Y-107152256D01*
X160438710Y-107169309D01*
X160438712Y-107169310D01*
X160438715Y-107169312D01*
X160505396Y-107196931D01*
X160505398Y-107196933D01*
X160535129Y-107209247D01*
X160552548Y-107216463D01*
X160673394Y-107240500D01*
X161973393Y-107240500D01*
X161975763Y-107240500D01*
X162003629Y-107245236D01*
X162003953Y-107243818D01*
X162010743Y-107245367D01*
X162010745Y-107245368D01*
X162010746Y-107245368D01*
X162010750Y-107245369D01*
X162189996Y-107265565D01*
X162190000Y-107265565D01*
X162190004Y-107265565D01*
X162369249Y-107245369D01*
X162369252Y-107245368D01*
X162369255Y-107245368D01*
X162539522Y-107185789D01*
X162692262Y-107089816D01*
X162819816Y-106962262D01*
X162915789Y-106809522D01*
X162975368Y-106639255D01*
X162979626Y-106601463D01*
X162995565Y-106460003D01*
X162995565Y-106459996D01*
X162975369Y-106280750D01*
X162975368Y-106280745D01*
X162915788Y-106110476D01*
X162819815Y-105957737D01*
X162692262Y-105830184D01*
X162539521Y-105734210D01*
X162437520Y-105698519D01*
X162380744Y-105657797D01*
X162354996Y-105592845D01*
X162368452Y-105524283D01*
X162390789Y-105493800D01*
X163630876Y-104253715D01*
X163699330Y-104151267D01*
X163746481Y-104037433D01*
X163770519Y-103916588D01*
X163770519Y-103793375D01*
X163770519Y-103788265D01*
X163770518Y-103788239D01*
X163770518Y-97788411D01*
X163770517Y-97788407D01*
X163746482Y-97667573D01*
X163746481Y-97667566D01*
X163707941Y-97574523D01*
X163699330Y-97553733D01*
X163699328Y-97553728D01*
X163659227Y-97493715D01*
X163659227Y-97493714D01*
X163659224Y-97493712D01*
X163630876Y-97451285D01*
X163630875Y-97451284D01*
X163630873Y-97451281D01*
X163540655Y-97361063D01*
X163540624Y-97361034D01*
X157405198Y-91225608D01*
X157405178Y-91225586D01*
X157313733Y-91134141D01*
X157262509Y-91099915D01*
X157211287Y-91065689D01*
X157211286Y-91065688D01*
X157211283Y-91065686D01*
X157211280Y-91065685D01*
X157130792Y-91032347D01*
X157097453Y-91018537D01*
X157087427Y-91016543D01*
X157037029Y-91006518D01*
X156976610Y-90994500D01*
X156976607Y-90994500D01*
X156976606Y-90994500D01*
X148318394Y-90994500D01*
X148318389Y-90994500D01*
X148197553Y-91018535D01*
X148197541Y-91018539D01*
X148165262Y-91031909D01*
X148150397Y-91038067D01*
X148083719Y-91065685D01*
X148083717Y-91065686D01*
X147981266Y-91134141D01*
X147981263Y-91134144D01*
X147052229Y-92063181D01*
X146990906Y-92096666D01*
X146964548Y-92099500D01*
X146905354Y-92099500D01*
X146872897Y-92106398D01*
X146720197Y-92138855D01*
X146720192Y-92138857D01*
X146547270Y-92215848D01*
X146547265Y-92215851D01*
X146394129Y-92327111D01*
X146267466Y-92467785D01*
X146172821Y-92631715D01*
X146172818Y-92631722D01*
X146127109Y-92772401D01*
X146114326Y-92811744D01*
X146094540Y-93000000D01*
X146114326Y-93188256D01*
X146114327Y-93188259D01*
X146172818Y-93368277D01*
X146172821Y-93368284D01*
X146267467Y-93532216D01*
X146394129Y-93672888D01*
X146547265Y-93784148D01*
X146547270Y-93784151D01*
X146720192Y-93861142D01*
X146720197Y-93861144D01*
X146905354Y-93900500D01*
X146905355Y-93900500D01*
X147094644Y-93900500D01*
X147094646Y-93900500D01*
X147279803Y-93861144D01*
X147452730Y-93784151D01*
X147605871Y-93672888D01*
X147732533Y-93532216D01*
X147827179Y-93368284D01*
X147885674Y-93188256D01*
X147903321Y-93020344D01*
X147929904Y-92955734D01*
X147938950Y-92945639D01*
X148602772Y-92281819D01*
X148664095Y-92248334D01*
X148690453Y-92245500D01*
X154350547Y-92245500D01*
X154417586Y-92265185D01*
X154463341Y-92317989D01*
X154473285Y-92387147D01*
X154444260Y-92450703D01*
X154438228Y-92457181D01*
X152474144Y-94421264D01*
X152474138Y-94421272D01*
X152405692Y-94523705D01*
X152405684Y-94523719D01*
X152376284Y-94594701D01*
X152372347Y-94604207D01*
X152366823Y-94617543D01*
X152358537Y-94637545D01*
X152358535Y-94637553D01*
X152334500Y-94758389D01*
X152334500Y-98185145D01*
X152315494Y-98251117D01*
X152234211Y-98380476D01*
X152174631Y-98550745D01*
X152174630Y-98550750D01*
X152154435Y-98729996D01*
X152154435Y-98730003D01*
X152174630Y-98909249D01*
X152174631Y-98909254D01*
X152234211Y-99079523D01*
X152312487Y-99204097D01*
X152330184Y-99232262D01*
X152457738Y-99359816D01*
X152610478Y-99455789D01*
X152708256Y-99490003D01*
X152780745Y-99515368D01*
X152780750Y-99515369D01*
X152959996Y-99535565D01*
X152960000Y-99535565D01*
X152960004Y-99535565D01*
X153139249Y-99515369D01*
X153139252Y-99515368D01*
X153139255Y-99515368D01*
X153309522Y-99455789D01*
X153438883Y-99374505D01*
X153504855Y-99355500D01*
X159349548Y-99355500D01*
X159416587Y-99375185D01*
X159437229Y-99391819D01*
X160288229Y-100242819D01*
X160321714Y-100304142D01*
X160316730Y-100373834D01*
X160274858Y-100429767D01*
X160209394Y-100454184D01*
X160200548Y-100454500D01*
X142930452Y-100454500D01*
X142863413Y-100434815D01*
X142842771Y-100418181D01*
X140760198Y-98335608D01*
X140760178Y-98335586D01*
X140668733Y-98244141D01*
X140617509Y-98209915D01*
X140617508Y-98209914D01*
X140566294Y-98175693D01*
X140566291Y-98175691D01*
X140566286Y-98175688D01*
X140557455Y-98172030D01*
X140517229Y-98145151D01*
X140472262Y-98100184D01*
X140319523Y-98004211D01*
X140149254Y-97944631D01*
X140149249Y-97944630D01*
X139970004Y-97924435D01*
X139969996Y-97924435D01*
X139790750Y-97944630D01*
X139790745Y-97944631D01*
X139620476Y-98004211D01*
X139467737Y-98100184D01*
X139340184Y-98227737D01*
X139244211Y-98380476D01*
X139184631Y-98550745D01*
X139184630Y-98550750D01*
X139164435Y-98729996D01*
X136290500Y-98729996D01*
X136290500Y-94290000D01*
X136875626Y-94290000D01*
X137704943Y-94290000D01*
X137664225Y-94306866D01*
X137586866Y-94384225D01*
X137545000Y-94485299D01*
X137545000Y-94594701D01*
X137586866Y-94695775D01*
X137664225Y-94773134D01*
X137704943Y-94790000D01*
X136875626Y-94790000D01*
X136882466Y-94824389D01*
X136882468Y-94824397D01*
X136955964Y-95001833D01*
X136955969Y-95001842D01*
X137062667Y-95161526D01*
X137062670Y-95161530D01*
X137198469Y-95297329D01*
X137198473Y-95297332D01*
X137358157Y-95404030D01*
X137358166Y-95404035D01*
X137535602Y-95477531D01*
X137535610Y-95477533D01*
X137719999Y-95514210D01*
X137720000Y-95514210D01*
X137720000Y-94796236D01*
X137765299Y-94815000D01*
X138174701Y-94815000D01*
X138220000Y-94796236D01*
X138220000Y-95514210D01*
X138404389Y-95477533D01*
X138404397Y-95477531D01*
X138581833Y-95404035D01*
X138581842Y-95404030D01*
X138741526Y-95297332D01*
X138741530Y-95297329D01*
X138877329Y-95161530D01*
X138877332Y-95161526D01*
X138984030Y-95001842D01*
X138984035Y-95001833D01*
X139057531Y-94824397D01*
X139057533Y-94824389D01*
X139064374Y-94790000D01*
X138235057Y-94790000D01*
X138275775Y-94773134D01*
X138353134Y-94695775D01*
X138395000Y-94594701D01*
X138395000Y-94485299D01*
X138353134Y-94384225D01*
X138275775Y-94306866D01*
X138235057Y-94290000D01*
X139064374Y-94290000D01*
X141875626Y-94290000D01*
X142704943Y-94290000D01*
X142664225Y-94306866D01*
X142586866Y-94384225D01*
X142545000Y-94485299D01*
X142545000Y-94594701D01*
X142586866Y-94695775D01*
X142664225Y-94773134D01*
X142704943Y-94790000D01*
X141875626Y-94790000D01*
X141882466Y-94824389D01*
X141882468Y-94824397D01*
X141955964Y-95001833D01*
X141955969Y-95001842D01*
X142062667Y-95161526D01*
X142062670Y-95161530D01*
X142198469Y-95297329D01*
X142198473Y-95297332D01*
X142358157Y-95404030D01*
X142358166Y-95404035D01*
X142535602Y-95477531D01*
X142535610Y-95477533D01*
X142719999Y-95514210D01*
X142720000Y-95514210D01*
X142720000Y-94796236D01*
X142765299Y-94815000D01*
X143174701Y-94815000D01*
X143220000Y-94796236D01*
X143220000Y-95514210D01*
X143404389Y-95477533D01*
X143404397Y-95477531D01*
X143581833Y-95404035D01*
X143581842Y-95404030D01*
X143741526Y-95297332D01*
X143741530Y-95297329D01*
X143877329Y-95161530D01*
X143877332Y-95161526D01*
X143984030Y-95001842D01*
X143984035Y-95001833D01*
X144057531Y-94824397D01*
X144057533Y-94824389D01*
X144064374Y-94790000D01*
X143235057Y-94790000D01*
X143275775Y-94773134D01*
X143353134Y-94695775D01*
X143395000Y-94594701D01*
X143395000Y-94485299D01*
X143353134Y-94384225D01*
X143275775Y-94306866D01*
X143235057Y-94290000D01*
X144064374Y-94290000D01*
X144057533Y-94255610D01*
X144057531Y-94255602D01*
X143984035Y-94078166D01*
X143984030Y-94078157D01*
X143877332Y-93918473D01*
X143877329Y-93918469D01*
X143741530Y-93782670D01*
X143741526Y-93782667D01*
X143581842Y-93675969D01*
X143581833Y-93675964D01*
X143404397Y-93602468D01*
X143404389Y-93602466D01*
X143220000Y-93565788D01*
X143220000Y-94283763D01*
X143174701Y-94265000D01*
X142765299Y-94265000D01*
X142720000Y-94283763D01*
X142720000Y-93565789D01*
X142719999Y-93565788D01*
X142535610Y-93602466D01*
X142535602Y-93602468D01*
X142358166Y-93675964D01*
X142358157Y-93675969D01*
X142198473Y-93782667D01*
X142198469Y-93782670D01*
X142062670Y-93918469D01*
X142062667Y-93918473D01*
X141955969Y-94078157D01*
X141955964Y-94078166D01*
X141882468Y-94255602D01*
X141882466Y-94255610D01*
X141875626Y-94290000D01*
X139064374Y-94290000D01*
X139057533Y-94255610D01*
X139057531Y-94255602D01*
X138984035Y-94078166D01*
X138984030Y-94078157D01*
X138877332Y-93918473D01*
X138877329Y-93918469D01*
X138741530Y-93782670D01*
X138741526Y-93782667D01*
X138581842Y-93675969D01*
X138581833Y-93675964D01*
X138404397Y-93602468D01*
X138404389Y-93602466D01*
X138220000Y-93565788D01*
X138220000Y-94283763D01*
X138174701Y-94265000D01*
X137765299Y-94265000D01*
X137720000Y-94283763D01*
X137720000Y-93565789D01*
X137719999Y-93565788D01*
X137535610Y-93602466D01*
X137535602Y-93602468D01*
X137358166Y-93675964D01*
X137358157Y-93675969D01*
X137198473Y-93782667D01*
X137198469Y-93782670D01*
X137062670Y-93918469D01*
X137062667Y-93918473D01*
X136955969Y-94078157D01*
X136955964Y-94078166D01*
X136882468Y-94255602D01*
X136882466Y-94255610D01*
X136875626Y-94290000D01*
X136290500Y-94290000D01*
X136290500Y-93084502D01*
X136310185Y-93017463D01*
X136362989Y-92971708D01*
X136432147Y-92961764D01*
X136483391Y-92981400D01*
X136522369Y-93007444D01*
X136522381Y-93007451D01*
X136694350Y-93078682D01*
X136694355Y-93078683D01*
X136720000Y-93083784D01*
X136720000Y-92214728D01*
X136758060Y-92306614D01*
X136828386Y-92376940D01*
X136920272Y-92415000D01*
X137019728Y-92415000D01*
X137111614Y-92376940D01*
X137181940Y-92306614D01*
X137220000Y-92214728D01*
X137220000Y-93083783D01*
X137245644Y-93078683D01*
X137245649Y-93078682D01*
X137417618Y-93007451D01*
X137417631Y-93007444D01*
X137572401Y-92904029D01*
X137572405Y-92904026D01*
X137704026Y-92772405D01*
X137704029Y-92772401D01*
X137807444Y-92617631D01*
X137807449Y-92617622D01*
X137878683Y-92445646D01*
X137878685Y-92445638D01*
X137914999Y-92263078D01*
X137915000Y-92263076D01*
X137915000Y-92090000D01*
X137220000Y-92090000D01*
X137220000Y-91590000D01*
X137915000Y-91590000D01*
X137915000Y-91416923D01*
X137914999Y-91416921D01*
X137878685Y-91234361D01*
X137878683Y-91234353D01*
X137807449Y-91062377D01*
X137807444Y-91062368D01*
X137704029Y-90907598D01*
X137704026Y-90907594D01*
X137588613Y-90792181D01*
X137555128Y-90730858D01*
X137560112Y-90661166D01*
X137601984Y-90605233D01*
X137667448Y-90580816D01*
X137676294Y-90580500D01*
X143263706Y-90580500D01*
X143330745Y-90600185D01*
G37*
%TD.AperFunction*%
%TD*%
D16*
X145000000Y-99000000D03*
X156410000Y-105790000D03*
X154442861Y-94585754D03*
X155600000Y-110190000D03*
D17*
X152990000Y-99910000D03*
D16*
X150000000Y-97000000D03*
D17*
X157690000Y-94980000D03*
D16*
X138180000Y-105180000D03*
X145830000Y-106430000D03*
D17*
X157810000Y-99840000D03*
D16*
X154380000Y-103070000D03*
D17*
X152960000Y-98730000D03*
X155332500Y-92280000D03*
D16*
X161700000Y-98300000D03*
X147000000Y-93000000D03*
X161000000Y-106000000D03*
D17*
X153500000Y-104090000D03*
X155260000Y-97270000D03*
X140120000Y-99490000D03*
X160260000Y-102320000D03*
X139970000Y-98730000D03*
X160875000Y-101080000D03*
X157200000Y-96515000D03*
X162190000Y-106460000D03*
D18*
X143970000Y-91840000D03*
D19*
X142970000Y-94540000D03*
X137970000Y-94540000D03*
D18*
X136970000Y-91840000D03*
M02*
