%TF.GenerationSoftware,KiCad,Pcbnew,8.0.6*%
%TF.CreationDate,2025-02-20T11:34:02+01:00*%
%TF.ProjectId,wled usermod,776c6564-2075-4736-9572-6d6f642e6b69,rev?*%
%TF.SameCoordinates,Original*%
%TF.FileFunction,Legend,Bot*%
%TF.FilePolarity,Positive*%
%FSLAX46Y46*%
G04 Gerber Fmt 4.6, Leading zero omitted, Abs format (unit mm)*
G04 Created by KiCad (PCBNEW 8.0.6) date 2025-02-20 11:34:02*
%MOMM*%
%LPD*%
G01*
G04 APERTURE LIST*
%ADD10C,0.500000*%
%ADD11C,0.250000*%
%ADD12C,0.000000*%
%ADD13O,0.500000X1.150000*%
%ADD14O,0.850000X0.550000*%
G04 APERTURE END LIST*
D10*
X163140576Y-107339238D02*
X161997719Y-107339238D01*
X162569148Y-109339238D02*
X162569148Y-107339238D01*
X161331052Y-109339238D02*
X161331052Y-107339238D01*
X160473909Y-109339238D02*
X160473909Y-108291619D01*
X160473909Y-108291619D02*
X160569147Y-108101142D01*
X160569147Y-108101142D02*
X160759623Y-108005904D01*
X160759623Y-108005904D02*
X161045338Y-108005904D01*
X161045338Y-108005904D02*
X161235814Y-108101142D01*
X161235814Y-108101142D02*
X161331052Y-108196380D01*
X159235814Y-109339238D02*
X159426290Y-109244000D01*
X159426290Y-109244000D02*
X159521528Y-109148761D01*
X159521528Y-109148761D02*
X159616766Y-108958285D01*
X159616766Y-108958285D02*
X159616766Y-108386857D01*
X159616766Y-108386857D02*
X159521528Y-108196380D01*
X159521528Y-108196380D02*
X159426290Y-108101142D01*
X159426290Y-108101142D02*
X159235814Y-108005904D01*
X159235814Y-108005904D02*
X158950099Y-108005904D01*
X158950099Y-108005904D02*
X158759623Y-108101142D01*
X158759623Y-108101142D02*
X158664385Y-108196380D01*
X158664385Y-108196380D02*
X158569147Y-108386857D01*
X158569147Y-108386857D02*
X158569147Y-108958285D01*
X158569147Y-108958285D02*
X158664385Y-109148761D01*
X158664385Y-109148761D02*
X158759623Y-109244000D01*
X158759623Y-109244000D02*
X158950099Y-109339238D01*
X158950099Y-109339238D02*
X159235814Y-109339238D01*
X157712004Y-109339238D02*
X157712004Y-108005904D01*
X157712004Y-108386857D02*
X157616766Y-108196380D01*
X157616766Y-108196380D02*
X157521528Y-108101142D01*
X157521528Y-108101142D02*
X157331052Y-108005904D01*
X157331052Y-108005904D02*
X157140575Y-108005904D01*
X156473909Y-109339238D02*
X156473909Y-108005904D01*
X156473909Y-108386857D02*
X156378671Y-108196380D01*
X156378671Y-108196380D02*
X156283433Y-108101142D01*
X156283433Y-108101142D02*
X156092957Y-108005904D01*
X156092957Y-108005904D02*
X155902480Y-108005904D01*
X154569147Y-108291619D02*
X155235814Y-108291619D01*
X155235814Y-109339238D02*
X155235814Y-107339238D01*
X155235814Y-107339238D02*
X154283433Y-107339238D01*
X153521528Y-109339238D02*
X153521528Y-107339238D01*
X153521528Y-107339238D02*
X152759623Y-107339238D01*
X152759623Y-107339238D02*
X152569147Y-107434476D01*
X152569147Y-107434476D02*
X152473909Y-107529714D01*
X152473909Y-107529714D02*
X152378671Y-107720190D01*
X152378671Y-107720190D02*
X152378671Y-108005904D01*
X152378671Y-108005904D02*
X152473909Y-108196380D01*
X152473909Y-108196380D02*
X152569147Y-108291619D01*
X152569147Y-108291619D02*
X152759623Y-108386857D01*
X152759623Y-108386857D02*
X153521528Y-108386857D01*
X151807242Y-107339238D02*
X151140576Y-109339238D01*
X151140576Y-109339238D02*
X150473909Y-107339238D01*
D11*
X139042944Y-104665050D02*
X138995324Y-104522193D01*
X138995324Y-104522193D02*
X138995324Y-104284098D01*
X138995324Y-104284098D02*
X139042944Y-104188860D01*
X139042944Y-104188860D02*
X139090563Y-104141241D01*
X139090563Y-104141241D02*
X139185801Y-104093622D01*
X139185801Y-104093622D02*
X139281039Y-104093622D01*
X139281039Y-104093622D02*
X139376277Y-104141241D01*
X139376277Y-104141241D02*
X139423896Y-104188860D01*
X139423896Y-104188860D02*
X139471515Y-104284098D01*
X139471515Y-104284098D02*
X139519134Y-104474574D01*
X139519134Y-104474574D02*
X139566753Y-104569812D01*
X139566753Y-104569812D02*
X139614372Y-104617431D01*
X139614372Y-104617431D02*
X139709610Y-104665050D01*
X139709610Y-104665050D02*
X139804848Y-104665050D01*
X139804848Y-104665050D02*
X139900086Y-104617431D01*
X139900086Y-104617431D02*
X139947705Y-104569812D01*
X139947705Y-104569812D02*
X139995324Y-104474574D01*
X139995324Y-104474574D02*
X139995324Y-104236479D01*
X139995324Y-104236479D02*
X139947705Y-104093622D01*
X138995324Y-103665050D02*
X139995324Y-103665050D01*
X139995324Y-103665050D02*
X139995324Y-103284098D01*
X139995324Y-103284098D02*
X139947705Y-103188860D01*
X139947705Y-103188860D02*
X139900086Y-103141241D01*
X139900086Y-103141241D02*
X139804848Y-103093622D01*
X139804848Y-103093622D02*
X139661991Y-103093622D01*
X139661991Y-103093622D02*
X139566753Y-103141241D01*
X139566753Y-103141241D02*
X139519134Y-103188860D01*
X139519134Y-103188860D02*
X139471515Y-103284098D01*
X139471515Y-103284098D02*
X139471515Y-103665050D01*
X139519134Y-102665050D02*
X139519134Y-102331717D01*
X138995324Y-102188860D02*
X138995324Y-102665050D01*
X138995324Y-102665050D02*
X139995324Y-102665050D01*
X139995324Y-102665050D02*
X139995324Y-102188860D01*
X139090563Y-101188860D02*
X139042944Y-101236479D01*
X139042944Y-101236479D02*
X138995324Y-101379336D01*
X138995324Y-101379336D02*
X138995324Y-101474574D01*
X138995324Y-101474574D02*
X139042944Y-101617431D01*
X139042944Y-101617431D02*
X139138182Y-101712669D01*
X139138182Y-101712669D02*
X139233420Y-101760288D01*
X139233420Y-101760288D02*
X139423896Y-101807907D01*
X139423896Y-101807907D02*
X139566753Y-101807907D01*
X139566753Y-101807907D02*
X139757229Y-101760288D01*
X139757229Y-101760288D02*
X139852467Y-101712669D01*
X139852467Y-101712669D02*
X139947705Y-101617431D01*
X139947705Y-101617431D02*
X139995324Y-101474574D01*
X139995324Y-101474574D02*
X139995324Y-101379336D01*
X139995324Y-101379336D02*
X139947705Y-101236479D01*
X139947705Y-101236479D02*
X139900086Y-101188860D01*
X139995324Y-100855526D02*
X139995324Y-100188860D01*
X139995324Y-100188860D02*
X138995324Y-100617431D01*
X138052047Y-104712669D02*
X137385380Y-104522193D01*
X137385380Y-104522193D02*
X137861571Y-104331717D01*
X137861571Y-104331717D02*
X137385380Y-104141241D01*
X137385380Y-104141241D02*
X138052047Y-103950765D01*
X137385380Y-103426955D02*
X137433000Y-103522193D01*
X137433000Y-103522193D02*
X137528238Y-103569812D01*
X137528238Y-103569812D02*
X138385380Y-103569812D01*
X137433000Y-102665050D02*
X137385380Y-102760288D01*
X137385380Y-102760288D02*
X137385380Y-102950764D01*
X137385380Y-102950764D02*
X137433000Y-103046002D01*
X137433000Y-103046002D02*
X137528238Y-103093621D01*
X137528238Y-103093621D02*
X137909190Y-103093621D01*
X137909190Y-103093621D02*
X138004428Y-103046002D01*
X138004428Y-103046002D02*
X138052047Y-102950764D01*
X138052047Y-102950764D02*
X138052047Y-102760288D01*
X138052047Y-102760288D02*
X138004428Y-102665050D01*
X138004428Y-102665050D02*
X137909190Y-102617431D01*
X137909190Y-102617431D02*
X137813952Y-102617431D01*
X137813952Y-102617431D02*
X137718714Y-103093621D01*
X137385380Y-101760288D02*
X138385380Y-101760288D01*
X137433000Y-101760288D02*
X137385380Y-101855526D01*
X137385380Y-101855526D02*
X137385380Y-102046002D01*
X137385380Y-102046002D02*
X137433000Y-102141240D01*
X137433000Y-102141240D02*
X137480619Y-102188859D01*
X137480619Y-102188859D02*
X137575857Y-102236478D01*
X137575857Y-102236478D02*
X137861571Y-102236478D01*
X137861571Y-102236478D02*
X137956809Y-102188859D01*
X137956809Y-102188859D02*
X138004428Y-102141240D01*
X138004428Y-102141240D02*
X138052047Y-102046002D01*
X138052047Y-102046002D02*
X138052047Y-101855526D01*
X138052047Y-101855526D02*
X138004428Y-101760288D01*
X137385380Y-100522192D02*
X138385380Y-100522192D01*
X138004428Y-100522192D02*
X138052047Y-100426954D01*
X138052047Y-100426954D02*
X138052047Y-100236478D01*
X138052047Y-100236478D02*
X138004428Y-100141240D01*
X138004428Y-100141240D02*
X137956809Y-100093621D01*
X137956809Y-100093621D02*
X137861571Y-100046002D01*
X137861571Y-100046002D02*
X137575857Y-100046002D01*
X137575857Y-100046002D02*
X137480619Y-100093621D01*
X137480619Y-100093621D02*
X137433000Y-100141240D01*
X137433000Y-100141240D02*
X137385380Y-100236478D01*
X137385380Y-100236478D02*
X137385380Y-100426954D01*
X137385380Y-100426954D02*
X137433000Y-100522192D01*
X137385380Y-99474573D02*
X137433000Y-99569811D01*
X137433000Y-99569811D02*
X137480619Y-99617430D01*
X137480619Y-99617430D02*
X137575857Y-99665049D01*
X137575857Y-99665049D02*
X137861571Y-99665049D01*
X137861571Y-99665049D02*
X137956809Y-99617430D01*
X137956809Y-99617430D02*
X138004428Y-99569811D01*
X138004428Y-99569811D02*
X138052047Y-99474573D01*
X138052047Y-99474573D02*
X138052047Y-99331716D01*
X138052047Y-99331716D02*
X138004428Y-99236478D01*
X138004428Y-99236478D02*
X137956809Y-99188859D01*
X137956809Y-99188859D02*
X137861571Y-99141240D01*
X137861571Y-99141240D02*
X137575857Y-99141240D01*
X137575857Y-99141240D02*
X137480619Y-99188859D01*
X137480619Y-99188859D02*
X137433000Y-99236478D01*
X137433000Y-99236478D02*
X137385380Y-99331716D01*
X137385380Y-99331716D02*
X137385380Y-99474573D01*
X137385380Y-98284097D02*
X137909190Y-98284097D01*
X137909190Y-98284097D02*
X138004428Y-98331716D01*
X138004428Y-98331716D02*
X138052047Y-98426954D01*
X138052047Y-98426954D02*
X138052047Y-98617430D01*
X138052047Y-98617430D02*
X138004428Y-98712668D01*
X137433000Y-98284097D02*
X137385380Y-98379335D01*
X137385380Y-98379335D02*
X137385380Y-98617430D01*
X137385380Y-98617430D02*
X137433000Y-98712668D01*
X137433000Y-98712668D02*
X137528238Y-98760287D01*
X137528238Y-98760287D02*
X137623476Y-98760287D01*
X137623476Y-98760287D02*
X137718714Y-98712668D01*
X137718714Y-98712668D02*
X137766333Y-98617430D01*
X137766333Y-98617430D02*
X137766333Y-98379335D01*
X137766333Y-98379335D02*
X137813952Y-98284097D01*
X137385380Y-97807906D02*
X138052047Y-97807906D01*
X137861571Y-97807906D02*
X137956809Y-97760287D01*
X137956809Y-97760287D02*
X138004428Y-97712668D01*
X138004428Y-97712668D02*
X138052047Y-97617430D01*
X138052047Y-97617430D02*
X138052047Y-97522192D01*
X137385380Y-96760287D02*
X138385380Y-96760287D01*
X137433000Y-96760287D02*
X137385380Y-96855525D01*
X137385380Y-96855525D02*
X137385380Y-97046001D01*
X137385380Y-97046001D02*
X137433000Y-97141239D01*
X137433000Y-97141239D02*
X137480619Y-97188858D01*
X137480619Y-97188858D02*
X137575857Y-97236477D01*
X137575857Y-97236477D02*
X137861571Y-97236477D01*
X137861571Y-97236477D02*
X137956809Y-97188858D01*
X137956809Y-97188858D02*
X138004428Y-97141239D01*
X138004428Y-97141239D02*
X138052047Y-97046001D01*
X138052047Y-97046001D02*
X138052047Y-96855525D01*
X138052047Y-96855525D02*
X138004428Y-96760287D01*
D12*
%TO.C,G\u002A\u002A\u002A*%
G36*
X144724487Y-93558097D02*
G01*
X144724487Y-93646653D01*
X144635931Y-93646653D01*
X144547375Y-93646653D01*
X144547375Y-93558097D01*
X144547375Y-93469540D01*
X144635931Y-93469540D01*
X144724487Y-93469540D01*
X144724487Y-93558097D01*
G37*
G36*
X161367843Y-94355102D02*
G01*
X161367843Y-94886439D01*
X161190730Y-94886439D01*
X161013618Y-94886439D01*
X161013618Y-94355102D01*
X161013618Y-93823765D01*
X161190730Y-93823765D01*
X161367843Y-93823765D01*
X161367843Y-94355102D01*
G37*
G36*
X145078712Y-93735209D02*
G01*
X145078712Y-93823765D01*
X145167268Y-93823765D01*
X145255825Y-93823765D01*
X145255825Y-93912321D01*
X145255825Y-94000878D01*
X145344381Y-94000878D01*
X145432937Y-94000878D01*
X145432937Y-94089434D01*
X145432937Y-94177990D01*
X145344381Y-94177990D01*
X145255825Y-94177990D01*
X145255825Y-94266546D01*
X145255825Y-94355102D01*
X145167268Y-94355102D01*
X145078712Y-94355102D01*
X145078712Y-94266546D01*
X145078712Y-94177990D01*
X144990156Y-94177990D01*
X144901600Y-94177990D01*
X144901600Y-94266546D01*
X144901600Y-94355102D01*
X144813044Y-94355102D01*
X144724487Y-94355102D01*
X144724487Y-94266546D01*
X144724487Y-94177990D01*
X144635931Y-94177990D01*
X144547375Y-94177990D01*
X144547375Y-94089434D01*
X144547375Y-94000878D01*
X144635931Y-94000878D01*
X144724487Y-94000878D01*
X144724487Y-93912321D01*
X144724487Y-93823765D01*
X144813044Y-93823765D01*
X144901600Y-93823765D01*
X144901600Y-93735209D01*
X144901600Y-93646653D01*
X144990156Y-93646653D01*
X145078712Y-93646653D01*
X145078712Y-93735209D01*
G37*
G36*
X163493191Y-93735209D02*
G01*
X163493191Y-93823765D01*
X163581748Y-93823765D01*
X163670304Y-93823765D01*
X163670304Y-93912321D01*
X163670304Y-94000878D01*
X163758860Y-94000878D01*
X163847416Y-94000878D01*
X163847416Y-94089434D01*
X163847416Y-94177990D01*
X163758860Y-94177990D01*
X163670304Y-94177990D01*
X163670304Y-94266546D01*
X163670304Y-94355102D01*
X163581748Y-94355102D01*
X163493191Y-94355102D01*
X163493191Y-94266546D01*
X163493191Y-94177990D01*
X163404635Y-94177990D01*
X163316079Y-94177990D01*
X163316079Y-94266546D01*
X163316079Y-94355102D01*
X163227523Y-94355102D01*
X163138967Y-94355102D01*
X163138967Y-94266546D01*
X163138967Y-94177990D01*
X163050410Y-94177990D01*
X162961854Y-94177990D01*
X162961854Y-94089434D01*
X162961854Y-94000878D01*
X163050410Y-94000878D01*
X163138967Y-94000878D01*
X163138967Y-93912321D01*
X163138967Y-93823765D01*
X163227523Y-93823765D01*
X163316079Y-93823765D01*
X163316079Y-93735209D01*
X163316079Y-93646653D01*
X163404635Y-93646653D01*
X163493191Y-93646653D01*
X163493191Y-93735209D01*
G37*
G36*
X147912510Y-91167079D02*
G01*
X147912510Y-91344192D01*
X148001067Y-91344192D01*
X148089623Y-91344192D01*
X148089623Y-91432748D01*
X148089623Y-91521304D01*
X148178179Y-91521304D01*
X148266735Y-91521304D01*
X148266735Y-91964085D01*
X148266735Y-92406866D01*
X148178179Y-92406866D01*
X148089623Y-92406866D01*
X148089623Y-92495422D01*
X148089623Y-92583978D01*
X148532404Y-92583978D01*
X148975185Y-92583978D01*
X148975185Y-92495422D01*
X148975185Y-92406866D01*
X149063741Y-92406866D01*
X149152297Y-92406866D01*
X149152297Y-92318310D01*
X149152297Y-92229754D01*
X149240853Y-92229754D01*
X149329410Y-92229754D01*
X149329410Y-92141197D01*
X149329410Y-92052641D01*
X149240853Y-92052641D01*
X149152297Y-92052641D01*
X149152297Y-91964085D01*
X149152297Y-91875529D01*
X149329410Y-91875529D01*
X149506522Y-91875529D01*
X149506522Y-91964085D01*
X149506522Y-92052641D01*
X149683634Y-92052641D01*
X149860747Y-92052641D01*
X149860747Y-91964085D01*
X149860747Y-91875529D01*
X150037859Y-91875529D01*
X150214971Y-91875529D01*
X150214971Y-91964085D01*
X150214971Y-92052641D01*
X150126415Y-92052641D01*
X150037859Y-92052641D01*
X150037859Y-92141197D01*
X150037859Y-92229754D01*
X150126415Y-92229754D01*
X150214971Y-92229754D01*
X150214971Y-92318310D01*
X150214971Y-92406866D01*
X150303528Y-92406866D01*
X150392084Y-92406866D01*
X150392084Y-92495422D01*
X150392084Y-92583978D01*
X150480640Y-92583978D01*
X150569196Y-92583978D01*
X150569196Y-92761091D01*
X150569196Y-92938203D01*
X150657752Y-92938203D01*
X150746309Y-92938203D01*
X150746309Y-91964085D01*
X150746309Y-90989967D01*
X150923421Y-90989967D01*
X151100533Y-90989967D01*
X151100533Y-91964085D01*
X151100533Y-92938203D01*
X151277646Y-92938203D01*
X151454758Y-92938203D01*
X151454758Y-92141197D01*
X151454758Y-91344192D01*
X151631871Y-91344192D01*
X151808983Y-91344192D01*
X151808983Y-92141197D01*
X151808983Y-92938203D01*
X151897539Y-92938203D01*
X151986095Y-92938203D01*
X151986095Y-92761091D01*
X151986095Y-92583978D01*
X152074652Y-92583978D01*
X152163208Y-92583978D01*
X152163208Y-92495422D01*
X152163208Y-92406866D01*
X152251764Y-92406866D01*
X152340320Y-92406866D01*
X152340320Y-92318310D01*
X152340320Y-92229754D01*
X152428876Y-92229754D01*
X152517433Y-92229754D01*
X152517433Y-92141197D01*
X152517433Y-92052641D01*
X152428876Y-92052641D01*
X152340320Y-92052641D01*
X152340320Y-91964085D01*
X152340320Y-91875529D01*
X152517433Y-91875529D01*
X152694545Y-91875529D01*
X152694545Y-91964085D01*
X152694545Y-92052641D01*
X152871657Y-92052641D01*
X153048770Y-92052641D01*
X153048770Y-91964085D01*
X153048770Y-91875529D01*
X153225882Y-91875529D01*
X153402994Y-91875529D01*
X153402994Y-91964085D01*
X153402994Y-92052641D01*
X153314438Y-92052641D01*
X153225882Y-92052641D01*
X153225882Y-92141197D01*
X153225882Y-92229754D01*
X153314438Y-92229754D01*
X153402994Y-92229754D01*
X153402994Y-92318310D01*
X153402994Y-92406866D01*
X153491551Y-92406866D01*
X153580107Y-92406866D01*
X153580107Y-92495422D01*
X153580107Y-92583978D01*
X153668663Y-92583978D01*
X153757219Y-92583978D01*
X153757219Y-92761091D01*
X153757219Y-92938203D01*
X153845775Y-92938203D01*
X153934332Y-92938203D01*
X153934332Y-91964085D01*
X153934332Y-90989967D01*
X154108839Y-90989967D01*
X154283347Y-90989967D01*
X154283347Y-91964085D01*
X154283347Y-92938203D01*
X154460460Y-92938203D01*
X154637572Y-92938203D01*
X154637572Y-92141197D01*
X154637572Y-91344192D01*
X154814684Y-91344192D01*
X154991797Y-91344192D01*
X154991797Y-92141197D01*
X154991797Y-92938203D01*
X155080353Y-92938203D01*
X155168909Y-92938203D01*
X155168909Y-92761091D01*
X155168909Y-92583978D01*
X155257465Y-92583978D01*
X155346022Y-92583978D01*
X155346022Y-92495422D01*
X155346022Y-92406866D01*
X155434578Y-92406866D01*
X155523134Y-92406866D01*
X155523134Y-92318310D01*
X155523134Y-92229754D01*
X155611690Y-92229754D01*
X155700246Y-92229754D01*
X155700246Y-92141197D01*
X155700246Y-92052641D01*
X155611690Y-92052641D01*
X155523134Y-92052641D01*
X155523134Y-91964085D01*
X155523134Y-91875529D01*
X155700246Y-91875529D01*
X155877359Y-91875529D01*
X155877359Y-91964085D01*
X155877359Y-92052641D01*
X156054471Y-92052641D01*
X156231583Y-92052641D01*
X156231583Y-91964085D01*
X156231583Y-91875529D01*
X156408696Y-91875529D01*
X156585808Y-91875529D01*
X156585808Y-91964085D01*
X156585808Y-92052641D01*
X156497252Y-92052641D01*
X156408696Y-92052641D01*
X156408696Y-92141197D01*
X156408696Y-92229754D01*
X156497252Y-92229754D01*
X156585808Y-92229754D01*
X156585808Y-92318310D01*
X156585808Y-92406866D01*
X156674364Y-92406866D01*
X156762921Y-92406866D01*
X156762921Y-92495422D01*
X156762921Y-92583978D01*
X156851477Y-92583978D01*
X156940033Y-92583978D01*
X156940033Y-92761091D01*
X156940033Y-92938203D01*
X157028589Y-92938203D01*
X157117145Y-92938203D01*
X157117145Y-91964085D01*
X157117145Y-90989967D01*
X157294258Y-90989967D01*
X157471370Y-90989967D01*
X157471370Y-91964085D01*
X157471370Y-92938203D01*
X157648483Y-92938203D01*
X157825595Y-92938203D01*
X157825595Y-92141197D01*
X157825595Y-91344192D01*
X158002707Y-91344192D01*
X158179820Y-91344192D01*
X158179820Y-92141197D01*
X158179820Y-92938203D01*
X158268376Y-92938203D01*
X158356932Y-92938203D01*
X158356932Y-92761091D01*
X158356932Y-92583978D01*
X158445488Y-92583978D01*
X158534044Y-92583978D01*
X158534044Y-92495422D01*
X158534044Y-92406866D01*
X158622601Y-92406866D01*
X158711157Y-92406866D01*
X158711157Y-92318310D01*
X158711157Y-92229754D01*
X158799713Y-92229754D01*
X158888269Y-92229754D01*
X158888269Y-92141197D01*
X158888269Y-92052641D01*
X158799713Y-92052641D01*
X158711157Y-92052641D01*
X158711157Y-91964085D01*
X158711157Y-91875529D01*
X158888269Y-91875529D01*
X159065382Y-91875529D01*
X159065382Y-91964085D01*
X159065382Y-92052641D01*
X159242494Y-92052641D01*
X159419606Y-92052641D01*
X159419606Y-91964085D01*
X159419606Y-91875529D01*
X159596719Y-91875529D01*
X159773831Y-91875529D01*
X159773831Y-91964085D01*
X159773831Y-92052641D01*
X159685275Y-92052641D01*
X159596719Y-92052641D01*
X159596719Y-92141197D01*
X159596719Y-92229754D01*
X159685275Y-92229754D01*
X159773831Y-92229754D01*
X159773831Y-92318310D01*
X159773831Y-92406866D01*
X159862387Y-92406866D01*
X159950944Y-92406866D01*
X159950944Y-92495422D01*
X159950944Y-92583978D01*
X160039500Y-92583978D01*
X160128056Y-92583978D01*
X160128056Y-92761091D01*
X160128056Y-92938203D01*
X160216612Y-92938203D01*
X160305168Y-92938203D01*
X160305168Y-91964085D01*
X160305168Y-90989967D01*
X160482281Y-90989967D01*
X160659393Y-90989967D01*
X160659393Y-91964085D01*
X160659393Y-92938203D01*
X160836506Y-92938203D01*
X161013618Y-92938203D01*
X161013618Y-92141197D01*
X161013618Y-91344192D01*
X161190730Y-91344192D01*
X161367843Y-91344192D01*
X161367843Y-92141197D01*
X161367843Y-92938203D01*
X161456399Y-92938203D01*
X161544955Y-92938203D01*
X161544955Y-92761091D01*
X161544955Y-92583978D01*
X161633511Y-92583978D01*
X161722067Y-92583978D01*
X161722067Y-92495422D01*
X161722067Y-92406866D01*
X161810624Y-92406866D01*
X161899180Y-92406866D01*
X161899180Y-92318310D01*
X161899180Y-92229754D01*
X161987736Y-92229754D01*
X162076292Y-92229754D01*
X162076292Y-92141197D01*
X162076292Y-92052641D01*
X162341961Y-92052641D01*
X162607629Y-92052641D01*
X162607629Y-92141197D01*
X162607629Y-92229754D01*
X162696186Y-92229754D01*
X162784742Y-92229754D01*
X162784742Y-92406866D01*
X162784742Y-92583978D01*
X162873298Y-92583978D01*
X162961854Y-92583978D01*
X162961854Y-92761091D01*
X162961854Y-92938203D01*
X163050410Y-92938203D01*
X163138967Y-92938203D01*
X163138967Y-93026759D01*
X163138967Y-93115316D01*
X163227523Y-93115316D01*
X163316079Y-93115316D01*
X163316079Y-93203872D01*
X163316079Y-93292428D01*
X163493191Y-93292428D01*
X163670304Y-93292428D01*
X163670304Y-93380984D01*
X163670304Y-93469540D01*
X163316079Y-93469540D01*
X162961854Y-93469540D01*
X162961854Y-93380984D01*
X162961854Y-93292428D01*
X162873298Y-93292428D01*
X162784742Y-93292428D01*
X162784742Y-93115316D01*
X162784742Y-92938203D01*
X162696186Y-92938203D01*
X162607629Y-92938203D01*
X162607629Y-92761091D01*
X162607629Y-92583978D01*
X162519073Y-92583978D01*
X162430517Y-92583978D01*
X162430517Y-92495422D01*
X162430517Y-92406866D01*
X162253405Y-92406866D01*
X162076292Y-92406866D01*
X162076292Y-92495422D01*
X162076292Y-92583978D01*
X161987736Y-92583978D01*
X161899180Y-92583978D01*
X161899180Y-92761091D01*
X161899180Y-92938203D01*
X162076292Y-92938203D01*
X162253405Y-92938203D01*
X162253405Y-93115316D01*
X162253405Y-93292428D01*
X162164848Y-93292428D01*
X162076292Y-93292428D01*
X162076292Y-94177990D01*
X162076292Y-95063552D01*
X161987736Y-95063552D01*
X161899180Y-95063552D01*
X161899180Y-95240664D01*
X161899180Y-95417777D01*
X161810624Y-95417777D01*
X161722067Y-95417777D01*
X161722067Y-95506333D01*
X161722067Y-95594889D01*
X161633511Y-95594889D01*
X161544955Y-95594889D01*
X161544955Y-95683445D01*
X161544955Y-95772001D01*
X161367843Y-95772001D01*
X161190730Y-95772001D01*
X161190730Y-95860558D01*
X161190730Y-95949114D01*
X160836506Y-95949114D01*
X160482281Y-95949114D01*
X160482281Y-95860558D01*
X160482281Y-95772001D01*
X160305168Y-95772001D01*
X160128056Y-95772001D01*
X160128056Y-95683445D01*
X160128056Y-95594889D01*
X160039500Y-95594889D01*
X159950944Y-95594889D01*
X159950944Y-95506333D01*
X159950944Y-95417777D01*
X159862387Y-95417777D01*
X159773831Y-95417777D01*
X159773831Y-95240664D01*
X159773831Y-95063552D01*
X159685275Y-95063552D01*
X159596719Y-95063552D01*
X159596719Y-94886439D01*
X159596719Y-94532215D01*
X159950944Y-94532215D01*
X159950944Y-94709327D01*
X159950944Y-94886439D01*
X160128056Y-94886439D01*
X160305168Y-94886439D01*
X160305168Y-95063552D01*
X160305168Y-95240664D01*
X160836506Y-95240664D01*
X161367843Y-95240664D01*
X161367843Y-95063552D01*
X161367843Y-94886439D01*
X161544955Y-94886439D01*
X161722067Y-94886439D01*
X161722067Y-94355102D01*
X161722067Y-93823765D01*
X161544955Y-93823765D01*
X161367843Y-93823765D01*
X161367843Y-93646653D01*
X161367843Y-93469540D01*
X160836506Y-93469540D01*
X160305168Y-93469540D01*
X160305168Y-93646653D01*
X160305168Y-93823765D01*
X160482281Y-93823765D01*
X160659393Y-93823765D01*
X160659393Y-94355102D01*
X160659393Y-94886439D01*
X160482281Y-94886439D01*
X160305168Y-94886439D01*
X160305168Y-94709327D01*
X160305168Y-94532215D01*
X160128056Y-94532215D01*
X159950944Y-94532215D01*
X159596719Y-94532215D01*
X159596719Y-94177990D01*
X159596719Y-93292428D01*
X159508163Y-93292428D01*
X159419606Y-93292428D01*
X159419606Y-93115316D01*
X159419606Y-92938203D01*
X159596719Y-92938203D01*
X159773831Y-92938203D01*
X159773831Y-92761091D01*
X159773831Y-92583978D01*
X159685275Y-92583978D01*
X159596719Y-92583978D01*
X159596719Y-92495422D01*
X159596719Y-92406866D01*
X159508163Y-92406866D01*
X159419606Y-92406866D01*
X159419606Y-92318310D01*
X159419606Y-92229754D01*
X159242494Y-92229754D01*
X159065382Y-92229754D01*
X159065382Y-92318310D01*
X159065382Y-92406866D01*
X158976825Y-92406866D01*
X158888269Y-92406866D01*
X158888269Y-92495422D01*
X158888269Y-92583978D01*
X158799713Y-92583978D01*
X158711157Y-92583978D01*
X158711157Y-92761091D01*
X158711157Y-92938203D01*
X158888269Y-92938203D01*
X159065382Y-92938203D01*
X159065382Y-93115316D01*
X159065382Y-93292428D01*
X158976825Y-93292428D01*
X158888269Y-93292428D01*
X158888269Y-94177990D01*
X158888269Y-95063552D01*
X158799713Y-95063552D01*
X158711157Y-95063552D01*
X158711157Y-95240664D01*
X158711157Y-95417777D01*
X158622601Y-95417777D01*
X158534044Y-95417777D01*
X158534044Y-95506333D01*
X158534044Y-95594889D01*
X158445488Y-95594889D01*
X158356932Y-95594889D01*
X158356932Y-95683445D01*
X158356932Y-95772001D01*
X158179820Y-95772001D01*
X158002707Y-95772001D01*
X158002707Y-95860558D01*
X158002707Y-95949114D01*
X157648483Y-95949114D01*
X157294258Y-95949114D01*
X157294258Y-95860558D01*
X157294258Y-95772001D01*
X157117145Y-95772001D01*
X156940033Y-95772001D01*
X156940033Y-95683445D01*
X156940033Y-95594889D01*
X156851477Y-95594889D01*
X156762921Y-95594889D01*
X156762921Y-95506333D01*
X156762921Y-95417777D01*
X156674364Y-95417777D01*
X156585808Y-95417777D01*
X156585808Y-95240664D01*
X156585808Y-95063552D01*
X156497252Y-95063552D01*
X156408696Y-95063552D01*
X156408696Y-94886439D01*
X156408696Y-94177990D01*
X156408696Y-93823765D01*
X156940033Y-93823765D01*
X156940033Y-94355102D01*
X156940033Y-94886439D01*
X157117145Y-94886439D01*
X157294258Y-94886439D01*
X157294258Y-95063552D01*
X157294258Y-95240664D01*
X157825595Y-95240664D01*
X158356932Y-95240664D01*
X158356932Y-95063552D01*
X158356932Y-94886439D01*
X157825595Y-94886439D01*
X157294258Y-94886439D01*
X157294258Y-94709327D01*
X157294258Y-94532215D01*
X157648483Y-94532215D01*
X158002707Y-94532215D01*
X158002707Y-94355102D01*
X158002707Y-94177990D01*
X157648483Y-94177990D01*
X157294258Y-94177990D01*
X157294258Y-94000878D01*
X157294258Y-93823765D01*
X157825595Y-93823765D01*
X158356932Y-93823765D01*
X158356932Y-93646653D01*
X158356932Y-93469540D01*
X157825595Y-93469540D01*
X157294258Y-93469540D01*
X157294258Y-93646653D01*
X157294258Y-93823765D01*
X157117145Y-93823765D01*
X156940033Y-93823765D01*
X156408696Y-93823765D01*
X156408696Y-93646653D01*
X156408696Y-93292428D01*
X156320140Y-93292428D01*
X156231583Y-93292428D01*
X156231583Y-93115316D01*
X156231583Y-92938203D01*
X156408696Y-92938203D01*
X156585808Y-92938203D01*
X156585808Y-92761091D01*
X156585808Y-92583978D01*
X156497252Y-92583978D01*
X156408696Y-92583978D01*
X156408696Y-92495422D01*
X156408696Y-92406866D01*
X156320140Y-92406866D01*
X156231583Y-92406866D01*
X156231583Y-92318310D01*
X156231583Y-92229754D01*
X156054471Y-92229754D01*
X155877359Y-92229754D01*
X155877359Y-92318310D01*
X155877359Y-92406866D01*
X155788802Y-92406866D01*
X155700246Y-92406866D01*
X155700246Y-92495422D01*
X155700246Y-92583978D01*
X155611690Y-92583978D01*
X155523134Y-92583978D01*
X155523134Y-92761091D01*
X155523134Y-92938203D01*
X155700246Y-92938203D01*
X155877359Y-92938203D01*
X155877359Y-93115316D01*
X155877359Y-93292428D01*
X155788802Y-93292428D01*
X155700246Y-93292428D01*
X155700246Y-94177990D01*
X155700246Y-95063552D01*
X155611690Y-95063552D01*
X155523134Y-95063552D01*
X155523134Y-95240664D01*
X155523134Y-95417777D01*
X155434578Y-95417777D01*
X155346022Y-95417777D01*
X155346022Y-95506333D01*
X155346022Y-95594889D01*
X155257465Y-95594889D01*
X155168909Y-95594889D01*
X155168909Y-95683445D01*
X155168909Y-95772001D01*
X154991797Y-95772001D01*
X154814684Y-95772001D01*
X154814684Y-95860558D01*
X154814684Y-95949114D01*
X154463064Y-95949114D01*
X154111444Y-95949114D01*
X154111444Y-95860558D01*
X154111444Y-95772001D01*
X153934332Y-95772001D01*
X153757219Y-95772001D01*
X153757219Y-95683445D01*
X153757219Y-95594889D01*
X153668663Y-95594889D01*
X153580107Y-95594889D01*
X153580107Y-95506333D01*
X153580107Y-95417777D01*
X153491551Y-95417777D01*
X153402994Y-95417777D01*
X153402994Y-95240664D01*
X153402994Y-95063552D01*
X153314438Y-95063552D01*
X153225882Y-95063552D01*
X153225882Y-94532215D01*
X153225882Y-94177990D01*
X153225882Y-93823765D01*
X153757219Y-93823765D01*
X153757219Y-94177990D01*
X153757219Y-94532215D01*
X153934332Y-94532215D01*
X154111444Y-94532215D01*
X154111444Y-94886439D01*
X154111444Y-95240664D01*
X154285952Y-95240664D01*
X154460460Y-95240664D01*
X154460460Y-94886439D01*
X154460460Y-94532215D01*
X154285952Y-94532215D01*
X154111444Y-94532215D01*
X154111444Y-94177990D01*
X154111444Y-93823765D01*
X154640177Y-93823765D01*
X155168909Y-93823765D01*
X155168909Y-93646653D01*
X155168909Y-93469540D01*
X154640177Y-93469540D01*
X154111444Y-93469540D01*
X154111444Y-93646653D01*
X154111444Y-93823765D01*
X153934332Y-93823765D01*
X153757219Y-93823765D01*
X153225882Y-93823765D01*
X153225882Y-93646653D01*
X153225882Y-93292428D01*
X153137326Y-93292428D01*
X153048770Y-93292428D01*
X153048770Y-93115316D01*
X153048770Y-92938203D01*
X153225882Y-92938203D01*
X153402994Y-92938203D01*
X153402994Y-92761091D01*
X153402994Y-92583978D01*
X153314438Y-92583978D01*
X153225882Y-92583978D01*
X153225882Y-92495422D01*
X153225882Y-92406866D01*
X153137326Y-92406866D01*
X153048770Y-92406866D01*
X153048770Y-92318310D01*
X153048770Y-92229754D01*
X152871657Y-92229754D01*
X152694545Y-92229754D01*
X152694545Y-92318310D01*
X152694545Y-92406866D01*
X152605989Y-92406866D01*
X152517433Y-92406866D01*
X152517433Y-92495422D01*
X152517433Y-92583978D01*
X152428876Y-92583978D01*
X152340320Y-92583978D01*
X152340320Y-92761091D01*
X152340320Y-92938203D01*
X152517433Y-92938203D01*
X152694545Y-92938203D01*
X152694545Y-93115316D01*
X152694545Y-93292428D01*
X152605989Y-93292428D01*
X152517433Y-93292428D01*
X152517433Y-94177990D01*
X152517433Y-95063552D01*
X152428876Y-95063552D01*
X152340320Y-95063552D01*
X152340320Y-95240664D01*
X152340320Y-95417777D01*
X152251764Y-95417777D01*
X152163208Y-95417777D01*
X152163208Y-95506333D01*
X152163208Y-95594889D01*
X152074652Y-95594889D01*
X151986095Y-95594889D01*
X151986095Y-95683445D01*
X151986095Y-95772001D01*
X151808983Y-95772001D01*
X151631871Y-95772001D01*
X151631871Y-95860558D01*
X151631871Y-95949114D01*
X151277646Y-95949114D01*
X150923421Y-95949114D01*
X150923421Y-95860558D01*
X150923421Y-95772001D01*
X150746309Y-95772001D01*
X150569196Y-95772001D01*
X150569196Y-95683445D01*
X150569196Y-95594889D01*
X150480640Y-95594889D01*
X150392084Y-95594889D01*
X150392084Y-95506333D01*
X150392084Y-95417777D01*
X150303528Y-95417777D01*
X150214971Y-95417777D01*
X150214971Y-95240664D01*
X150214971Y-95063552D01*
X150126415Y-95063552D01*
X150037859Y-95063552D01*
X150037859Y-94886439D01*
X150037859Y-94177990D01*
X150037859Y-93823765D01*
X150392084Y-93823765D01*
X150392084Y-94355102D01*
X150392084Y-94886439D01*
X150569196Y-94886439D01*
X150746309Y-94886439D01*
X150746309Y-95063552D01*
X150746309Y-95240664D01*
X150923421Y-95240664D01*
X151100533Y-95240664D01*
X151454758Y-95240664D01*
X151631871Y-95240664D01*
X151808983Y-95240664D01*
X151808983Y-95063552D01*
X151808983Y-94886439D01*
X151631871Y-94886439D01*
X151454758Y-94886439D01*
X151454758Y-95063552D01*
X151454758Y-95240664D01*
X151100533Y-95240664D01*
X151100533Y-95063552D01*
X151100533Y-94886439D01*
X150923421Y-94886439D01*
X150746309Y-94886439D01*
X150746309Y-94355102D01*
X150746309Y-93823765D01*
X150923421Y-93823765D01*
X151100533Y-93823765D01*
X151100533Y-94177990D01*
X151100533Y-94532215D01*
X151277646Y-94532215D01*
X151454758Y-94532215D01*
X151454758Y-94177990D01*
X151454758Y-93823765D01*
X151631871Y-93823765D01*
X151808983Y-93823765D01*
X151808983Y-94355102D01*
X151808983Y-94886439D01*
X151986095Y-94886439D01*
X152163208Y-94886439D01*
X152163208Y-94355102D01*
X152163208Y-93823765D01*
X151986095Y-93823765D01*
X151808983Y-93823765D01*
X151808983Y-93646653D01*
X151808983Y-93469540D01*
X151631871Y-93469540D01*
X151454758Y-93469540D01*
X151454758Y-93646653D01*
X151454758Y-93823765D01*
X151277646Y-93823765D01*
X151100533Y-93823765D01*
X151100533Y-93646653D01*
X151100533Y-93469540D01*
X150923421Y-93469540D01*
X150746309Y-93469540D01*
X150746309Y-93646653D01*
X150746309Y-93823765D01*
X150569196Y-93823765D01*
X150392084Y-93823765D01*
X150037859Y-93823765D01*
X150037859Y-93292428D01*
X149949303Y-93292428D01*
X149860747Y-93292428D01*
X149860747Y-93115316D01*
X149860747Y-92938203D01*
X150037859Y-92938203D01*
X150214971Y-92938203D01*
X150214971Y-92761091D01*
X150214971Y-92583978D01*
X150126415Y-92583978D01*
X150037859Y-92583978D01*
X150037859Y-92495422D01*
X150037859Y-92406866D01*
X149949303Y-92406866D01*
X149860747Y-92406866D01*
X149860747Y-92318310D01*
X149860747Y-92229754D01*
X149683634Y-92229754D01*
X149506522Y-92229754D01*
X149506522Y-92318310D01*
X149506522Y-92406866D01*
X149417966Y-92406866D01*
X149329410Y-92406866D01*
X149329410Y-94266546D01*
X149329410Y-96126226D01*
X149240853Y-96126226D01*
X149152297Y-96126226D01*
X149152297Y-96214782D01*
X149152297Y-96303339D01*
X149063741Y-96303339D01*
X148975185Y-96303339D01*
X148975185Y-95949114D01*
X148975185Y-95594889D01*
X148886629Y-95594889D01*
X148798072Y-95594889D01*
X148798072Y-95860558D01*
X148798072Y-96126226D01*
X148709516Y-96126226D01*
X148620960Y-96126226D01*
X148620960Y-95949114D01*
X148620960Y-95772001D01*
X148355291Y-95772001D01*
X148089623Y-95772001D01*
X148089623Y-95949114D01*
X148089623Y-96126226D01*
X148001067Y-96126226D01*
X147912510Y-96126226D01*
X147912510Y-95949114D01*
X147912510Y-95772001D01*
X147646842Y-95772001D01*
X147381173Y-95772001D01*
X147381173Y-95949114D01*
X147381173Y-96126226D01*
X147292617Y-96126226D01*
X147204061Y-96126226D01*
X147204061Y-95860558D01*
X147204061Y-95594889D01*
X147115505Y-95594889D01*
X147026949Y-95594889D01*
X147026949Y-95860558D01*
X147026949Y-96126226D01*
X146938392Y-96126226D01*
X146849836Y-96126226D01*
X146849836Y-95860558D01*
X146849836Y-95594889D01*
X146761280Y-95594889D01*
X146672724Y-95594889D01*
X146672724Y-95949114D01*
X146672724Y-96303339D01*
X147115505Y-96303339D01*
X147558286Y-96303339D01*
X147558286Y-96126226D01*
X147558286Y-95949114D01*
X147646842Y-95949114D01*
X147735398Y-95949114D01*
X147735398Y-96126226D01*
X147735398Y-96303339D01*
X148001067Y-96303339D01*
X148266735Y-96303339D01*
X148266735Y-96126226D01*
X148266735Y-95949114D01*
X148355291Y-95949114D01*
X148443848Y-95949114D01*
X148443848Y-96126226D01*
X148443848Y-96303339D01*
X148709516Y-96303339D01*
X148975185Y-96303339D01*
X148975185Y-96391895D01*
X148975185Y-96480451D01*
X147735398Y-96480451D01*
X146495611Y-96480451D01*
X146495611Y-96391895D01*
X146495611Y-96303339D01*
X146407055Y-96303339D01*
X146318499Y-96303339D01*
X146318499Y-96214782D01*
X146318499Y-96126226D01*
X146229943Y-96126226D01*
X146141387Y-96126226D01*
X146141387Y-95063552D01*
X148089623Y-95063552D01*
X148089623Y-95240664D01*
X148443848Y-95240664D01*
X148798072Y-95240664D01*
X148798072Y-95063552D01*
X148798072Y-94886439D01*
X148443848Y-94886439D01*
X148089623Y-94886439D01*
X148089623Y-95063552D01*
X146141387Y-95063552D01*
X146141387Y-94355102D01*
X146141387Y-93823765D01*
X146141387Y-93469540D01*
X146672724Y-93469540D01*
X146672724Y-93646653D01*
X146672724Y-93823765D01*
X147026949Y-93823765D01*
X147381173Y-93823765D01*
X147381173Y-94177990D01*
X147381173Y-94532215D01*
X147558286Y-94532215D01*
X147735398Y-94532215D01*
X147735398Y-94709327D01*
X147735398Y-94886439D01*
X147912510Y-94886439D01*
X148089623Y-94886439D01*
X148089623Y-94532215D01*
X148089623Y-94177990D01*
X147912510Y-94177990D01*
X147735398Y-94177990D01*
X147735398Y-94000878D01*
X147735398Y-93823765D01*
X147558286Y-93823765D01*
X147381173Y-93823765D01*
X147381173Y-93646653D01*
X147381173Y-93469540D01*
X147026949Y-93469540D01*
X146672724Y-93469540D01*
X146141387Y-93469540D01*
X146141387Y-92583978D01*
X146229943Y-92583978D01*
X146318499Y-92583978D01*
X146318499Y-92495422D01*
X146318499Y-92406866D01*
X146141387Y-92406866D01*
X145964274Y-92406866D01*
X145964274Y-92495422D01*
X145964274Y-92583978D01*
X145875718Y-92583978D01*
X145787162Y-92583978D01*
X145787162Y-92761091D01*
X145787162Y-92938203D01*
X145698606Y-92938203D01*
X145610049Y-92938203D01*
X145610049Y-93115316D01*
X145610049Y-93292428D01*
X145521493Y-93292428D01*
X145432937Y-93292428D01*
X145432937Y-93380984D01*
X145432937Y-93469540D01*
X145078712Y-93469540D01*
X144724487Y-93469540D01*
X144724487Y-93380984D01*
X144724487Y-93292428D01*
X144901600Y-93292428D01*
X145078712Y-93292428D01*
X145078712Y-93203872D01*
X145078712Y-93115316D01*
X145167268Y-93115316D01*
X145255825Y-93115316D01*
X145255825Y-93026759D01*
X145255825Y-92938203D01*
X145344381Y-92938203D01*
X145432937Y-92938203D01*
X145432937Y-92761091D01*
X145432937Y-92583978D01*
X145521493Y-92583978D01*
X145610049Y-92583978D01*
X145610049Y-92406866D01*
X145610049Y-92229754D01*
X145698606Y-92229754D01*
X145787162Y-92229754D01*
X145787162Y-92141197D01*
X145787162Y-92052641D01*
X146052830Y-92052641D01*
X146318499Y-92052641D01*
X146318499Y-92141197D01*
X146318499Y-92229754D01*
X146407055Y-92229754D01*
X146495611Y-92229754D01*
X146495611Y-92318310D01*
X146495611Y-92406866D01*
X146584168Y-92406866D01*
X146672724Y-92406866D01*
X146672724Y-92495422D01*
X146672724Y-92583978D01*
X147026949Y-92583978D01*
X147381173Y-92583978D01*
X147381173Y-92495422D01*
X147381173Y-92406866D01*
X147292617Y-92406866D01*
X147204061Y-92406866D01*
X147204061Y-91964085D01*
X147204061Y-91521304D01*
X147292617Y-91521304D01*
X147381173Y-91521304D01*
X147381173Y-91432748D01*
X147381173Y-91344192D01*
X147469729Y-91344192D01*
X147558286Y-91344192D01*
X147558286Y-91167079D01*
X147558286Y-90989967D01*
X147735398Y-90989967D01*
X147912510Y-90989967D01*
X147912510Y-91167079D01*
G37*
G36*
X163758860Y-93469540D02*
G01*
X163847416Y-93469540D01*
X163847416Y-93558097D01*
X163847416Y-93646653D01*
X163758860Y-93646653D01*
X163670304Y-93646653D01*
X163670304Y-93558097D01*
X163670304Y-93469540D01*
X163758860Y-93469540D01*
G37*
%TD*%
D13*
X143970000Y-91840000D03*
D14*
X142970000Y-94540000D03*
X137970000Y-94540000D03*
D13*
X136970000Y-91840000D03*
M02*
