M48
METRIC,TZ
T1C0.200
T2C0.300
T3C0.600
%
G90
G05
T1
X194200Y-84000
X194200Y-85300
X194200Y-86600
X194200Y-87900
X195500Y-84000
X195500Y-85300
X195500Y-86600
X195500Y-87900
T2
X181000Y-82000
X181000Y-82750
X181230Y-72690
X181440Y-86240
X181750Y-82000
X181750Y-82750
X182500Y-82000
X182500Y-82750
X182750Y-87000
X182750Y-87750
X182750Y-88500
X182750Y-89250
X182880Y-71220
X183250Y-82000
X183250Y-82750
X183374Y-76769
X183500Y-87000
X183500Y-87750
X183500Y-88500
X183500Y-89250
X183992Y-74097
X184076Y-76154
X185500Y-87000
X185500Y-87750
X185500Y-88500
X185500Y-89250
X186250Y-87000
X186250Y-87750
X186250Y-88500
X186250Y-89250
X188620Y-77960
X189090Y-76000
X189320Y-70500
X189890Y-79740
X189921Y-80540
X190830Y-82120
X190870Y-82810
X191470Y-82170
X191500Y-82810
X192500Y-79850
X192510Y-79010
X192851Y-74025
X193030Y-78250
X193270Y-79860
X193300Y-79060
X194150Y-79870
X194170Y-79080
X195200Y-75439
X195240Y-71080
X195870Y-81620
X198490Y-75050
X198900Y-77810
X199180Y-80080
X199743Y-81097
X200240Y-89030
X200250Y-74500
X200250Y-75250
X200250Y-76000
X200250Y-76750
X200250Y-77500
X200250Y-78250
X201000Y-74500
X201000Y-75250
X201000Y-76000
X201000Y-76750
X201000Y-77500
X201000Y-78250
X201750Y-74500
X201750Y-75250
X201750Y-76000
X201750Y-76750
X201750Y-77500
X201750Y-78250
X202500Y-74500
X202500Y-75250
X202500Y-76000
X202500Y-76750
X202500Y-77500
X202500Y-78250
X203250Y-74500
X203250Y-75250
X203250Y-76000
X203250Y-76750
X203250Y-77500
X203250Y-78250
X204000Y-74500
X204000Y-75250
X204000Y-76000
X204000Y-76750
X204000Y-77500
X204000Y-78250
X204000Y-83500
X204000Y-84250
X204000Y-85000
X204000Y-85750
X204000Y-86500
X204000Y-87250
X204000Y-88000
X204000Y-88750
X204750Y-74500
X204750Y-75250
X204750Y-76000
X204750Y-76750
X204750Y-77500
X204750Y-78250
X204750Y-83500
X204750Y-84250
X204750Y-85000
X204750Y-85750
X204750Y-86500
X204750Y-87250
X204750Y-88000
X204750Y-88750
X205500Y-74500
X205500Y-75250
X205500Y-76000
X205500Y-76750
X205500Y-77500
X205500Y-78250
X205500Y-83500
X205500Y-84250
X205500Y-85000
X205500Y-85750
X205500Y-86500
X205500Y-87250
X205500Y-88000
X205500Y-88750
X206250Y-74500
X206250Y-75250
X206250Y-76000
X206250Y-76750
X206250Y-77500
X206250Y-78250
X206250Y-83500
X206250Y-84250
X206250Y-85000
X206250Y-85750
X206250Y-86500
X206250Y-87250
X206250Y-88000
X206250Y-88750
X207000Y-70750
X207000Y-71500
X207000Y-72250
X207000Y-73000
X207000Y-73750
X207000Y-74500
X207000Y-75250
X207000Y-76000
X207000Y-76750
X207000Y-77500
X207000Y-78250
X207000Y-79000
X207000Y-79750
X207000Y-80500
X207000Y-81250
X207000Y-82000
X207000Y-82750
X207000Y-83500
X207000Y-84250
X207750Y-70750
X207750Y-71500
X207750Y-72250
X207750Y-73000
X207750Y-73750
X207750Y-74500
X207750Y-75250
X207750Y-76000
X207750Y-76750
X207750Y-77500
X207750Y-78250
X207750Y-79000
X207750Y-79750
X207750Y-80500
X207750Y-81250
X207750Y-82000
X207750Y-82750
X207750Y-83500
X207750Y-84250
X208500Y-70750
X208500Y-71500
X208500Y-72250
X208500Y-73000
X208500Y-73750
X208500Y-74500
X208500Y-75250
X208500Y-76000
X208500Y-76750
X208500Y-77500
X208500Y-78250
X208500Y-79000
X208500Y-79750
X208500Y-80500
X208500Y-81250
X208500Y-82000
X208500Y-82750
X208500Y-83500
X208500Y-84250
X209250Y-70750
X209250Y-71500
X209250Y-72250
X209250Y-73000
X209250Y-73750
X209250Y-74500
X209250Y-75250
X209250Y-76000
X209250Y-76750
X209250Y-77500
X209250Y-78250
X209250Y-79000
X209250Y-79750
X209250Y-80500
X209250Y-81250
X209250Y-82000
X209250Y-82750
X209250Y-83500
X209250Y-84250
T3
G00X182450Y-75430
M15
G01X181150Y-75430
M16
G05
G00X182450Y-84070
M15
G01X181150Y-84070
M16
G05
G00X186125Y-75430
M15
G01X185125Y-75430
M16
G05
G00X186125Y-84070
M15
G01X185125Y-84070
M16
G05
M30
