%TF.GenerationSoftware,KiCad,Pcbnew,8.0.6*%
%TF.CreationDate,2025-02-20T11:34:01+01:00*%
%TF.ProjectId,wled usermod,776c6564-2075-4736-9572-6d6f642e6b69,rev?*%
%TF.SameCoordinates,Original*%
%TF.FileFunction,Legend,Top*%
%TF.FilePolarity,Positive*%
%FSLAX46Y46*%
G04 Gerber Fmt 4.6, Leading zero omitted, Abs format (unit mm)*
G04 Created by KiCad (PCBNEW 8.0.6) date 2025-02-20 11:34:01*
%MOMM*%
%LPD*%
G01*
G04 APERTURE LIST*
%ADD10C,0.125000*%
%ADD11C,0.120000*%
%ADD12C,0.127000*%
%ADD13C,0.200000*%
%ADD14C,0.152400*%
%ADD15C,0.050800*%
%ADD16O,0.500000X1.150000*%
%ADD17O,0.850000X0.550000*%
G04 APERTURE END LIST*
D10*
X161459378Y-108522309D02*
X161221283Y-108522309D01*
X161221283Y-108522309D02*
X161221283Y-108022309D01*
X161626045Y-108260404D02*
X161792712Y-108260404D01*
X161864140Y-108522309D02*
X161626045Y-108522309D01*
X161626045Y-108522309D02*
X161626045Y-108022309D01*
X161626045Y-108022309D02*
X161864140Y-108022309D01*
X162078426Y-108522309D02*
X162078426Y-108022309D01*
X162078426Y-108022309D02*
X162197474Y-108022309D01*
X162197474Y-108022309D02*
X162268902Y-108046119D01*
X162268902Y-108046119D02*
X162316521Y-108093738D01*
X162316521Y-108093738D02*
X162340331Y-108141357D01*
X162340331Y-108141357D02*
X162364140Y-108236595D01*
X162364140Y-108236595D02*
X162364140Y-108308023D01*
X162364140Y-108308023D02*
X162340331Y-108403261D01*
X162340331Y-108403261D02*
X162316521Y-108450880D01*
X162316521Y-108450880D02*
X162268902Y-108498500D01*
X162268902Y-108498500D02*
X162197474Y-108522309D01*
X162197474Y-108522309D02*
X162078426Y-108522309D01*
X137613188Y-102826119D02*
X137565569Y-102802309D01*
X137565569Y-102802309D02*
X137494140Y-102802309D01*
X137494140Y-102802309D02*
X137422712Y-102826119D01*
X137422712Y-102826119D02*
X137375093Y-102873738D01*
X137375093Y-102873738D02*
X137351283Y-102921357D01*
X137351283Y-102921357D02*
X137327474Y-103016595D01*
X137327474Y-103016595D02*
X137327474Y-103088023D01*
X137327474Y-103088023D02*
X137351283Y-103183261D01*
X137351283Y-103183261D02*
X137375093Y-103230880D01*
X137375093Y-103230880D02*
X137422712Y-103278500D01*
X137422712Y-103278500D02*
X137494140Y-103302309D01*
X137494140Y-103302309D02*
X137541759Y-103302309D01*
X137541759Y-103302309D02*
X137613188Y-103278500D01*
X137613188Y-103278500D02*
X137636997Y-103254690D01*
X137636997Y-103254690D02*
X137636997Y-103088023D01*
X137636997Y-103088023D02*
X137541759Y-103088023D01*
X161775569Y-109028976D02*
X161775569Y-109362309D01*
X161656521Y-108838500D02*
X161537474Y-109195642D01*
X161537474Y-109195642D02*
X161846997Y-109195642D01*
X140039378Y-107632309D02*
X139801283Y-107632309D01*
X139801283Y-107632309D02*
X139777474Y-107870404D01*
X139777474Y-107870404D02*
X139801283Y-107846595D01*
X139801283Y-107846595D02*
X139848902Y-107822785D01*
X139848902Y-107822785D02*
X139967950Y-107822785D01*
X139967950Y-107822785D02*
X140015569Y-107846595D01*
X140015569Y-107846595D02*
X140039378Y-107870404D01*
X140039378Y-107870404D02*
X140063188Y-107918023D01*
X140063188Y-107918023D02*
X140063188Y-108037071D01*
X140063188Y-108037071D02*
X140039378Y-108084690D01*
X140039378Y-108084690D02*
X140015569Y-108108500D01*
X140015569Y-108108500D02*
X139967950Y-108132309D01*
X139967950Y-108132309D02*
X139848902Y-108132309D01*
X139848902Y-108132309D02*
X139801283Y-108108500D01*
X139801283Y-108108500D02*
X139777474Y-108084690D01*
X140206045Y-107632309D02*
X140372711Y-108132309D01*
X140372711Y-108132309D02*
X140539378Y-107632309D01*
X137693188Y-105486119D02*
X137645569Y-105462309D01*
X137645569Y-105462309D02*
X137574140Y-105462309D01*
X137574140Y-105462309D02*
X137502712Y-105486119D01*
X137502712Y-105486119D02*
X137455093Y-105533738D01*
X137455093Y-105533738D02*
X137431283Y-105581357D01*
X137431283Y-105581357D02*
X137407474Y-105676595D01*
X137407474Y-105676595D02*
X137407474Y-105748023D01*
X137407474Y-105748023D02*
X137431283Y-105843261D01*
X137431283Y-105843261D02*
X137455093Y-105890880D01*
X137455093Y-105890880D02*
X137502712Y-105938500D01*
X137502712Y-105938500D02*
X137574140Y-105962309D01*
X137574140Y-105962309D02*
X137621759Y-105962309D01*
X137621759Y-105962309D02*
X137693188Y-105938500D01*
X137693188Y-105938500D02*
X137716997Y-105914690D01*
X137716997Y-105914690D02*
X137716997Y-105748023D01*
X137716997Y-105748023D02*
X137621759Y-105748023D01*
X160921283Y-107472309D02*
X160921283Y-106972309D01*
X160921283Y-106972309D02*
X161111759Y-106972309D01*
X161111759Y-106972309D02*
X161159378Y-106996119D01*
X161159378Y-106996119D02*
X161183188Y-107019928D01*
X161183188Y-107019928D02*
X161206997Y-107067547D01*
X161206997Y-107067547D02*
X161206997Y-107138976D01*
X161206997Y-107138976D02*
X161183188Y-107186595D01*
X161183188Y-107186595D02*
X161159378Y-107210404D01*
X161159378Y-107210404D02*
X161111759Y-107234214D01*
X161111759Y-107234214D02*
X160921283Y-107234214D01*
X161373664Y-106972309D02*
X161492712Y-107472309D01*
X161492712Y-107472309D02*
X161587950Y-107115166D01*
X161587950Y-107115166D02*
X161683188Y-107472309D01*
X161683188Y-107472309D02*
X161802236Y-106972309D01*
X161992712Y-107472309D02*
X161992712Y-106972309D01*
X161992712Y-106972309D02*
X162159379Y-107329452D01*
X162159379Y-107329452D02*
X162326045Y-106972309D01*
X162326045Y-106972309D02*
X162326045Y-107472309D01*
X137177950Y-108090404D02*
X137249378Y-108114214D01*
X137249378Y-108114214D02*
X137273188Y-108138023D01*
X137273188Y-108138023D02*
X137296997Y-108185642D01*
X137296997Y-108185642D02*
X137296997Y-108257071D01*
X137296997Y-108257071D02*
X137273188Y-108304690D01*
X137273188Y-108304690D02*
X137249378Y-108328500D01*
X137249378Y-108328500D02*
X137201759Y-108352309D01*
X137201759Y-108352309D02*
X137011283Y-108352309D01*
X137011283Y-108352309D02*
X137011283Y-107852309D01*
X137011283Y-107852309D02*
X137177950Y-107852309D01*
X137177950Y-107852309D02*
X137225569Y-107876119D01*
X137225569Y-107876119D02*
X137249378Y-107899928D01*
X137249378Y-107899928D02*
X137273188Y-107947547D01*
X137273188Y-107947547D02*
X137273188Y-107995166D01*
X137273188Y-107995166D02*
X137249378Y-108042785D01*
X137249378Y-108042785D02*
X137225569Y-108066595D01*
X137225569Y-108066595D02*
X137177950Y-108090404D01*
X137177950Y-108090404D02*
X137011283Y-108090404D01*
X137487474Y-108209452D02*
X137725569Y-108209452D01*
X137439855Y-108352309D02*
X137606521Y-107852309D01*
X137606521Y-107852309D02*
X137773188Y-108352309D01*
X137868426Y-107852309D02*
X138154140Y-107852309D01*
X138011283Y-108352309D02*
X138011283Y-107852309D01*
X162715569Y-108898976D02*
X162715569Y-109232309D01*
X162596521Y-108708500D02*
X162477474Y-109065642D01*
X162477474Y-109065642D02*
X162786997Y-109065642D01*
X163120330Y-109422785D02*
X163096521Y-109398976D01*
X163096521Y-109398976D02*
X163048902Y-109327547D01*
X163048902Y-109327547D02*
X163025092Y-109279928D01*
X163025092Y-109279928D02*
X163001283Y-109208500D01*
X163001283Y-109208500D02*
X162977473Y-109089452D01*
X162977473Y-109089452D02*
X162977473Y-108994214D01*
X162977473Y-108994214D02*
X163001283Y-108875166D01*
X163001283Y-108875166D02*
X163025092Y-108803738D01*
X163025092Y-108803738D02*
X163048902Y-108756119D01*
X163048902Y-108756119D02*
X163096521Y-108684690D01*
X163096521Y-108684690D02*
X163120330Y-108660880D01*
X163548901Y-108732309D02*
X163310806Y-108732309D01*
X163310806Y-108732309D02*
X163286997Y-108970404D01*
X163286997Y-108970404D02*
X163310806Y-108946595D01*
X163310806Y-108946595D02*
X163358425Y-108922785D01*
X163358425Y-108922785D02*
X163477473Y-108922785D01*
X163477473Y-108922785D02*
X163525092Y-108946595D01*
X163525092Y-108946595D02*
X163548901Y-108970404D01*
X163548901Y-108970404D02*
X163572711Y-109018023D01*
X163572711Y-109018023D02*
X163572711Y-109137071D01*
X163572711Y-109137071D02*
X163548901Y-109184690D01*
X163548901Y-109184690D02*
X163525092Y-109208500D01*
X163525092Y-109208500D02*
X163477473Y-109232309D01*
X163477473Y-109232309D02*
X163358425Y-109232309D01*
X163358425Y-109232309D02*
X163310806Y-109208500D01*
X163310806Y-109208500D02*
X163286997Y-109184690D01*
X163715568Y-108732309D02*
X163882234Y-109232309D01*
X163882234Y-109232309D02*
X164048901Y-108732309D01*
X164167948Y-109422785D02*
X164191758Y-109398976D01*
X164191758Y-109398976D02*
X164239377Y-109327547D01*
X164239377Y-109327547D02*
X164263186Y-109279928D01*
X164263186Y-109279928D02*
X164286996Y-109208500D01*
X164286996Y-109208500D02*
X164310805Y-109089452D01*
X164310805Y-109089452D02*
X164310805Y-108994214D01*
X164310805Y-108994214D02*
X164286996Y-108875166D01*
X164286996Y-108875166D02*
X164263186Y-108803738D01*
X164263186Y-108803738D02*
X164239377Y-108756119D01*
X164239377Y-108756119D02*
X164191758Y-108684690D01*
X164191758Y-108684690D02*
X164167948Y-108660880D01*
D11*
%TO.C,C6*%
X144260000Y-108526267D02*
X144260000Y-108233733D01*
X145280000Y-108526267D02*
X145280000Y-108233733D01*
%TO.C,R5*%
X139880000Y-97370121D02*
X139880000Y-97034879D01*
X140640000Y-97370121D02*
X140640000Y-97034879D01*
%TO.C,C8*%
X141410000Y-109033335D02*
X141410000Y-108801665D01*
X142130000Y-109033335D02*
X142130000Y-108801665D01*
%TO.C,R4*%
X141060000Y-97277621D02*
X141060000Y-96942379D01*
X141820000Y-97277621D02*
X141820000Y-96942379D01*
D12*
%TO.C,U3*%
X151385000Y-92791000D02*
X153185000Y-92791000D01*
X151385000Y-95949000D02*
X153185000Y-95949000D01*
D13*
X149985000Y-93370000D02*
G75*
G02*
X149785000Y-93370000I-100000J0D01*
G01*
X149785000Y-93370000D02*
G75*
G02*
X149985000Y-93370000I100000J0D01*
G01*
D11*
%TO.C,C5*%
X144451665Y-102150000D02*
X144683335Y-102150000D01*
X144451665Y-102870000D02*
X144683335Y-102870000D01*
%TO.C,C21*%
X155008335Y-104630000D02*
X154776665Y-104630000D01*
X155008335Y-105350000D02*
X154776665Y-105350000D01*
%TO.C,R6*%
X156117500Y-93917379D02*
X156117500Y-94252621D01*
X156877500Y-93917379D02*
X156877500Y-94252621D01*
%TO.C,C2*%
X140373767Y-104100000D02*
X140081233Y-104100000D01*
X140373767Y-105120000D02*
X140081233Y-105120000D01*
D13*
%TO.C,Y1*%
X161300000Y-101940000D02*
G75*
G02*
X161100000Y-101940000I-100000J0D01*
G01*
X161100000Y-101940000D02*
G75*
G02*
X161300000Y-101940000I100000J0D01*
G01*
D11*
%TO.C,L2*%
X158457500Y-93914800D02*
X158457500Y-94115200D01*
X159177500Y-93914800D02*
X159177500Y-94115200D01*
%TO.C,C11*%
X163145835Y-100480000D02*
X162914165Y-100480000D01*
X163145835Y-101200000D02*
X162914165Y-101200000D01*
%TO.C,C16*%
X153405000Y-99660835D02*
X153405000Y-99429165D01*
X154125000Y-99660835D02*
X154125000Y-99429165D01*
%TO.C,R2*%
X140737500Y-100835276D02*
X140737500Y-101344724D01*
X141782500Y-100835276D02*
X141782500Y-101344724D01*
%TO.C,C12*%
X162618335Y-104420000D02*
X162386665Y-104420000D01*
X162618335Y-105140000D02*
X162386665Y-105140000D01*
%TO.C,C20*%
X156033335Y-95455000D02*
X155801665Y-95455000D01*
X156033335Y-96175000D02*
X155801665Y-96175000D01*
%TO.C,C15*%
X163215835Y-98190000D02*
X162984165Y-98190000D01*
X163215835Y-98910000D02*
X162984165Y-98910000D01*
D14*
%TO.C,IC1*%
X154967200Y-105765400D02*
X154967200Y-110794600D01*
X154967200Y-105765400D02*
X159532800Y-105765400D01*
D15*
X155195800Y-105994000D02*
X155195800Y-110566000D01*
X155195800Y-105994000D02*
X159304200Y-105994000D01*
X159304200Y-110566000D02*
X155195800Y-110566000D01*
X159304200Y-110566000D02*
X159304200Y-105994000D01*
D14*
X159532800Y-110794600D02*
X154967200Y-110794600D01*
X159532800Y-110794600D02*
X159532800Y-105765400D01*
X156488000Y-106654400D02*
G75*
G02*
X155573600Y-106654400I-457200J0D01*
G01*
X155573600Y-106654400D02*
G75*
G02*
X156488000Y-106654400I457200J0D01*
G01*
D11*
%TO.C,J1*%
X136710000Y-90850000D02*
X136710000Y-90450000D01*
X136710000Y-92820000D02*
X136710000Y-94800000D01*
X136710000Y-94800000D02*
X137130000Y-94800000D01*
X141780000Y-95480000D02*
X142230000Y-95480000D01*
X142230000Y-95030000D02*
X142230000Y-95480000D01*
X144230000Y-90450000D02*
X144230000Y-90850000D01*
X144230000Y-92820000D02*
X144230000Y-94800000D01*
X144230000Y-94800000D02*
X143810000Y-94800000D01*
%TO.C,C4*%
X144238748Y-99230000D02*
X145661252Y-99230000D01*
X144238748Y-101050000D02*
X145661252Y-101050000D01*
%TO.C,C19*%
X158383335Y-95395000D02*
X158151665Y-95395000D01*
X158383335Y-96115000D02*
X158151665Y-96115000D01*
%TO.C,TP1*%
X152420000Y-99520000D02*
G75*
G02*
X151020000Y-99520000I-700000J0D01*
G01*
X151020000Y-99520000D02*
G75*
G02*
X152420000Y-99520000I700000J0D01*
G01*
%TO.C,C10*%
X148915000Y-94145835D02*
X148915000Y-93914165D01*
X149635000Y-94145835D02*
X149635000Y-93914165D01*
%TO.C,C13*%
X156850835Y-103315000D02*
X156619165Y-103315000D01*
X156850835Y-104035000D02*
X156619165Y-104035000D01*
%TO.C,D1*%
X145320000Y-96107500D02*
X145320000Y-95457500D01*
X145320000Y-96107500D02*
X145320000Y-96757500D01*
X148440000Y-96107500D02*
X148440000Y-95457500D01*
X148440000Y-96107500D02*
X148440000Y-96757500D01*
X145370000Y-97270000D02*
X145040000Y-97510000D01*
X145040000Y-97030000D01*
X145370000Y-97270000D01*
G36*
X145370000Y-97270000D02*
G01*
X145040000Y-97510000D01*
X145040000Y-97030000D01*
X145370000Y-97270000D01*
G37*
%TO.C,C14*%
X163185835Y-99340000D02*
X162954165Y-99340000D01*
X163185835Y-100060000D02*
X162954165Y-100060000D01*
%TO.C,R3*%
X138682224Y-101407500D02*
X138172776Y-101407500D01*
X138682224Y-102452500D02*
X138172776Y-102452500D01*
%TO.C,U1*%
X142610000Y-103820000D02*
X142610000Y-104870000D01*
X144930000Y-103820000D02*
X144930000Y-105120000D01*
X142610000Y-105510000D02*
X142330000Y-105230000D01*
X142610000Y-105230000D01*
X142610000Y-105510000D01*
G36*
X142610000Y-105510000D02*
G01*
X142330000Y-105230000D01*
X142610000Y-105230000D01*
X142610000Y-105510000D01*
G37*
%TO.C,C1*%
X140416267Y-105775000D02*
X140123733Y-105775000D01*
X140416267Y-106795000D02*
X140123733Y-106795000D01*
%TO.C,C17*%
X158078767Y-91470000D02*
X157786233Y-91470000D01*
X158078767Y-92490000D02*
X157786233Y-92490000D01*
%TO.C,R1*%
X139002379Y-99920000D02*
X139337621Y-99920000D01*
X139002379Y-100680000D02*
X139337621Y-100680000D01*
%TO.C,R7*%
X153410000Y-101646359D02*
X153410000Y-101953641D01*
X154170000Y-101646359D02*
X154170000Y-101953641D01*
D13*
%TO.C,ANT1*%
X161250000Y-91640000D02*
X161250000Y-97715000D01*
X161250000Y-97715000D02*
X164150000Y-97715000D01*
X164150000Y-97715000D02*
X164150000Y-91640000D01*
D11*
%TO.C,C3*%
X140953335Y-102875000D02*
X140721665Y-102875000D01*
X140953335Y-103595000D02*
X140721665Y-103595000D01*
%TO.C,U2*%
X155200000Y-97230000D02*
X155675000Y-97230000D01*
X155200000Y-97705000D02*
X155200000Y-97230000D01*
X155200000Y-101975000D02*
X155200000Y-102450000D01*
X155200000Y-102450000D02*
X155675000Y-102450000D01*
X159945000Y-97230000D02*
X160180000Y-97230000D01*
X160420000Y-97705000D02*
X160420000Y-97530000D01*
X160420000Y-101975000D02*
X160420000Y-102450000D01*
X160420000Y-102450000D02*
X159945000Y-102450000D01*
X160750000Y-97470000D02*
X160420000Y-97230000D01*
X160750000Y-96990000D01*
X160750000Y-97470000D01*
G36*
X160750000Y-97470000D02*
G01*
X160420000Y-97230000D01*
X160750000Y-96990000D01*
X160750000Y-97470000D01*
G37*
%TO.C,C22*%
X159321665Y-104690000D02*
X159553335Y-104690000D01*
X159321665Y-105410000D02*
X159553335Y-105410000D01*
%TO.C,C9*%
X155012500Y-93936665D02*
X155012500Y-94168335D01*
X155732500Y-93936665D02*
X155732500Y-94168335D01*
%TO.C,C18*%
X157352500Y-93814165D02*
X157352500Y-94045835D01*
X158072500Y-93814165D02*
X158072500Y-94045835D01*
%TO.C,C7*%
X142610000Y-108601267D02*
X142610000Y-108308733D01*
X143630000Y-108601267D02*
X143630000Y-108308733D01*
%TD*%
D16*
X143970000Y-91840000D03*
D17*
X142970000Y-94540000D03*
X137970000Y-94540000D03*
D16*
X136970000Y-91840000D03*
M02*
