%TF.GenerationSoftware,KiCad,Pcbnew,8.0.6*%
%TF.CreationDate,2025-10-07T13:26:46+02:00*%
%TF.ProjectId,PCB WLED Spec 7,50434220-574c-4454-9420-537065632037,rev?*%
%TF.SameCoordinates,Original*%
%TF.FileFunction,Soldermask,Bot*%
%TF.FilePolarity,Negative*%
%FSLAX46Y46*%
G04 Gerber Fmt 4.6, Leading zero omitted, Abs format (unit mm)*
G04 Created by KiCad (PCBNEW 8.0.6) date 2025-10-07 13:26:46*
%MOMM*%
%LPD*%
G01*
G04 APERTURE LIST*
G04 Aperture macros list*
%AMRoundRect*
0 Rectangle with rounded corners*
0 $1 Rounding radius*
0 $2 $3 $4 $5 $6 $7 $8 $9 X,Y pos of 4 corners*
0 Add a 4 corners polygon primitive as box body*
4,1,4,$2,$3,$4,$5,$6,$7,$8,$9,$2,$3,0*
0 Add four circle primitives for the rounded corners*
1,1,$1+$1,$2,$3*
1,1,$1+$1,$4,$5*
1,1,$1+$1,$6,$7*
1,1,$1+$1,$8,$9*
0 Add four rect primitives between the rounded corners*
20,1,$1+$1,$2,$3,$4,$5,0*
20,1,$1+$1,$4,$5,$6,$7,0*
20,1,$1+$1,$6,$7,$8,$9,0*
20,1,$1+$1,$8,$9,$2,$3,0*%
G04 Aperture macros list end*
%ADD10C,0.600000*%
%ADD11O,0.600000X0.850000*%
%ADD12O,2.300000X1.300000*%
%ADD13O,2.600000X1.300000*%
%ADD14C,0.504000*%
%ADD15RoundRect,0.140000X-0.170000X0.140000X-0.170000X-0.140000X0.170000X-0.140000X0.170000X0.140000X0*%
%ADD16RoundRect,0.218750X0.256250X-0.218750X0.256250X0.218750X-0.256250X0.218750X-0.256250X-0.218750X0*%
%ADD17RoundRect,0.140000X0.170000X-0.140000X0.170000X0.140000X-0.170000X0.140000X-0.170000X-0.140000X0*%
%ADD18RoundRect,0.140000X0.140000X0.170000X-0.140000X0.170000X-0.140000X-0.170000X0.140000X-0.170000X0*%
%ADD19RoundRect,0.135000X-0.135000X-0.185000X0.135000X-0.185000X0.135000X0.185000X-0.135000X0.185000X0*%
%ADD20RoundRect,0.062500X-0.062500X0.337500X-0.062500X-0.337500X0.062500X-0.337500X0.062500X0.337500X0*%
%ADD21RoundRect,0.062500X-0.337500X0.062500X-0.337500X-0.062500X0.337500X-0.062500X0.337500X0.062500X0*%
%ADD22R,3.700000X3.700000*%
%ADD23RoundRect,0.140000X-0.140000X-0.170000X0.140000X-0.170000X0.140000X0.170000X-0.140000X0.170000X0*%
%ADD24RoundRect,0.225000X0.225000X0.250000X-0.225000X0.250000X-0.225000X-0.250000X0.225000X-0.250000X0*%
%ADD25RoundRect,0.102000X-0.350000X-0.375000X0.350000X-0.375000X0.350000X0.375000X-0.350000X0.375000X0*%
%ADD26RoundRect,0.175500X0.526500X0.836500X-0.526500X0.836500X-0.526500X-0.836500X0.526500X-0.836500X0*%
%ADD27RoundRect,0.135000X0.135000X0.185000X-0.135000X0.185000X-0.135000X-0.185000X0.135000X-0.185000X0*%
%ADD28RoundRect,0.135000X0.185000X-0.135000X0.185000X0.135000X-0.185000X0.135000X-0.185000X-0.135000X0*%
%ADD29RoundRect,0.150000X0.587500X0.150000X-0.587500X0.150000X-0.587500X-0.150000X0.587500X-0.150000X0*%
G04 APERTURE END LIST*
D10*
%TO.C,J1*%
X184900000Y-76750000D03*
D11*
X184900000Y-82750000D03*
D12*
X185625000Y-75430000D03*
D13*
X181800000Y-75430000D03*
D12*
X185625000Y-84070000D03*
D13*
X181800000Y-84070000D03*
%TD*%
D14*
%TO.C,U3*%
X194200000Y-84000000D03*
X195500000Y-84000000D03*
X194200000Y-85300000D03*
X195500000Y-85300000D03*
X194200000Y-86600000D03*
X195500000Y-86600000D03*
X194200000Y-87900000D03*
X195500000Y-87900000D03*
%TD*%
D15*
%TO.C,C20*%
X187800000Y-77120000D03*
X187800000Y-78080000D03*
%TD*%
D16*
%TO.C,L1*%
X193970000Y-73840000D03*
X193970000Y-72265000D03*
%TD*%
D17*
%TO.C,C4*%
X192600000Y-74800000D03*
X192600000Y-73840000D03*
%TD*%
D18*
%TO.C,C17*%
X195400000Y-82300000D03*
X194440000Y-82300000D03*
%TD*%
D19*
%TO.C,R6*%
X197590000Y-79000000D03*
X198610000Y-79000000D03*
%TD*%
%TO.C,R5*%
X195600000Y-72800000D03*
X196620000Y-72800000D03*
%TD*%
D15*
%TO.C,C19*%
X186800000Y-77120000D03*
X186800000Y-78080000D03*
%TD*%
D20*
%TO.C,U1*%
X192025000Y-76275000D03*
X192525000Y-76275000D03*
X193025000Y-76275000D03*
X193525000Y-76275000D03*
X194025000Y-76275000D03*
X194525000Y-76275000D03*
X195025000Y-76275000D03*
X195525000Y-76275000D03*
D21*
X196225000Y-76975000D03*
X196225000Y-77475000D03*
X196225000Y-77975000D03*
X196225000Y-78475000D03*
X196225000Y-78975000D03*
X196225000Y-79475000D03*
X196225000Y-79975000D03*
X196225000Y-80475000D03*
D20*
X195525000Y-81175000D03*
X195025000Y-81175000D03*
X194525000Y-81175000D03*
X194025000Y-81175000D03*
X193525000Y-81175000D03*
X193025000Y-81175000D03*
X192525000Y-81175000D03*
X192025000Y-81175000D03*
D21*
X191325000Y-80475000D03*
X191325000Y-79975000D03*
X191325000Y-79475000D03*
X191325000Y-78975000D03*
X191325000Y-78475000D03*
X191325000Y-77975000D03*
X191325000Y-77475000D03*
X191325000Y-76975000D03*
D22*
X193775000Y-78725000D03*
%TD*%
D23*
%TO.C,C21*%
X188912500Y-81712500D03*
X187952500Y-81712500D03*
%TD*%
D24*
%TO.C,C6*%
X192345000Y-71440000D03*
X190795000Y-71440000D03*
%TD*%
D25*
%TO.C,Y1*%
X187527500Y-80647500D03*
X187527500Y-79297500D03*
X188527500Y-79297500D03*
X188527500Y-80647500D03*
%TD*%
D18*
%TO.C,C22*%
X189780000Y-78100000D03*
X188820000Y-78100000D03*
%TD*%
D23*
%TO.C,C7*%
X197520000Y-77800000D03*
X198480000Y-77800000D03*
%TD*%
D26*
%TO.C,AE1*%
X190860000Y-74400000D03*
X187940000Y-74400000D03*
%TD*%
D23*
%TO.C,C5*%
X193790000Y-71040000D03*
X194750000Y-71040000D03*
%TD*%
D27*
%TO.C,R7*%
X198610000Y-80000000D03*
X197590000Y-80000000D03*
%TD*%
D28*
%TO.C,R13*%
X182900000Y-74210000D03*
X182900000Y-73190000D03*
%TD*%
D23*
%TO.C,C3*%
X195730000Y-75010000D03*
X196690000Y-75010000D03*
%TD*%
D27*
%TO.C,R8*%
X196710000Y-74000000D03*
X195690000Y-74000000D03*
%TD*%
D23*
%TO.C,C18*%
X196340000Y-82300000D03*
X197300000Y-82300000D03*
%TD*%
D28*
%TO.C,R12*%
X186640000Y-72140000D03*
X186640000Y-71120000D03*
%TD*%
D29*
%TO.C,Q1*%
X185100000Y-71170000D03*
X185100000Y-73070000D03*
X183225000Y-72120000D03*
%TD*%
M02*
