%TF.GenerationSoftware,KiCad,Pcbnew,8.0.6*%
%TF.CreationDate,2025-10-07T13:26:46+02:00*%
%TF.ProjectId,PCB WLED Spec 7,50434220-574c-4454-9420-537065632037,rev?*%
%TF.SameCoordinates,Original*%
%TF.FileFunction,Copper,L1,Top*%
%TF.FilePolarity,Positive*%
%FSLAX46Y46*%
G04 Gerber Fmt 4.6, Leading zero omitted, Abs format (unit mm)*
G04 Created by KiCad (PCBNEW 8.0.6) date 2025-10-07 13:26:46*
%MOMM*%
%LPD*%
G01*
G04 APERTURE LIST*
G04 Aperture macros list*
%AMRoundRect*
0 Rectangle with rounded corners*
0 $1 Rounding radius*
0 $2 $3 $4 $5 $6 $7 $8 $9 X,Y pos of 4 corners*
0 Add a 4 corners polygon primitive as box body*
4,1,4,$2,$3,$4,$5,$6,$7,$8,$9,$2,$3,0*
0 Add four circle primitives for the rounded corners*
1,1,$1+$1,$2,$3*
1,1,$1+$1,$4,$5*
1,1,$1+$1,$6,$7*
1,1,$1+$1,$8,$9*
0 Add four rect primitives between the rounded corners*
20,1,$1+$1,$2,$3,$4,$5,0*
20,1,$1+$1,$4,$5,$6,$7,0*
20,1,$1+$1,$6,$7,$8,$9,0*
20,1,$1+$1,$8,$9,$2,$3,0*%
G04 Aperture macros list end*
%TA.AperFunction,SMDPad,CuDef*%
%ADD10RoundRect,0.250000X0.250000X0.475000X-0.250000X0.475000X-0.250000X-0.475000X0.250000X-0.475000X0*%
%TD*%
%TA.AperFunction,SMDPad,CuDef*%
%ADD11RoundRect,0.160000X-0.197500X-0.160000X0.197500X-0.160000X0.197500X0.160000X-0.197500X0.160000X0*%
%TD*%
%TA.AperFunction,SMDPad,CuDef*%
%ADD12R,0.800000X1.700000*%
%TD*%
%TA.AperFunction,SMDPad,CuDef*%
%ADD13RoundRect,0.135000X-0.135000X-0.185000X0.135000X-0.185000X0.135000X0.185000X-0.135000X0.185000X0*%
%TD*%
%TA.AperFunction,SMDPad,CuDef*%
%ADD14RoundRect,0.140000X0.170000X-0.140000X0.170000X0.140000X-0.170000X0.140000X-0.170000X-0.140000X0*%
%TD*%
%TA.AperFunction,SMDPad,CuDef*%
%ADD15RoundRect,0.150000X0.150000X-0.587500X0.150000X0.587500X-0.150000X0.587500X-0.150000X-0.587500X0*%
%TD*%
%TA.AperFunction,SMDPad,CuDef*%
%ADD16RoundRect,0.081250X0.528750X0.243750X-0.528750X0.243750X-0.528750X-0.243750X0.528750X-0.243750X0*%
%TD*%
%TA.AperFunction,SMDPad,CuDef*%
%ADD17RoundRect,0.135000X0.135000X0.185000X-0.135000X0.185000X-0.135000X-0.185000X0.135000X-0.185000X0*%
%TD*%
%TA.AperFunction,SMDPad,CuDef*%
%ADD18RoundRect,0.325000X-0.325000X-0.475000X0.325000X-0.475000X0.325000X0.475000X-0.325000X0.475000X0*%
%TD*%
%TA.AperFunction,SMDPad,CuDef*%
%ADD19RoundRect,0.140000X0.140000X0.170000X-0.140000X0.170000X-0.140000X-0.170000X0.140000X-0.170000X0*%
%TD*%
%TA.AperFunction,SMDPad,CuDef*%
%ADD20R,2.000000X1.000000*%
%TD*%
%TA.AperFunction,SMDPad,CuDef*%
%ADD21R,1.000000X0.520000*%
%TD*%
%TA.AperFunction,SMDPad,CuDef*%
%ADD22R,1.000000X0.270000*%
%TD*%
%TA.AperFunction,ComponentPad*%
%ADD23O,2.300000X1.300000*%
%TD*%
%TA.AperFunction,ComponentPad*%
%ADD24O,2.600000X1.300000*%
%TD*%
%TA.AperFunction,SMDPad,CuDef*%
%ADD25RoundRect,0.325000X0.325000X0.475000X-0.325000X0.475000X-0.325000X-0.475000X0.325000X-0.475000X0*%
%TD*%
%TA.AperFunction,SMDPad,CuDef*%
%ADD26RoundRect,0.250000X0.325000X0.650000X-0.325000X0.650000X-0.325000X-0.650000X0.325000X-0.650000X0*%
%TD*%
%TA.AperFunction,SMDPad,CuDef*%
%ADD27RoundRect,0.325000X0.475000X-0.325000X0.475000X0.325000X-0.475000X0.325000X-0.475000X-0.325000X0*%
%TD*%
%TA.AperFunction,SMDPad,CuDef*%
%ADD28R,1.700000X0.800000*%
%TD*%
%TA.AperFunction,SMDPad,CuDef*%
%ADD29RoundRect,0.015000X-0.760000X-0.285000X0.760000X-0.285000X0.760000X0.285000X-0.760000X0.285000X0*%
%TD*%
%TA.AperFunction,SMDPad,CuDef*%
%ADD30R,2.950000X4.900000*%
%TD*%
%TA.AperFunction,ComponentPad*%
%ADD31C,0.300000*%
%TD*%
%TA.AperFunction,SMDPad,CuDef*%
%ADD32R,2.290000X3.120000*%
%TD*%
%TA.AperFunction,SMDPad,CuDef*%
%ADD33RoundRect,0.140000X-0.170000X0.140000X-0.170000X-0.140000X0.170000X-0.140000X0.170000X0.140000X0*%
%TD*%
%TA.AperFunction,SMDPad,CuDef*%
%ADD34RoundRect,0.135000X-0.185000X0.135000X-0.185000X-0.135000X0.185000X-0.135000X0.185000X0.135000X0*%
%TD*%
%TA.AperFunction,SMDPad,CuDef*%
%ADD35RoundRect,0.140000X-0.140000X-0.170000X0.140000X-0.170000X0.140000X0.170000X-0.140000X0.170000X0*%
%TD*%
%TA.AperFunction,SMDPad,CuDef*%
%ADD36RoundRect,0.812500X1.187500X-0.812500X1.187500X0.812500X-1.187500X0.812500X-1.187500X-0.812500X0*%
%TD*%
%TA.AperFunction,ViaPad*%
%ADD37C,0.600000*%
%TD*%
%TA.AperFunction,Conductor*%
%ADD38C,0.200000*%
%TD*%
%TA.AperFunction,Conductor*%
%ADD39C,0.157000*%
%TD*%
%TA.AperFunction,Conductor*%
%ADD40C,0.250000*%
%TD*%
%TA.AperFunction,Conductor*%
%ADD41C,1.000000*%
%TD*%
%TA.AperFunction,Conductor*%
%ADD42C,0.500000*%
%TD*%
%ADD43C,0.300000*%
%ADD44C,0.350000*%
%ADD45O,0.599999X0.849999*%
%ADD46O,1.600000X0.600000*%
%ADD47O,1.900000X0.600000*%
%ADD48C,0.200000*%
G04 APERTURE END LIST*
D10*
%TO.P,C15,1*%
%TO.N,+BATT*%
X189950000Y-86500000D03*
%TO.P,C15,2*%
%TO.N,GND*%
X188050000Y-86500000D03*
%TD*%
D11*
%TO.P,R4,1*%
%TO.N,Net-(J1-D+-PadA6)*%
X187856491Y-79740363D03*
%TO.P,R4,2*%
%TO.N,USB_D+*%
X189051491Y-79740363D03*
%TD*%
D12*
%TO.P,S1,1*%
%TO.N,BOOT*%
X181300000Y-88000000D03*
%TO.P,S1,2*%
%TO.N,GND*%
X184700000Y-88000000D03*
%TD*%
D13*
%TO.P,R2,1*%
%TO.N,Net-(J1-CC2)*%
X187733991Y-80940363D03*
%TO.P,R2,2*%
%TO.N,GND*%
X188753991Y-80940363D03*
%TD*%
D14*
%TO.P,C2,1*%
%TO.N,3.3V*%
X183400000Y-73180000D03*
%TO.P,C2,2*%
%TO.N,GND*%
X183400000Y-72220000D03*
%TD*%
%TO.P,C13,1*%
%TO.N,SS*%
X199500000Y-86480000D03*
%TO.P,C13,2*%
%TO.N,GND*%
X199500000Y-85520000D03*
%TD*%
D15*
%TO.P,D1,1*%
%TO.N,5V_USB*%
X190337500Y-72977500D03*
%TO.P,D1,2*%
%TO.N,5V_BUCK*%
X192237500Y-72977500D03*
%TO.P,D1,3*%
%TO.N,4.5V*%
X191287500Y-71102500D03*
%TD*%
D16*
%TO.P,U2,1,VIN*%
%TO.N,4.5V*%
X187245000Y-73320000D03*
%TO.P,U2,2,GND*%
%TO.N,GND*%
X187245000Y-72380000D03*
%TO.P,U2,3,EN*%
%TO.N,4.5V*%
X187245000Y-71440000D03*
%TO.P,U2,4*%
%TO.N,N/C*%
X184755000Y-71440000D03*
%TO.P,U2,5,VOUT*%
%TO.N,3.3V*%
X184755000Y-73320000D03*
%TD*%
D17*
%TO.P,R10,1*%
%TO.N,FB*%
X197510000Y-89500000D03*
%TO.P,R10,2*%
%TO.N,GND*%
X196490000Y-89500000D03*
%TD*%
D13*
%TO.P,R11,1*%
%TO.N,Switching frequency*%
X191490000Y-89500000D03*
%TO.P,R11,2*%
%TO.N,GND*%
X192510000Y-89500000D03*
%TD*%
D18*
%TO.P,S3,1,solder*%
%TO.N,+BATT*%
X189500000Y-89000000D03*
%TD*%
D19*
%TO.P,C14,1*%
%TO.N,+BATT*%
X190000000Y-83000000D03*
%TO.P,C14,2*%
%TO.N,GND*%
X189040000Y-83000000D03*
%TD*%
D20*
%TO.P,J1,*%
%TO.N,*%
X181800000Y-78350000D03*
X181800000Y-81150000D03*
D21*
%TO.P,J1,A1,GND*%
%TO.N,GND*%
X186000000Y-76650000D03*
%TO.P,J1,A4,VBUS*%
%TO.N,5V_USB*%
X186000000Y-77400000D03*
D22*
%TO.P,J1,A5,CC1*%
%TO.N,Net-(J1-CC1)*%
X186000000Y-78000000D03*
%TO.P,J1,A6,D+*%
%TO.N,Net-(J1-D+-PadA6)*%
X186000000Y-79500000D03*
%TO.P,J1,A7,D-*%
%TO.N,Net-(J1-D--PadA7)*%
X186000000Y-80500000D03*
%TO.P,J1,A8,SBU1*%
%TO.N,unconnected-(J1-SBU1-PadA8)*%
X186000000Y-81500000D03*
D21*
%TO.P,J1,A9,VBUS*%
%TO.N,5V_USB*%
X186000000Y-82100000D03*
%TO.P,J1,A12,GND*%
%TO.N,GND*%
X186000000Y-82850000D03*
%TO.P,J1,B1,GND*%
X186000000Y-82850000D03*
%TO.P,J1,B4,VBUS*%
%TO.N,5V_USB*%
X186000000Y-82100000D03*
D22*
%TO.P,J1,B5,CC2*%
%TO.N,Net-(J1-CC2)*%
X186000000Y-81000000D03*
%TO.P,J1,B6,D+*%
%TO.N,Net-(J1-D+-PadA6)*%
X186000000Y-80000000D03*
%TO.P,J1,B7,D-*%
%TO.N,Net-(J1-D--PadA7)*%
X186000000Y-79000000D03*
%TO.P,J1,B8,SBU2*%
%TO.N,unconnected-(J1-SBU2-PadB8)*%
X186000000Y-78500000D03*
D21*
%TO.P,J1,B9,VBUS*%
%TO.N,5V_USB*%
X186000000Y-77400000D03*
%TO.P,J1,B12,GND*%
%TO.N,GND*%
X186000000Y-76650000D03*
D23*
%TO.P,J1,S1,SHIELD*%
X185625000Y-75430000D03*
D24*
X181800000Y-75430000D03*
D23*
X185625000Y-84070000D03*
D24*
X181800000Y-84070000D03*
%TD*%
D11*
%TO.P,R3,1*%
%TO.N,Net-(J1-D--PadA7)*%
X187856491Y-78740363D03*
%TO.P,R3,2*%
%TO.N,USB_D-*%
X189051491Y-78740363D03*
%TD*%
D25*
%TO.P,S4,1,solder*%
%TO.N,GND*%
X187500000Y-89000000D03*
%TD*%
D26*
%TO.P,C10,1*%
%TO.N,5V_BUCK*%
X197075000Y-75800000D03*
%TO.P,C10,2*%
%TO.N,GND*%
X194125000Y-75800000D03*
%TD*%
D27*
%TO.P,S7,1,solder*%
%TO.N,LED1_OUT*%
X181200000Y-71000000D03*
%TD*%
D28*
%TO.P,S2,1*%
%TO.N,ENABLE*%
X191680000Y-78120000D03*
%TO.P,S2,2*%
%TO.N,GND*%
X191680000Y-74720000D03*
%TD*%
D29*
%TO.P,U3,1,BOOT*%
%TO.N,Net-(U3-BOOT)*%
X192150000Y-84045000D03*
%TO.P,U3,2,VIN*%
%TO.N,+BATT*%
X192150000Y-85315000D03*
%TO.P,U3,3,EN*%
%TO.N,unconnected-(U3-EN-Pad3)*%
X192150000Y-86585000D03*
%TO.P,U3,4,RT/SYNC*%
%TO.N,Switching frequency*%
X192150000Y-87855000D03*
%TO.P,U3,5,FB*%
%TO.N,FB*%
X197550000Y-87855000D03*
%TO.P,U3,6,SS*%
%TO.N,SS*%
X197550000Y-86585000D03*
%TO.P,U3,7,GND*%
%TO.N,GND*%
X197550000Y-85315000D03*
%TO.P,U3,8,SW*%
%TO.N,Net-(D2-K)*%
X197550000Y-84045000D03*
D30*
%TO.P,U3,9,EXP*%
%TO.N,GND*%
X194850000Y-85950000D03*
D31*
%TO.P,U3,10,EXP*%
X194200000Y-84000000D03*
%TO.P,U3,11,EXP*%
X195500000Y-84000000D03*
%TO.P,U3,12,EXP*%
X194200000Y-85300000D03*
%TO.P,U3,13,EXP*%
X195500000Y-85300000D03*
%TO.P,U3,14,EXP*%
X194200000Y-86600000D03*
%TO.P,U3,15,EXP*%
X195500000Y-86600000D03*
%TO.P,U3,16,EXP*%
X194200000Y-87900000D03*
%TO.P,U3,17,EXP*%
X195500000Y-87900000D03*
%TD*%
D17*
%TO.P,R1,1*%
%TO.N,GND*%
X188860000Y-77690000D03*
%TO.P,R1,2*%
%TO.N,Net-(J1-CC1)*%
X187840000Y-77690000D03*
%TD*%
D32*
%TO.P,D2,1,K*%
%TO.N,Net-(D2-K)*%
X201570000Y-86500000D03*
%TO.P,D2,2,A*%
%TO.N,GND*%
X208430000Y-86500000D03*
%TD*%
D27*
%TO.P,S5,1,solder*%
%TO.N,5V_BUCK*%
X197000000Y-71000000D03*
%TD*%
D10*
%TO.P,C16,1*%
%TO.N,+BATT*%
X189950000Y-84500000D03*
%TO.P,C16,2*%
%TO.N,GND*%
X188050000Y-84500000D03*
%TD*%
D27*
%TO.P,S8,1,solder*%
%TO.N,PWM1*%
X181200000Y-73000000D03*
%TD*%
D26*
%TO.P,C9,1*%
%TO.N,5V_BUCK*%
X197100000Y-78300000D03*
%TO.P,C9,2*%
%TO.N,GND*%
X194150000Y-78300000D03*
%TD*%
%TO.P,C11,1*%
%TO.N,5V_BUCK*%
X197075000Y-73300000D03*
%TO.P,C11,2*%
%TO.N,GND*%
X194125000Y-73300000D03*
%TD*%
D33*
%TO.P,C1,1*%
%TO.N,GND*%
X188700000Y-71920000D03*
%TO.P,C1,2*%
%TO.N,4.5V*%
X188700000Y-72880000D03*
%TD*%
D34*
%TO.P,R9,1*%
%TO.N,FB*%
X199500000Y-87990000D03*
%TO.P,R9,2*%
%TO.N,5V_BUCK*%
X199500000Y-89010000D03*
%TD*%
D26*
%TO.P,C8,1*%
%TO.N,5V_BUCK*%
X197075000Y-80800000D03*
%TO.P,C8,2*%
%TO.N,GND*%
X194125000Y-80800000D03*
%TD*%
D27*
%TO.P,S6,1,solder*%
%TO.N,GND*%
X194150000Y-71350000D03*
%TD*%
D35*
%TO.P,C12,1*%
%TO.N,Net-(U3-BOOT)*%
X196520000Y-82760000D03*
%TO.P,C12,2*%
%TO.N,Net-(D2-K)*%
X197480000Y-82760000D03*
%TD*%
D36*
%TO.P,L2,2,2*%
%TO.N,5V_BUCK*%
X204000000Y-71875000D03*
%TO.P,L2,1,1*%
%TO.N,Net-(D2-K)*%
X204000000Y-81125000D03*
%TD*%
D37*
%TO.N,GND*%
X181000000Y-82750000D03*
X181000000Y-82000000D03*
X183250000Y-82000000D03*
X181750000Y-82750000D03*
X183250000Y-82750000D03*
X182500000Y-82000000D03*
X181750000Y-82000000D03*
X182500000Y-82750000D03*
X183500000Y-88500000D03*
X183500000Y-87000000D03*
X183500000Y-89250000D03*
X182750000Y-87750000D03*
X183500000Y-87750000D03*
X182750000Y-88500000D03*
X182750000Y-89250000D03*
X182750000Y-87000000D03*
X185500000Y-87000000D03*
X185500000Y-89250000D03*
X186250000Y-88500000D03*
X185500000Y-88500000D03*
X186250000Y-87000000D03*
X185500000Y-87750000D03*
X186250000Y-89250000D03*
X186250000Y-87750000D03*
X204000000Y-88000000D03*
X204750000Y-86500000D03*
X204000000Y-88750000D03*
X206250000Y-87250000D03*
X205500000Y-88750000D03*
X204000000Y-87250000D03*
X205500000Y-87250000D03*
X204750000Y-88000000D03*
X204000000Y-86500000D03*
X206250000Y-86500000D03*
X204750000Y-88750000D03*
X205500000Y-88000000D03*
X204750000Y-87250000D03*
X205500000Y-86500000D03*
X206250000Y-88000000D03*
X206250000Y-88750000D03*
X205500000Y-85750000D03*
X205500000Y-85000000D03*
X206250000Y-83500000D03*
X204000000Y-83500000D03*
X204750000Y-85750000D03*
X204000000Y-84250000D03*
X204750000Y-84250000D03*
X204750000Y-85000000D03*
X205500000Y-83500000D03*
X206250000Y-85000000D03*
X206250000Y-85750000D03*
X205500000Y-84250000D03*
X206250000Y-84250000D03*
X204000000Y-85750000D03*
X204000000Y-85000000D03*
X204750000Y-83500000D03*
X200250000Y-76000000D03*
X200250000Y-76750000D03*
X201000000Y-75250000D03*
X201000000Y-76750000D03*
X201000000Y-76000000D03*
X201000000Y-77500000D03*
X201000000Y-78250000D03*
X200250000Y-77500000D03*
X200250000Y-78250000D03*
X200250000Y-75250000D03*
X201000000Y-74500000D03*
X200250000Y-74500000D03*
X203250000Y-77500000D03*
X201750000Y-77500000D03*
X203250000Y-78250000D03*
X201750000Y-78250000D03*
X202500000Y-77500000D03*
X202500000Y-78250000D03*
X206250000Y-78250000D03*
X204000000Y-77500000D03*
X205500000Y-78250000D03*
X204750000Y-77500000D03*
X206250000Y-77500000D03*
X205500000Y-77500000D03*
X204000000Y-78250000D03*
X204750000Y-78250000D03*
X203250000Y-76750000D03*
X205500000Y-74500000D03*
X201750000Y-75250000D03*
X206250000Y-75250000D03*
X204000000Y-75250000D03*
X206250000Y-76000000D03*
X202500000Y-76750000D03*
X204750000Y-76750000D03*
X205500000Y-75250000D03*
X204750000Y-76000000D03*
X201750000Y-76000000D03*
X202500000Y-76000000D03*
X203250000Y-75250000D03*
X203250000Y-76000000D03*
X206250000Y-74500000D03*
X204000000Y-76000000D03*
X204750000Y-74500000D03*
X204750000Y-75250000D03*
X202500000Y-75250000D03*
X205500000Y-76750000D03*
X204000000Y-74500000D03*
X203250000Y-74500000D03*
X202500000Y-74500000D03*
X201750000Y-74500000D03*
X204000000Y-76750000D03*
X205500000Y-76000000D03*
X206250000Y-76750000D03*
X201750000Y-76750000D03*
X207750000Y-79750000D03*
X207000000Y-83500000D03*
X207750000Y-80500000D03*
X207000000Y-72250000D03*
X207000000Y-73000000D03*
X207000000Y-73750000D03*
X207750000Y-78250000D03*
X207000000Y-74500000D03*
X207000000Y-79000000D03*
X207000000Y-82750000D03*
X207000000Y-76750000D03*
X207750000Y-81250000D03*
X207000000Y-78250000D03*
X207000000Y-80500000D03*
X207000000Y-76000000D03*
X207750000Y-79000000D03*
X207750000Y-84250000D03*
X207000000Y-79750000D03*
X207000000Y-71500000D03*
X207750000Y-77500000D03*
X207000000Y-81250000D03*
X207000000Y-77500000D03*
X207750000Y-82750000D03*
X207000000Y-84250000D03*
X207750000Y-83500000D03*
X207000000Y-75250000D03*
X207000000Y-70750000D03*
X207000000Y-82000000D03*
X207750000Y-82000000D03*
X207750000Y-76750000D03*
X207750000Y-76000000D03*
X207750000Y-75250000D03*
X207750000Y-74500000D03*
X207750000Y-73750000D03*
X207750000Y-73000000D03*
X207750000Y-72250000D03*
X207750000Y-71500000D03*
X207750000Y-70750000D03*
X208500000Y-79750000D03*
X208500000Y-80500000D03*
X208500000Y-78250000D03*
X208500000Y-81250000D03*
X208500000Y-79000000D03*
X208500000Y-84250000D03*
X208500000Y-77500000D03*
X208500000Y-82750000D03*
X208500000Y-83500000D03*
X208500000Y-82000000D03*
X208500000Y-76750000D03*
X208500000Y-76000000D03*
X208500000Y-75250000D03*
X208500000Y-74500000D03*
X208500000Y-73750000D03*
X208500000Y-73000000D03*
X208500000Y-72250000D03*
X208500000Y-71500000D03*
X208500000Y-70750000D03*
X209250000Y-84250000D03*
X209250000Y-83500000D03*
X209250000Y-82750000D03*
X209250000Y-82000000D03*
X209250000Y-81250000D03*
X209250000Y-80500000D03*
X209250000Y-79750000D03*
X209250000Y-79000000D03*
X209250000Y-78250000D03*
X209250000Y-77500000D03*
X209250000Y-76750000D03*
X209250000Y-76000000D03*
X209250000Y-75250000D03*
X209250000Y-74500000D03*
X209250000Y-73750000D03*
X209250000Y-73000000D03*
X209250000Y-72250000D03*
X209250000Y-71500000D03*
X209250000Y-70750000D03*
X193030000Y-78250000D03*
X192500000Y-79850000D03*
X191500000Y-82810000D03*
X190830000Y-82120000D03*
X191470000Y-82170000D03*
X188620000Y-77960000D03*
X198490000Y-75050000D03*
X195240000Y-71080000D03*
X190870000Y-82810000D03*
X198900000Y-77810000D03*
X192851303Y-74024580D03*
X193300000Y-79060000D03*
X194150000Y-79870000D03*
X192510000Y-79010000D03*
X194170000Y-79080000D03*
X193270000Y-79860000D03*
%TO.N,5V_BUCK*%
X184076456Y-76154020D03*
X200240000Y-89030000D03*
X199743058Y-81096942D03*
X183991544Y-74097222D03*
X189090000Y-76000000D03*
%TO.N,BOOT*%
X181440000Y-86240000D03*
%TO.N,ENABLE*%
X195199999Y-75438966D03*
%TO.N,USB_D-*%
X189920761Y-80539774D03*
%TO.N,USB_D+*%
X189890000Y-79740363D03*
%TO.N,3.3V*%
X199180000Y-80080000D03*
X183373871Y-76768871D03*
X195870000Y-81620000D03*
X189320000Y-70500000D03*
%TO.N,LED1_OUT*%
X182880000Y-71220000D03*
%TO.N,PWM1*%
X181230000Y-72690000D03*
%TD*%
D38*
%TO.N,5V_BUCK*%
X189090000Y-75500000D02*
X189090000Y-76000000D01*
X190580000Y-74010000D02*
X189090000Y-75500000D01*
X191205000Y-74010000D02*
X190580000Y-74010000D01*
X192237500Y-72977500D02*
X191205000Y-74010000D01*
D39*
%TO.N,ENABLE*%
X195199999Y-75145661D02*
X195199999Y-75438966D01*
X194675838Y-74621500D02*
X195199999Y-75145661D01*
X193574162Y-74621500D02*
X194675838Y-74621500D01*
X191680000Y-76515662D02*
X193574162Y-74621500D01*
X191680000Y-78120000D02*
X191680000Y-76515662D01*
D40*
X195199999Y-75438966D02*
X195245000Y-75483967D01*
D38*
%TO.N,USB_D-*%
X189819676Y-78740363D02*
X189051491Y-78740363D01*
X190490000Y-79410687D02*
X189819676Y-78740363D01*
X190490000Y-80070039D02*
X190490000Y-79410687D01*
X190020265Y-80539774D02*
X190490000Y-80070039D01*
X189920761Y-80539774D02*
X190020265Y-80539774D01*
D39*
%TO.N,USB_D+*%
X189051491Y-79740363D02*
X189890000Y-79740363D01*
D41*
%TO.N,GND*%
X188050000Y-83970000D02*
X189020000Y-83000000D01*
D40*
X198490000Y-75050000D02*
X198900000Y-75460000D01*
D42*
X182570000Y-72740001D02*
X182570000Y-74660000D01*
D40*
X195240000Y-71080000D02*
X194420000Y-71080000D01*
D41*
X197550000Y-85315000D02*
X195485000Y-85315000D01*
X195485000Y-85315000D02*
X194850000Y-85950000D01*
D40*
X198900000Y-75460000D02*
X198900000Y-77810000D01*
D41*
X187500000Y-89000000D02*
X187500000Y-87050000D01*
D40*
X188866491Y-77713509D02*
X188620000Y-77960000D01*
D42*
X186060000Y-74995000D02*
X185625000Y-75430000D01*
D40*
X186000000Y-76650000D02*
X186000000Y-75805000D01*
D42*
X186060000Y-73530000D02*
X186060000Y-74995000D01*
D41*
X188050000Y-84500000D02*
X188050000Y-83970000D01*
D40*
X186060000Y-72955001D02*
X186060000Y-73530000D01*
X188314999Y-71920000D02*
X188700000Y-71920000D01*
X186000000Y-82850000D02*
X186000000Y-83695000D01*
X187245000Y-72380000D02*
X186635001Y-72380000D01*
X192045883Y-74830000D02*
X192851303Y-74024580D01*
D42*
X197755000Y-85520000D02*
X197550000Y-85315000D01*
D41*
X188050000Y-86500000D02*
X188050000Y-84500000D01*
D40*
X188866491Y-77640363D02*
X188866491Y-77713509D01*
D42*
X183400000Y-72220000D02*
X183090001Y-72220000D01*
D40*
X186060000Y-73530000D02*
X186060000Y-73880000D01*
D41*
X187500000Y-87050000D02*
X188050000Y-86500000D01*
D42*
X182570000Y-74660000D02*
X181800000Y-75430000D01*
D40*
X191490000Y-74830000D02*
X192045883Y-74830000D01*
X187245000Y-72380000D02*
X187854999Y-72380000D01*
D42*
X183090001Y-72220000D02*
X182570000Y-72740001D01*
D40*
X194420000Y-71080000D02*
X194150000Y-71350000D01*
D42*
X199500000Y-85520000D02*
X197755000Y-85520000D01*
D40*
X187854999Y-72380000D02*
X188314999Y-71920000D01*
X186000000Y-75805000D02*
X185625000Y-75430000D01*
X186635001Y-72380000D02*
X186060000Y-72955001D01*
X186000000Y-83695000D02*
X185625000Y-84070000D01*
D41*
%TO.N,5V_BUCK*%
X197875000Y-71875000D02*
X197000000Y-71000000D01*
X198500000Y-71875000D02*
X197875000Y-71875000D01*
D40*
X197371942Y-81096942D02*
X197075000Y-80800000D01*
X192237500Y-72977500D02*
X192250000Y-72965000D01*
D41*
X197075000Y-73300000D02*
X197075000Y-75800000D01*
X197075000Y-78325000D02*
X197100000Y-78300000D01*
X197000000Y-71000000D02*
X197000000Y-73225000D01*
D38*
X183991544Y-76068456D02*
X183940000Y-76120000D01*
D40*
X192237500Y-72977500D02*
X192237500Y-71262500D01*
X199743058Y-81096942D02*
X197371942Y-81096942D01*
X196375000Y-70375000D02*
X197000000Y-71000000D01*
D41*
X197075000Y-80800000D02*
X197075000Y-78325000D01*
D38*
X183940000Y-76120000D02*
X183974020Y-76154020D01*
D41*
X197000000Y-73225000D02*
X197075000Y-73300000D01*
D40*
X199500000Y-89010000D02*
X200220000Y-89010000D01*
D41*
X198500000Y-71875000D02*
X197075000Y-73300000D01*
D40*
X193125000Y-70375000D02*
X196375000Y-70375000D01*
X192237500Y-71262500D02*
X193125000Y-70375000D01*
X200220000Y-89010000D02*
X200240000Y-89030000D01*
D41*
X197100000Y-75825000D02*
X197075000Y-75800000D01*
X204000000Y-71875000D02*
X198500000Y-71875000D01*
D38*
X183991544Y-74097222D02*
X183991544Y-76068456D01*
X183974020Y-76154020D02*
X184076456Y-76154020D01*
D41*
X197100000Y-78300000D02*
X197100000Y-75825000D01*
D38*
%TO.N,5V_USB*%
X186000000Y-82100000D02*
X185300000Y-82100000D01*
D42*
X184350000Y-78254594D02*
X184350000Y-81150000D01*
X187420000Y-75895000D02*
X190337500Y-72977500D01*
X186910000Y-77400000D02*
X187420000Y-76890000D01*
X184350000Y-81150000D02*
X184940000Y-81740000D01*
X186000000Y-77400000D02*
X186910000Y-77400000D01*
X185047297Y-77557297D02*
X184350000Y-78254594D01*
X187420000Y-76890000D02*
X187420000Y-75895000D01*
D40*
X185047297Y-77557297D02*
X185204594Y-77400000D01*
X185204594Y-77400000D02*
X186000000Y-77400000D01*
D38*
X185300000Y-82100000D02*
X184940000Y-81740000D01*
X184940000Y-81740000D02*
X184910000Y-81740000D01*
D42*
%TO.N,4.5V*%
X189009999Y-72880000D02*
X189540000Y-72349999D01*
D40*
X187370000Y-71315000D02*
X189525000Y-71315000D01*
D42*
X190622316Y-71102500D02*
X191287500Y-71102500D01*
X189967408Y-71757408D02*
X190622316Y-71102500D01*
X189540000Y-72349999D02*
X189540000Y-72184816D01*
D40*
X187245000Y-71440000D02*
X187370000Y-71315000D01*
D42*
X188260000Y-73320000D02*
X188700000Y-72880000D01*
X189540000Y-72184816D02*
X189967408Y-71757408D01*
X187245000Y-73320000D02*
X188260000Y-73320000D01*
D40*
X189525000Y-71315000D02*
X189967408Y-71757408D01*
D42*
X188700000Y-72880000D02*
X189009999Y-72880000D01*
D38*
%TO.N,Net-(J1-D--PadA7)*%
X186000000Y-79000000D02*
X185250000Y-79000000D01*
X184900000Y-80135000D02*
X185265000Y-80500000D01*
X186000000Y-79000000D02*
X187702500Y-79000000D01*
X185265000Y-80500000D02*
X186000000Y-80500000D01*
X187702500Y-79000000D02*
X188002500Y-78700000D01*
X185250000Y-79000000D02*
X184900000Y-79350000D01*
X184900000Y-79350000D02*
X184900000Y-80135000D01*
%TO.N,Net-(J1-D+-PadA6)*%
X187000000Y-79700000D02*
X188002500Y-79700000D01*
X187000000Y-79700000D02*
X186800000Y-79500000D01*
X186800000Y-80000000D02*
X187000000Y-79800000D01*
X187000000Y-79800000D02*
X187000000Y-79700000D01*
X186800000Y-79500000D02*
X186000000Y-79500000D01*
X186000000Y-80000000D02*
X186800000Y-80000000D01*
D40*
%TO.N,Net-(J1-CC1)*%
X186000000Y-78000000D02*
X187592500Y-78000000D01*
X187592500Y-78000000D02*
X187992500Y-77600000D01*
%TO.N,Net-(J1-CC2)*%
X186000000Y-81000000D02*
X187780000Y-81000000D01*
X187780000Y-81000000D02*
X187880000Y-80900000D01*
D38*
%TO.N,BOOT*%
X181300000Y-86380000D02*
X181440000Y-86240000D01*
X181300000Y-88000000D02*
X181300000Y-86380000D01*
D40*
%TO.N,3.3V*%
X183260000Y-73320000D02*
X183400000Y-73180000D01*
X183425000Y-75833858D02*
X183425000Y-75026142D01*
X200370000Y-80840000D02*
X199610000Y-80080000D01*
X183430000Y-75838858D02*
X183425000Y-75833858D01*
D42*
X186490000Y-70500000D02*
X189320000Y-70500000D01*
D40*
X183425000Y-75026142D02*
X183260000Y-74861142D01*
X195870000Y-81620000D02*
X196275000Y-82025000D01*
X183373871Y-76768871D02*
X183430000Y-76712742D01*
X199610000Y-80080000D02*
X199180000Y-80080000D01*
X183260000Y-74861142D02*
X183260000Y-73320000D01*
D42*
X185940000Y-72135000D02*
X185940000Y-71050000D01*
D40*
X200370000Y-81600000D02*
X200370000Y-80840000D01*
X199945000Y-82025000D02*
X200370000Y-81600000D01*
D42*
X185940000Y-71050000D02*
X186490000Y-70500000D01*
D40*
X196275000Y-82025000D02*
X199945000Y-82025000D01*
X183430000Y-76712742D02*
X183430000Y-75838858D01*
D42*
X183400000Y-73180000D02*
X184615000Y-73180000D01*
X184755000Y-73320000D02*
X185940000Y-72135000D01*
X184615000Y-73180000D02*
X184755000Y-73320000D01*
D38*
%TO.N,LED1_OUT*%
X181420000Y-71220000D02*
X181200000Y-71000000D01*
X182880000Y-71220000D02*
X181420000Y-71220000D01*
D40*
%TO.N,FB*%
X199365000Y-87855000D02*
X199500000Y-87990000D01*
X199020000Y-87990000D02*
X197510000Y-89500000D01*
X197550000Y-87855000D02*
X199365000Y-87855000D01*
X199500000Y-87990000D02*
X199020000Y-87990000D01*
%TO.N,SS*%
X197550000Y-86585000D02*
X199395000Y-86585000D01*
X199395000Y-86585000D02*
X199500000Y-86480000D01*
%TO.N,Net-(U3-BOOT)*%
X193435000Y-82760000D02*
X196520000Y-82760000D01*
X192150000Y-84045000D02*
X193435000Y-82760000D01*
%TO.N,+BATT*%
X189950000Y-83050000D02*
X190000000Y-83000000D01*
D41*
X189950000Y-86500000D02*
X191135000Y-85315000D01*
X191135000Y-85315000D02*
X192150000Y-85315000D01*
X189500000Y-89000000D02*
X189500000Y-88160000D01*
X190765000Y-85315000D02*
X191135000Y-85315000D01*
X189950000Y-84500000D02*
X190765000Y-85315000D01*
X189950000Y-86500000D02*
X189950000Y-84500000D01*
X189500000Y-88160000D02*
X189950000Y-87710000D01*
X189950000Y-87710000D02*
X189950000Y-86500000D01*
D40*
X189950000Y-84500000D02*
X189950000Y-83050000D01*
D41*
%TO.N,Net-(D2-K)*%
X201080000Y-84045000D02*
X204000000Y-81125000D01*
X197550000Y-84045000D02*
X201080000Y-84045000D01*
D38*
X197480000Y-83975000D02*
X197550000Y-84045000D01*
D41*
X201080000Y-84045000D02*
X201570000Y-84535000D01*
D38*
X197480000Y-82760000D02*
X197480000Y-83975000D01*
D41*
X201570000Y-84535000D02*
X201570000Y-86500000D01*
D40*
%TO.N,Switching frequency*%
X192150000Y-87855000D02*
X191500000Y-88505000D01*
X191500000Y-89490000D02*
X191490000Y-89500000D01*
X191500000Y-88505000D02*
X191500000Y-89490000D01*
D38*
%TO.N,PWM1*%
X181230000Y-72690000D02*
X181230000Y-72970000D01*
X181230000Y-72970000D02*
X181200000Y-73000000D01*
%TD*%
%TA.AperFunction,Conductor*%
%TO.N,GND*%
G36*
X185971580Y-70219407D02*
G01*
X186007544Y-70268907D01*
X186007544Y-70330093D01*
X185983393Y-70369503D01*
X185579511Y-70773385D01*
X185579507Y-70773390D01*
X185520198Y-70876115D01*
X185518159Y-70881040D01*
X185478422Y-70927565D01*
X185418927Y-70941848D01*
X185386709Y-70933718D01*
X185349374Y-70917233D01*
X185349373Y-70917232D01*
X185349371Y-70917232D01*
X185325822Y-70914500D01*
X185325816Y-70914500D01*
X184184184Y-70914500D01*
X184184177Y-70914500D01*
X184160629Y-70917232D01*
X184160626Y-70917232D01*
X184160626Y-70917233D01*
X184085284Y-70950500D01*
X184064265Y-70959781D01*
X183989781Y-71034265D01*
X183947232Y-71130629D01*
X183944500Y-71154177D01*
X183944500Y-71725822D01*
X183947232Y-71749370D01*
X183947232Y-71749371D01*
X183947233Y-71749374D01*
X183989781Y-71845735D01*
X184064265Y-71920219D01*
X184160626Y-71962767D01*
X184184184Y-71965500D01*
X185233389Y-71965500D01*
X185291580Y-71984407D01*
X185327544Y-72033907D01*
X185327544Y-72095093D01*
X185303393Y-72134503D01*
X184981122Y-72456774D01*
X184737392Y-72700504D01*
X184682875Y-72728281D01*
X184667388Y-72729500D01*
X183731772Y-72729500D01*
X183689933Y-72720224D01*
X183659493Y-72706029D01*
X183659490Y-72706028D01*
X183629735Y-72702111D01*
X183609901Y-72699500D01*
X183609899Y-72699500D01*
X183190103Y-72699500D01*
X183190092Y-72699501D01*
X183140513Y-72706027D01*
X183140511Y-72706027D01*
X183031686Y-72756774D01*
X182946774Y-72841686D01*
X182896029Y-72950510D01*
X182896028Y-72950511D01*
X182889500Y-73000100D01*
X182889500Y-73359895D01*
X182889501Y-73359907D01*
X182896027Y-73409485D01*
X182925224Y-73472097D01*
X182934500Y-73513937D01*
X182934500Y-74818289D01*
X182934500Y-74903995D01*
X182941333Y-74929496D01*
X182956683Y-74986785D01*
X182999531Y-75060999D01*
X182999533Y-75061001D01*
X182999535Y-75061004D01*
X183070505Y-75131974D01*
X183098281Y-75186489D01*
X183099500Y-75201976D01*
X183099500Y-75876710D01*
X183101127Y-75882782D01*
X183104500Y-75908405D01*
X183104500Y-76292980D01*
X183085593Y-76351171D01*
X183059026Y-76376262D01*
X183042745Y-76386725D01*
X182948493Y-76495499D01*
X182888705Y-76626414D01*
X182868224Y-76768868D01*
X182868224Y-76768873D01*
X182888705Y-76911327D01*
X182936535Y-77016058D01*
X182948494Y-77042244D01*
X182999487Y-77101093D01*
X183042744Y-77151015D01*
X183163813Y-77228821D01*
X183163818Y-77228824D01*
X183270274Y-77260082D01*
X183301906Y-77269370D01*
X183301907Y-77269370D01*
X183301910Y-77269371D01*
X183301912Y-77269371D01*
X183445830Y-77269371D01*
X183445832Y-77269371D01*
X183583924Y-77228824D01*
X183704999Y-77151014D01*
X183799248Y-77042244D01*
X183859036Y-76911328D01*
X183871811Y-76822474D01*
X183879518Y-76768873D01*
X183879518Y-76768866D01*
X183878767Y-76763643D01*
X183889201Y-76703354D01*
X183933079Y-76660712D01*
X183993642Y-76652005D01*
X184004380Y-76654503D01*
X184004493Y-76654519D01*
X184004495Y-76654520D01*
X184004497Y-76654520D01*
X184148415Y-76654520D01*
X184148417Y-76654520D01*
X184222610Y-76632735D01*
X184283769Y-76634482D01*
X184332221Y-76671845D01*
X184349500Y-76727725D01*
X184349500Y-76822474D01*
X184387017Y-76962489D01*
X184459487Y-77088010D01*
X184459489Y-77088012D01*
X184459491Y-77088015D01*
X184561985Y-77190509D01*
X184561987Y-77190510D01*
X184586551Y-77204692D01*
X184627493Y-77250161D01*
X184633889Y-77311011D01*
X184607056Y-77360432D01*
X183989511Y-77977979D01*
X183989507Y-77977984D01*
X183930200Y-78080706D01*
X183930200Y-78080707D01*
X183930201Y-78080708D01*
X183899500Y-78195285D01*
X183899500Y-81209309D01*
X183902016Y-81218697D01*
X183921644Y-81291951D01*
X183921644Y-81291952D01*
X183930198Y-81323881D01*
X183930202Y-81323889D01*
X183989507Y-81426609D01*
X183989509Y-81426611D01*
X183989511Y-81426614D01*
X184588296Y-82025399D01*
X184616072Y-82079914D01*
X184606501Y-82140346D01*
X184567798Y-82181134D01*
X184561987Y-82184489D01*
X184459487Y-82286989D01*
X184387017Y-82412510D01*
X184362354Y-82504552D01*
X184349500Y-82552525D01*
X184349500Y-82947475D01*
X184358080Y-82979496D01*
X184387017Y-83087489D01*
X184459487Y-83213010D01*
X184459489Y-83213012D01*
X184459491Y-83213015D01*
X184561985Y-83315509D01*
X184561987Y-83315510D01*
X184561989Y-83315512D01*
X184687511Y-83387982D01*
X184687512Y-83387982D01*
X184687515Y-83387984D01*
X184827525Y-83425500D01*
X184827526Y-83425500D01*
X184972474Y-83425500D01*
X184972475Y-83425500D01*
X185112485Y-83387984D01*
X185112487Y-83387982D01*
X185112489Y-83387982D01*
X185238010Y-83315512D01*
X185238010Y-83315511D01*
X185238015Y-83315509D01*
X185340509Y-83213015D01*
X185340512Y-83213010D01*
X185412982Y-83087489D01*
X185412982Y-83087487D01*
X185412984Y-83087485D01*
X185450500Y-82947475D01*
X185450500Y-82659500D01*
X185469407Y-82601309D01*
X185518907Y-82565345D01*
X185549500Y-82560500D01*
X186519747Y-82560500D01*
X186519748Y-82560500D01*
X186578231Y-82548867D01*
X186644552Y-82504552D01*
X186688867Y-82438231D01*
X186700500Y-82379748D01*
X186700500Y-81820252D01*
X186700499Y-81820250D01*
X186700499Y-81820244D01*
X186695083Y-81793020D01*
X186688867Y-81761769D01*
X186688866Y-81761767D01*
X186687881Y-81756816D01*
X186687881Y-81718184D01*
X186688866Y-81713232D01*
X186688867Y-81713231D01*
X186700500Y-81654748D01*
X186700500Y-81424500D01*
X186719407Y-81366309D01*
X186768907Y-81330345D01*
X186799500Y-81325500D01*
X187283651Y-81325500D01*
X187341842Y-81344407D01*
X187353654Y-81354496D01*
X187403586Y-81404427D01*
X187403589Y-81404429D01*
X187510815Y-81454430D01*
X187510816Y-81454430D01*
X187510818Y-81454431D01*
X187559675Y-81460863D01*
X187559676Y-81460863D01*
X187908305Y-81460863D01*
X187908307Y-81460863D01*
X187957164Y-81454431D01*
X188064395Y-81404428D01*
X188148056Y-81320767D01*
X188198059Y-81213536D01*
X188204491Y-81164679D01*
X188204491Y-80957007D01*
X188205338Y-80944085D01*
X188205500Y-80942854D01*
X188205500Y-80857147D01*
X188205338Y-80855917D01*
X188204491Y-80842995D01*
X188204491Y-80716048D01*
X188202778Y-80703035D01*
X188198059Y-80667190D01*
X188192651Y-80655593D01*
X188148057Y-80559961D01*
X188148056Y-80559960D01*
X188148056Y-80559959D01*
X188064395Y-80476298D01*
X188064393Y-80476297D01*
X188064392Y-80476296D01*
X188007112Y-80449586D01*
X187962364Y-80407858D01*
X187950689Y-80347797D01*
X187976547Y-80292344D01*
X188030061Y-80262681D01*
X188048950Y-80260862D01*
X188088205Y-80260862D01*
X188158277Y-80250654D01*
X188266366Y-80197812D01*
X188351440Y-80112738D01*
X188365049Y-80084899D01*
X188407590Y-80040926D01*
X188467856Y-80030355D01*
X188522825Y-80057226D01*
X188542930Y-80084897D01*
X188556539Y-80112734D01*
X188556541Y-80112736D01*
X188556542Y-80112738D01*
X188641616Y-80197812D01*
X188749705Y-80250654D01*
X188819776Y-80260863D01*
X189283205Y-80260862D01*
X189333407Y-80253548D01*
X189393713Y-80263869D01*
X189436438Y-80307667D01*
X189445258Y-80368213D01*
X189437734Y-80392634D01*
X189435595Y-80397318D01*
X189415114Y-80539771D01*
X189415114Y-80539776D01*
X189435595Y-80682230D01*
X189488077Y-80797147D01*
X189495384Y-80813147D01*
X189567445Y-80896310D01*
X189589634Y-80921918D01*
X189644234Y-80957007D01*
X189710708Y-80999727D01*
X189817164Y-81030985D01*
X189848796Y-81040273D01*
X189848797Y-81040273D01*
X189848800Y-81040274D01*
X189848802Y-81040274D01*
X189992720Y-81040274D01*
X189992722Y-81040274D01*
X190130814Y-80999727D01*
X190251889Y-80921917D01*
X190346138Y-80813147D01*
X190405926Y-80682231D01*
X190418557Y-80594375D01*
X190445551Y-80539472D01*
X190446473Y-80538535D01*
X190730460Y-80254550D01*
X190748990Y-80222456D01*
X190770020Y-80186031D01*
X190770020Y-80186029D01*
X190770022Y-80186027D01*
X190790500Y-80109601D01*
X190790500Y-80030477D01*
X190790500Y-79371125D01*
X190770021Y-79294698D01*
X190753632Y-79266312D01*
X190730460Y-79226176D01*
X190674511Y-79170226D01*
X190674511Y-79170227D01*
X190004187Y-78499903D01*
X190004184Y-78499901D01*
X189935668Y-78460343D01*
X189935664Y-78460341D01*
X189859240Y-78439863D01*
X189859238Y-78439863D01*
X189643377Y-78439863D01*
X189585186Y-78420956D01*
X189554436Y-78384344D01*
X189546440Y-78367989D01*
X189546440Y-78367988D01*
X189461366Y-78282914D01*
X189461364Y-78282913D01*
X189461363Y-78282912D01*
X189394040Y-78250000D01*
X189353277Y-78230072D01*
X189283206Y-78219863D01*
X189283202Y-78219863D01*
X188819781Y-78219863D01*
X188819778Y-78219863D01*
X188819777Y-78219864D01*
X188799664Y-78222794D01*
X188749703Y-78230072D01*
X188641617Y-78282913D01*
X188641616Y-78282913D01*
X188641616Y-78282914D01*
X188556542Y-78367988D01*
X188556541Y-78367989D01*
X188556540Y-78367991D01*
X188556538Y-78367993D01*
X188542931Y-78395827D01*
X188500388Y-78439801D01*
X188440122Y-78450370D01*
X188385154Y-78423497D01*
X188365051Y-78395827D01*
X188351443Y-78367993D01*
X188351442Y-78367991D01*
X188351440Y-78367989D01*
X188351440Y-78367988D01*
X188266366Y-78282914D01*
X188239939Y-78269994D01*
X188195966Y-78227451D01*
X188185397Y-78167185D01*
X188212270Y-78112217D01*
X188213357Y-78111111D01*
X188254065Y-78070404D01*
X188304068Y-77963173D01*
X188310500Y-77914316D01*
X188310500Y-77700253D01*
X190629500Y-77700253D01*
X190629500Y-78539746D01*
X190629501Y-78539758D01*
X190641132Y-78598227D01*
X190641134Y-78598233D01*
X190681835Y-78659145D01*
X190685448Y-78664552D01*
X190751769Y-78708867D01*
X190796231Y-78717711D01*
X190810241Y-78720498D01*
X190810246Y-78720498D01*
X190810252Y-78720500D01*
X190810253Y-78720500D01*
X192549747Y-78720500D01*
X192549748Y-78720500D01*
X192608231Y-78708867D01*
X192674552Y-78664552D01*
X192718867Y-78598231D01*
X192730500Y-78539748D01*
X192730500Y-77700252D01*
X192718867Y-77641769D01*
X192674552Y-77575448D01*
X192674548Y-77575445D01*
X192608233Y-77531134D01*
X192608231Y-77531133D01*
X192608228Y-77531132D01*
X192608227Y-77531132D01*
X192549758Y-77519501D01*
X192549748Y-77519500D01*
X192549747Y-77519500D01*
X192058000Y-77519500D01*
X191999809Y-77500593D01*
X191963845Y-77451093D01*
X191959000Y-77420500D01*
X191959000Y-76672236D01*
X191977907Y-76614045D01*
X191987996Y-76602232D01*
X193660732Y-74929496D01*
X193715249Y-74901719D01*
X193730736Y-74900500D01*
X194519264Y-74900500D01*
X194577455Y-74919407D01*
X194589268Y-74929496D01*
X194741926Y-75082154D01*
X194769703Y-75136671D01*
X194761975Y-75193285D01*
X194714833Y-75296509D01*
X194694352Y-75438963D01*
X194694352Y-75438968D01*
X194714833Y-75581422D01*
X194759617Y-75679484D01*
X194774622Y-75712339D01*
X194826210Y-75771875D01*
X194868872Y-75821110D01*
X194964836Y-75882782D01*
X194989946Y-75898919D01*
X195096402Y-75930177D01*
X195128034Y-75939465D01*
X195128035Y-75939465D01*
X195128038Y-75939466D01*
X195128040Y-75939466D01*
X195271958Y-75939466D01*
X195271960Y-75939466D01*
X195410052Y-75898919D01*
X195531127Y-75821109D01*
X195625376Y-75712339D01*
X195685164Y-75581423D01*
X195705646Y-75438966D01*
X195685164Y-75296509D01*
X195625376Y-75165593D01*
X195531127Y-75056823D01*
X195455526Y-75008237D01*
X195427736Y-74979092D01*
X195427205Y-74979500D01*
X195423412Y-74974556D01*
X195423314Y-74974454D01*
X195423255Y-74974351D01*
X194847148Y-74398244D01*
X194847145Y-74398242D01*
X194847142Y-74398239D01*
X194847143Y-74398239D01*
X194783532Y-74361516D01*
X194783524Y-74361512D01*
X194712571Y-74342500D01*
X194712569Y-74342500D01*
X193537431Y-74342500D01*
X193537428Y-74342500D01*
X193466475Y-74361512D01*
X193466473Y-74361513D01*
X193443184Y-74374959D01*
X193443183Y-74374958D01*
X193402855Y-74398241D01*
X191456742Y-76344354D01*
X191438321Y-76376262D01*
X191421446Y-76405492D01*
X191420013Y-76407972D01*
X191401000Y-76478931D01*
X191401000Y-77420500D01*
X191382093Y-77478691D01*
X191332593Y-77514655D01*
X191302000Y-77519500D01*
X190810252Y-77519500D01*
X190810251Y-77519500D01*
X190810241Y-77519501D01*
X190751772Y-77531132D01*
X190751766Y-77531134D01*
X190685451Y-77575445D01*
X190685445Y-77575451D01*
X190641134Y-77641766D01*
X190641132Y-77641772D01*
X190629501Y-77700241D01*
X190629500Y-77700253D01*
X188310500Y-77700253D01*
X188310500Y-77683875D01*
X188313874Y-77658249D01*
X188316219Y-77649501D01*
X188318000Y-77642853D01*
X188318000Y-77557148D01*
X188313873Y-77541745D01*
X188310500Y-77516123D01*
X188310500Y-77465685D01*
X188305321Y-77426348D01*
X188304068Y-77416827D01*
X188296285Y-77400137D01*
X188254066Y-77309598D01*
X188254065Y-77309597D01*
X188254065Y-77309596D01*
X188170404Y-77225935D01*
X188170402Y-77225934D01*
X188170401Y-77225933D01*
X188063175Y-77175932D01*
X188030601Y-77171644D01*
X188014316Y-77169500D01*
X188014315Y-77169500D01*
X187940519Y-77169500D01*
X187882328Y-77150593D01*
X187846364Y-77101093D01*
X187844893Y-77044875D01*
X187852615Y-77016058D01*
X187870500Y-76949308D01*
X187870500Y-76122611D01*
X187889407Y-76064420D01*
X187899496Y-76052607D01*
X188323107Y-75628996D01*
X188377624Y-75601219D01*
X188393111Y-75600000D01*
X188568405Y-75600000D01*
X188626596Y-75618907D01*
X188662560Y-75668407D01*
X188662560Y-75729593D01*
X188658458Y-75740127D01*
X188604834Y-75857543D01*
X188584353Y-75999997D01*
X188584353Y-76000002D01*
X188604834Y-76142456D01*
X188664622Y-76273371D01*
X188664623Y-76273373D01*
X188732035Y-76351171D01*
X188758873Y-76382144D01*
X188805307Y-76411985D01*
X188879947Y-76459953D01*
X188986403Y-76491211D01*
X189018035Y-76500499D01*
X189018036Y-76500499D01*
X189018039Y-76500500D01*
X189018041Y-76500500D01*
X189161959Y-76500500D01*
X189161961Y-76500500D01*
X189300053Y-76459953D01*
X189421128Y-76382143D01*
X189515377Y-76273373D01*
X189575165Y-76142457D01*
X189595647Y-76000000D01*
X189586943Y-75939465D01*
X189575165Y-75857543D01*
X189521542Y-75740127D01*
X189514567Y-75679340D01*
X189544653Y-75626063D01*
X189600309Y-75600645D01*
X189611595Y-75600000D01*
X191699999Y-75600000D01*
X191700000Y-75600000D01*
X191700000Y-73980979D01*
X191718907Y-73922788D01*
X191728996Y-73910976D01*
X191767064Y-73872907D01*
X191821580Y-73845129D01*
X191880548Y-73853969D01*
X191986104Y-73905572D01*
X191986105Y-73905572D01*
X191986107Y-73905573D01*
X192054240Y-73915500D01*
X192054243Y-73915500D01*
X192420757Y-73915500D01*
X192420760Y-73915500D01*
X192488893Y-73905573D01*
X192593983Y-73854198D01*
X192676698Y-73771483D01*
X192728073Y-73666393D01*
X192738000Y-73598260D01*
X192738000Y-72356740D01*
X192728073Y-72288607D01*
X192707833Y-72247206D01*
X192690932Y-72212634D01*
X192676698Y-72183517D01*
X192593983Y-72100802D01*
X192593981Y-72100801D01*
X192591996Y-72098816D01*
X192564219Y-72044299D01*
X192563000Y-72028812D01*
X192563000Y-71438334D01*
X192581907Y-71380143D01*
X192591996Y-71368330D01*
X193230830Y-70729496D01*
X193285347Y-70701719D01*
X193300834Y-70700500D01*
X195900500Y-70700500D01*
X195958691Y-70719407D01*
X195994655Y-70768907D01*
X195999500Y-70799500D01*
X195999500Y-71366148D01*
X196009641Y-71450591D01*
X196062634Y-71584972D01*
X196062635Y-71584974D01*
X196062636Y-71584975D01*
X196149922Y-71700078D01*
X196260321Y-71783797D01*
X196295262Y-71834022D01*
X196299500Y-71862679D01*
X196299500Y-74004274D01*
X196302353Y-74034694D01*
X196302355Y-74034703D01*
X196347205Y-74162878D01*
X196347206Y-74162879D01*
X196347207Y-74162882D01*
X196355156Y-74173653D01*
X196374497Y-74231699D01*
X196374500Y-74232439D01*
X196374500Y-74867560D01*
X196355593Y-74925751D01*
X196355155Y-74926348D01*
X196347207Y-74937116D01*
X196302355Y-75065296D01*
X196302353Y-75065305D01*
X196299500Y-75095725D01*
X196299500Y-76504274D01*
X196302353Y-76534694D01*
X196302355Y-76534703D01*
X196347206Y-76662881D01*
X196347207Y-76662882D01*
X196380154Y-76707524D01*
X196399497Y-76765570D01*
X196399500Y-76766312D01*
X196399500Y-77367560D01*
X196380593Y-77425751D01*
X196380155Y-77426348D01*
X196372207Y-77437116D01*
X196327355Y-77565296D01*
X196327353Y-77565305D01*
X196324500Y-77595725D01*
X196324500Y-79004274D01*
X196327353Y-79034694D01*
X196327355Y-79034703D01*
X196368944Y-79153558D01*
X196374500Y-79186256D01*
X196374500Y-79867560D01*
X196355593Y-79925751D01*
X196355155Y-79926348D01*
X196347207Y-79937116D01*
X196302355Y-80065296D01*
X196302353Y-80065305D01*
X196299500Y-80095725D01*
X196299500Y-81119772D01*
X196280593Y-81177963D01*
X196231093Y-81213927D01*
X196169907Y-81213927D01*
X196146977Y-81203056D01*
X196080057Y-81160049D01*
X196080054Y-81160047D01*
X196080053Y-81160047D01*
X196080050Y-81160046D01*
X195941964Y-81119500D01*
X195941961Y-81119500D01*
X195798039Y-81119500D01*
X195798035Y-81119500D01*
X195659949Y-81160046D01*
X195659942Y-81160049D01*
X195538873Y-81237855D01*
X195444622Y-81346628D01*
X195384834Y-81477543D01*
X195364353Y-81619997D01*
X195364353Y-81620002D01*
X195384834Y-81762456D01*
X195425042Y-81850498D01*
X195444623Y-81893373D01*
X195525974Y-81987258D01*
X195538873Y-82002144D01*
X195575056Y-82025397D01*
X195659947Y-82079953D01*
X195766403Y-82111211D01*
X195798035Y-82120499D01*
X195798036Y-82120499D01*
X195798039Y-82120500D01*
X195869165Y-82120500D01*
X195927356Y-82139407D01*
X195939169Y-82149496D01*
X196014535Y-82224862D01*
X196014534Y-82224862D01*
X196055169Y-82265496D01*
X196082947Y-82320012D01*
X196073376Y-82380444D01*
X196030112Y-82423709D01*
X195985166Y-82434500D01*
X193392147Y-82434500D01*
X193350754Y-82445591D01*
X193309360Y-82456682D01*
X193241213Y-82496026D01*
X193241212Y-82496028D01*
X193239585Y-82496967D01*
X193235139Y-82499534D01*
X192219169Y-83515504D01*
X192164652Y-83543281D01*
X192149165Y-83544500D01*
X191368771Y-83544500D01*
X191305915Y-83557002D01*
X191234635Y-83604631D01*
X191234631Y-83604635D01*
X191187002Y-83675915D01*
X191174500Y-83738771D01*
X191174500Y-84351226D01*
X191187002Y-84414084D01*
X191218016Y-84460498D01*
X191234625Y-84519386D01*
X191213448Y-84576790D01*
X191162574Y-84610783D01*
X191135701Y-84614500D01*
X191096165Y-84614500D01*
X191037974Y-84595593D01*
X191026161Y-84585504D01*
X190679496Y-84238839D01*
X190651719Y-84184322D01*
X190650500Y-84168835D01*
X190650500Y-83970727D01*
X190650499Y-83970725D01*
X190647646Y-83940305D01*
X190647646Y-83940301D01*
X190602793Y-83812118D01*
X190522150Y-83702850D01*
X190522146Y-83702847D01*
X190522144Y-83702845D01*
X190412884Y-83622207D01*
X190381178Y-83611113D01*
X190332498Y-83574047D01*
X190314902Y-83515446D01*
X190335111Y-83457695D01*
X190343867Y-83447672D01*
X190423224Y-83368316D01*
X190473972Y-83259487D01*
X190480500Y-83209901D01*
X190480499Y-82790100D01*
X190473972Y-82740513D01*
X190473972Y-82740511D01*
X190423225Y-82631686D01*
X190423224Y-82631685D01*
X190423224Y-82631684D01*
X190338316Y-82546776D01*
X190338314Y-82546775D01*
X190338313Y-82546774D01*
X190229489Y-82496029D01*
X190229488Y-82496028D01*
X190212958Y-82493852D01*
X190179901Y-82489500D01*
X190179899Y-82489500D01*
X189820104Y-82489500D01*
X189820092Y-82489501D01*
X189770513Y-82496027D01*
X189770511Y-82496027D01*
X189661686Y-82546774D01*
X189576774Y-82631686D01*
X189526029Y-82740510D01*
X189526028Y-82740511D01*
X189519500Y-82790100D01*
X189519500Y-83209896D01*
X189519501Y-83209907D01*
X189526027Y-83259486D01*
X189526027Y-83259488D01*
X189576774Y-83368313D01*
X189576775Y-83368314D01*
X189576776Y-83368316D01*
X189595505Y-83387045D01*
X189623281Y-83441560D01*
X189624500Y-83457047D01*
X189624500Y-83503890D01*
X189605593Y-83562081D01*
X189558199Y-83597334D01*
X189487115Y-83622207D01*
X189377855Y-83702845D01*
X189377845Y-83702855D01*
X189297207Y-83812116D01*
X189252355Y-83940296D01*
X189252353Y-83940305D01*
X189249500Y-83970725D01*
X189249500Y-87378835D01*
X189230593Y-87437026D01*
X189220504Y-87448838D01*
X188955885Y-87713457D01*
X188879223Y-87828191D01*
X188826420Y-87955670D01*
X188826420Y-87955672D01*
X188801741Y-88079744D01*
X188801740Y-88079746D01*
X188799500Y-88091002D01*
X188799500Y-88117185D01*
X188780593Y-88175376D01*
X188779384Y-88177004D01*
X188712637Y-88265023D01*
X188712634Y-88265027D01*
X188659641Y-88399408D01*
X188649500Y-88483851D01*
X188649500Y-89516148D01*
X188659641Y-89600591D01*
X188684718Y-89664181D01*
X188688477Y-89725251D01*
X188655622Y-89776867D01*
X188598703Y-89799313D01*
X188592621Y-89799500D01*
X180299500Y-89799500D01*
X180241309Y-89780593D01*
X180205345Y-89731093D01*
X180200500Y-89700500D01*
X180200500Y-87130253D01*
X180699500Y-87130253D01*
X180699500Y-88869746D01*
X180699501Y-88869758D01*
X180711132Y-88928227D01*
X180711134Y-88928233D01*
X180749688Y-88985932D01*
X180755448Y-88994552D01*
X180821769Y-89038867D01*
X180866231Y-89047711D01*
X180880241Y-89050498D01*
X180880246Y-89050498D01*
X180880252Y-89050500D01*
X180880253Y-89050500D01*
X181719747Y-89050500D01*
X181719748Y-89050500D01*
X181778231Y-89038867D01*
X181844552Y-88994552D01*
X181888867Y-88928231D01*
X181900500Y-88869748D01*
X181900500Y-87130252D01*
X181888867Y-87071769D01*
X181844552Y-87005448D01*
X181844548Y-87005445D01*
X181778233Y-86961134D01*
X181778231Y-86961133D01*
X181778228Y-86961132D01*
X181778227Y-86961132D01*
X181719758Y-86949501D01*
X181719748Y-86949500D01*
X181719747Y-86949500D01*
X181699500Y-86949500D01*
X181641309Y-86930593D01*
X181605345Y-86881093D01*
X181600500Y-86850500D01*
X181600500Y-86785856D01*
X181619407Y-86727665D01*
X181645977Y-86702572D01*
X181650051Y-86699953D01*
X181650053Y-86699953D01*
X181771128Y-86622143D01*
X181865377Y-86513373D01*
X181925165Y-86382457D01*
X181931992Y-86334971D01*
X181945647Y-86240002D01*
X181945647Y-86239997D01*
X181925165Y-86097543D01*
X181906546Y-86056774D01*
X181865377Y-85966627D01*
X181771128Y-85857857D01*
X181771127Y-85857856D01*
X181771126Y-85857855D01*
X181650057Y-85780049D01*
X181650054Y-85780047D01*
X181650053Y-85780047D01*
X181650050Y-85780046D01*
X181511964Y-85739500D01*
X181511961Y-85739500D01*
X181368039Y-85739500D01*
X181368035Y-85739500D01*
X181229949Y-85780046D01*
X181229942Y-85780049D01*
X181108873Y-85857855D01*
X181014622Y-85966628D01*
X180954834Y-86097543D01*
X180934353Y-86239997D01*
X180934353Y-86240002D01*
X180954834Y-86382455D01*
X180990553Y-86460667D01*
X180999500Y-86501794D01*
X180999500Y-86850500D01*
X180980593Y-86908691D01*
X180931093Y-86944655D01*
X180900500Y-86949500D01*
X180880252Y-86949500D01*
X180880251Y-86949500D01*
X180880241Y-86949501D01*
X180821772Y-86961132D01*
X180821766Y-86961134D01*
X180755451Y-87005445D01*
X180755445Y-87005451D01*
X180711134Y-87071766D01*
X180711132Y-87071772D01*
X180699501Y-87130241D01*
X180699500Y-87130253D01*
X180200500Y-87130253D01*
X180200500Y-80630253D01*
X180599500Y-80630253D01*
X180599500Y-81669746D01*
X180599501Y-81669758D01*
X180611132Y-81728227D01*
X180611134Y-81728233D01*
X180634002Y-81762457D01*
X180655448Y-81794552D01*
X180721769Y-81838867D01*
X180766231Y-81847711D01*
X180780241Y-81850498D01*
X180780246Y-81850498D01*
X180780252Y-81850500D01*
X180780253Y-81850500D01*
X182819747Y-81850500D01*
X182819748Y-81850500D01*
X182878231Y-81838867D01*
X182944552Y-81794552D01*
X182988867Y-81728231D01*
X183000500Y-81669748D01*
X183000500Y-80630252D01*
X183000345Y-80629475D01*
X182995694Y-80606093D01*
X182988867Y-80571769D01*
X182944552Y-80505448D01*
X182900924Y-80476296D01*
X182878233Y-80461134D01*
X182878231Y-80461133D01*
X182878228Y-80461132D01*
X182878227Y-80461132D01*
X182819758Y-80449501D01*
X182819748Y-80449500D01*
X180780252Y-80449500D01*
X180780251Y-80449500D01*
X180780241Y-80449501D01*
X180721772Y-80461132D01*
X180721766Y-80461134D01*
X180655451Y-80505445D01*
X180655445Y-80505451D01*
X180611134Y-80571766D01*
X180611132Y-80571772D01*
X180599501Y-80630241D01*
X180599500Y-80630253D01*
X180200500Y-80630253D01*
X180200500Y-77830253D01*
X180599500Y-77830253D01*
X180599500Y-78869746D01*
X180599501Y-78869758D01*
X180611132Y-78928227D01*
X180611133Y-78928231D01*
X180655448Y-78994552D01*
X180721769Y-79038867D01*
X180766231Y-79047711D01*
X180780241Y-79050498D01*
X180780246Y-79050498D01*
X180780252Y-79050500D01*
X180780253Y-79050500D01*
X182819747Y-79050500D01*
X182819748Y-79050500D01*
X182878231Y-79038867D01*
X182944552Y-78994552D01*
X182988867Y-78928231D01*
X183000500Y-78869748D01*
X183000500Y-77830252D01*
X182988867Y-77771769D01*
X182944552Y-77705448D01*
X182944548Y-77705445D01*
X182878233Y-77661134D01*
X182878231Y-77661133D01*
X182878228Y-77661132D01*
X182878227Y-77661132D01*
X182819758Y-77649501D01*
X182819748Y-77649500D01*
X180780252Y-77649500D01*
X180780251Y-77649500D01*
X180780241Y-77649501D01*
X180721772Y-77661132D01*
X180721766Y-77661134D01*
X180655451Y-77705445D01*
X180655445Y-77705451D01*
X180611134Y-77771766D01*
X180611132Y-77771772D01*
X180599501Y-77830241D01*
X180599500Y-77830253D01*
X180200500Y-77830253D01*
X180200500Y-73786087D01*
X180219407Y-73727896D01*
X180268907Y-73691932D01*
X180330093Y-73691932D01*
X180359316Y-73707202D01*
X180437485Y-73766480D01*
X180465022Y-73787362D01*
X180465027Y-73787365D01*
X180497620Y-73800218D01*
X180599410Y-73840359D01*
X180683856Y-73850500D01*
X180683858Y-73850500D01*
X181716142Y-73850500D01*
X181716144Y-73850500D01*
X181800590Y-73840359D01*
X181934975Y-73787364D01*
X182050078Y-73700078D01*
X182137364Y-73584975D01*
X182190359Y-73450590D01*
X182200500Y-73366144D01*
X182200500Y-72633856D01*
X182190359Y-72549410D01*
X182137364Y-72415025D01*
X182050078Y-72299922D01*
X181934975Y-72212636D01*
X181934974Y-72212635D01*
X181934972Y-72212634D01*
X181800591Y-72159641D01*
X181716148Y-72149500D01*
X181716144Y-72149500D01*
X180683856Y-72149500D01*
X180683851Y-72149500D01*
X180599408Y-72159641D01*
X180465027Y-72212634D01*
X180465027Y-72212635D01*
X180465026Y-72212635D01*
X180465025Y-72212636D01*
X180359318Y-72292796D01*
X180301528Y-72312891D01*
X180242963Y-72295180D01*
X180205992Y-72246427D01*
X180200500Y-72213912D01*
X180200500Y-71786087D01*
X180219407Y-71727896D01*
X180268907Y-71691932D01*
X180330093Y-71691932D01*
X180359316Y-71707202D01*
X180437485Y-71766480D01*
X180465022Y-71787362D01*
X180465027Y-71787365D01*
X180499499Y-71800959D01*
X180599410Y-71840359D01*
X180683856Y-71850500D01*
X180683858Y-71850500D01*
X181716142Y-71850500D01*
X181716144Y-71850500D01*
X181800590Y-71840359D01*
X181934975Y-71787364D01*
X182050078Y-71700078D01*
X182137364Y-71584975D01*
X182138072Y-71583180D01*
X182139018Y-71582032D01*
X182140684Y-71579071D01*
X182141215Y-71579369D01*
X182177009Y-71535983D01*
X182230169Y-71520500D01*
X182432917Y-71520500D01*
X182491108Y-71539407D01*
X182507733Y-71554667D01*
X182548872Y-71602143D01*
X182669947Y-71679953D01*
X182776403Y-71711211D01*
X182808035Y-71720499D01*
X182808036Y-71720499D01*
X182808039Y-71720500D01*
X182808041Y-71720500D01*
X182951959Y-71720500D01*
X182951961Y-71720500D01*
X183090053Y-71679953D01*
X183211128Y-71602143D01*
X183305377Y-71493373D01*
X183365165Y-71362457D01*
X183385647Y-71220000D01*
X183385596Y-71219647D01*
X183365165Y-71077543D01*
X183343876Y-71030928D01*
X183305377Y-70946627D01*
X183211128Y-70837857D01*
X183211127Y-70837856D01*
X183211126Y-70837855D01*
X183090057Y-70760049D01*
X183090054Y-70760047D01*
X183090053Y-70760047D01*
X183090050Y-70760046D01*
X182951964Y-70719500D01*
X182951961Y-70719500D01*
X182808039Y-70719500D01*
X182808035Y-70719500D01*
X182669949Y-70760046D01*
X182669942Y-70760049D01*
X182548876Y-70837854D01*
X182548875Y-70837855D01*
X182548872Y-70837857D01*
X182515722Y-70876115D01*
X182507736Y-70885331D01*
X182455340Y-70916927D01*
X182432917Y-70919500D01*
X182299500Y-70919500D01*
X182241309Y-70900593D01*
X182205345Y-70851093D01*
X182200500Y-70820500D01*
X182200500Y-70633857D01*
X182200499Y-70633851D01*
X182190359Y-70549410D01*
X182137364Y-70415025D01*
X182136286Y-70413604D01*
X182095121Y-70359320D01*
X182075025Y-70301529D01*
X182092736Y-70242963D01*
X182141488Y-70205992D01*
X182174004Y-70200500D01*
X185913389Y-70200500D01*
X185971580Y-70219407D01*
G37*
%TD.AperFunction*%
%TA.AperFunction,Conductor*%
G36*
X209758691Y-70219407D02*
G01*
X209794655Y-70268907D01*
X209799500Y-70299500D01*
X209799500Y-89700500D01*
X209780593Y-89758691D01*
X209731093Y-89794655D01*
X209700500Y-89799500D01*
X198079500Y-89799500D01*
X198021309Y-89780593D01*
X197985345Y-89731093D01*
X197980500Y-89700500D01*
X197980500Y-89530835D01*
X197999407Y-89472644D01*
X198009496Y-89460831D01*
X198429296Y-89041031D01*
X198853170Y-88617156D01*
X198907685Y-88589381D01*
X198968117Y-88598952D01*
X199011382Y-88642217D01*
X199020953Y-88702649D01*
X199012897Y-88729001D01*
X198985932Y-88786827D01*
X198979500Y-88835685D01*
X198979500Y-89184314D01*
X198985932Y-89233174D01*
X198985932Y-89233175D01*
X199035933Y-89340401D01*
X199035934Y-89340402D01*
X199035935Y-89340404D01*
X199119596Y-89424065D01*
X199119597Y-89424065D01*
X199119598Y-89424066D01*
X199226824Y-89474067D01*
X199226825Y-89474067D01*
X199226827Y-89474068D01*
X199275684Y-89480500D01*
X199275685Y-89480500D01*
X199724314Y-89480500D01*
X199724316Y-89480500D01*
X199773173Y-89474068D01*
X199858195Y-89434420D01*
X199918925Y-89426964D01*
X199953558Y-89440861D01*
X200003013Y-89472644D01*
X200029947Y-89489953D01*
X200119160Y-89516148D01*
X200168035Y-89530499D01*
X200168036Y-89530499D01*
X200168039Y-89530500D01*
X200168041Y-89530500D01*
X200311959Y-89530500D01*
X200311961Y-89530500D01*
X200450053Y-89489953D01*
X200571128Y-89412143D01*
X200665377Y-89303373D01*
X200725165Y-89172457D01*
X200742700Y-89050498D01*
X200745647Y-89030002D01*
X200745647Y-89029997D01*
X200725165Y-88887543D01*
X200701482Y-88835685D01*
X200665377Y-88756627D01*
X200571128Y-88647857D01*
X200571127Y-88647856D01*
X200571126Y-88647855D01*
X200450057Y-88570049D01*
X200450054Y-88570047D01*
X200450053Y-88570047D01*
X200450050Y-88570046D01*
X200311964Y-88529500D01*
X200311961Y-88529500D01*
X200168039Y-88529500D01*
X200168035Y-88529500D01*
X200029949Y-88570046D01*
X200029947Y-88570047D01*
X199989665Y-88595935D01*
X199988580Y-88596632D01*
X199929404Y-88612185D01*
X199888933Y-88598141D01*
X199888255Y-88599596D01*
X199880404Y-88595935D01*
X199867085Y-88589724D01*
X199822337Y-88547997D01*
X199810662Y-88487936D01*
X199836519Y-88432483D01*
X199867084Y-88410275D01*
X199880404Y-88404065D01*
X199964065Y-88320404D01*
X200014068Y-88213173D01*
X200020500Y-88164316D01*
X200020500Y-87815684D01*
X200014068Y-87766827D01*
X199964065Y-87659596D01*
X199880404Y-87575935D01*
X199880402Y-87575934D01*
X199880401Y-87575933D01*
X199773175Y-87525932D01*
X199740601Y-87521644D01*
X199724316Y-87519500D01*
X199275684Y-87519500D01*
X199275680Y-87519500D01*
X199219317Y-87526920D01*
X199219302Y-87526808D01*
X199200451Y-87529500D01*
X198595036Y-87529500D01*
X198536845Y-87510593D01*
X198512721Y-87485502D01*
X198465369Y-87414636D01*
X198465368Y-87414635D01*
X198465367Y-87414633D01*
X198465041Y-87414415D01*
X198394084Y-87367002D01*
X198331228Y-87354500D01*
X198331226Y-87354500D01*
X196768774Y-87354500D01*
X196768771Y-87354500D01*
X196705915Y-87367002D01*
X196634635Y-87414631D01*
X196634631Y-87414635D01*
X196587002Y-87485915D01*
X196574500Y-87548771D01*
X196574500Y-88161228D01*
X196587002Y-88224084D01*
X196614359Y-88265025D01*
X196634633Y-88295367D01*
X196643429Y-88301244D01*
X196705915Y-88342997D01*
X196726677Y-88347126D01*
X196768774Y-88355500D01*
X197955165Y-88355500D01*
X198013356Y-88374407D01*
X198049320Y-88423907D01*
X198049320Y-88485093D01*
X198025169Y-88524504D01*
X197599169Y-88950504D01*
X197544652Y-88978281D01*
X197529165Y-88979500D01*
X197335684Y-88979500D01*
X197331704Y-88980024D01*
X197286825Y-88985932D01*
X197286824Y-88985932D01*
X197179598Y-89035933D01*
X197095933Y-89119598D01*
X197045932Y-89226824D01*
X197045932Y-89226825D01*
X197039500Y-89275685D01*
X197039500Y-89700500D01*
X197020593Y-89758691D01*
X196971093Y-89794655D01*
X196940500Y-89799500D01*
X192059500Y-89799500D01*
X192001309Y-89780593D01*
X191965345Y-89731093D01*
X191960500Y-89700500D01*
X191960500Y-89275685D01*
X191960500Y-89275684D01*
X191954068Y-89226827D01*
X191904065Y-89119596D01*
X191904064Y-89119595D01*
X191854496Y-89070026D01*
X191826719Y-89015509D01*
X191825500Y-89000023D01*
X191825500Y-88680834D01*
X191844407Y-88622643D01*
X191854496Y-88610830D01*
X192080830Y-88384496D01*
X192135347Y-88356719D01*
X192150834Y-88355500D01*
X192931225Y-88355500D01*
X192931226Y-88355500D01*
X192994084Y-88342997D01*
X193065367Y-88295367D01*
X193112997Y-88224084D01*
X193125500Y-88161226D01*
X193125500Y-87548774D01*
X193112997Y-87485916D01*
X193112997Y-87485915D01*
X193065368Y-87414635D01*
X193065367Y-87414633D01*
X193065041Y-87414415D01*
X192994084Y-87367002D01*
X192931228Y-87354500D01*
X192931226Y-87354500D01*
X191368774Y-87354500D01*
X191368771Y-87354500D01*
X191305915Y-87367002D01*
X191234635Y-87414631D01*
X191234631Y-87414635D01*
X191187002Y-87485915D01*
X191174500Y-87548771D01*
X191174500Y-88161228D01*
X191187002Y-88224084D01*
X191187003Y-88224086D01*
X191206086Y-88252646D01*
X191222694Y-88311534D01*
X191209508Y-88357144D01*
X191196683Y-88379357D01*
X191196682Y-88379361D01*
X191182449Y-88432483D01*
X191176666Y-88454065D01*
X191176665Y-88454068D01*
X191174500Y-88462146D01*
X191174500Y-88980024D01*
X191155593Y-89038215D01*
X191145509Y-89050021D01*
X191075936Y-89119595D01*
X191075933Y-89119598D01*
X191025932Y-89226824D01*
X191025932Y-89226825D01*
X191019500Y-89275685D01*
X191019500Y-89700500D01*
X191000593Y-89758691D01*
X190951093Y-89794655D01*
X190920500Y-89799500D01*
X190407379Y-89799500D01*
X190349188Y-89780593D01*
X190313224Y-89731093D01*
X190313224Y-89669907D01*
X190315282Y-89664181D01*
X190322422Y-89646074D01*
X190340359Y-89600590D01*
X190350500Y-89516144D01*
X190350500Y-88483856D01*
X190340359Y-88399410D01*
X190338976Y-88395905D01*
X190338817Y-88393307D01*
X190338804Y-88393256D01*
X190338813Y-88393253D01*
X190335219Y-88334836D01*
X190361072Y-88289584D01*
X190426571Y-88224086D01*
X190494114Y-88156543D01*
X190570775Y-88041811D01*
X190623580Y-87914328D01*
X190650500Y-87778994D01*
X190650500Y-87641006D01*
X190650500Y-86831164D01*
X190669407Y-86772973D01*
X190679490Y-86761166D01*
X191005496Y-86435159D01*
X191060013Y-86407383D01*
X191120445Y-86416954D01*
X191163710Y-86460219D01*
X191174500Y-86505164D01*
X191174500Y-86891228D01*
X191187002Y-86954084D01*
X191221321Y-87005445D01*
X191234633Y-87025367D01*
X191258502Y-87041316D01*
X191305915Y-87072997D01*
X191326677Y-87077126D01*
X191368774Y-87085500D01*
X191368775Y-87085500D01*
X192931225Y-87085500D01*
X192931226Y-87085500D01*
X192994084Y-87072997D01*
X193065367Y-87025367D01*
X193112997Y-86954084D01*
X193125500Y-86891226D01*
X193125500Y-86278774D01*
X193125499Y-86278771D01*
X196574500Y-86278771D01*
X196574500Y-86891228D01*
X196587002Y-86954084D01*
X196621321Y-87005445D01*
X196634633Y-87025367D01*
X196658502Y-87041316D01*
X196705915Y-87072997D01*
X196726677Y-87077126D01*
X196768774Y-87085500D01*
X196768775Y-87085500D01*
X198331225Y-87085500D01*
X198331226Y-87085500D01*
X198394084Y-87072997D01*
X198465367Y-87025367D01*
X198489873Y-86988690D01*
X198512721Y-86954498D01*
X198560771Y-86916619D01*
X198595036Y-86910500D01*
X199125340Y-86910500D01*
X199167179Y-86919776D01*
X199240510Y-86953971D01*
X199240511Y-86953971D01*
X199240513Y-86953972D01*
X199290099Y-86960500D01*
X199709900Y-86960499D01*
X199759487Y-86953972D01*
X199759488Y-86953972D01*
X199839590Y-86916619D01*
X199868316Y-86903224D01*
X199953224Y-86818316D01*
X200003972Y-86709487D01*
X200010500Y-86659901D01*
X200010499Y-86300100D01*
X200003972Y-86250513D01*
X200003972Y-86250511D01*
X199953225Y-86141686D01*
X199953224Y-86141685D01*
X199953224Y-86141684D01*
X199868316Y-86056776D01*
X199868314Y-86056775D01*
X199868313Y-86056774D01*
X199759489Y-86006029D01*
X199759488Y-86006028D01*
X199742958Y-86003852D01*
X199709901Y-85999500D01*
X199709899Y-85999500D01*
X199290103Y-85999500D01*
X199290092Y-85999501D01*
X199240513Y-86006027D01*
X199240511Y-86006027D01*
X199131686Y-86056774D01*
X199046774Y-86141686D01*
X199018491Y-86202340D01*
X198976763Y-86247088D01*
X198928767Y-86259500D01*
X198595036Y-86259500D01*
X198536845Y-86240593D01*
X198512721Y-86215502D01*
X198465369Y-86144636D01*
X198465368Y-86144635D01*
X198465367Y-86144633D01*
X198460954Y-86141684D01*
X198394084Y-86097002D01*
X198331228Y-86084500D01*
X198331226Y-86084500D01*
X196768774Y-86084500D01*
X196768771Y-86084500D01*
X196705915Y-86097002D01*
X196634635Y-86144631D01*
X196634631Y-86144635D01*
X196587002Y-86215915D01*
X196574500Y-86278771D01*
X193125499Y-86278771D01*
X193112997Y-86215916D01*
X193112997Y-86215915D01*
X193065368Y-86144635D01*
X193065367Y-86144633D01*
X193060954Y-86141684D01*
X192994084Y-86097002D01*
X192931228Y-86084500D01*
X192931226Y-86084500D01*
X192585588Y-86084500D01*
X192527397Y-86065593D01*
X192491433Y-86016093D01*
X192491433Y-85954907D01*
X192527397Y-85905407D01*
X192530586Y-85903185D01*
X192558708Y-85884393D01*
X192596542Y-85859114D01*
X192611160Y-85844496D01*
X192665677Y-85816719D01*
X192681164Y-85815500D01*
X192931225Y-85815500D01*
X192931226Y-85815500D01*
X192994084Y-85802997D01*
X193065367Y-85755367D01*
X193112997Y-85684084D01*
X193125500Y-85621226D01*
X193125500Y-85008774D01*
X193112997Y-84945916D01*
X193112997Y-84945915D01*
X193065368Y-84874635D01*
X193065367Y-84874633D01*
X193049177Y-84863815D01*
X192994084Y-84827002D01*
X192931228Y-84814500D01*
X192931226Y-84814500D01*
X192681164Y-84814500D01*
X192622973Y-84795593D01*
X192611160Y-84785504D01*
X192596541Y-84770885D01*
X192530586Y-84726815D01*
X192492707Y-84678765D01*
X192490305Y-84617626D01*
X192524299Y-84566753D01*
X192581702Y-84545576D01*
X192585588Y-84545500D01*
X192931225Y-84545500D01*
X192931226Y-84545500D01*
X192994084Y-84532997D01*
X193065367Y-84485367D01*
X193112997Y-84414084D01*
X193125500Y-84351226D01*
X193125500Y-83738774D01*
X193112997Y-83675916D01*
X193112997Y-83675915D01*
X193104629Y-83663392D01*
X193088020Y-83604504D01*
X193109197Y-83547100D01*
X193116941Y-83538386D01*
X193540832Y-83114496D01*
X193595348Y-83086719D01*
X193610835Y-83085500D01*
X196015259Y-83085500D01*
X196073450Y-83104407D01*
X196096351Y-83127710D01*
X196096771Y-83128310D01*
X196096775Y-83128314D01*
X196096776Y-83128316D01*
X196181684Y-83213224D01*
X196290513Y-83263972D01*
X196340099Y-83270500D01*
X196699900Y-83270499D01*
X196749487Y-83263972D01*
X196749488Y-83263972D01*
X196840795Y-83221394D01*
X196858316Y-83213224D01*
X196929998Y-83141541D01*
X196984513Y-83113766D01*
X197044945Y-83123337D01*
X197070000Y-83141540D01*
X197141684Y-83213224D01*
X197141685Y-83213224D01*
X197147809Y-83219348D01*
X197145762Y-83221394D01*
X197174106Y-83259006D01*
X197179500Y-83291239D01*
X197179500Y-83397159D01*
X197160593Y-83455350D01*
X197135503Y-83479474D01*
X197103456Y-83500887D01*
X197088840Y-83515504D01*
X197034323Y-83543281D01*
X197018836Y-83544500D01*
X196768771Y-83544500D01*
X196705915Y-83557002D01*
X196634635Y-83604631D01*
X196634631Y-83604635D01*
X196587002Y-83675915D01*
X196574500Y-83738771D01*
X196574500Y-84351226D01*
X196587002Y-84414084D01*
X196634415Y-84485041D01*
X196634633Y-84485367D01*
X196658502Y-84501316D01*
X196705915Y-84532997D01*
X196726677Y-84537126D01*
X196768774Y-84545500D01*
X197018836Y-84545500D01*
X197077027Y-84564407D01*
X197088840Y-84574496D01*
X197103458Y-84589114D01*
X197218182Y-84665771D01*
X197218193Y-84665777D01*
X197265283Y-84685282D01*
X197345672Y-84718580D01*
X197481007Y-84745500D01*
X200138629Y-84745500D01*
X200196820Y-84764407D01*
X200232784Y-84813907D01*
X200235726Y-84863815D01*
X200224501Y-84920241D01*
X200224500Y-84920253D01*
X200224500Y-88079744D01*
X200224501Y-88079758D01*
X200236132Y-88138227D01*
X200236134Y-88138233D01*
X200280445Y-88204548D01*
X200280448Y-88204552D01*
X200346769Y-88248867D01*
X200391231Y-88257711D01*
X200405241Y-88260498D01*
X200405246Y-88260498D01*
X200405252Y-88260500D01*
X200405253Y-88260500D01*
X202734747Y-88260500D01*
X202734748Y-88260500D01*
X202793231Y-88248867D01*
X202859552Y-88204552D01*
X202903867Y-88138231D01*
X202915500Y-88079748D01*
X202915500Y-84920252D01*
X202903867Y-84861769D01*
X202859552Y-84795448D01*
X202822793Y-84770886D01*
X202793233Y-84751134D01*
X202793231Y-84751133D01*
X202793228Y-84751132D01*
X202793227Y-84751132D01*
X202734758Y-84739501D01*
X202734748Y-84739500D01*
X202734747Y-84739500D01*
X202369500Y-84739500D01*
X202311309Y-84720593D01*
X202275345Y-84671093D01*
X202270500Y-84640500D01*
X202270500Y-84466008D01*
X202270500Y-84466007D01*
X202247668Y-84351226D01*
X202243580Y-84330672D01*
X202190775Y-84203189D01*
X202124438Y-84103909D01*
X202107831Y-84045022D01*
X202129009Y-83987619D01*
X202136743Y-83978913D01*
X203136161Y-82979496D01*
X203190678Y-82951719D01*
X203206165Y-82950500D01*
X205237259Y-82950500D01*
X205237260Y-82950500D01*
X205267983Y-82947474D01*
X205386077Y-82935843D01*
X205386083Y-82935842D01*
X205577034Y-82877918D01*
X205656635Y-82835369D01*
X205753012Y-82783856D01*
X205753013Y-82783854D01*
X205753015Y-82783854D01*
X205907265Y-82657265D01*
X206033854Y-82503015D01*
X206035191Y-82500515D01*
X206101159Y-82377096D01*
X206127918Y-82327034D01*
X206185842Y-82136083D01*
X206191371Y-82079953D01*
X206200500Y-81987258D01*
X206200500Y-80262741D01*
X206199309Y-80250653D01*
X206192945Y-80186031D01*
X206185843Y-80113922D01*
X206185842Y-80113916D01*
X206164432Y-80043337D01*
X206127918Y-79922966D01*
X206072633Y-79819535D01*
X206033856Y-79746987D01*
X205907269Y-79592740D01*
X205907265Y-79592735D01*
X205891138Y-79579500D01*
X205753012Y-79466143D01*
X205577039Y-79372084D01*
X205577034Y-79372082D01*
X205386083Y-79314157D01*
X205386077Y-79314156D01*
X205246981Y-79300457D01*
X205237260Y-79299500D01*
X202762740Y-79299500D01*
X202753614Y-79300398D01*
X202613922Y-79314156D01*
X202613916Y-79314157D01*
X202422965Y-79372082D01*
X202422960Y-79372084D01*
X202246987Y-79466143D01*
X202092740Y-79592730D01*
X202092730Y-79592740D01*
X201966143Y-79746987D01*
X201872084Y-79922960D01*
X201872082Y-79922965D01*
X201814157Y-80113916D01*
X201814156Y-80113922D01*
X201799500Y-80262741D01*
X201799500Y-81987258D01*
X201814156Y-82136077D01*
X201814158Y-82136086D01*
X201839780Y-82220553D01*
X201838578Y-82281727D01*
X201815047Y-82319294D01*
X200818839Y-83315504D01*
X200764322Y-83343281D01*
X200748835Y-83344500D01*
X197926047Y-83344500D01*
X197867856Y-83325593D01*
X197831892Y-83276093D01*
X197831892Y-83214907D01*
X197856041Y-83175498D01*
X197903224Y-83128316D01*
X197953972Y-83019487D01*
X197960500Y-82969901D01*
X197960499Y-82550100D01*
X197960061Y-82546776D01*
X197954504Y-82504554D01*
X197953972Y-82500513D01*
X197949693Y-82491338D01*
X197942238Y-82430609D01*
X197971902Y-82377096D01*
X198027354Y-82351238D01*
X198039419Y-82350500D01*
X199987851Y-82350500D01*
X199987853Y-82350500D01*
X200070639Y-82328318D01*
X200070641Y-82328316D01*
X200070643Y-82328316D01*
X200144857Y-82285468D01*
X200144857Y-82285467D01*
X200144862Y-82285465D01*
X200569859Y-81860466D01*
X200569862Y-81860465D01*
X200630465Y-81799862D01*
X200652458Y-81761769D01*
X200673318Y-81725639D01*
X200695501Y-81642853D01*
X200695501Y-81557147D01*
X200695501Y-81551085D01*
X200695500Y-81551067D01*
X200695500Y-80797148D01*
X200688612Y-80771442D01*
X200673318Y-80714362D01*
X200630465Y-80640138D01*
X200602315Y-80611988D01*
X200569862Y-80579534D01*
X200569862Y-80579535D01*
X199809862Y-79819535D01*
X199809859Y-79819533D01*
X199809858Y-79819532D01*
X199809857Y-79819531D01*
X199735642Y-79776683D01*
X199735644Y-79776683D01*
X199703521Y-79768076D01*
X199652853Y-79754500D01*
X199652851Y-79754500D01*
X199605421Y-79754500D01*
X199547230Y-79735593D01*
X199530601Y-79720330D01*
X199511128Y-79697857D01*
X199511127Y-79697856D01*
X199390057Y-79620049D01*
X199390054Y-79620047D01*
X199390053Y-79620047D01*
X199390050Y-79620046D01*
X199251964Y-79579500D01*
X199251961Y-79579500D01*
X199108039Y-79579500D01*
X199108035Y-79579500D01*
X198969949Y-79620046D01*
X198969942Y-79620049D01*
X198848873Y-79697855D01*
X198754622Y-79806628D01*
X198694834Y-79937543D01*
X198674353Y-80079997D01*
X198674353Y-80080002D01*
X198694834Y-80222456D01*
X198749113Y-80341309D01*
X198754623Y-80353373D01*
X198839268Y-80451059D01*
X198848873Y-80462144D01*
X198969942Y-80539950D01*
X198969947Y-80539953D01*
X199078293Y-80571766D01*
X199097658Y-80577452D01*
X199148165Y-80611988D01*
X199168727Y-80669615D01*
X199151489Y-80728322D01*
X199103036Y-80765685D01*
X199069767Y-80771442D01*
X197949500Y-80771442D01*
X197891309Y-80752535D01*
X197855345Y-80703035D01*
X197850500Y-80672442D01*
X197850500Y-80095727D01*
X197850499Y-80095725D01*
X197849484Y-80084901D01*
X197847646Y-80065301D01*
X197802793Y-79937118D01*
X197802792Y-79937116D01*
X197794845Y-79926348D01*
X197775503Y-79868301D01*
X197775500Y-79867560D01*
X197775500Y-79266312D01*
X197794407Y-79208121D01*
X197794711Y-79207706D01*
X197827793Y-79162882D01*
X197872646Y-79034699D01*
X197875499Y-79004273D01*
X197875500Y-79004273D01*
X197875500Y-77595727D01*
X197875499Y-77595725D01*
X197872646Y-77565301D01*
X197827793Y-77437118D01*
X197827792Y-77437116D01*
X197819845Y-77426348D01*
X197800503Y-77368301D01*
X197800500Y-77367560D01*
X197800500Y-76686256D01*
X197806056Y-76653558D01*
X197841645Y-76551849D01*
X197847646Y-76534699D01*
X197850499Y-76504273D01*
X197850500Y-76504273D01*
X197850500Y-75095727D01*
X197850499Y-75095725D01*
X197847646Y-75065305D01*
X197847646Y-75065301D01*
X197802793Y-74937118D01*
X197797168Y-74929496D01*
X197794845Y-74926348D01*
X197775503Y-74868301D01*
X197775500Y-74867560D01*
X197775500Y-74232439D01*
X197794407Y-74174248D01*
X197794727Y-74173810D01*
X197802793Y-74162882D01*
X197847646Y-74034699D01*
X197850499Y-74004273D01*
X197850500Y-74004273D01*
X197850500Y-73556164D01*
X197869407Y-73497973D01*
X197879496Y-73486160D01*
X198761160Y-72604496D01*
X198815677Y-72576719D01*
X198831164Y-72575500D01*
X201700500Y-72575500D01*
X201758691Y-72594407D01*
X201794655Y-72643907D01*
X201799500Y-72674500D01*
X201799500Y-72737258D01*
X201814156Y-72886077D01*
X201814157Y-72886083D01*
X201872082Y-73077034D01*
X201872084Y-73077039D01*
X201966143Y-73253012D01*
X202058986Y-73366142D01*
X202092735Y-73407265D01*
X202092740Y-73407269D01*
X202246987Y-73533856D01*
X202381627Y-73605822D01*
X202422966Y-73627918D01*
X202555992Y-73668270D01*
X202613916Y-73685842D01*
X202613922Y-73685843D01*
X202738554Y-73698117D01*
X202762740Y-73700500D01*
X202762741Y-73700500D01*
X205237259Y-73700500D01*
X205237260Y-73700500D01*
X205266138Y-73697655D01*
X205386077Y-73685843D01*
X205386083Y-73685842D01*
X205577034Y-73627918D01*
X205711276Y-73556164D01*
X205753012Y-73533856D01*
X205753013Y-73533854D01*
X205753015Y-73533854D01*
X205907265Y-73407265D01*
X206033854Y-73253015D01*
X206127918Y-73077034D01*
X206185842Y-72886083D01*
X206187476Y-72869500D01*
X206200500Y-72737258D01*
X206200500Y-71012741D01*
X206185843Y-70863922D01*
X206185842Y-70863916D01*
X206158380Y-70773386D01*
X206127918Y-70672966D01*
X206127915Y-70672960D01*
X206033856Y-70496987D01*
X205923326Y-70362305D01*
X205901026Y-70305328D01*
X205916475Y-70246125D01*
X205963772Y-70207310D01*
X205999854Y-70200500D01*
X209700500Y-70200500D01*
X209758691Y-70219407D01*
G37*
%TD.AperFunction*%
%TA.AperFunction,Conductor*%
G36*
X189266397Y-71659407D02*
G01*
X189302361Y-71708907D01*
X189302361Y-71770093D01*
X189278211Y-71809501D01*
X189225034Y-71862679D01*
X189179508Y-71908205D01*
X189179507Y-71908206D01*
X189120203Y-72010923D01*
X189120199Y-72010933D01*
X189114938Y-72030571D01*
X189114938Y-72030572D01*
X189089499Y-72125509D01*
X189088653Y-72131940D01*
X189086488Y-72131655D01*
X189070593Y-72180578D01*
X189060503Y-72192391D01*
X188882389Y-72370504D01*
X188827873Y-72398281D01*
X188812386Y-72399500D01*
X188490104Y-72399500D01*
X188490092Y-72399501D01*
X188440513Y-72406027D01*
X188440511Y-72406027D01*
X188331686Y-72456774D01*
X188246774Y-72541686D01*
X188196029Y-72650510D01*
X188196028Y-72650511D01*
X188189500Y-72700100D01*
X188189500Y-72712389D01*
X188170593Y-72770580D01*
X188160504Y-72782392D01*
X188102394Y-72840503D01*
X188047878Y-72868281D01*
X188032390Y-72869500D01*
X188006461Y-72869500D01*
X187948270Y-72850593D01*
X187936463Y-72840509D01*
X187935735Y-72839781D01*
X187839374Y-72797233D01*
X187839371Y-72797232D01*
X187839370Y-72797232D01*
X187815822Y-72794500D01*
X187815816Y-72794500D01*
X186674184Y-72794500D01*
X186674177Y-72794500D01*
X186650629Y-72797232D01*
X186650626Y-72797232D01*
X186650626Y-72797233D01*
X186554265Y-72839781D01*
X186479781Y-72914265D01*
X186437232Y-73010629D01*
X186434500Y-73034177D01*
X186434500Y-73605822D01*
X186437232Y-73629370D01*
X186437232Y-73629371D01*
X186437233Y-73629374D01*
X186479781Y-73725735D01*
X186554265Y-73800219D01*
X186650626Y-73842767D01*
X186674184Y-73845500D01*
X187001000Y-73845500D01*
X187059191Y-73864407D01*
X187095155Y-73913907D01*
X187100000Y-73944500D01*
X187100000Y-75536889D01*
X187081093Y-75595080D01*
X187071006Y-75606890D01*
X187059512Y-75618384D01*
X187059507Y-75618390D01*
X187000200Y-75721112D01*
X187000200Y-75721113D01*
X187000201Y-75721114D01*
X186969500Y-75835692D01*
X186969500Y-76662389D01*
X186950593Y-76720580D01*
X186940504Y-76732393D01*
X186752393Y-76920504D01*
X186697876Y-76948281D01*
X186682389Y-76949500D01*
X186579773Y-76949500D01*
X186560459Y-76947598D01*
X186519750Y-76939500D01*
X186519748Y-76939500D01*
X185547981Y-76939500D01*
X185489790Y-76920593D01*
X185453826Y-76871093D01*
X185449828Y-76827576D01*
X185450500Y-76822472D01*
X185450500Y-76677525D01*
X185443662Y-76652005D01*
X185412984Y-76537515D01*
X185412982Y-76537512D01*
X185412982Y-76537510D01*
X185340512Y-76411989D01*
X185340510Y-76411987D01*
X185340509Y-76411985D01*
X185238015Y-76309491D01*
X185238012Y-76309489D01*
X185238010Y-76309487D01*
X185112488Y-76237017D01*
X185112489Y-76237017D01*
X185082801Y-76229062D01*
X184972475Y-76199500D01*
X184827525Y-76199500D01*
X184758381Y-76218027D01*
X184705245Y-76232265D01*
X184644144Y-76229062D01*
X184596594Y-76190557D01*
X184581630Y-76150727D01*
X184561621Y-76011563D01*
X184528695Y-75939466D01*
X184501833Y-75880647D01*
X184407584Y-75771877D01*
X184407583Y-75771876D01*
X184407582Y-75771875D01*
X184337521Y-75726850D01*
X184298789Y-75679484D01*
X184292044Y-75643566D01*
X184292044Y-74551115D01*
X184310951Y-74492924D01*
X184318285Y-74484933D01*
X184318035Y-74484716D01*
X184322672Y-74479365D01*
X184416921Y-74370595D01*
X184476709Y-74239679D01*
X184483536Y-74192193D01*
X184497191Y-74097224D01*
X184497191Y-74097218D01*
X184477260Y-73958589D01*
X184487693Y-73898299D01*
X184531572Y-73855657D01*
X184575252Y-73845500D01*
X185325816Y-73845500D01*
X185349374Y-73842767D01*
X185445735Y-73800219D01*
X185520219Y-73725735D01*
X185562767Y-73629374D01*
X185565500Y-73605816D01*
X185565500Y-73187610D01*
X185584407Y-73129419D01*
X185594490Y-73117612D01*
X186300489Y-72411614D01*
X186359799Y-72308887D01*
X186376326Y-72247207D01*
X186390500Y-72194309D01*
X186390500Y-71995461D01*
X186409407Y-71937270D01*
X186458907Y-71901306D01*
X186520093Y-71901306D01*
X186545453Y-71916847D01*
X186546696Y-71915034D01*
X186554263Y-71920217D01*
X186554265Y-71920219D01*
X186650626Y-71962767D01*
X186674184Y-71965500D01*
X187815816Y-71965500D01*
X187839374Y-71962767D01*
X187935735Y-71920219D01*
X188010219Y-71845735D01*
X188052767Y-71749374D01*
X188055236Y-71728089D01*
X188080722Y-71672468D01*
X188134037Y-71642447D01*
X188153576Y-71640500D01*
X189208206Y-71640500D01*
X189266397Y-71659407D01*
G37*
%TD.AperFunction*%
%TD*%
D43*
X181000000Y-82750000D03*
X181000000Y-82000000D03*
X183250000Y-82000000D03*
X181750000Y-82750000D03*
X183250000Y-82750000D03*
X182500000Y-82000000D03*
X181750000Y-82000000D03*
X182500000Y-82750000D03*
X183500000Y-88500000D03*
X183500000Y-87000000D03*
X183500000Y-89250000D03*
X182750000Y-87750000D03*
X183500000Y-87750000D03*
X182750000Y-88500000D03*
X182750000Y-89250000D03*
X182750000Y-87000000D03*
X185500000Y-87000000D03*
X185500000Y-89250000D03*
X186250000Y-88500000D03*
X185500000Y-88500000D03*
X186250000Y-87000000D03*
X185500000Y-87750000D03*
X186250000Y-89250000D03*
X186250000Y-87750000D03*
X204000000Y-88000000D03*
X204750000Y-86500000D03*
X204000000Y-88750000D03*
X206250000Y-87250000D03*
X205500000Y-88750000D03*
X204000000Y-87250000D03*
X205500000Y-87250000D03*
X204750000Y-88000000D03*
X204000000Y-86500000D03*
X206250000Y-86500000D03*
X204750000Y-88750000D03*
X205500000Y-88000000D03*
X204750000Y-87250000D03*
X205500000Y-86500000D03*
X206250000Y-88000000D03*
X206250000Y-88750000D03*
X205500000Y-85750000D03*
X205500000Y-85000000D03*
X206250000Y-83500000D03*
X204000000Y-83500000D03*
X204750000Y-85750000D03*
X204000000Y-84250000D03*
X204750000Y-84250000D03*
X204750000Y-85000000D03*
X205500000Y-83500000D03*
X206250000Y-85000000D03*
X206250000Y-85750000D03*
X205500000Y-84250000D03*
X206250000Y-84250000D03*
X204000000Y-85750000D03*
X204000000Y-85000000D03*
X204750000Y-83500000D03*
X200250000Y-76000000D03*
X200250000Y-76750000D03*
X201000000Y-75250000D03*
X201000000Y-76750000D03*
X201000000Y-76000000D03*
X201000000Y-77500000D03*
X201000000Y-78250000D03*
X200250000Y-77500000D03*
X200250000Y-78250000D03*
X200250000Y-75250000D03*
X201000000Y-74500000D03*
X200250000Y-74500000D03*
X203250000Y-77500000D03*
X201750000Y-77500000D03*
X203250000Y-78250000D03*
X201750000Y-78250000D03*
X202500000Y-77500000D03*
X202500000Y-78250000D03*
X206250000Y-78250000D03*
X204000000Y-77500000D03*
X205500000Y-78250000D03*
X204750000Y-77500000D03*
X206250000Y-77500000D03*
X205500000Y-77500000D03*
X204000000Y-78250000D03*
X204750000Y-78250000D03*
X203250000Y-76750000D03*
X205500000Y-74500000D03*
X201750000Y-75250000D03*
X206250000Y-75250000D03*
X204000000Y-75250000D03*
X206250000Y-76000000D03*
X202500000Y-76750000D03*
X204750000Y-76750000D03*
X205500000Y-75250000D03*
X204750000Y-76000000D03*
X201750000Y-76000000D03*
X202500000Y-76000000D03*
X203250000Y-75250000D03*
X203250000Y-76000000D03*
X206250000Y-74500000D03*
X204000000Y-76000000D03*
X204750000Y-74500000D03*
X204750000Y-75250000D03*
X202500000Y-75250000D03*
X205500000Y-76750000D03*
X204000000Y-74500000D03*
X203250000Y-74500000D03*
X202500000Y-74500000D03*
X201750000Y-74500000D03*
X204000000Y-76750000D03*
X205500000Y-76000000D03*
X206250000Y-76750000D03*
X201750000Y-76750000D03*
X207750000Y-79750000D03*
X207000000Y-83500000D03*
X207750000Y-80500000D03*
X207000000Y-72250000D03*
X207000000Y-73000000D03*
X207000000Y-73750000D03*
X207750000Y-78250000D03*
X207000000Y-74500000D03*
X207000000Y-79000000D03*
X207000000Y-82750000D03*
X207000000Y-76750000D03*
X207750000Y-81250000D03*
X207000000Y-78250000D03*
X207000000Y-80500000D03*
X207000000Y-76000000D03*
X207750000Y-79000000D03*
X207750000Y-84250000D03*
X207000000Y-79750000D03*
X207000000Y-71500000D03*
X207750000Y-77500000D03*
X207000000Y-81250000D03*
X207000000Y-77500000D03*
X207750000Y-82750000D03*
X207000000Y-84250000D03*
X207750000Y-83500000D03*
X207000000Y-75250000D03*
X207000000Y-70750000D03*
X207000000Y-82000000D03*
X207750000Y-82000000D03*
X207750000Y-76750000D03*
X207750000Y-76000000D03*
X207750000Y-75250000D03*
X207750000Y-74500000D03*
X207750000Y-73750000D03*
X207750000Y-73000000D03*
X207750000Y-72250000D03*
X207750000Y-71500000D03*
X207750000Y-70750000D03*
X208500000Y-79750000D03*
X208500000Y-80500000D03*
X208500000Y-78250000D03*
X208500000Y-81250000D03*
X208500000Y-79000000D03*
X208500000Y-84250000D03*
X208500000Y-77500000D03*
X208500000Y-82750000D03*
X208500000Y-83500000D03*
X208500000Y-82000000D03*
X208500000Y-76750000D03*
X208500000Y-76000000D03*
X208500000Y-75250000D03*
X208500000Y-74500000D03*
X208500000Y-73750000D03*
X208500000Y-73000000D03*
X208500000Y-72250000D03*
X208500000Y-71500000D03*
X208500000Y-70750000D03*
X209250000Y-84250000D03*
X209250000Y-83500000D03*
X209250000Y-82750000D03*
X209250000Y-82000000D03*
X209250000Y-81250000D03*
X209250000Y-80500000D03*
X209250000Y-79750000D03*
X209250000Y-79000000D03*
X209250000Y-78250000D03*
X209250000Y-77500000D03*
X209250000Y-76750000D03*
X209250000Y-76000000D03*
X209250000Y-75250000D03*
X209250000Y-74500000D03*
X209250000Y-73750000D03*
X209250000Y-73000000D03*
X209250000Y-72250000D03*
X209250000Y-71500000D03*
X209250000Y-70750000D03*
X193030000Y-78250000D03*
X192500000Y-79850000D03*
X191500000Y-82810000D03*
X190830000Y-82120000D03*
X191470000Y-82170000D03*
X188620000Y-77960000D03*
X198490000Y-75050000D03*
X195240000Y-71080000D03*
X190870000Y-82810000D03*
X198900000Y-77810000D03*
X192851303Y-74024580D03*
X193300000Y-79060000D03*
X194150000Y-79870000D03*
X192510000Y-79010000D03*
X194170000Y-79080000D03*
X193270000Y-79860000D03*
X184076456Y-76154020D03*
X200240000Y-89030000D03*
X199743058Y-81096942D03*
X183991544Y-74097222D03*
X189090000Y-76000000D03*
X181440000Y-86240000D03*
X195199999Y-75438966D03*
X189920761Y-80539774D03*
X189890000Y-79740363D03*
X199180000Y-80080000D03*
X183373871Y-76768871D03*
X195870000Y-81620000D03*
X189320000Y-70500000D03*
X182880000Y-71220000D03*
X181230000Y-72690000D03*
D44*
X184900000Y-76750000D03*
D45*
X184900000Y-82750000D03*
D46*
X185625000Y-75430000D03*
D47*
X181800000Y-75430000D03*
D46*
X185625000Y-84070000D03*
D47*
X181800000Y-84070000D03*
D48*
X194200000Y-84000000D03*
X195500000Y-84000000D03*
X194200000Y-85300000D03*
X195500000Y-85300000D03*
X194200000Y-86600000D03*
X195500000Y-86600000D03*
X194200000Y-87900000D03*
X195500000Y-87900000D03*
M02*
