M48
; DRILL file {KiCad 8.0.6} date 2025-10-07T13:26:47+0200
; FORMAT={-:-/ absolute / metric / decimal}
; #@! TF.CreationDate,2025-10-07T13:26:47+02:00
; #@! TF.GenerationSoftware,Kicad,Pcbnew,8.0.6
; #@! TF.FileFunction,MixedPlating,1,2
FMAT,2
METRIC
; #@! TA.AperFunction,Plated,PTH,ComponentDrill
T1C0.200
; #@! TA.AperFunction,Plated,PTH,ViaDrill
T2C0.300
; #@! TA.AperFunction,Plated,PTH,ComponentDrill
T3C0.600
; #@! TA.AperFunction,NonPlated,NPTH,ComponentDrill
T4C0.600
%
G90
G05
T1
X194.2Y-84.0
X194.2Y-85.3
X194.2Y-86.6
X194.2Y-87.9
X195.5Y-84.0
X195.5Y-85.3
X195.5Y-86.6
X195.5Y-87.9
T2
X181.0Y-82.0
X181.0Y-82.75
X181.23Y-72.69
X181.44Y-86.24
X181.75Y-82.0
X181.75Y-82.75
X182.5Y-82.0
X182.5Y-82.75
X182.75Y-87.0
X182.75Y-87.75
X182.75Y-88.5
X182.75Y-89.25
X182.88Y-71.22
X183.25Y-82.0
X183.25Y-82.75
X183.374Y-76.769
X183.5Y-87.0
X183.5Y-87.75
X183.5Y-88.5
X183.5Y-89.25
X183.992Y-74.097
X184.076Y-76.154
X185.5Y-87.0
X185.5Y-87.75
X185.5Y-88.5
X185.5Y-89.25
X186.25Y-87.0
X186.25Y-87.75
X186.25Y-88.5
X186.25Y-89.25
X188.62Y-77.96
X189.09Y-76.0
X189.32Y-70.5
X189.89Y-79.74
X189.921Y-80.54
X190.83Y-82.12
X190.87Y-82.81
X191.47Y-82.17
X191.5Y-82.81
X192.5Y-79.85
X192.51Y-79.01
X192.851Y-74.025
X193.03Y-78.25
X193.27Y-79.86
X193.3Y-79.06
X194.15Y-79.87
X194.17Y-79.08
X195.2Y-75.439
X195.24Y-71.08
X195.87Y-81.62
X198.49Y-75.05
X198.9Y-77.81
X199.18Y-80.08
X199.743Y-81.097
X200.24Y-89.03
X200.25Y-74.5
X200.25Y-75.25
X200.25Y-76.0
X200.25Y-76.75
X200.25Y-77.5
X200.25Y-78.25
X201.0Y-74.5
X201.0Y-75.25
X201.0Y-76.0
X201.0Y-76.75
X201.0Y-77.5
X201.0Y-78.25
X201.75Y-74.5
X201.75Y-75.25
X201.75Y-76.0
X201.75Y-76.75
X201.75Y-77.5
X201.75Y-78.25
X202.5Y-74.5
X202.5Y-75.25
X202.5Y-76.0
X202.5Y-76.75
X202.5Y-77.5
X202.5Y-78.25
X203.25Y-74.5
X203.25Y-75.25
X203.25Y-76.0
X203.25Y-76.75
X203.25Y-77.5
X203.25Y-78.25
X204.0Y-74.5
X204.0Y-75.25
X204.0Y-76.0
X204.0Y-76.75
X204.0Y-77.5
X204.0Y-78.25
X204.0Y-83.5
X204.0Y-84.25
X204.0Y-85.0
X204.0Y-85.75
X204.0Y-86.5
X204.0Y-87.25
X204.0Y-88.0
X204.0Y-88.75
X204.75Y-74.5
X204.75Y-75.25
X204.75Y-76.0
X204.75Y-76.75
X204.75Y-77.5
X204.75Y-78.25
X204.75Y-83.5
X204.75Y-84.25
X204.75Y-85.0
X204.75Y-85.75
X204.75Y-86.5
X204.75Y-87.25
X204.75Y-88.0
X204.75Y-88.75
X205.5Y-74.5
X205.5Y-75.25
X205.5Y-76.0
X205.5Y-76.75
X205.5Y-77.5
X205.5Y-78.25
X205.5Y-83.5
X205.5Y-84.25
X205.5Y-85.0
X205.5Y-85.75
X205.5Y-86.5
X205.5Y-87.25
X205.5Y-88.0
X205.5Y-88.75
X206.25Y-74.5
X206.25Y-75.25
X206.25Y-76.0
X206.25Y-76.75
X206.25Y-77.5
X206.25Y-78.25
X206.25Y-83.5
X206.25Y-84.25
X206.25Y-85.0
X206.25Y-85.75
X206.25Y-86.5
X206.25Y-87.25
X206.25Y-88.0
X206.25Y-88.75
X207.0Y-70.75
X207.0Y-71.5
X207.0Y-72.25
X207.0Y-73.0
X207.0Y-73.75
X207.0Y-74.5
X207.0Y-75.25
X207.0Y-76.0
X207.0Y-76.75
X207.0Y-77.5
X207.0Y-78.25
X207.0Y-79.0
X207.0Y-79.75
X207.0Y-80.5
X207.0Y-81.25
X207.0Y-82.0
X207.0Y-82.75
X207.0Y-83.5
X207.0Y-84.25
X207.75Y-70.75
X207.75Y-71.5
X207.75Y-72.25
X207.75Y-73.0
X207.75Y-73.75
X207.75Y-74.5
X207.75Y-75.25
X207.75Y-76.0
X207.75Y-76.75
X207.75Y-77.5
X207.75Y-78.25
X207.75Y-79.0
X207.75Y-79.75
X207.75Y-80.5
X207.75Y-81.25
X207.75Y-82.0
X207.75Y-82.75
X207.75Y-83.5
X207.75Y-84.25
X208.5Y-70.75
X208.5Y-71.5
X208.5Y-72.25
X208.5Y-73.0
X208.5Y-73.75
X208.5Y-74.5
X208.5Y-75.25
X208.5Y-76.0
X208.5Y-76.75
X208.5Y-77.5
X208.5Y-78.25
X208.5Y-79.0
X208.5Y-79.75
X208.5Y-80.5
X208.5Y-81.25
X208.5Y-82.0
X208.5Y-82.75
X208.5Y-83.5
X208.5Y-84.25
X209.25Y-70.75
X209.25Y-71.5
X209.25Y-72.25
X209.25Y-73.0
X209.25Y-73.75
X209.25Y-74.5
X209.25Y-75.25
X209.25Y-76.0
X209.25Y-76.75
X209.25Y-77.5
X209.25Y-78.25
X209.25Y-79.0
X209.25Y-79.75
X209.25Y-80.5
X209.25Y-81.25
X209.25Y-82.0
X209.25Y-82.75
X209.25Y-83.5
X209.25Y-84.25
T4
X184.9Y-76.75
T3
G00X182.45Y-75.43
M15
G01X181.15Y-75.43
M16
G05
G00X182.45Y-84.07
M15
G01X181.15Y-84.07
M16
G05
G00X186.125Y-75.43
M15
G01X185.125Y-75.43
M16
G05
G00X186.125Y-84.07
M15
G01X185.125Y-84.07
M16
G05
T4
G00X184.9Y-82.625
M15
G01X184.9Y-82.875
M16
G05
M30
