%TF.GenerationSoftware,KiCad,Pcbnew,8.0.6*%
%TF.CreationDate,2025-10-07T13:26:48+02:00*%
%TF.ProjectId,PCB WLED Spec 7,50434220-574c-4454-9420-537065632037,rev?*%
%TF.SameCoordinates,Original*%
%TF.FileFunction,Legend,Bot*%
%TF.FilePolarity,Positive*%
%FSLAX46Y46*%
G04 Gerber Fmt 4.6, Leading zero omitted, Abs format (unit mm)*
G04 Created by KiCad (PCBNEW 8.0.6) date 2025-10-07 13:26:48*
%MOMM*%
%LPD*%
G01*
G04 APERTURE LIST*
%ADD10C,0.100000*%
%ADD11C,0.000000*%
%ADD12C,0.120000*%
%ADD13C,0.200000*%
%ADD14C,0.127000*%
%ADD15C,0.350000*%
%ADD16O,0.599999X0.849999*%
%ADD17O,1.600000X0.600000*%
%ADD18O,1.900000X0.600000*%
%ADD19C,0.200000*%
G04 APERTURE END LIST*
D10*
X200025163Y-84793609D02*
X200025163Y-84293609D01*
X200025163Y-84293609D02*
X199906115Y-84293609D01*
X199906115Y-84293609D02*
X199834687Y-84317419D01*
X199834687Y-84317419D02*
X199787068Y-84365038D01*
X199787068Y-84365038D02*
X199763258Y-84412657D01*
X199763258Y-84412657D02*
X199739449Y-84507895D01*
X199739449Y-84507895D02*
X199739449Y-84579323D01*
X199739449Y-84579323D02*
X199763258Y-84674561D01*
X199763258Y-84674561D02*
X199787068Y-84722180D01*
X199787068Y-84722180D02*
X199834687Y-84769800D01*
X199834687Y-84769800D02*
X199906115Y-84793609D01*
X199906115Y-84793609D02*
X200025163Y-84793609D01*
X199334687Y-84769800D02*
X199382306Y-84793609D01*
X199382306Y-84793609D02*
X199477544Y-84793609D01*
X199477544Y-84793609D02*
X199525163Y-84769800D01*
X199525163Y-84769800D02*
X199548972Y-84722180D01*
X199548972Y-84722180D02*
X199548972Y-84531704D01*
X199548972Y-84531704D02*
X199525163Y-84484085D01*
X199525163Y-84484085D02*
X199477544Y-84460276D01*
X199477544Y-84460276D02*
X199382306Y-84460276D01*
X199382306Y-84460276D02*
X199334687Y-84484085D01*
X199334687Y-84484085D02*
X199310877Y-84531704D01*
X199310877Y-84531704D02*
X199310877Y-84579323D01*
X199310877Y-84579323D02*
X199548972Y-84626942D01*
X199120401Y-84769800D02*
X199072782Y-84793609D01*
X199072782Y-84793609D02*
X198977544Y-84793609D01*
X198977544Y-84793609D02*
X198929925Y-84769800D01*
X198929925Y-84769800D02*
X198906116Y-84722180D01*
X198906116Y-84722180D02*
X198906116Y-84698371D01*
X198906116Y-84698371D02*
X198929925Y-84650752D01*
X198929925Y-84650752D02*
X198977544Y-84626942D01*
X198977544Y-84626942D02*
X199048973Y-84626942D01*
X199048973Y-84626942D02*
X199096592Y-84603133D01*
X199096592Y-84603133D02*
X199120401Y-84555514D01*
X199120401Y-84555514D02*
X199120401Y-84531704D01*
X199120401Y-84531704D02*
X199096592Y-84484085D01*
X199096592Y-84484085D02*
X199048973Y-84460276D01*
X199048973Y-84460276D02*
X198977544Y-84460276D01*
X198977544Y-84460276D02*
X198929925Y-84484085D01*
X198691830Y-84793609D02*
X198691830Y-84460276D01*
X198691830Y-84293609D02*
X198715639Y-84317419D01*
X198715639Y-84317419D02*
X198691830Y-84341228D01*
X198691830Y-84341228D02*
X198668020Y-84317419D01*
X198668020Y-84317419D02*
X198691830Y-84293609D01*
X198691830Y-84293609D02*
X198691830Y-84341228D01*
X198239449Y-84460276D02*
X198239449Y-84865038D01*
X198239449Y-84865038D02*
X198263259Y-84912657D01*
X198263259Y-84912657D02*
X198287068Y-84936466D01*
X198287068Y-84936466D02*
X198334687Y-84960276D01*
X198334687Y-84960276D02*
X198406116Y-84960276D01*
X198406116Y-84960276D02*
X198453735Y-84936466D01*
X198239449Y-84769800D02*
X198287068Y-84793609D01*
X198287068Y-84793609D02*
X198382306Y-84793609D01*
X198382306Y-84793609D02*
X198429925Y-84769800D01*
X198429925Y-84769800D02*
X198453735Y-84745990D01*
X198453735Y-84745990D02*
X198477544Y-84698371D01*
X198477544Y-84698371D02*
X198477544Y-84555514D01*
X198477544Y-84555514D02*
X198453735Y-84507895D01*
X198453735Y-84507895D02*
X198429925Y-84484085D01*
X198429925Y-84484085D02*
X198382306Y-84460276D01*
X198382306Y-84460276D02*
X198287068Y-84460276D01*
X198287068Y-84460276D02*
X198239449Y-84484085D01*
X198001354Y-84460276D02*
X198001354Y-84793609D01*
X198001354Y-84507895D02*
X197977544Y-84484085D01*
X197977544Y-84484085D02*
X197929925Y-84460276D01*
X197929925Y-84460276D02*
X197858497Y-84460276D01*
X197858497Y-84460276D02*
X197810878Y-84484085D01*
X197810878Y-84484085D02*
X197787068Y-84531704D01*
X197787068Y-84531704D02*
X197787068Y-84793609D01*
X197168021Y-84793609D02*
X197168021Y-84293609D01*
X197168021Y-84484085D02*
X197120402Y-84460276D01*
X197120402Y-84460276D02*
X197025164Y-84460276D01*
X197025164Y-84460276D02*
X196977545Y-84484085D01*
X196977545Y-84484085D02*
X196953735Y-84507895D01*
X196953735Y-84507895D02*
X196929926Y-84555514D01*
X196929926Y-84555514D02*
X196929926Y-84698371D01*
X196929926Y-84698371D02*
X196953735Y-84745990D01*
X196953735Y-84745990D02*
X196977545Y-84769800D01*
X196977545Y-84769800D02*
X197025164Y-84793609D01*
X197025164Y-84793609D02*
X197120402Y-84793609D01*
X197120402Y-84793609D02*
X197168021Y-84769800D01*
X196763259Y-84460276D02*
X196644211Y-84793609D01*
X196525164Y-84460276D02*
X196644211Y-84793609D01*
X196644211Y-84793609D02*
X196691830Y-84912657D01*
X196691830Y-84912657D02*
X196715640Y-84936466D01*
X196715640Y-84936466D02*
X196763259Y-84960276D01*
X196025164Y-84293609D02*
X195739450Y-84293609D01*
X195882307Y-84793609D02*
X195882307Y-84293609D01*
X195501355Y-84793609D02*
X195548974Y-84769800D01*
X195548974Y-84769800D02*
X195572784Y-84745990D01*
X195572784Y-84745990D02*
X195596593Y-84698371D01*
X195596593Y-84698371D02*
X195596593Y-84555514D01*
X195596593Y-84555514D02*
X195572784Y-84507895D01*
X195572784Y-84507895D02*
X195548974Y-84484085D01*
X195548974Y-84484085D02*
X195501355Y-84460276D01*
X195501355Y-84460276D02*
X195429927Y-84460276D01*
X195429927Y-84460276D02*
X195382308Y-84484085D01*
X195382308Y-84484085D02*
X195358498Y-84507895D01*
X195358498Y-84507895D02*
X195334689Y-84555514D01*
X195334689Y-84555514D02*
X195334689Y-84698371D01*
X195334689Y-84698371D02*
X195358498Y-84745990D01*
X195358498Y-84745990D02*
X195382308Y-84769800D01*
X195382308Y-84769800D02*
X195429927Y-84793609D01*
X195429927Y-84793609D02*
X195501355Y-84793609D01*
X195120403Y-84793609D02*
X195120403Y-84460276D01*
X195120403Y-84555514D02*
X195096593Y-84507895D01*
X195096593Y-84507895D02*
X195072784Y-84484085D01*
X195072784Y-84484085D02*
X195025165Y-84460276D01*
X195025165Y-84460276D02*
X194977546Y-84460276D01*
X194620403Y-84769800D02*
X194668022Y-84793609D01*
X194668022Y-84793609D02*
X194763260Y-84793609D01*
X194763260Y-84793609D02*
X194810879Y-84769800D01*
X194810879Y-84769800D02*
X194834688Y-84722180D01*
X194834688Y-84722180D02*
X194834688Y-84531704D01*
X194834688Y-84531704D02*
X194810879Y-84484085D01*
X194810879Y-84484085D02*
X194763260Y-84460276D01*
X194763260Y-84460276D02*
X194668022Y-84460276D01*
X194668022Y-84460276D02*
X194620403Y-84484085D01*
X194620403Y-84484085D02*
X194596593Y-84531704D01*
X194596593Y-84531704D02*
X194596593Y-84579323D01*
X194596593Y-84579323D02*
X194834688Y-84626942D01*
X193763261Y-84793609D02*
X194001356Y-84793609D01*
X194001356Y-84793609D02*
X194001356Y-84293609D01*
X193382308Y-84793609D02*
X193382308Y-84531704D01*
X193382308Y-84531704D02*
X193406118Y-84484085D01*
X193406118Y-84484085D02*
X193453737Y-84460276D01*
X193453737Y-84460276D02*
X193548975Y-84460276D01*
X193548975Y-84460276D02*
X193596594Y-84484085D01*
X193382308Y-84769800D02*
X193429927Y-84793609D01*
X193429927Y-84793609D02*
X193548975Y-84793609D01*
X193548975Y-84793609D02*
X193596594Y-84769800D01*
X193596594Y-84769800D02*
X193620403Y-84722180D01*
X193620403Y-84722180D02*
X193620403Y-84674561D01*
X193620403Y-84674561D02*
X193596594Y-84626942D01*
X193596594Y-84626942D02*
X193548975Y-84603133D01*
X193548975Y-84603133D02*
X193429927Y-84603133D01*
X193429927Y-84603133D02*
X193382308Y-84579323D01*
X192929927Y-84793609D02*
X192929927Y-84293609D01*
X192929927Y-84769800D02*
X192977546Y-84793609D01*
X192977546Y-84793609D02*
X193072784Y-84793609D01*
X193072784Y-84793609D02*
X193120403Y-84769800D01*
X193120403Y-84769800D02*
X193144213Y-84745990D01*
X193144213Y-84745990D02*
X193168022Y-84698371D01*
X193168022Y-84698371D02*
X193168022Y-84555514D01*
X193168022Y-84555514D02*
X193144213Y-84507895D01*
X193144213Y-84507895D02*
X193120403Y-84484085D01*
X193120403Y-84484085D02*
X193072784Y-84460276D01*
X193072784Y-84460276D02*
X192977546Y-84460276D01*
X192977546Y-84460276D02*
X192929927Y-84484085D01*
X192691832Y-84793609D02*
X192691832Y-84460276D01*
X192691832Y-84293609D02*
X192715641Y-84317419D01*
X192715641Y-84317419D02*
X192691832Y-84341228D01*
X192691832Y-84341228D02*
X192668022Y-84317419D01*
X192668022Y-84317419D02*
X192691832Y-84293609D01*
X192691832Y-84293609D02*
X192691832Y-84341228D01*
X192453737Y-84793609D02*
X192453737Y-84293609D01*
X192406118Y-84603133D02*
X192263261Y-84793609D01*
X192263261Y-84460276D02*
X192453737Y-84650752D01*
X191834689Y-84793609D02*
X191834689Y-84531704D01*
X191834689Y-84531704D02*
X191858499Y-84484085D01*
X191858499Y-84484085D02*
X191906118Y-84460276D01*
X191906118Y-84460276D02*
X192001356Y-84460276D01*
X192001356Y-84460276D02*
X192048975Y-84484085D01*
X191834689Y-84769800D02*
X191882308Y-84793609D01*
X191882308Y-84793609D02*
X192001356Y-84793609D01*
X192001356Y-84793609D02*
X192048975Y-84769800D01*
X192048975Y-84769800D02*
X192072784Y-84722180D01*
X192072784Y-84722180D02*
X192072784Y-84674561D01*
X192072784Y-84674561D02*
X192048975Y-84626942D01*
X192048975Y-84626942D02*
X192001356Y-84603133D01*
X192001356Y-84603133D02*
X191882308Y-84603133D01*
X191882308Y-84603133D02*
X191834689Y-84579323D01*
X199918972Y-88869800D02*
X199847544Y-88893609D01*
X199847544Y-88893609D02*
X199728496Y-88893609D01*
X199728496Y-88893609D02*
X199680877Y-88869800D01*
X199680877Y-88869800D02*
X199657068Y-88845990D01*
X199657068Y-88845990D02*
X199633258Y-88798371D01*
X199633258Y-88798371D02*
X199633258Y-88750752D01*
X199633258Y-88750752D02*
X199657068Y-88703133D01*
X199657068Y-88703133D02*
X199680877Y-88679323D01*
X199680877Y-88679323D02*
X199728496Y-88655514D01*
X199728496Y-88655514D02*
X199823734Y-88631704D01*
X199823734Y-88631704D02*
X199871353Y-88607895D01*
X199871353Y-88607895D02*
X199895163Y-88584085D01*
X199895163Y-88584085D02*
X199918972Y-88536466D01*
X199918972Y-88536466D02*
X199918972Y-88488847D01*
X199918972Y-88488847D02*
X199895163Y-88441228D01*
X199895163Y-88441228D02*
X199871353Y-88417419D01*
X199871353Y-88417419D02*
X199823734Y-88393609D01*
X199823734Y-88393609D02*
X199704687Y-88393609D01*
X199704687Y-88393609D02*
X199633258Y-88417419D01*
X199418973Y-88893609D02*
X199418973Y-88393609D01*
X199418973Y-88393609D02*
X199228497Y-88393609D01*
X199228497Y-88393609D02*
X199180878Y-88417419D01*
X199180878Y-88417419D02*
X199157068Y-88441228D01*
X199157068Y-88441228D02*
X199133259Y-88488847D01*
X199133259Y-88488847D02*
X199133259Y-88560276D01*
X199133259Y-88560276D02*
X199157068Y-88607895D01*
X199157068Y-88607895D02*
X199180878Y-88631704D01*
X199180878Y-88631704D02*
X199228497Y-88655514D01*
X199228497Y-88655514D02*
X199418973Y-88655514D01*
X198918973Y-88631704D02*
X198752306Y-88631704D01*
X198680878Y-88893609D02*
X198918973Y-88893609D01*
X198918973Y-88893609D02*
X198918973Y-88393609D01*
X198918973Y-88393609D02*
X198680878Y-88393609D01*
X198180878Y-88845990D02*
X198204687Y-88869800D01*
X198204687Y-88869800D02*
X198276116Y-88893609D01*
X198276116Y-88893609D02*
X198323735Y-88893609D01*
X198323735Y-88893609D02*
X198395163Y-88869800D01*
X198395163Y-88869800D02*
X198442782Y-88822180D01*
X198442782Y-88822180D02*
X198466592Y-88774561D01*
X198466592Y-88774561D02*
X198490401Y-88679323D01*
X198490401Y-88679323D02*
X198490401Y-88607895D01*
X198490401Y-88607895D02*
X198466592Y-88512657D01*
X198466592Y-88512657D02*
X198442782Y-88465038D01*
X198442782Y-88465038D02*
X198395163Y-88417419D01*
X198395163Y-88417419D02*
X198323735Y-88393609D01*
X198323735Y-88393609D02*
X198276116Y-88393609D01*
X198276116Y-88393609D02*
X198204687Y-88417419D01*
X198204687Y-88417419D02*
X198180878Y-88441228D01*
X198014211Y-88393609D02*
X197680878Y-88393609D01*
X197680878Y-88393609D02*
X197895163Y-88893609D01*
X196871355Y-88893609D02*
X197109450Y-88893609D01*
X197109450Y-88893609D02*
X197109450Y-88393609D01*
X196704688Y-88631704D02*
X196538021Y-88631704D01*
X196466593Y-88893609D02*
X196704688Y-88893609D01*
X196704688Y-88893609D02*
X196704688Y-88393609D01*
X196704688Y-88393609D02*
X196466593Y-88393609D01*
X196252307Y-88893609D02*
X196252307Y-88393609D01*
X196252307Y-88393609D02*
X196133259Y-88393609D01*
X196133259Y-88393609D02*
X196061831Y-88417419D01*
X196061831Y-88417419D02*
X196014212Y-88465038D01*
X196014212Y-88465038D02*
X195990402Y-88512657D01*
X195990402Y-88512657D02*
X195966593Y-88607895D01*
X195966593Y-88607895D02*
X195966593Y-88679323D01*
X195966593Y-88679323D02*
X195990402Y-88774561D01*
X195990402Y-88774561D02*
X196014212Y-88822180D01*
X196014212Y-88822180D02*
X196061831Y-88869800D01*
X196061831Y-88869800D02*
X196133259Y-88893609D01*
X196133259Y-88893609D02*
X196252307Y-88893609D01*
X195371355Y-88893609D02*
X195371355Y-88393609D01*
X195371355Y-88584085D02*
X195323736Y-88560276D01*
X195323736Y-88560276D02*
X195228498Y-88560276D01*
X195228498Y-88560276D02*
X195180879Y-88584085D01*
X195180879Y-88584085D02*
X195157069Y-88607895D01*
X195157069Y-88607895D02*
X195133260Y-88655514D01*
X195133260Y-88655514D02*
X195133260Y-88798371D01*
X195133260Y-88798371D02*
X195157069Y-88845990D01*
X195157069Y-88845990D02*
X195180879Y-88869800D01*
X195180879Y-88869800D02*
X195228498Y-88893609D01*
X195228498Y-88893609D02*
X195323736Y-88893609D01*
X195323736Y-88893609D02*
X195371355Y-88869800D01*
X194847545Y-88893609D02*
X194895164Y-88869800D01*
X194895164Y-88869800D02*
X194918974Y-88845990D01*
X194918974Y-88845990D02*
X194942783Y-88798371D01*
X194942783Y-88798371D02*
X194942783Y-88655514D01*
X194942783Y-88655514D02*
X194918974Y-88607895D01*
X194918974Y-88607895D02*
X194895164Y-88584085D01*
X194895164Y-88584085D02*
X194847545Y-88560276D01*
X194847545Y-88560276D02*
X194776117Y-88560276D01*
X194776117Y-88560276D02*
X194728498Y-88584085D01*
X194728498Y-88584085D02*
X194704688Y-88607895D01*
X194704688Y-88607895D02*
X194680879Y-88655514D01*
X194680879Y-88655514D02*
X194680879Y-88798371D01*
X194680879Y-88798371D02*
X194704688Y-88845990D01*
X194704688Y-88845990D02*
X194728498Y-88869800D01*
X194728498Y-88869800D02*
X194776117Y-88893609D01*
X194776117Y-88893609D02*
X194847545Y-88893609D01*
X194252307Y-88893609D02*
X194252307Y-88631704D01*
X194252307Y-88631704D02*
X194276117Y-88584085D01*
X194276117Y-88584085D02*
X194323736Y-88560276D01*
X194323736Y-88560276D02*
X194418974Y-88560276D01*
X194418974Y-88560276D02*
X194466593Y-88584085D01*
X194252307Y-88869800D02*
X194299926Y-88893609D01*
X194299926Y-88893609D02*
X194418974Y-88893609D01*
X194418974Y-88893609D02*
X194466593Y-88869800D01*
X194466593Y-88869800D02*
X194490402Y-88822180D01*
X194490402Y-88822180D02*
X194490402Y-88774561D01*
X194490402Y-88774561D02*
X194466593Y-88726942D01*
X194466593Y-88726942D02*
X194418974Y-88703133D01*
X194418974Y-88703133D02*
X194299926Y-88703133D01*
X194299926Y-88703133D02*
X194252307Y-88679323D01*
X194014212Y-88893609D02*
X194014212Y-88560276D01*
X194014212Y-88655514D02*
X193990402Y-88607895D01*
X193990402Y-88607895D02*
X193966593Y-88584085D01*
X193966593Y-88584085D02*
X193918974Y-88560276D01*
X193918974Y-88560276D02*
X193871355Y-88560276D01*
X193490402Y-88893609D02*
X193490402Y-88393609D01*
X193490402Y-88869800D02*
X193538021Y-88893609D01*
X193538021Y-88893609D02*
X193633259Y-88893609D01*
X193633259Y-88893609D02*
X193680878Y-88869800D01*
X193680878Y-88869800D02*
X193704688Y-88845990D01*
X193704688Y-88845990D02*
X193728497Y-88798371D01*
X193728497Y-88798371D02*
X193728497Y-88655514D01*
X193728497Y-88655514D02*
X193704688Y-88607895D01*
X193704688Y-88607895D02*
X193680878Y-88584085D01*
X193680878Y-88584085D02*
X193633259Y-88560276D01*
X193633259Y-88560276D02*
X193538021Y-88560276D01*
X193538021Y-88560276D02*
X193490402Y-88584085D01*
D11*
%TO.C,G\u002A\u002A\u002A*%
G36*
X198030857Y-86356028D02*
G01*
X198030857Y-86798763D01*
X198075131Y-86798763D01*
X198119404Y-86798763D01*
X198119404Y-86887310D01*
X198119404Y-86975857D01*
X198030857Y-86975857D01*
X197942310Y-86975857D01*
X197942310Y-87064404D01*
X197942310Y-87152952D01*
X197986584Y-87152952D01*
X198030857Y-87152952D01*
X198030857Y-87197225D01*
X198030857Y-87241499D01*
X198075131Y-87241499D01*
X198119404Y-87241499D01*
X198119404Y-87285772D01*
X198119404Y-87330046D01*
X198207951Y-87330046D01*
X198296498Y-87330046D01*
X198296498Y-87285772D01*
X198296498Y-87241499D01*
X198340772Y-87241499D01*
X198385046Y-87241499D01*
X198385046Y-86311754D01*
X198385046Y-85913292D01*
X198650687Y-85913292D01*
X198650687Y-86001839D01*
X198827781Y-86001839D01*
X199004875Y-86001839D01*
X199004875Y-86178933D01*
X199004875Y-86356028D01*
X199093422Y-86356028D01*
X199181970Y-86356028D01*
X199181970Y-86444575D01*
X199181970Y-86533122D01*
X199270517Y-86533122D01*
X199359064Y-86533122D01*
X199359064Y-86621669D01*
X199359064Y-86710216D01*
X199536158Y-86710216D01*
X199713252Y-86710216D01*
X199713252Y-86621669D01*
X199713252Y-86533122D01*
X199536158Y-86533122D01*
X199359064Y-86533122D01*
X199359064Y-86356028D01*
X199359064Y-86178933D01*
X199270517Y-86178933D01*
X199181970Y-86178933D01*
X199181970Y-86090386D01*
X199181970Y-86001839D01*
X199093422Y-86001839D01*
X199004875Y-86001839D01*
X199004875Y-85913292D01*
X199004875Y-85824745D01*
X198827781Y-85824745D01*
X198650687Y-85824745D01*
X198650687Y-85913292D01*
X198385046Y-85913292D01*
X198385046Y-85382009D01*
X198429319Y-85382009D01*
X198473593Y-85382009D01*
X198473593Y-85337736D01*
X198473593Y-85293462D01*
X198517866Y-85293462D01*
X198562140Y-85293462D01*
X198562140Y-85470556D01*
X198562140Y-85647651D01*
X198606413Y-85647651D01*
X198650687Y-85647651D01*
X198650687Y-85514830D01*
X198650687Y-85382009D01*
X198694960Y-85382009D01*
X198739234Y-85382009D01*
X198739234Y-85470556D01*
X198739234Y-85559103D01*
X198872055Y-85559103D01*
X199004875Y-85559103D01*
X199004875Y-85470556D01*
X199004875Y-85382009D01*
X199049149Y-85382009D01*
X199093422Y-85382009D01*
X199093422Y-85470556D01*
X199093422Y-85559103D01*
X199226243Y-85559103D01*
X199359064Y-85559103D01*
X199359064Y-85470556D01*
X199359064Y-85382009D01*
X199403337Y-85382009D01*
X199447611Y-85382009D01*
X199447611Y-85514830D01*
X199447611Y-85647651D01*
X199491884Y-85647651D01*
X199536158Y-85647651D01*
X199536158Y-85514830D01*
X199536158Y-85382009D01*
X199580432Y-85382009D01*
X199624705Y-85382009D01*
X199624705Y-85514830D01*
X199624705Y-85647651D01*
X199668979Y-85647651D01*
X199713252Y-85647651D01*
X199713252Y-85470556D01*
X199713252Y-85293462D01*
X199491884Y-85293462D01*
X199270517Y-85293462D01*
X199270517Y-85382009D01*
X199270517Y-85470556D01*
X199226243Y-85470556D01*
X199181970Y-85470556D01*
X199181970Y-85382009D01*
X199181970Y-85293462D01*
X199049149Y-85293462D01*
X198916328Y-85293462D01*
X198916328Y-85382009D01*
X198916328Y-85470556D01*
X198872055Y-85470556D01*
X198827781Y-85470556D01*
X198827781Y-85382009D01*
X198827781Y-85293462D01*
X198694960Y-85293462D01*
X198562140Y-85293462D01*
X198562140Y-85249189D01*
X198562140Y-85204915D01*
X199181970Y-85204915D01*
X199801799Y-85204915D01*
X199801799Y-85249189D01*
X199801799Y-85293462D01*
X199846073Y-85293462D01*
X199890346Y-85293462D01*
X199890346Y-85337736D01*
X199890346Y-85382009D01*
X199934620Y-85382009D01*
X199978894Y-85382009D01*
X199978894Y-86267480D01*
X199978894Y-86533122D01*
X199978894Y-87152952D01*
X199934620Y-87152952D01*
X199890346Y-87152952D01*
X199890346Y-87197225D01*
X199890346Y-87241499D01*
X199978894Y-87241499D01*
X200067441Y-87241499D01*
X200067441Y-87197225D01*
X200067441Y-87152952D01*
X200111714Y-87152952D01*
X200155988Y-87152952D01*
X200155988Y-87064404D01*
X200155988Y-86975857D01*
X200200261Y-86975857D01*
X200244535Y-86975857D01*
X200244535Y-86887310D01*
X200244535Y-86798763D01*
X200288808Y-86798763D01*
X200333082Y-86798763D01*
X200333082Y-86754490D01*
X200333082Y-86710216D01*
X200510176Y-86710216D01*
X200687270Y-86710216D01*
X200687270Y-86754490D01*
X200687270Y-86798763D01*
X200598723Y-86798763D01*
X200510176Y-86798763D01*
X200510176Y-86843037D01*
X200510176Y-86887310D01*
X200465903Y-86887310D01*
X200421629Y-86887310D01*
X200421629Y-86931584D01*
X200421629Y-86975857D01*
X200377356Y-86975857D01*
X200333082Y-86975857D01*
X200333082Y-87064404D01*
X200333082Y-87152952D01*
X200288808Y-87152952D01*
X200244535Y-87152952D01*
X200244535Y-87241499D01*
X200244535Y-87330046D01*
X200200261Y-87330046D01*
X200155988Y-87330046D01*
X200155988Y-87374319D01*
X200155988Y-87418593D01*
X200023167Y-87418593D01*
X199890346Y-87418593D01*
X199890346Y-87374319D01*
X199890346Y-87330046D01*
X199846073Y-87330046D01*
X199801799Y-87330046D01*
X199801799Y-87285772D01*
X199801799Y-87241499D01*
X199757526Y-87241499D01*
X199713252Y-87241499D01*
X199713252Y-87197225D01*
X199713252Y-87152952D01*
X199536158Y-87152952D01*
X199359064Y-87152952D01*
X199359064Y-87197225D01*
X199359064Y-87241499D01*
X199403337Y-87241499D01*
X199447611Y-87241499D01*
X199447611Y-87462866D01*
X199447611Y-87684234D01*
X199403337Y-87684234D01*
X199359064Y-87684234D01*
X199359064Y-87728508D01*
X199359064Y-87772781D01*
X199314790Y-87772781D01*
X199270517Y-87772781D01*
X199270517Y-87861328D01*
X199270517Y-87949876D01*
X199181970Y-87949876D01*
X199093422Y-87949876D01*
X199093422Y-87861328D01*
X199093422Y-87772781D01*
X199049149Y-87772781D01*
X199004875Y-87772781D01*
X199004875Y-87728508D01*
X199004875Y-87684234D01*
X198960602Y-87684234D01*
X198916328Y-87684234D01*
X198916328Y-87462866D01*
X198916328Y-87241499D01*
X198960602Y-87241499D01*
X199004875Y-87241499D01*
X199004875Y-87197225D01*
X199004875Y-87152952D01*
X198783508Y-87152952D01*
X198562140Y-87152952D01*
X198562140Y-87197225D01*
X198562140Y-87241499D01*
X198517866Y-87241499D01*
X198473593Y-87241499D01*
X198473593Y-87285772D01*
X198473593Y-87330046D01*
X198429319Y-87330046D01*
X198385046Y-87330046D01*
X198385046Y-87374319D01*
X198385046Y-87418593D01*
X198429319Y-87418593D01*
X198473593Y-87418593D01*
X198473593Y-87462866D01*
X198473593Y-87507140D01*
X198385046Y-87507140D01*
X198296498Y-87507140D01*
X198296498Y-87462866D01*
X198296498Y-87418593D01*
X198207951Y-87418593D01*
X198119404Y-87418593D01*
X198119404Y-87462866D01*
X198119404Y-87507140D01*
X198030857Y-87507140D01*
X197942310Y-87507140D01*
X197942310Y-87462866D01*
X197942310Y-87418593D01*
X197986584Y-87418593D01*
X198030857Y-87418593D01*
X198030857Y-87374319D01*
X198030857Y-87330046D01*
X197986584Y-87330046D01*
X197942310Y-87330046D01*
X197942310Y-87285772D01*
X197942310Y-87241499D01*
X197898036Y-87241499D01*
X197853763Y-87241499D01*
X197853763Y-87197225D01*
X197853763Y-87152952D01*
X197809489Y-87152952D01*
X197765216Y-87152952D01*
X197765216Y-87064404D01*
X197765216Y-86975857D01*
X197720942Y-86975857D01*
X197676669Y-86975857D01*
X197676669Y-87462866D01*
X197676669Y-87949876D01*
X197588122Y-87949876D01*
X197499574Y-87949876D01*
X197499574Y-87462866D01*
X197499574Y-86975857D01*
X197411027Y-86975857D01*
X197322480Y-86975857D01*
X197322480Y-87374319D01*
X197322480Y-87772781D01*
X197233933Y-87772781D01*
X197145386Y-87772781D01*
X197145386Y-87374319D01*
X197145386Y-86975857D01*
X197101112Y-86975857D01*
X197056839Y-86975857D01*
X197056839Y-87064404D01*
X197056839Y-87152952D01*
X197012565Y-87152952D01*
X196968292Y-87152952D01*
X196968292Y-87197225D01*
X196968292Y-87241499D01*
X196924018Y-87241499D01*
X196879745Y-87241499D01*
X196879745Y-87285772D01*
X196879745Y-87330046D01*
X196835471Y-87330046D01*
X196791197Y-87330046D01*
X196791197Y-87374319D01*
X196791197Y-87418593D01*
X196835471Y-87418593D01*
X196879745Y-87418593D01*
X196879745Y-87462866D01*
X196879745Y-87507140D01*
X196791197Y-87507140D01*
X196702650Y-87507140D01*
X196702650Y-87462866D01*
X196702650Y-87418593D01*
X196614103Y-87418593D01*
X196525556Y-87418593D01*
X196525556Y-87462866D01*
X196525556Y-87507140D01*
X196437009Y-87507140D01*
X196348462Y-87507140D01*
X196348462Y-87462866D01*
X196348462Y-87418593D01*
X196392735Y-87418593D01*
X196437009Y-87418593D01*
X196437009Y-87374319D01*
X196437009Y-87330046D01*
X196392735Y-87330046D01*
X196348462Y-87330046D01*
X196348462Y-87285772D01*
X196348462Y-87241499D01*
X196304188Y-87241499D01*
X196259915Y-87241499D01*
X196259915Y-87197225D01*
X196259915Y-87152952D01*
X196215641Y-87152952D01*
X196171368Y-87152952D01*
X196171368Y-87064404D01*
X196171368Y-86975857D01*
X196127094Y-86975857D01*
X196082821Y-86975857D01*
X196082821Y-87462866D01*
X196082821Y-87949876D01*
X195995576Y-87949876D01*
X195908331Y-87949876D01*
X195908331Y-87462866D01*
X195908331Y-86975857D01*
X195819784Y-86975857D01*
X195731236Y-86975857D01*
X195731236Y-87374319D01*
X195731236Y-87772781D01*
X195642689Y-87772781D01*
X195554142Y-87772781D01*
X195554142Y-87374319D01*
X195554142Y-86975857D01*
X195509869Y-86975857D01*
X195465595Y-86975857D01*
X195465595Y-87064404D01*
X195465595Y-87152952D01*
X195421322Y-87152952D01*
X195377048Y-87152952D01*
X195377048Y-87197225D01*
X195377048Y-87241499D01*
X195332774Y-87241499D01*
X195288501Y-87241499D01*
X195288501Y-87285772D01*
X195288501Y-87330046D01*
X195244227Y-87330046D01*
X195199954Y-87330046D01*
X195199954Y-87374319D01*
X195199954Y-87418593D01*
X195244227Y-87418593D01*
X195288501Y-87418593D01*
X195288501Y-87462866D01*
X195288501Y-87507140D01*
X195199954Y-87507140D01*
X195111407Y-87507140D01*
X195111407Y-87462866D01*
X195111407Y-87418593D01*
X195022860Y-87418593D01*
X194934312Y-87418593D01*
X194934312Y-87462866D01*
X194934312Y-87507140D01*
X194845765Y-87507140D01*
X194757218Y-87507140D01*
X194757218Y-87462866D01*
X194757218Y-87418593D01*
X194801492Y-87418593D01*
X194845765Y-87418593D01*
X194845765Y-87374319D01*
X194845765Y-87330046D01*
X194801492Y-87330046D01*
X194757218Y-87330046D01*
X194757218Y-87285772D01*
X194757218Y-87241499D01*
X194712945Y-87241499D01*
X194668671Y-87241499D01*
X194668671Y-87197225D01*
X194668671Y-87152952D01*
X194624398Y-87152952D01*
X194580124Y-87152952D01*
X194580124Y-87064404D01*
X194580124Y-86975857D01*
X194535850Y-86975857D01*
X194491577Y-86975857D01*
X194491577Y-87462866D01*
X194491577Y-87949876D01*
X194403030Y-87949876D01*
X194314483Y-87949876D01*
X194314483Y-87462866D01*
X194314483Y-86975857D01*
X194225936Y-86975857D01*
X194137388Y-86975857D01*
X194137388Y-87374319D01*
X194137388Y-87772781D01*
X194048841Y-87772781D01*
X193960294Y-87772781D01*
X193960294Y-87374319D01*
X193960294Y-86975857D01*
X193916021Y-86975857D01*
X193871747Y-86975857D01*
X193871747Y-87064404D01*
X193871747Y-87152952D01*
X193827474Y-87152952D01*
X193783200Y-87152952D01*
X193783200Y-87197225D01*
X193783200Y-87241499D01*
X193738926Y-87241499D01*
X193694653Y-87241499D01*
X193694653Y-87285772D01*
X193694653Y-87330046D01*
X193650379Y-87330046D01*
X193606106Y-87330046D01*
X193606106Y-87374319D01*
X193606106Y-87418593D01*
X193650379Y-87418593D01*
X193694653Y-87418593D01*
X193694653Y-87462866D01*
X193694653Y-87507140D01*
X193606106Y-87507140D01*
X193517559Y-87507140D01*
X193517559Y-87462866D01*
X193517559Y-87418593D01*
X193429011Y-87418593D01*
X193340464Y-87418593D01*
X193340464Y-87462866D01*
X193340464Y-87507140D01*
X193251917Y-87507140D01*
X193163370Y-87507140D01*
X193163370Y-87462866D01*
X193163370Y-87418593D01*
X193207644Y-87418593D01*
X193251917Y-87418593D01*
X193251917Y-87374319D01*
X193251917Y-87330046D01*
X193207644Y-87330046D01*
X193163370Y-87330046D01*
X193163370Y-87285772D01*
X193163370Y-87241499D01*
X193119097Y-87241499D01*
X193074823Y-87241499D01*
X193074823Y-87197225D01*
X193074823Y-87152952D01*
X193030549Y-87152952D01*
X192986276Y-87152952D01*
X192986276Y-87064404D01*
X192986276Y-86975857D01*
X192942002Y-86975857D01*
X192897729Y-86975857D01*
X192897729Y-87462866D01*
X192897729Y-87949876D01*
X192809182Y-87949876D01*
X192720635Y-87949876D01*
X192720635Y-87462866D01*
X192720635Y-86975857D01*
X192632087Y-86975857D01*
X192543540Y-86975857D01*
X192543540Y-87374319D01*
X192543540Y-87772781D01*
X192454993Y-87772781D01*
X192366446Y-87772781D01*
X192366446Y-87374319D01*
X192366446Y-86975857D01*
X192322173Y-86975857D01*
X192277899Y-86975857D01*
X192277899Y-87064404D01*
X192277899Y-87152952D01*
X192233625Y-87152952D01*
X192189352Y-87152952D01*
X192189352Y-87197225D01*
X192189352Y-87241499D01*
X192145078Y-87241499D01*
X192100805Y-87241499D01*
X192100805Y-87285772D01*
X192100805Y-87330046D01*
X192056531Y-87330046D01*
X192012258Y-87330046D01*
X192012258Y-87374319D01*
X192012258Y-87418593D01*
X191879437Y-87418593D01*
X191746616Y-87418593D01*
X191746616Y-87374319D01*
X191746616Y-87330046D01*
X191702343Y-87330046D01*
X191658069Y-87330046D01*
X191658069Y-87241499D01*
X191658069Y-87152952D01*
X191613796Y-87152952D01*
X191569522Y-87152952D01*
X191569522Y-87064404D01*
X191569522Y-86975857D01*
X191525249Y-86975857D01*
X191480975Y-86975857D01*
X191480975Y-86931584D01*
X191480975Y-86887310D01*
X191436701Y-86887310D01*
X191392428Y-86887310D01*
X191392428Y-86843037D01*
X191392428Y-86798763D01*
X191303881Y-86798763D01*
X191215334Y-86798763D01*
X191215334Y-86754490D01*
X191215334Y-86710216D01*
X191392428Y-86710216D01*
X191569522Y-86710216D01*
X191569522Y-86754490D01*
X191569522Y-86798763D01*
X191613796Y-86798763D01*
X191658069Y-86798763D01*
X191658069Y-86887310D01*
X191658069Y-86975857D01*
X191702343Y-86975857D01*
X191746616Y-86975857D01*
X191746616Y-87064404D01*
X191746616Y-87152952D01*
X191790890Y-87152952D01*
X191835163Y-87152952D01*
X191835163Y-87197225D01*
X191835163Y-87241499D01*
X191923711Y-87241499D01*
X192012258Y-87241499D01*
X192012258Y-87197225D01*
X192012258Y-87152952D01*
X192056531Y-87152952D01*
X192100805Y-87152952D01*
X192100805Y-87064404D01*
X192100805Y-86975857D01*
X192012258Y-86975857D01*
X191923711Y-86975857D01*
X191923711Y-86887310D01*
X191923711Y-86798763D01*
X191967984Y-86798763D01*
X192012258Y-86798763D01*
X192012258Y-86356028D01*
X192012258Y-86001839D01*
X192189352Y-86001839D01*
X192189352Y-86267480D01*
X192189352Y-86533122D01*
X192277899Y-86533122D01*
X192366446Y-86533122D01*
X192366446Y-86621669D01*
X192366446Y-86710216D01*
X192632087Y-86710216D01*
X192897729Y-86710216D01*
X192897729Y-86621669D01*
X192897729Y-86533122D01*
X192809182Y-86533122D01*
X192720635Y-86533122D01*
X192720635Y-86267480D01*
X192720635Y-86001839D01*
X192809182Y-86001839D01*
X192897729Y-86001839D01*
X192897729Y-86090386D01*
X192897729Y-86178933D01*
X192986276Y-86178933D01*
X193074823Y-86178933D01*
X193074823Y-86090386D01*
X193074823Y-86001839D01*
X192986276Y-86001839D01*
X192897729Y-86001839D01*
X192897729Y-85913292D01*
X192897729Y-85824745D01*
X192632087Y-85824745D01*
X192366446Y-85824745D01*
X192366446Y-85913292D01*
X192366446Y-86001839D01*
X192277899Y-86001839D01*
X192189352Y-86001839D01*
X192012258Y-86001839D01*
X192012258Y-85913292D01*
X192056531Y-85913292D01*
X192100805Y-85913292D01*
X192100805Y-85824745D01*
X192100805Y-85736198D01*
X192145078Y-85736198D01*
X192189352Y-85736198D01*
X192189352Y-85691924D01*
X192189352Y-85647651D01*
X192233625Y-85647651D01*
X192277899Y-85647651D01*
X192277899Y-85603377D01*
X192277899Y-85559103D01*
X192366446Y-85559103D01*
X192454993Y-85559103D01*
X192454993Y-85514830D01*
X192454993Y-85470556D01*
X192632087Y-85470556D01*
X192809182Y-85470556D01*
X192809182Y-85514830D01*
X192809182Y-85559103D01*
X192897729Y-85559103D01*
X192986276Y-85559103D01*
X192986276Y-85603377D01*
X192986276Y-85647651D01*
X193030549Y-85647651D01*
X193074823Y-85647651D01*
X193074823Y-85691924D01*
X193074823Y-85736198D01*
X193119097Y-85736198D01*
X193163370Y-85736198D01*
X193163370Y-85824745D01*
X193163370Y-85913292D01*
X193207644Y-85913292D01*
X193251917Y-85913292D01*
X193251917Y-86001839D01*
X193251917Y-86356028D01*
X193251917Y-86798763D01*
X193296191Y-86798763D01*
X193340464Y-86798763D01*
X193340464Y-86887310D01*
X193340464Y-86975857D01*
X193251917Y-86975857D01*
X193163370Y-86975857D01*
X193163370Y-87064404D01*
X193163370Y-87152952D01*
X193207644Y-87152952D01*
X193251917Y-87152952D01*
X193251917Y-87197225D01*
X193251917Y-87241499D01*
X193296191Y-87241499D01*
X193340464Y-87241499D01*
X193340464Y-87285772D01*
X193340464Y-87330046D01*
X193429011Y-87330046D01*
X193517559Y-87330046D01*
X193517559Y-87285772D01*
X193517559Y-87241499D01*
X193561832Y-87241499D01*
X193606106Y-87241499D01*
X193606106Y-87197225D01*
X193606106Y-87152952D01*
X193650379Y-87152952D01*
X193694653Y-87152952D01*
X193694653Y-87064404D01*
X193694653Y-86975857D01*
X193606106Y-86975857D01*
X193517559Y-86975857D01*
X193517559Y-86887310D01*
X193517559Y-86798763D01*
X193561832Y-86798763D01*
X193606106Y-86798763D01*
X193606106Y-86533122D01*
X193871747Y-86533122D01*
X193871747Y-86621669D01*
X193871747Y-86710216D01*
X194137388Y-86710216D01*
X194403030Y-86710216D01*
X194403030Y-86621669D01*
X194403030Y-86533122D01*
X194137388Y-86533122D01*
X193871747Y-86533122D01*
X193606106Y-86533122D01*
X193606106Y-86356028D01*
X193606106Y-85913292D01*
X193650379Y-85913292D01*
X193694653Y-85913292D01*
X193694653Y-85824745D01*
X193871747Y-85824745D01*
X193871747Y-85913292D01*
X193871747Y-86001839D01*
X194137388Y-86001839D01*
X194403030Y-86001839D01*
X194403030Y-86090386D01*
X194403030Y-86178933D01*
X194225936Y-86178933D01*
X194048841Y-86178933D01*
X194048841Y-86267480D01*
X194048841Y-86356028D01*
X194225936Y-86356028D01*
X194403030Y-86356028D01*
X194403030Y-86444575D01*
X194403030Y-86533122D01*
X194491577Y-86533122D01*
X194580124Y-86533122D01*
X194580124Y-86267480D01*
X194580124Y-86001839D01*
X194491577Y-86001839D01*
X194403030Y-86001839D01*
X194403030Y-85913292D01*
X194403030Y-85824745D01*
X194137388Y-85824745D01*
X193871747Y-85824745D01*
X193694653Y-85824745D01*
X193694653Y-85736198D01*
X193738926Y-85736198D01*
X193783200Y-85736198D01*
X193783200Y-85691924D01*
X193783200Y-85647651D01*
X193827474Y-85647651D01*
X193871747Y-85647651D01*
X193871747Y-85603377D01*
X193871747Y-85559103D01*
X193960294Y-85559103D01*
X194048841Y-85559103D01*
X194048841Y-85514830D01*
X194048841Y-85470556D01*
X194225936Y-85470556D01*
X194403030Y-85470556D01*
X194403030Y-85514830D01*
X194403030Y-85559103D01*
X194491577Y-85559103D01*
X194580124Y-85559103D01*
X194580124Y-85603377D01*
X194580124Y-85647651D01*
X194624398Y-85647651D01*
X194668671Y-85647651D01*
X194668671Y-85691924D01*
X194668671Y-85736198D01*
X194712945Y-85736198D01*
X194757218Y-85736198D01*
X194757218Y-85824745D01*
X194757218Y-85913292D01*
X194801492Y-85913292D01*
X194845765Y-85913292D01*
X194845765Y-86001839D01*
X194845765Y-86356028D01*
X194845765Y-86621669D01*
X194845765Y-86798763D01*
X194890039Y-86798763D01*
X194934312Y-86798763D01*
X194934312Y-86887310D01*
X194934312Y-86975857D01*
X194845765Y-86975857D01*
X194757218Y-86975857D01*
X194757218Y-87064404D01*
X194757218Y-87152952D01*
X194801492Y-87152952D01*
X194845765Y-87152952D01*
X194845765Y-87197225D01*
X194845765Y-87241499D01*
X194890039Y-87241499D01*
X194934312Y-87241499D01*
X194934312Y-87285772D01*
X194934312Y-87330046D01*
X195022860Y-87330046D01*
X195111407Y-87330046D01*
X195111407Y-87285772D01*
X195111407Y-87241499D01*
X195155680Y-87241499D01*
X195199954Y-87241499D01*
X195199954Y-87197225D01*
X195199954Y-87152952D01*
X195244227Y-87152952D01*
X195288501Y-87152952D01*
X195288501Y-87064404D01*
X195288501Y-86975857D01*
X195199954Y-86975857D01*
X195111407Y-86975857D01*
X195111407Y-86887310D01*
X195111407Y-86798763D01*
X195155680Y-86798763D01*
X195199954Y-86798763D01*
X195199954Y-86533122D01*
X195465595Y-86533122D01*
X195465595Y-86621669D01*
X195465595Y-86710216D01*
X195729934Y-86710216D01*
X195994273Y-86710216D01*
X195994273Y-86621669D01*
X195994273Y-86533122D01*
X195729934Y-86533122D01*
X195465595Y-86533122D01*
X195199954Y-86533122D01*
X195199954Y-86356028D01*
X195199954Y-85913292D01*
X195244227Y-85913292D01*
X195288501Y-85913292D01*
X195288501Y-85824745D01*
X195819784Y-85824745D01*
X195819784Y-86001839D01*
X195819784Y-86178933D01*
X195907029Y-86178933D01*
X195994273Y-86178933D01*
X195994273Y-86356028D01*
X195994273Y-86533122D01*
X196082821Y-86533122D01*
X196171368Y-86533122D01*
X196171368Y-86356028D01*
X196171368Y-86178933D01*
X196082821Y-86178933D01*
X195994273Y-86178933D01*
X195994273Y-86001839D01*
X195994273Y-85824745D01*
X195907029Y-85824745D01*
X195819784Y-85824745D01*
X195288501Y-85824745D01*
X195288501Y-85736198D01*
X195332774Y-85736198D01*
X195377048Y-85736198D01*
X195377048Y-85691924D01*
X195377048Y-85647651D01*
X195421322Y-85647651D01*
X195465595Y-85647651D01*
X195465595Y-85603377D01*
X195465595Y-85559103D01*
X195554142Y-85559103D01*
X195642689Y-85559103D01*
X195642689Y-85514830D01*
X195642689Y-85470556D01*
X195818481Y-85470556D01*
X195994273Y-85470556D01*
X195994273Y-85514830D01*
X195994273Y-85559103D01*
X196082821Y-85559103D01*
X196171368Y-85559103D01*
X196171368Y-85603377D01*
X196171368Y-85647651D01*
X196215641Y-85647651D01*
X196259915Y-85647651D01*
X196259915Y-85691924D01*
X196259915Y-85736198D01*
X196304188Y-85736198D01*
X196348462Y-85736198D01*
X196348462Y-85824745D01*
X196348462Y-85913292D01*
X196392735Y-85913292D01*
X196437009Y-85913292D01*
X196437009Y-86178933D01*
X196437009Y-86356028D01*
X196437009Y-86621669D01*
X196437009Y-86798763D01*
X196481283Y-86798763D01*
X196525556Y-86798763D01*
X196525556Y-86887310D01*
X196525556Y-86975857D01*
X196437009Y-86975857D01*
X196348462Y-86975857D01*
X196348462Y-87064404D01*
X196348462Y-87152952D01*
X196392735Y-87152952D01*
X196437009Y-87152952D01*
X196437009Y-87197225D01*
X196437009Y-87241499D01*
X196481283Y-87241499D01*
X196525556Y-87241499D01*
X196525556Y-87285772D01*
X196525556Y-87330046D01*
X196614103Y-87330046D01*
X196702650Y-87330046D01*
X196702650Y-87285772D01*
X196702650Y-87241499D01*
X196746924Y-87241499D01*
X196791197Y-87241499D01*
X196791197Y-87197225D01*
X196791197Y-87152952D01*
X196835471Y-87152952D01*
X196879745Y-87152952D01*
X196879745Y-87064404D01*
X196879745Y-86975857D01*
X196791197Y-86975857D01*
X196702650Y-86975857D01*
X196702650Y-86887310D01*
X196702650Y-86798763D01*
X196746924Y-86798763D01*
X196791197Y-86798763D01*
X196791197Y-86356028D01*
X196791197Y-86001839D01*
X196968292Y-86001839D01*
X196968292Y-86267480D01*
X196968292Y-86533122D01*
X197056839Y-86533122D01*
X197145386Y-86533122D01*
X197145386Y-86621669D01*
X197145386Y-86710216D01*
X197233933Y-86710216D01*
X197322480Y-86710216D01*
X197322480Y-86621669D01*
X197322480Y-86533122D01*
X197411027Y-86533122D01*
X197499574Y-86533122D01*
X197499574Y-86621669D01*
X197499574Y-86710216D01*
X197588122Y-86710216D01*
X197676669Y-86710216D01*
X197676669Y-86621669D01*
X197676669Y-86533122D01*
X197765216Y-86533122D01*
X197853763Y-86533122D01*
X197853763Y-86267480D01*
X197853763Y-86001839D01*
X197765216Y-86001839D01*
X197676669Y-86001839D01*
X197676669Y-85913292D01*
X197676669Y-85824745D01*
X197588122Y-85824745D01*
X197499574Y-85824745D01*
X197499574Y-85913292D01*
X197499574Y-86001839D01*
X197588122Y-86001839D01*
X197676669Y-86001839D01*
X197676669Y-86267480D01*
X197676669Y-86533122D01*
X197588122Y-86533122D01*
X197499574Y-86533122D01*
X197499574Y-86356028D01*
X197499574Y-86178933D01*
X197411027Y-86178933D01*
X197322480Y-86178933D01*
X197322480Y-86356028D01*
X197322480Y-86533122D01*
X197233933Y-86533122D01*
X197145386Y-86533122D01*
X197145386Y-86267480D01*
X197145386Y-86001839D01*
X197056839Y-86001839D01*
X196968292Y-86001839D01*
X196791197Y-86001839D01*
X196791197Y-85913292D01*
X196835471Y-85913292D01*
X196879745Y-85913292D01*
X196879745Y-85824745D01*
X197145386Y-85824745D01*
X197145386Y-85913292D01*
X197145386Y-86001839D01*
X197233933Y-86001839D01*
X197322480Y-86001839D01*
X197322480Y-85913292D01*
X197322480Y-85824745D01*
X197233933Y-85824745D01*
X197145386Y-85824745D01*
X196879745Y-85824745D01*
X196879745Y-85736198D01*
X196924018Y-85736198D01*
X196968292Y-85736198D01*
X196968292Y-85691924D01*
X196968292Y-85647651D01*
X197012565Y-85647651D01*
X197056839Y-85647651D01*
X197056839Y-85603377D01*
X197056839Y-85559103D01*
X197145386Y-85559103D01*
X197233933Y-85559103D01*
X197233933Y-85514830D01*
X197233933Y-85470556D01*
X197411027Y-85470556D01*
X197588122Y-85470556D01*
X197588122Y-85514830D01*
X197588122Y-85559103D01*
X197676669Y-85559103D01*
X197765216Y-85559103D01*
X197765216Y-85603377D01*
X197765216Y-85647651D01*
X197809489Y-85647651D01*
X197853763Y-85647651D01*
X197853763Y-85691924D01*
X197853763Y-85736198D01*
X197898036Y-85736198D01*
X197942310Y-85736198D01*
X197942310Y-85824745D01*
X197942310Y-85913292D01*
X197986584Y-85913292D01*
X198030857Y-85913292D01*
X198030857Y-86001839D01*
X198030857Y-86356028D01*
G37*
G36*
X191215334Y-86665942D02*
G01*
X191215334Y-86710216D01*
X191171060Y-86710216D01*
X191126787Y-86710216D01*
X191126787Y-86665942D01*
X191126787Y-86621669D01*
X191171060Y-86621669D01*
X191215334Y-86621669D01*
X191215334Y-86665942D01*
G37*
G36*
X200775818Y-86665942D02*
G01*
X200775818Y-86710216D01*
X200731544Y-86710216D01*
X200687270Y-86710216D01*
X200687270Y-86665942D01*
X200687270Y-86621669D01*
X200731544Y-86621669D01*
X200775818Y-86621669D01*
X200775818Y-86665942D01*
G37*
G36*
X200510176Y-86311754D02*
G01*
X200510176Y-86356028D01*
X200554450Y-86356028D01*
X200598723Y-86356028D01*
X200598723Y-86311754D01*
X200598723Y-86267480D01*
X200642997Y-86267480D01*
X200687270Y-86267480D01*
X200687270Y-86311754D01*
X200687270Y-86356028D01*
X200731544Y-86356028D01*
X200775818Y-86356028D01*
X200775818Y-86400301D01*
X200775818Y-86444575D01*
X200731544Y-86444575D01*
X200687270Y-86444575D01*
X200687270Y-86488848D01*
X200687270Y-86533122D01*
X200642997Y-86533122D01*
X200598723Y-86533122D01*
X200598723Y-86577395D01*
X200598723Y-86621669D01*
X200554450Y-86621669D01*
X200510176Y-86621669D01*
X200510176Y-86577395D01*
X200510176Y-86533122D01*
X200465903Y-86533122D01*
X200421629Y-86533122D01*
X200421629Y-86488848D01*
X200421629Y-86444575D01*
X200377356Y-86444575D01*
X200333082Y-86444575D01*
X200333082Y-86400301D01*
X200333082Y-86356028D01*
X200377356Y-86356028D01*
X200421629Y-86356028D01*
X200421629Y-86311754D01*
X200421629Y-86267480D01*
X200465903Y-86267480D01*
X200510176Y-86267480D01*
X200510176Y-86311754D01*
G37*
G36*
X191303881Y-86311754D02*
G01*
X191303881Y-86356028D01*
X191348154Y-86356028D01*
X191392428Y-86356028D01*
X191392428Y-86311754D01*
X191392428Y-86267480D01*
X191436701Y-86267480D01*
X191480975Y-86267480D01*
X191480975Y-86311754D01*
X191480975Y-86356028D01*
X191525249Y-86356028D01*
X191569522Y-86356028D01*
X191569522Y-86400301D01*
X191569522Y-86444575D01*
X191525249Y-86444575D01*
X191480975Y-86444575D01*
X191480975Y-86488848D01*
X191480975Y-86533122D01*
X191436701Y-86533122D01*
X191392428Y-86533122D01*
X191392428Y-86577395D01*
X191392428Y-86621669D01*
X191348154Y-86621669D01*
X191303881Y-86621669D01*
X191303881Y-86577395D01*
X191303881Y-86533122D01*
X191259607Y-86533122D01*
X191215334Y-86533122D01*
X191215334Y-86488848D01*
X191215334Y-86444575D01*
X191171060Y-86444575D01*
X191126787Y-86444575D01*
X191126787Y-86400301D01*
X191126787Y-86356028D01*
X191171060Y-86356028D01*
X191215334Y-86356028D01*
X191215334Y-86311754D01*
X191215334Y-86267480D01*
X191259607Y-86267480D01*
X191303881Y-86267480D01*
X191303881Y-86311754D01*
G37*
G36*
X192543540Y-86267480D02*
G01*
X192543540Y-86533122D01*
X192454993Y-86533122D01*
X192366446Y-86533122D01*
X192366446Y-86267480D01*
X192366446Y-86001839D01*
X192454993Y-86001839D01*
X192543540Y-86001839D01*
X192543540Y-86267480D01*
G37*
D12*
%TO.C,C20*%
X187440000Y-77707836D02*
X187440000Y-77492164D01*
X188160000Y-77707836D02*
X188160000Y-77492164D01*
%TO.C,L1*%
X193460000Y-72889721D02*
X193460000Y-73215279D01*
X194480000Y-72889721D02*
X194480000Y-73215279D01*
%TO.C,C4*%
X192240000Y-74212164D02*
X192240000Y-74427836D01*
X192960000Y-74212164D02*
X192960000Y-74427836D01*
%TO.C,C17*%
X194812164Y-81940000D02*
X195027836Y-81940000D01*
X194812164Y-82660000D02*
X195027836Y-82660000D01*
%TO.C,R6*%
X198253641Y-78620000D02*
X197946359Y-78620000D01*
X198253641Y-79380000D02*
X197946359Y-79380000D01*
%TO.C,R5*%
X196263641Y-72420000D02*
X195956359Y-72420000D01*
X196263641Y-73180000D02*
X195956359Y-73180000D01*
%TO.C,C19*%
X186440000Y-77707836D02*
X186440000Y-77492164D01*
X187160000Y-77707836D02*
X187160000Y-77492164D01*
%TO.C,U1*%
X191165000Y-76415000D02*
X191165000Y-76590000D01*
X191165000Y-81335000D02*
X191165000Y-80860000D01*
X191405000Y-76115000D02*
X191640000Y-76115000D01*
X191640000Y-81335000D02*
X191165000Y-81335000D01*
X195910000Y-76115000D02*
X196385000Y-76115000D01*
X195910000Y-81335000D02*
X196385000Y-81335000D01*
X196385000Y-76115000D02*
X196385000Y-76590000D01*
X196385000Y-81335000D02*
X196385000Y-80860000D01*
X191165000Y-76115000D02*
X190835000Y-76355000D01*
X190835000Y-75875000D01*
X191165000Y-76115000D01*
G36*
X191165000Y-76115000D02*
G01*
X190835000Y-76355000D01*
X190835000Y-75875000D01*
X191165000Y-76115000D01*
G37*
%TO.C,C21*%
X188540336Y-82072500D02*
X188324664Y-82072500D01*
X188540336Y-81352500D02*
X188324664Y-81352500D01*
%TO.C,C6*%
X191429420Y-70930000D02*
X191710580Y-70930000D01*
X191429420Y-71950000D02*
X191710580Y-71950000D01*
D13*
%TO.C,Y1*%
X186777500Y-80972500D02*
G75*
G02*
X186577500Y-80972500I-100000J0D01*
G01*
X186577500Y-80972500D02*
G75*
G02*
X186777500Y-80972500I100000J0D01*
G01*
D12*
%TO.C,C22*%
X189192164Y-77740000D02*
X189407836Y-77740000D01*
X189192164Y-78460000D02*
X189407836Y-78460000D01*
%TO.C,C7*%
X198107836Y-77440000D02*
X197892164Y-77440000D01*
X198107836Y-78160000D02*
X197892164Y-78160000D01*
D14*
%TO.C,AE1*%
X187800000Y-73310000D02*
X191000000Y-73310000D01*
X187800000Y-75490000D02*
X191000000Y-75490000D01*
D13*
X192200000Y-74400000D02*
G75*
G02*
X192000000Y-74400000I-100000J0D01*
G01*
X192000000Y-74400000D02*
G75*
G02*
X192200000Y-74400000I100000J0D01*
G01*
D12*
%TO.C,C5*%
X194377836Y-70680000D02*
X194162164Y-70680000D01*
X194377836Y-71400000D02*
X194162164Y-71400000D01*
%TO.C,R7*%
X197946359Y-79620000D02*
X198253641Y-79620000D01*
X197946359Y-80380000D02*
X198253641Y-80380000D01*
%TO.C,R13*%
X182520000Y-73546359D02*
X182520000Y-73853641D01*
X183280000Y-73546359D02*
X183280000Y-73853641D01*
%TO.C,C3*%
X196317836Y-74650000D02*
X196102164Y-74650000D01*
X196317836Y-75370000D02*
X196102164Y-75370000D01*
%TO.C,R8*%
X196046359Y-73620000D02*
X196353641Y-73620000D01*
X196046359Y-74380000D02*
X196353641Y-74380000D01*
%TO.C,C18*%
X196927836Y-81940000D02*
X196712164Y-81940000D01*
X196927836Y-82660000D02*
X196712164Y-82660000D01*
%TO.C,R12*%
X186260000Y-71476359D02*
X186260000Y-71783641D01*
X187020000Y-71476359D02*
X187020000Y-71783641D01*
%TO.C,Q1*%
X183512500Y-70560000D02*
X184162500Y-70560000D01*
X183512500Y-73680000D02*
X184162500Y-73680000D01*
X184812500Y-70560000D02*
X184162500Y-70560000D01*
X184812500Y-73680000D02*
X184162500Y-73680000D01*
X185325000Y-70610000D02*
X185085000Y-70280000D01*
X185565000Y-70280000D01*
X185325000Y-70610000D01*
G36*
X185325000Y-70610000D02*
G01*
X185085000Y-70280000D01*
X185565000Y-70280000D01*
X185325000Y-70610000D01*
G37*
%TD*%
D15*
X184900000Y-76750000D03*
D16*
X184900000Y-82750000D03*
D17*
X185625000Y-75430000D03*
D18*
X181800000Y-75430000D03*
D17*
X185625000Y-84070000D03*
D18*
X181800000Y-84070000D03*
D19*
X194200000Y-84000000D03*
X195500000Y-84000000D03*
X194200000Y-85300000D03*
X195500000Y-85300000D03*
X194200000Y-86600000D03*
X195500000Y-86600000D03*
X194200000Y-87900000D03*
X195500000Y-87900000D03*
M02*
