%TF.GenerationSoftware,KiCad,Pcbnew,8.0.6*%
%TF.CreationDate,2025-10-07T13:26:48+02:00*%
%TF.ProjectId,PCB WLED Spec 7,50434220-574c-4454-9420-537065632037,rev?*%
%TF.SameCoordinates,Original*%
%TF.FileFunction,Soldermask,Top*%
%TF.FilePolarity,Negative*%
%FSLAX46Y46*%
G04 Gerber Fmt 4.6, Leading zero omitted, Abs format (unit mm)*
G04 Created by KiCad (PCBNEW 8.0.6) date 2025-10-07 13:26:48*
%MOMM*%
%LPD*%
G01*
G04 APERTURE LIST*
G04 Aperture macros list*
%AMRoundRect*
0 Rectangle with rounded corners*
0 $1 Rounding radius*
0 $2 $3 $4 $5 $6 $7 $8 $9 X,Y pos of 4 corners*
0 Add a 4 corners polygon primitive as box body*
4,1,4,$2,$3,$4,$5,$6,$7,$8,$9,$2,$3,0*
0 Add four circle primitives for the rounded corners*
1,1,$1+$1,$2,$3*
1,1,$1+$1,$4,$5*
1,1,$1+$1,$6,$7*
1,1,$1+$1,$8,$9*
0 Add four rect primitives between the rounded corners*
20,1,$1+$1,$2,$3,$4,$5,0*
20,1,$1+$1,$4,$5,$6,$7,0*
20,1,$1+$1,$6,$7,$8,$9,0*
20,1,$1+$1,$8,$9,$2,$3,0*%
G04 Aperture macros list end*
%ADD10C,0.010000*%
%ADD11RoundRect,0.250000X0.250000X0.475000X-0.250000X0.475000X-0.250000X-0.475000X0.250000X-0.475000X0*%
%ADD12RoundRect,0.160000X-0.197500X-0.160000X0.197500X-0.160000X0.197500X0.160000X-0.197500X0.160000X0*%
%ADD13RoundRect,0.102000X-0.400000X-0.850000X0.400000X-0.850000X0.400000X0.850000X-0.400000X0.850000X0*%
%ADD14RoundRect,0.135000X-0.135000X-0.185000X0.135000X-0.185000X0.135000X0.185000X-0.135000X0.185000X0*%
%ADD15RoundRect,0.140000X0.170000X-0.140000X0.170000X0.140000X-0.170000X0.140000X-0.170000X-0.140000X0*%
%ADD16RoundRect,0.150000X0.150000X-0.587500X0.150000X0.587500X-0.150000X0.587500X-0.150000X-0.587500X0*%
%ADD17RoundRect,0.106750X0.605250X0.320250X-0.605250X0.320250X-0.605250X-0.320250X0.605250X-0.320250X0*%
%ADD18RoundRect,0.135000X0.135000X0.185000X-0.135000X0.185000X-0.135000X-0.185000X0.135000X-0.185000X0*%
%ADD19RoundRect,0.325000X-0.325000X-0.475000X0.325000X-0.475000X0.325000X0.475000X-0.325000X0.475000X0*%
%ADD20RoundRect,0.140000X0.140000X0.170000X-0.140000X0.170000X-0.140000X-0.170000X0.140000X-0.170000X0*%
%ADD21C,0.600000*%
%ADD22R,2.000000X1.000000*%
%ADD23O,0.600000X0.850000*%
%ADD24R,1.000000X0.520000*%
%ADD25R,1.000000X0.270000*%
%ADD26O,2.300000X1.300000*%
%ADD27O,2.600000X1.300000*%
%ADD28RoundRect,0.325000X0.325000X0.475000X-0.325000X0.475000X-0.325000X-0.475000X0.325000X-0.475000X0*%
%ADD29RoundRect,0.250000X0.325000X0.650000X-0.325000X0.650000X-0.325000X-0.650000X0.325000X-0.650000X0*%
%ADD30RoundRect,0.325000X0.475000X-0.325000X0.475000X0.325000X-0.475000X0.325000X-0.475000X-0.325000X0*%
%ADD31RoundRect,0.102000X0.850000X-0.400000X0.850000X0.400000X-0.850000X0.400000X-0.850000X-0.400000X0*%
%ADD32C,0.504000*%
%ADD33RoundRect,0.102000X-1.145000X-1.560000X1.145000X-1.560000X1.145000X1.560000X-1.145000X1.560000X0*%
%ADD34RoundRect,0.140000X-0.170000X0.140000X-0.170000X-0.140000X0.170000X-0.140000X0.170000X0.140000X0*%
%ADD35RoundRect,0.135000X-0.185000X0.135000X-0.185000X-0.135000X0.185000X-0.135000X0.185000X0.135000X0*%
%ADD36RoundRect,0.140000X-0.140000X-0.170000X0.140000X-0.170000X0.140000X0.170000X-0.140000X0.170000X0*%
%ADD37RoundRect,0.812500X1.187500X-0.812500X1.187500X0.812500X-1.187500X0.812500X-1.187500X-0.812500X0*%
G04 APERTURE END LIST*
D10*
%TO.C,U3*%
X196205000Y-87650000D02*
X193495000Y-87650000D01*
X193495000Y-84250000D01*
X196205000Y-84250000D01*
X196205000Y-87650000D01*
G36*
X196205000Y-87650000D02*
G01*
X193495000Y-87650000D01*
X193495000Y-84250000D01*
X196205000Y-84250000D01*
X196205000Y-87650000D01*
G37*
X192953000Y-83676000D02*
X192955000Y-83676000D01*
X192958000Y-83677000D01*
X192960000Y-83677000D01*
X192963000Y-83678000D01*
X192965000Y-83679000D01*
X192968000Y-83680000D01*
X192970000Y-83682000D01*
X192972000Y-83683000D01*
X192974000Y-83685000D01*
X192976000Y-83686000D01*
X192978000Y-83688000D01*
X192980000Y-83690000D01*
X192982000Y-83692000D01*
X192984000Y-83694000D01*
X192985000Y-83696000D01*
X192987000Y-83698000D01*
X192988000Y-83700000D01*
X192990000Y-83702000D01*
X192991000Y-83705000D01*
X192992000Y-83707000D01*
X192993000Y-83710000D01*
X192993000Y-83712000D01*
X192994000Y-83715000D01*
X192994000Y-83717000D01*
X192995000Y-83720000D01*
X192995000Y-83722000D01*
X192995000Y-83725000D01*
X192995000Y-84365000D01*
X192995000Y-84368000D01*
X192995000Y-84370000D01*
X192994000Y-84373000D01*
X192994000Y-84375000D01*
X192993000Y-84378000D01*
X192993000Y-84380000D01*
X192992000Y-84383000D01*
X192991000Y-84385000D01*
X192990000Y-84388000D01*
X192988000Y-84390000D01*
X192987000Y-84392000D01*
X192985000Y-84394000D01*
X192984000Y-84396000D01*
X192982000Y-84398000D01*
X192980000Y-84400000D01*
X192978000Y-84402000D01*
X192976000Y-84404000D01*
X192974000Y-84405000D01*
X192972000Y-84407000D01*
X192970000Y-84408000D01*
X192968000Y-84410000D01*
X192965000Y-84411000D01*
X192963000Y-84412000D01*
X192960000Y-84413000D01*
X192958000Y-84413000D01*
X192955000Y-84414000D01*
X192953000Y-84414000D01*
X192950000Y-84415000D01*
X192948000Y-84415000D01*
X192945000Y-84415000D01*
X191355000Y-84415000D01*
X191352000Y-84415000D01*
X191350000Y-84415000D01*
X191347000Y-84414000D01*
X191345000Y-84414000D01*
X191342000Y-84413000D01*
X191340000Y-84413000D01*
X191337000Y-84412000D01*
X191335000Y-84411000D01*
X191332000Y-84410000D01*
X191330000Y-84408000D01*
X191328000Y-84407000D01*
X191326000Y-84405000D01*
X191324000Y-84404000D01*
X191322000Y-84402000D01*
X191320000Y-84400000D01*
X191318000Y-84398000D01*
X191316000Y-84396000D01*
X191315000Y-84394000D01*
X191313000Y-84392000D01*
X191312000Y-84390000D01*
X191310000Y-84388000D01*
X191309000Y-84385000D01*
X191308000Y-84383000D01*
X191307000Y-84380000D01*
X191307000Y-84378000D01*
X191306000Y-84375000D01*
X191306000Y-84373000D01*
X191305000Y-84370000D01*
X191305000Y-84368000D01*
X191305000Y-84365000D01*
X191305000Y-83725000D01*
X191305000Y-83722000D01*
X191305000Y-83720000D01*
X191306000Y-83717000D01*
X191306000Y-83715000D01*
X191307000Y-83712000D01*
X191307000Y-83710000D01*
X191308000Y-83707000D01*
X191309000Y-83705000D01*
X191310000Y-83702000D01*
X191312000Y-83700000D01*
X191313000Y-83698000D01*
X191315000Y-83696000D01*
X191316000Y-83694000D01*
X191318000Y-83692000D01*
X191320000Y-83690000D01*
X191322000Y-83688000D01*
X191324000Y-83686000D01*
X191326000Y-83685000D01*
X191328000Y-83683000D01*
X191330000Y-83682000D01*
X191332000Y-83680000D01*
X191335000Y-83679000D01*
X191337000Y-83678000D01*
X191340000Y-83677000D01*
X191342000Y-83677000D01*
X191345000Y-83676000D01*
X191347000Y-83676000D01*
X191350000Y-83675000D01*
X191352000Y-83675000D01*
X191355000Y-83675000D01*
X192945000Y-83675000D01*
X192948000Y-83675000D01*
X192950000Y-83675000D01*
X192953000Y-83676000D01*
G36*
X192953000Y-83676000D02*
G01*
X192955000Y-83676000D01*
X192958000Y-83677000D01*
X192960000Y-83677000D01*
X192963000Y-83678000D01*
X192965000Y-83679000D01*
X192968000Y-83680000D01*
X192970000Y-83682000D01*
X192972000Y-83683000D01*
X192974000Y-83685000D01*
X192976000Y-83686000D01*
X192978000Y-83688000D01*
X192980000Y-83690000D01*
X192982000Y-83692000D01*
X192984000Y-83694000D01*
X192985000Y-83696000D01*
X192987000Y-83698000D01*
X192988000Y-83700000D01*
X192990000Y-83702000D01*
X192991000Y-83705000D01*
X192992000Y-83707000D01*
X192993000Y-83710000D01*
X192993000Y-83712000D01*
X192994000Y-83715000D01*
X192994000Y-83717000D01*
X192995000Y-83720000D01*
X192995000Y-83722000D01*
X192995000Y-83725000D01*
X192995000Y-84365000D01*
X192995000Y-84368000D01*
X192995000Y-84370000D01*
X192994000Y-84373000D01*
X192994000Y-84375000D01*
X192993000Y-84378000D01*
X192993000Y-84380000D01*
X192992000Y-84383000D01*
X192991000Y-84385000D01*
X192990000Y-84388000D01*
X192988000Y-84390000D01*
X192987000Y-84392000D01*
X192985000Y-84394000D01*
X192984000Y-84396000D01*
X192982000Y-84398000D01*
X192980000Y-84400000D01*
X192978000Y-84402000D01*
X192976000Y-84404000D01*
X192974000Y-84405000D01*
X192972000Y-84407000D01*
X192970000Y-84408000D01*
X192968000Y-84410000D01*
X192965000Y-84411000D01*
X192963000Y-84412000D01*
X192960000Y-84413000D01*
X192958000Y-84413000D01*
X192955000Y-84414000D01*
X192953000Y-84414000D01*
X192950000Y-84415000D01*
X192948000Y-84415000D01*
X192945000Y-84415000D01*
X191355000Y-84415000D01*
X191352000Y-84415000D01*
X191350000Y-84415000D01*
X191347000Y-84414000D01*
X191345000Y-84414000D01*
X191342000Y-84413000D01*
X191340000Y-84413000D01*
X191337000Y-84412000D01*
X191335000Y-84411000D01*
X191332000Y-84410000D01*
X191330000Y-84408000D01*
X191328000Y-84407000D01*
X191326000Y-84405000D01*
X191324000Y-84404000D01*
X191322000Y-84402000D01*
X191320000Y-84400000D01*
X191318000Y-84398000D01*
X191316000Y-84396000D01*
X191315000Y-84394000D01*
X191313000Y-84392000D01*
X191312000Y-84390000D01*
X191310000Y-84388000D01*
X191309000Y-84385000D01*
X191308000Y-84383000D01*
X191307000Y-84380000D01*
X191307000Y-84378000D01*
X191306000Y-84375000D01*
X191306000Y-84373000D01*
X191305000Y-84370000D01*
X191305000Y-84368000D01*
X191305000Y-84365000D01*
X191305000Y-83725000D01*
X191305000Y-83722000D01*
X191305000Y-83720000D01*
X191306000Y-83717000D01*
X191306000Y-83715000D01*
X191307000Y-83712000D01*
X191307000Y-83710000D01*
X191308000Y-83707000D01*
X191309000Y-83705000D01*
X191310000Y-83702000D01*
X191312000Y-83700000D01*
X191313000Y-83698000D01*
X191315000Y-83696000D01*
X191316000Y-83694000D01*
X191318000Y-83692000D01*
X191320000Y-83690000D01*
X191322000Y-83688000D01*
X191324000Y-83686000D01*
X191326000Y-83685000D01*
X191328000Y-83683000D01*
X191330000Y-83682000D01*
X191332000Y-83680000D01*
X191335000Y-83679000D01*
X191337000Y-83678000D01*
X191340000Y-83677000D01*
X191342000Y-83677000D01*
X191345000Y-83676000D01*
X191347000Y-83676000D01*
X191350000Y-83675000D01*
X191352000Y-83675000D01*
X191355000Y-83675000D01*
X192945000Y-83675000D01*
X192948000Y-83675000D01*
X192950000Y-83675000D01*
X192953000Y-83676000D01*
G37*
X192953000Y-84946000D02*
X192955000Y-84946000D01*
X192958000Y-84947000D01*
X192960000Y-84947000D01*
X192963000Y-84948000D01*
X192965000Y-84949000D01*
X192968000Y-84950000D01*
X192970000Y-84952000D01*
X192972000Y-84953000D01*
X192974000Y-84955000D01*
X192976000Y-84956000D01*
X192978000Y-84958000D01*
X192980000Y-84960000D01*
X192982000Y-84962000D01*
X192984000Y-84964000D01*
X192985000Y-84966000D01*
X192987000Y-84968000D01*
X192988000Y-84970000D01*
X192990000Y-84972000D01*
X192991000Y-84975000D01*
X192992000Y-84977000D01*
X192993000Y-84980000D01*
X192993000Y-84982000D01*
X192994000Y-84985000D01*
X192994000Y-84987000D01*
X192995000Y-84990000D01*
X192995000Y-84992000D01*
X192995000Y-84995000D01*
X192995000Y-85635000D01*
X192995000Y-85638000D01*
X192995000Y-85640000D01*
X192994000Y-85643000D01*
X192994000Y-85645000D01*
X192993000Y-85648000D01*
X192993000Y-85650000D01*
X192992000Y-85653000D01*
X192991000Y-85655000D01*
X192990000Y-85658000D01*
X192988000Y-85660000D01*
X192987000Y-85662000D01*
X192985000Y-85664000D01*
X192984000Y-85666000D01*
X192982000Y-85668000D01*
X192980000Y-85670000D01*
X192978000Y-85672000D01*
X192976000Y-85674000D01*
X192974000Y-85675000D01*
X192972000Y-85677000D01*
X192970000Y-85678000D01*
X192968000Y-85680000D01*
X192965000Y-85681000D01*
X192963000Y-85682000D01*
X192960000Y-85683000D01*
X192958000Y-85683000D01*
X192955000Y-85684000D01*
X192953000Y-85684000D01*
X192950000Y-85685000D01*
X192948000Y-85685000D01*
X192945000Y-85685000D01*
X191355000Y-85685000D01*
X191352000Y-85685000D01*
X191350000Y-85685000D01*
X191347000Y-85684000D01*
X191345000Y-85684000D01*
X191342000Y-85683000D01*
X191340000Y-85683000D01*
X191337000Y-85682000D01*
X191335000Y-85681000D01*
X191332000Y-85680000D01*
X191330000Y-85678000D01*
X191328000Y-85677000D01*
X191326000Y-85675000D01*
X191324000Y-85674000D01*
X191322000Y-85672000D01*
X191320000Y-85670000D01*
X191318000Y-85668000D01*
X191316000Y-85666000D01*
X191315000Y-85664000D01*
X191313000Y-85662000D01*
X191312000Y-85660000D01*
X191310000Y-85658000D01*
X191309000Y-85655000D01*
X191308000Y-85653000D01*
X191307000Y-85650000D01*
X191307000Y-85648000D01*
X191306000Y-85645000D01*
X191306000Y-85643000D01*
X191305000Y-85640000D01*
X191305000Y-85638000D01*
X191305000Y-85635000D01*
X191305000Y-84995000D01*
X191305000Y-84992000D01*
X191305000Y-84990000D01*
X191306000Y-84987000D01*
X191306000Y-84985000D01*
X191307000Y-84982000D01*
X191307000Y-84980000D01*
X191308000Y-84977000D01*
X191309000Y-84975000D01*
X191310000Y-84972000D01*
X191312000Y-84970000D01*
X191313000Y-84968000D01*
X191315000Y-84966000D01*
X191316000Y-84964000D01*
X191318000Y-84962000D01*
X191320000Y-84960000D01*
X191322000Y-84958000D01*
X191324000Y-84956000D01*
X191326000Y-84955000D01*
X191328000Y-84953000D01*
X191330000Y-84952000D01*
X191332000Y-84950000D01*
X191335000Y-84949000D01*
X191337000Y-84948000D01*
X191340000Y-84947000D01*
X191342000Y-84947000D01*
X191345000Y-84946000D01*
X191347000Y-84946000D01*
X191350000Y-84945000D01*
X191352000Y-84945000D01*
X191355000Y-84945000D01*
X192945000Y-84945000D01*
X192948000Y-84945000D01*
X192950000Y-84945000D01*
X192953000Y-84946000D01*
G36*
X192953000Y-84946000D02*
G01*
X192955000Y-84946000D01*
X192958000Y-84947000D01*
X192960000Y-84947000D01*
X192963000Y-84948000D01*
X192965000Y-84949000D01*
X192968000Y-84950000D01*
X192970000Y-84952000D01*
X192972000Y-84953000D01*
X192974000Y-84955000D01*
X192976000Y-84956000D01*
X192978000Y-84958000D01*
X192980000Y-84960000D01*
X192982000Y-84962000D01*
X192984000Y-84964000D01*
X192985000Y-84966000D01*
X192987000Y-84968000D01*
X192988000Y-84970000D01*
X192990000Y-84972000D01*
X192991000Y-84975000D01*
X192992000Y-84977000D01*
X192993000Y-84980000D01*
X192993000Y-84982000D01*
X192994000Y-84985000D01*
X192994000Y-84987000D01*
X192995000Y-84990000D01*
X192995000Y-84992000D01*
X192995000Y-84995000D01*
X192995000Y-85635000D01*
X192995000Y-85638000D01*
X192995000Y-85640000D01*
X192994000Y-85643000D01*
X192994000Y-85645000D01*
X192993000Y-85648000D01*
X192993000Y-85650000D01*
X192992000Y-85653000D01*
X192991000Y-85655000D01*
X192990000Y-85658000D01*
X192988000Y-85660000D01*
X192987000Y-85662000D01*
X192985000Y-85664000D01*
X192984000Y-85666000D01*
X192982000Y-85668000D01*
X192980000Y-85670000D01*
X192978000Y-85672000D01*
X192976000Y-85674000D01*
X192974000Y-85675000D01*
X192972000Y-85677000D01*
X192970000Y-85678000D01*
X192968000Y-85680000D01*
X192965000Y-85681000D01*
X192963000Y-85682000D01*
X192960000Y-85683000D01*
X192958000Y-85683000D01*
X192955000Y-85684000D01*
X192953000Y-85684000D01*
X192950000Y-85685000D01*
X192948000Y-85685000D01*
X192945000Y-85685000D01*
X191355000Y-85685000D01*
X191352000Y-85685000D01*
X191350000Y-85685000D01*
X191347000Y-85684000D01*
X191345000Y-85684000D01*
X191342000Y-85683000D01*
X191340000Y-85683000D01*
X191337000Y-85682000D01*
X191335000Y-85681000D01*
X191332000Y-85680000D01*
X191330000Y-85678000D01*
X191328000Y-85677000D01*
X191326000Y-85675000D01*
X191324000Y-85674000D01*
X191322000Y-85672000D01*
X191320000Y-85670000D01*
X191318000Y-85668000D01*
X191316000Y-85666000D01*
X191315000Y-85664000D01*
X191313000Y-85662000D01*
X191312000Y-85660000D01*
X191310000Y-85658000D01*
X191309000Y-85655000D01*
X191308000Y-85653000D01*
X191307000Y-85650000D01*
X191307000Y-85648000D01*
X191306000Y-85645000D01*
X191306000Y-85643000D01*
X191305000Y-85640000D01*
X191305000Y-85638000D01*
X191305000Y-85635000D01*
X191305000Y-84995000D01*
X191305000Y-84992000D01*
X191305000Y-84990000D01*
X191306000Y-84987000D01*
X191306000Y-84985000D01*
X191307000Y-84982000D01*
X191307000Y-84980000D01*
X191308000Y-84977000D01*
X191309000Y-84975000D01*
X191310000Y-84972000D01*
X191312000Y-84970000D01*
X191313000Y-84968000D01*
X191315000Y-84966000D01*
X191316000Y-84964000D01*
X191318000Y-84962000D01*
X191320000Y-84960000D01*
X191322000Y-84958000D01*
X191324000Y-84956000D01*
X191326000Y-84955000D01*
X191328000Y-84953000D01*
X191330000Y-84952000D01*
X191332000Y-84950000D01*
X191335000Y-84949000D01*
X191337000Y-84948000D01*
X191340000Y-84947000D01*
X191342000Y-84947000D01*
X191345000Y-84946000D01*
X191347000Y-84946000D01*
X191350000Y-84945000D01*
X191352000Y-84945000D01*
X191355000Y-84945000D01*
X192945000Y-84945000D01*
X192948000Y-84945000D01*
X192950000Y-84945000D01*
X192953000Y-84946000D01*
G37*
X192953000Y-86216000D02*
X192955000Y-86216000D01*
X192958000Y-86217000D01*
X192960000Y-86217000D01*
X192963000Y-86218000D01*
X192965000Y-86219000D01*
X192968000Y-86220000D01*
X192970000Y-86222000D01*
X192972000Y-86223000D01*
X192974000Y-86225000D01*
X192976000Y-86226000D01*
X192978000Y-86228000D01*
X192980000Y-86230000D01*
X192982000Y-86232000D01*
X192984000Y-86234000D01*
X192985000Y-86236000D01*
X192987000Y-86238000D01*
X192988000Y-86240000D01*
X192990000Y-86242000D01*
X192991000Y-86245000D01*
X192992000Y-86247000D01*
X192993000Y-86250000D01*
X192993000Y-86252000D01*
X192994000Y-86255000D01*
X192994000Y-86257000D01*
X192995000Y-86260000D01*
X192995000Y-86262000D01*
X192995000Y-86265000D01*
X192995000Y-86905000D01*
X192995000Y-86908000D01*
X192995000Y-86910000D01*
X192994000Y-86913000D01*
X192994000Y-86915000D01*
X192993000Y-86918000D01*
X192993000Y-86920000D01*
X192992000Y-86923000D01*
X192991000Y-86925000D01*
X192990000Y-86928000D01*
X192988000Y-86930000D01*
X192987000Y-86932000D01*
X192985000Y-86934000D01*
X192984000Y-86936000D01*
X192982000Y-86938000D01*
X192980000Y-86940000D01*
X192978000Y-86942000D01*
X192976000Y-86944000D01*
X192974000Y-86945000D01*
X192972000Y-86947000D01*
X192970000Y-86948000D01*
X192968000Y-86950000D01*
X192965000Y-86951000D01*
X192963000Y-86952000D01*
X192960000Y-86953000D01*
X192958000Y-86953000D01*
X192955000Y-86954000D01*
X192953000Y-86954000D01*
X192950000Y-86955000D01*
X192948000Y-86955000D01*
X192945000Y-86955000D01*
X191355000Y-86955000D01*
X191352000Y-86955000D01*
X191350000Y-86955000D01*
X191347000Y-86954000D01*
X191345000Y-86954000D01*
X191342000Y-86953000D01*
X191340000Y-86953000D01*
X191337000Y-86952000D01*
X191335000Y-86951000D01*
X191332000Y-86950000D01*
X191330000Y-86948000D01*
X191328000Y-86947000D01*
X191326000Y-86945000D01*
X191324000Y-86944000D01*
X191322000Y-86942000D01*
X191320000Y-86940000D01*
X191318000Y-86938000D01*
X191316000Y-86936000D01*
X191315000Y-86934000D01*
X191313000Y-86932000D01*
X191312000Y-86930000D01*
X191310000Y-86928000D01*
X191309000Y-86925000D01*
X191308000Y-86923000D01*
X191307000Y-86920000D01*
X191307000Y-86918000D01*
X191306000Y-86915000D01*
X191306000Y-86913000D01*
X191305000Y-86910000D01*
X191305000Y-86908000D01*
X191305000Y-86905000D01*
X191305000Y-86265000D01*
X191305000Y-86262000D01*
X191305000Y-86260000D01*
X191306000Y-86257000D01*
X191306000Y-86255000D01*
X191307000Y-86252000D01*
X191307000Y-86250000D01*
X191308000Y-86247000D01*
X191309000Y-86245000D01*
X191310000Y-86242000D01*
X191312000Y-86240000D01*
X191313000Y-86238000D01*
X191315000Y-86236000D01*
X191316000Y-86234000D01*
X191318000Y-86232000D01*
X191320000Y-86230000D01*
X191322000Y-86228000D01*
X191324000Y-86226000D01*
X191326000Y-86225000D01*
X191328000Y-86223000D01*
X191330000Y-86222000D01*
X191332000Y-86220000D01*
X191335000Y-86219000D01*
X191337000Y-86218000D01*
X191340000Y-86217000D01*
X191342000Y-86217000D01*
X191345000Y-86216000D01*
X191347000Y-86216000D01*
X191350000Y-86215000D01*
X191352000Y-86215000D01*
X191355000Y-86215000D01*
X192945000Y-86215000D01*
X192948000Y-86215000D01*
X192950000Y-86215000D01*
X192953000Y-86216000D01*
G36*
X192953000Y-86216000D02*
G01*
X192955000Y-86216000D01*
X192958000Y-86217000D01*
X192960000Y-86217000D01*
X192963000Y-86218000D01*
X192965000Y-86219000D01*
X192968000Y-86220000D01*
X192970000Y-86222000D01*
X192972000Y-86223000D01*
X192974000Y-86225000D01*
X192976000Y-86226000D01*
X192978000Y-86228000D01*
X192980000Y-86230000D01*
X192982000Y-86232000D01*
X192984000Y-86234000D01*
X192985000Y-86236000D01*
X192987000Y-86238000D01*
X192988000Y-86240000D01*
X192990000Y-86242000D01*
X192991000Y-86245000D01*
X192992000Y-86247000D01*
X192993000Y-86250000D01*
X192993000Y-86252000D01*
X192994000Y-86255000D01*
X192994000Y-86257000D01*
X192995000Y-86260000D01*
X192995000Y-86262000D01*
X192995000Y-86265000D01*
X192995000Y-86905000D01*
X192995000Y-86908000D01*
X192995000Y-86910000D01*
X192994000Y-86913000D01*
X192994000Y-86915000D01*
X192993000Y-86918000D01*
X192993000Y-86920000D01*
X192992000Y-86923000D01*
X192991000Y-86925000D01*
X192990000Y-86928000D01*
X192988000Y-86930000D01*
X192987000Y-86932000D01*
X192985000Y-86934000D01*
X192984000Y-86936000D01*
X192982000Y-86938000D01*
X192980000Y-86940000D01*
X192978000Y-86942000D01*
X192976000Y-86944000D01*
X192974000Y-86945000D01*
X192972000Y-86947000D01*
X192970000Y-86948000D01*
X192968000Y-86950000D01*
X192965000Y-86951000D01*
X192963000Y-86952000D01*
X192960000Y-86953000D01*
X192958000Y-86953000D01*
X192955000Y-86954000D01*
X192953000Y-86954000D01*
X192950000Y-86955000D01*
X192948000Y-86955000D01*
X192945000Y-86955000D01*
X191355000Y-86955000D01*
X191352000Y-86955000D01*
X191350000Y-86955000D01*
X191347000Y-86954000D01*
X191345000Y-86954000D01*
X191342000Y-86953000D01*
X191340000Y-86953000D01*
X191337000Y-86952000D01*
X191335000Y-86951000D01*
X191332000Y-86950000D01*
X191330000Y-86948000D01*
X191328000Y-86947000D01*
X191326000Y-86945000D01*
X191324000Y-86944000D01*
X191322000Y-86942000D01*
X191320000Y-86940000D01*
X191318000Y-86938000D01*
X191316000Y-86936000D01*
X191315000Y-86934000D01*
X191313000Y-86932000D01*
X191312000Y-86930000D01*
X191310000Y-86928000D01*
X191309000Y-86925000D01*
X191308000Y-86923000D01*
X191307000Y-86920000D01*
X191307000Y-86918000D01*
X191306000Y-86915000D01*
X191306000Y-86913000D01*
X191305000Y-86910000D01*
X191305000Y-86908000D01*
X191305000Y-86905000D01*
X191305000Y-86265000D01*
X191305000Y-86262000D01*
X191305000Y-86260000D01*
X191306000Y-86257000D01*
X191306000Y-86255000D01*
X191307000Y-86252000D01*
X191307000Y-86250000D01*
X191308000Y-86247000D01*
X191309000Y-86245000D01*
X191310000Y-86242000D01*
X191312000Y-86240000D01*
X191313000Y-86238000D01*
X191315000Y-86236000D01*
X191316000Y-86234000D01*
X191318000Y-86232000D01*
X191320000Y-86230000D01*
X191322000Y-86228000D01*
X191324000Y-86226000D01*
X191326000Y-86225000D01*
X191328000Y-86223000D01*
X191330000Y-86222000D01*
X191332000Y-86220000D01*
X191335000Y-86219000D01*
X191337000Y-86218000D01*
X191340000Y-86217000D01*
X191342000Y-86217000D01*
X191345000Y-86216000D01*
X191347000Y-86216000D01*
X191350000Y-86215000D01*
X191352000Y-86215000D01*
X191355000Y-86215000D01*
X192945000Y-86215000D01*
X192948000Y-86215000D01*
X192950000Y-86215000D01*
X192953000Y-86216000D01*
G37*
X192953000Y-87486000D02*
X192955000Y-87486000D01*
X192958000Y-87487000D01*
X192960000Y-87487000D01*
X192963000Y-87488000D01*
X192965000Y-87489000D01*
X192968000Y-87490000D01*
X192970000Y-87492000D01*
X192972000Y-87493000D01*
X192974000Y-87495000D01*
X192976000Y-87496000D01*
X192978000Y-87498000D01*
X192980000Y-87500000D01*
X192982000Y-87502000D01*
X192984000Y-87504000D01*
X192985000Y-87506000D01*
X192987000Y-87508000D01*
X192988000Y-87510000D01*
X192990000Y-87512000D01*
X192991000Y-87515000D01*
X192992000Y-87517000D01*
X192993000Y-87520000D01*
X192993000Y-87522000D01*
X192994000Y-87525000D01*
X192994000Y-87527000D01*
X192995000Y-87530000D01*
X192995000Y-87532000D01*
X192995000Y-87535000D01*
X192995000Y-88175000D01*
X192995000Y-88178000D01*
X192995000Y-88180000D01*
X192994000Y-88183000D01*
X192994000Y-88185000D01*
X192993000Y-88188000D01*
X192993000Y-88190000D01*
X192992000Y-88193000D01*
X192991000Y-88195000D01*
X192990000Y-88198000D01*
X192988000Y-88200000D01*
X192987000Y-88202000D01*
X192985000Y-88204000D01*
X192984000Y-88206000D01*
X192982000Y-88208000D01*
X192980000Y-88210000D01*
X192978000Y-88212000D01*
X192976000Y-88214000D01*
X192974000Y-88215000D01*
X192972000Y-88217000D01*
X192970000Y-88218000D01*
X192968000Y-88220000D01*
X192965000Y-88221000D01*
X192963000Y-88222000D01*
X192960000Y-88223000D01*
X192958000Y-88223000D01*
X192955000Y-88224000D01*
X192953000Y-88224000D01*
X192950000Y-88225000D01*
X192948000Y-88225000D01*
X192945000Y-88225000D01*
X191355000Y-88225000D01*
X191352000Y-88225000D01*
X191350000Y-88225000D01*
X191347000Y-88224000D01*
X191345000Y-88224000D01*
X191342000Y-88223000D01*
X191340000Y-88223000D01*
X191337000Y-88222000D01*
X191335000Y-88221000D01*
X191332000Y-88220000D01*
X191330000Y-88218000D01*
X191328000Y-88217000D01*
X191326000Y-88215000D01*
X191324000Y-88214000D01*
X191322000Y-88212000D01*
X191320000Y-88210000D01*
X191318000Y-88208000D01*
X191316000Y-88206000D01*
X191315000Y-88204000D01*
X191313000Y-88202000D01*
X191312000Y-88200000D01*
X191310000Y-88198000D01*
X191309000Y-88195000D01*
X191308000Y-88193000D01*
X191307000Y-88190000D01*
X191307000Y-88188000D01*
X191306000Y-88185000D01*
X191306000Y-88183000D01*
X191305000Y-88180000D01*
X191305000Y-88178000D01*
X191305000Y-88175000D01*
X191305000Y-87535000D01*
X191305000Y-87532000D01*
X191305000Y-87530000D01*
X191306000Y-87527000D01*
X191306000Y-87525000D01*
X191307000Y-87522000D01*
X191307000Y-87520000D01*
X191308000Y-87517000D01*
X191309000Y-87515000D01*
X191310000Y-87512000D01*
X191312000Y-87510000D01*
X191313000Y-87508000D01*
X191315000Y-87506000D01*
X191316000Y-87504000D01*
X191318000Y-87502000D01*
X191320000Y-87500000D01*
X191322000Y-87498000D01*
X191324000Y-87496000D01*
X191326000Y-87495000D01*
X191328000Y-87493000D01*
X191330000Y-87492000D01*
X191332000Y-87490000D01*
X191335000Y-87489000D01*
X191337000Y-87488000D01*
X191340000Y-87487000D01*
X191342000Y-87487000D01*
X191345000Y-87486000D01*
X191347000Y-87486000D01*
X191350000Y-87485000D01*
X191352000Y-87485000D01*
X191355000Y-87485000D01*
X192945000Y-87485000D01*
X192948000Y-87485000D01*
X192950000Y-87485000D01*
X192953000Y-87486000D01*
G36*
X192953000Y-87486000D02*
G01*
X192955000Y-87486000D01*
X192958000Y-87487000D01*
X192960000Y-87487000D01*
X192963000Y-87488000D01*
X192965000Y-87489000D01*
X192968000Y-87490000D01*
X192970000Y-87492000D01*
X192972000Y-87493000D01*
X192974000Y-87495000D01*
X192976000Y-87496000D01*
X192978000Y-87498000D01*
X192980000Y-87500000D01*
X192982000Y-87502000D01*
X192984000Y-87504000D01*
X192985000Y-87506000D01*
X192987000Y-87508000D01*
X192988000Y-87510000D01*
X192990000Y-87512000D01*
X192991000Y-87515000D01*
X192992000Y-87517000D01*
X192993000Y-87520000D01*
X192993000Y-87522000D01*
X192994000Y-87525000D01*
X192994000Y-87527000D01*
X192995000Y-87530000D01*
X192995000Y-87532000D01*
X192995000Y-87535000D01*
X192995000Y-88175000D01*
X192995000Y-88178000D01*
X192995000Y-88180000D01*
X192994000Y-88183000D01*
X192994000Y-88185000D01*
X192993000Y-88188000D01*
X192993000Y-88190000D01*
X192992000Y-88193000D01*
X192991000Y-88195000D01*
X192990000Y-88198000D01*
X192988000Y-88200000D01*
X192987000Y-88202000D01*
X192985000Y-88204000D01*
X192984000Y-88206000D01*
X192982000Y-88208000D01*
X192980000Y-88210000D01*
X192978000Y-88212000D01*
X192976000Y-88214000D01*
X192974000Y-88215000D01*
X192972000Y-88217000D01*
X192970000Y-88218000D01*
X192968000Y-88220000D01*
X192965000Y-88221000D01*
X192963000Y-88222000D01*
X192960000Y-88223000D01*
X192958000Y-88223000D01*
X192955000Y-88224000D01*
X192953000Y-88224000D01*
X192950000Y-88225000D01*
X192948000Y-88225000D01*
X192945000Y-88225000D01*
X191355000Y-88225000D01*
X191352000Y-88225000D01*
X191350000Y-88225000D01*
X191347000Y-88224000D01*
X191345000Y-88224000D01*
X191342000Y-88223000D01*
X191340000Y-88223000D01*
X191337000Y-88222000D01*
X191335000Y-88221000D01*
X191332000Y-88220000D01*
X191330000Y-88218000D01*
X191328000Y-88217000D01*
X191326000Y-88215000D01*
X191324000Y-88214000D01*
X191322000Y-88212000D01*
X191320000Y-88210000D01*
X191318000Y-88208000D01*
X191316000Y-88206000D01*
X191315000Y-88204000D01*
X191313000Y-88202000D01*
X191312000Y-88200000D01*
X191310000Y-88198000D01*
X191309000Y-88195000D01*
X191308000Y-88193000D01*
X191307000Y-88190000D01*
X191307000Y-88188000D01*
X191306000Y-88185000D01*
X191306000Y-88183000D01*
X191305000Y-88180000D01*
X191305000Y-88178000D01*
X191305000Y-88175000D01*
X191305000Y-87535000D01*
X191305000Y-87532000D01*
X191305000Y-87530000D01*
X191306000Y-87527000D01*
X191306000Y-87525000D01*
X191307000Y-87522000D01*
X191307000Y-87520000D01*
X191308000Y-87517000D01*
X191309000Y-87515000D01*
X191310000Y-87512000D01*
X191312000Y-87510000D01*
X191313000Y-87508000D01*
X191315000Y-87506000D01*
X191316000Y-87504000D01*
X191318000Y-87502000D01*
X191320000Y-87500000D01*
X191322000Y-87498000D01*
X191324000Y-87496000D01*
X191326000Y-87495000D01*
X191328000Y-87493000D01*
X191330000Y-87492000D01*
X191332000Y-87490000D01*
X191335000Y-87489000D01*
X191337000Y-87488000D01*
X191340000Y-87487000D01*
X191342000Y-87487000D01*
X191345000Y-87486000D01*
X191347000Y-87486000D01*
X191350000Y-87485000D01*
X191352000Y-87485000D01*
X191355000Y-87485000D01*
X192945000Y-87485000D01*
X192948000Y-87485000D01*
X192950000Y-87485000D01*
X192953000Y-87486000D01*
G37*
X198353000Y-83676000D02*
X198355000Y-83676000D01*
X198358000Y-83677000D01*
X198360000Y-83677000D01*
X198363000Y-83678000D01*
X198365000Y-83679000D01*
X198368000Y-83680000D01*
X198370000Y-83682000D01*
X198372000Y-83683000D01*
X198374000Y-83685000D01*
X198376000Y-83686000D01*
X198378000Y-83688000D01*
X198380000Y-83690000D01*
X198382000Y-83692000D01*
X198384000Y-83694000D01*
X198385000Y-83696000D01*
X198387000Y-83698000D01*
X198388000Y-83700000D01*
X198390000Y-83702000D01*
X198391000Y-83705000D01*
X198392000Y-83707000D01*
X198393000Y-83710000D01*
X198393000Y-83712000D01*
X198394000Y-83715000D01*
X198394000Y-83717000D01*
X198395000Y-83720000D01*
X198395000Y-83722000D01*
X198395000Y-83725000D01*
X198395000Y-84365000D01*
X198395000Y-84368000D01*
X198395000Y-84370000D01*
X198394000Y-84373000D01*
X198394000Y-84375000D01*
X198393000Y-84378000D01*
X198393000Y-84380000D01*
X198392000Y-84383000D01*
X198391000Y-84385000D01*
X198390000Y-84388000D01*
X198388000Y-84390000D01*
X198387000Y-84392000D01*
X198385000Y-84394000D01*
X198384000Y-84396000D01*
X198382000Y-84398000D01*
X198380000Y-84400000D01*
X198378000Y-84402000D01*
X198376000Y-84404000D01*
X198374000Y-84405000D01*
X198372000Y-84407000D01*
X198370000Y-84408000D01*
X198368000Y-84410000D01*
X198365000Y-84411000D01*
X198363000Y-84412000D01*
X198360000Y-84413000D01*
X198358000Y-84413000D01*
X198355000Y-84414000D01*
X198353000Y-84414000D01*
X198350000Y-84415000D01*
X198348000Y-84415000D01*
X198345000Y-84415000D01*
X196755000Y-84415000D01*
X196752000Y-84415000D01*
X196750000Y-84415000D01*
X196747000Y-84414000D01*
X196745000Y-84414000D01*
X196742000Y-84413000D01*
X196740000Y-84413000D01*
X196737000Y-84412000D01*
X196735000Y-84411000D01*
X196732000Y-84410000D01*
X196730000Y-84408000D01*
X196728000Y-84407000D01*
X196726000Y-84405000D01*
X196724000Y-84404000D01*
X196722000Y-84402000D01*
X196720000Y-84400000D01*
X196718000Y-84398000D01*
X196716000Y-84396000D01*
X196715000Y-84394000D01*
X196713000Y-84392000D01*
X196712000Y-84390000D01*
X196710000Y-84388000D01*
X196709000Y-84385000D01*
X196708000Y-84383000D01*
X196707000Y-84380000D01*
X196707000Y-84378000D01*
X196706000Y-84375000D01*
X196706000Y-84373000D01*
X196705000Y-84370000D01*
X196705000Y-84368000D01*
X196705000Y-84365000D01*
X196705000Y-83725000D01*
X196705000Y-83722000D01*
X196705000Y-83720000D01*
X196706000Y-83717000D01*
X196706000Y-83715000D01*
X196707000Y-83712000D01*
X196707000Y-83710000D01*
X196708000Y-83707000D01*
X196709000Y-83705000D01*
X196710000Y-83702000D01*
X196712000Y-83700000D01*
X196713000Y-83698000D01*
X196715000Y-83696000D01*
X196716000Y-83694000D01*
X196718000Y-83692000D01*
X196720000Y-83690000D01*
X196722000Y-83688000D01*
X196724000Y-83686000D01*
X196726000Y-83685000D01*
X196728000Y-83683000D01*
X196730000Y-83682000D01*
X196732000Y-83680000D01*
X196735000Y-83679000D01*
X196737000Y-83678000D01*
X196740000Y-83677000D01*
X196742000Y-83677000D01*
X196745000Y-83676000D01*
X196747000Y-83676000D01*
X196750000Y-83675000D01*
X196752000Y-83675000D01*
X196755000Y-83675000D01*
X198345000Y-83675000D01*
X198348000Y-83675000D01*
X198350000Y-83675000D01*
X198353000Y-83676000D01*
G36*
X198353000Y-83676000D02*
G01*
X198355000Y-83676000D01*
X198358000Y-83677000D01*
X198360000Y-83677000D01*
X198363000Y-83678000D01*
X198365000Y-83679000D01*
X198368000Y-83680000D01*
X198370000Y-83682000D01*
X198372000Y-83683000D01*
X198374000Y-83685000D01*
X198376000Y-83686000D01*
X198378000Y-83688000D01*
X198380000Y-83690000D01*
X198382000Y-83692000D01*
X198384000Y-83694000D01*
X198385000Y-83696000D01*
X198387000Y-83698000D01*
X198388000Y-83700000D01*
X198390000Y-83702000D01*
X198391000Y-83705000D01*
X198392000Y-83707000D01*
X198393000Y-83710000D01*
X198393000Y-83712000D01*
X198394000Y-83715000D01*
X198394000Y-83717000D01*
X198395000Y-83720000D01*
X198395000Y-83722000D01*
X198395000Y-83725000D01*
X198395000Y-84365000D01*
X198395000Y-84368000D01*
X198395000Y-84370000D01*
X198394000Y-84373000D01*
X198394000Y-84375000D01*
X198393000Y-84378000D01*
X198393000Y-84380000D01*
X198392000Y-84383000D01*
X198391000Y-84385000D01*
X198390000Y-84388000D01*
X198388000Y-84390000D01*
X198387000Y-84392000D01*
X198385000Y-84394000D01*
X198384000Y-84396000D01*
X198382000Y-84398000D01*
X198380000Y-84400000D01*
X198378000Y-84402000D01*
X198376000Y-84404000D01*
X198374000Y-84405000D01*
X198372000Y-84407000D01*
X198370000Y-84408000D01*
X198368000Y-84410000D01*
X198365000Y-84411000D01*
X198363000Y-84412000D01*
X198360000Y-84413000D01*
X198358000Y-84413000D01*
X198355000Y-84414000D01*
X198353000Y-84414000D01*
X198350000Y-84415000D01*
X198348000Y-84415000D01*
X198345000Y-84415000D01*
X196755000Y-84415000D01*
X196752000Y-84415000D01*
X196750000Y-84415000D01*
X196747000Y-84414000D01*
X196745000Y-84414000D01*
X196742000Y-84413000D01*
X196740000Y-84413000D01*
X196737000Y-84412000D01*
X196735000Y-84411000D01*
X196732000Y-84410000D01*
X196730000Y-84408000D01*
X196728000Y-84407000D01*
X196726000Y-84405000D01*
X196724000Y-84404000D01*
X196722000Y-84402000D01*
X196720000Y-84400000D01*
X196718000Y-84398000D01*
X196716000Y-84396000D01*
X196715000Y-84394000D01*
X196713000Y-84392000D01*
X196712000Y-84390000D01*
X196710000Y-84388000D01*
X196709000Y-84385000D01*
X196708000Y-84383000D01*
X196707000Y-84380000D01*
X196707000Y-84378000D01*
X196706000Y-84375000D01*
X196706000Y-84373000D01*
X196705000Y-84370000D01*
X196705000Y-84368000D01*
X196705000Y-84365000D01*
X196705000Y-83725000D01*
X196705000Y-83722000D01*
X196705000Y-83720000D01*
X196706000Y-83717000D01*
X196706000Y-83715000D01*
X196707000Y-83712000D01*
X196707000Y-83710000D01*
X196708000Y-83707000D01*
X196709000Y-83705000D01*
X196710000Y-83702000D01*
X196712000Y-83700000D01*
X196713000Y-83698000D01*
X196715000Y-83696000D01*
X196716000Y-83694000D01*
X196718000Y-83692000D01*
X196720000Y-83690000D01*
X196722000Y-83688000D01*
X196724000Y-83686000D01*
X196726000Y-83685000D01*
X196728000Y-83683000D01*
X196730000Y-83682000D01*
X196732000Y-83680000D01*
X196735000Y-83679000D01*
X196737000Y-83678000D01*
X196740000Y-83677000D01*
X196742000Y-83677000D01*
X196745000Y-83676000D01*
X196747000Y-83676000D01*
X196750000Y-83675000D01*
X196752000Y-83675000D01*
X196755000Y-83675000D01*
X198345000Y-83675000D01*
X198348000Y-83675000D01*
X198350000Y-83675000D01*
X198353000Y-83676000D01*
G37*
X198353000Y-84946000D02*
X198355000Y-84946000D01*
X198358000Y-84947000D01*
X198360000Y-84947000D01*
X198363000Y-84948000D01*
X198365000Y-84949000D01*
X198368000Y-84950000D01*
X198370000Y-84952000D01*
X198372000Y-84953000D01*
X198374000Y-84955000D01*
X198376000Y-84956000D01*
X198378000Y-84958000D01*
X198380000Y-84960000D01*
X198382000Y-84962000D01*
X198384000Y-84964000D01*
X198385000Y-84966000D01*
X198387000Y-84968000D01*
X198388000Y-84970000D01*
X198390000Y-84972000D01*
X198391000Y-84975000D01*
X198392000Y-84977000D01*
X198393000Y-84980000D01*
X198393000Y-84982000D01*
X198394000Y-84985000D01*
X198394000Y-84987000D01*
X198395000Y-84990000D01*
X198395000Y-84992000D01*
X198395000Y-84995000D01*
X198395000Y-85635000D01*
X198395000Y-85638000D01*
X198395000Y-85640000D01*
X198394000Y-85643000D01*
X198394000Y-85645000D01*
X198393000Y-85648000D01*
X198393000Y-85650000D01*
X198392000Y-85653000D01*
X198391000Y-85655000D01*
X198390000Y-85658000D01*
X198388000Y-85660000D01*
X198387000Y-85662000D01*
X198385000Y-85664000D01*
X198384000Y-85666000D01*
X198382000Y-85668000D01*
X198380000Y-85670000D01*
X198378000Y-85672000D01*
X198376000Y-85674000D01*
X198374000Y-85675000D01*
X198372000Y-85677000D01*
X198370000Y-85678000D01*
X198368000Y-85680000D01*
X198365000Y-85681000D01*
X198363000Y-85682000D01*
X198360000Y-85683000D01*
X198358000Y-85683000D01*
X198355000Y-85684000D01*
X198353000Y-85684000D01*
X198350000Y-85685000D01*
X198348000Y-85685000D01*
X198345000Y-85685000D01*
X196755000Y-85685000D01*
X196752000Y-85685000D01*
X196750000Y-85685000D01*
X196747000Y-85684000D01*
X196745000Y-85684000D01*
X196742000Y-85683000D01*
X196740000Y-85683000D01*
X196737000Y-85682000D01*
X196735000Y-85681000D01*
X196732000Y-85680000D01*
X196730000Y-85678000D01*
X196728000Y-85677000D01*
X196726000Y-85675000D01*
X196724000Y-85674000D01*
X196722000Y-85672000D01*
X196720000Y-85670000D01*
X196718000Y-85668000D01*
X196716000Y-85666000D01*
X196715000Y-85664000D01*
X196713000Y-85662000D01*
X196712000Y-85660000D01*
X196710000Y-85658000D01*
X196709000Y-85655000D01*
X196708000Y-85653000D01*
X196707000Y-85650000D01*
X196707000Y-85648000D01*
X196706000Y-85645000D01*
X196706000Y-85643000D01*
X196705000Y-85640000D01*
X196705000Y-85638000D01*
X196705000Y-85635000D01*
X196705000Y-84995000D01*
X196705000Y-84992000D01*
X196705000Y-84990000D01*
X196706000Y-84987000D01*
X196706000Y-84985000D01*
X196707000Y-84982000D01*
X196707000Y-84980000D01*
X196708000Y-84977000D01*
X196709000Y-84975000D01*
X196710000Y-84972000D01*
X196712000Y-84970000D01*
X196713000Y-84968000D01*
X196715000Y-84966000D01*
X196716000Y-84964000D01*
X196718000Y-84962000D01*
X196720000Y-84960000D01*
X196722000Y-84958000D01*
X196724000Y-84956000D01*
X196726000Y-84955000D01*
X196728000Y-84953000D01*
X196730000Y-84952000D01*
X196732000Y-84950000D01*
X196735000Y-84949000D01*
X196737000Y-84948000D01*
X196740000Y-84947000D01*
X196742000Y-84947000D01*
X196745000Y-84946000D01*
X196747000Y-84946000D01*
X196750000Y-84945000D01*
X196752000Y-84945000D01*
X196755000Y-84945000D01*
X198345000Y-84945000D01*
X198348000Y-84945000D01*
X198350000Y-84945000D01*
X198353000Y-84946000D01*
G36*
X198353000Y-84946000D02*
G01*
X198355000Y-84946000D01*
X198358000Y-84947000D01*
X198360000Y-84947000D01*
X198363000Y-84948000D01*
X198365000Y-84949000D01*
X198368000Y-84950000D01*
X198370000Y-84952000D01*
X198372000Y-84953000D01*
X198374000Y-84955000D01*
X198376000Y-84956000D01*
X198378000Y-84958000D01*
X198380000Y-84960000D01*
X198382000Y-84962000D01*
X198384000Y-84964000D01*
X198385000Y-84966000D01*
X198387000Y-84968000D01*
X198388000Y-84970000D01*
X198390000Y-84972000D01*
X198391000Y-84975000D01*
X198392000Y-84977000D01*
X198393000Y-84980000D01*
X198393000Y-84982000D01*
X198394000Y-84985000D01*
X198394000Y-84987000D01*
X198395000Y-84990000D01*
X198395000Y-84992000D01*
X198395000Y-84995000D01*
X198395000Y-85635000D01*
X198395000Y-85638000D01*
X198395000Y-85640000D01*
X198394000Y-85643000D01*
X198394000Y-85645000D01*
X198393000Y-85648000D01*
X198393000Y-85650000D01*
X198392000Y-85653000D01*
X198391000Y-85655000D01*
X198390000Y-85658000D01*
X198388000Y-85660000D01*
X198387000Y-85662000D01*
X198385000Y-85664000D01*
X198384000Y-85666000D01*
X198382000Y-85668000D01*
X198380000Y-85670000D01*
X198378000Y-85672000D01*
X198376000Y-85674000D01*
X198374000Y-85675000D01*
X198372000Y-85677000D01*
X198370000Y-85678000D01*
X198368000Y-85680000D01*
X198365000Y-85681000D01*
X198363000Y-85682000D01*
X198360000Y-85683000D01*
X198358000Y-85683000D01*
X198355000Y-85684000D01*
X198353000Y-85684000D01*
X198350000Y-85685000D01*
X198348000Y-85685000D01*
X198345000Y-85685000D01*
X196755000Y-85685000D01*
X196752000Y-85685000D01*
X196750000Y-85685000D01*
X196747000Y-85684000D01*
X196745000Y-85684000D01*
X196742000Y-85683000D01*
X196740000Y-85683000D01*
X196737000Y-85682000D01*
X196735000Y-85681000D01*
X196732000Y-85680000D01*
X196730000Y-85678000D01*
X196728000Y-85677000D01*
X196726000Y-85675000D01*
X196724000Y-85674000D01*
X196722000Y-85672000D01*
X196720000Y-85670000D01*
X196718000Y-85668000D01*
X196716000Y-85666000D01*
X196715000Y-85664000D01*
X196713000Y-85662000D01*
X196712000Y-85660000D01*
X196710000Y-85658000D01*
X196709000Y-85655000D01*
X196708000Y-85653000D01*
X196707000Y-85650000D01*
X196707000Y-85648000D01*
X196706000Y-85645000D01*
X196706000Y-85643000D01*
X196705000Y-85640000D01*
X196705000Y-85638000D01*
X196705000Y-85635000D01*
X196705000Y-84995000D01*
X196705000Y-84992000D01*
X196705000Y-84990000D01*
X196706000Y-84987000D01*
X196706000Y-84985000D01*
X196707000Y-84982000D01*
X196707000Y-84980000D01*
X196708000Y-84977000D01*
X196709000Y-84975000D01*
X196710000Y-84972000D01*
X196712000Y-84970000D01*
X196713000Y-84968000D01*
X196715000Y-84966000D01*
X196716000Y-84964000D01*
X196718000Y-84962000D01*
X196720000Y-84960000D01*
X196722000Y-84958000D01*
X196724000Y-84956000D01*
X196726000Y-84955000D01*
X196728000Y-84953000D01*
X196730000Y-84952000D01*
X196732000Y-84950000D01*
X196735000Y-84949000D01*
X196737000Y-84948000D01*
X196740000Y-84947000D01*
X196742000Y-84947000D01*
X196745000Y-84946000D01*
X196747000Y-84946000D01*
X196750000Y-84945000D01*
X196752000Y-84945000D01*
X196755000Y-84945000D01*
X198345000Y-84945000D01*
X198348000Y-84945000D01*
X198350000Y-84945000D01*
X198353000Y-84946000D01*
G37*
X198353000Y-86216000D02*
X198355000Y-86216000D01*
X198358000Y-86217000D01*
X198360000Y-86217000D01*
X198363000Y-86218000D01*
X198365000Y-86219000D01*
X198368000Y-86220000D01*
X198370000Y-86222000D01*
X198372000Y-86223000D01*
X198374000Y-86225000D01*
X198376000Y-86226000D01*
X198378000Y-86228000D01*
X198380000Y-86230000D01*
X198382000Y-86232000D01*
X198384000Y-86234000D01*
X198385000Y-86236000D01*
X198387000Y-86238000D01*
X198388000Y-86240000D01*
X198390000Y-86242000D01*
X198391000Y-86245000D01*
X198392000Y-86247000D01*
X198393000Y-86250000D01*
X198393000Y-86252000D01*
X198394000Y-86255000D01*
X198394000Y-86257000D01*
X198395000Y-86260000D01*
X198395000Y-86262000D01*
X198395000Y-86265000D01*
X198395000Y-86905000D01*
X198395000Y-86908000D01*
X198395000Y-86910000D01*
X198394000Y-86913000D01*
X198394000Y-86915000D01*
X198393000Y-86918000D01*
X198393000Y-86920000D01*
X198392000Y-86923000D01*
X198391000Y-86925000D01*
X198390000Y-86928000D01*
X198388000Y-86930000D01*
X198387000Y-86932000D01*
X198385000Y-86934000D01*
X198384000Y-86936000D01*
X198382000Y-86938000D01*
X198380000Y-86940000D01*
X198378000Y-86942000D01*
X198376000Y-86944000D01*
X198374000Y-86945000D01*
X198372000Y-86947000D01*
X198370000Y-86948000D01*
X198368000Y-86950000D01*
X198365000Y-86951000D01*
X198363000Y-86952000D01*
X198360000Y-86953000D01*
X198358000Y-86953000D01*
X198355000Y-86954000D01*
X198353000Y-86954000D01*
X198350000Y-86955000D01*
X198348000Y-86955000D01*
X198345000Y-86955000D01*
X196755000Y-86955000D01*
X196752000Y-86955000D01*
X196750000Y-86955000D01*
X196747000Y-86954000D01*
X196745000Y-86954000D01*
X196742000Y-86953000D01*
X196740000Y-86953000D01*
X196737000Y-86952000D01*
X196735000Y-86951000D01*
X196732000Y-86950000D01*
X196730000Y-86948000D01*
X196728000Y-86947000D01*
X196726000Y-86945000D01*
X196724000Y-86944000D01*
X196722000Y-86942000D01*
X196720000Y-86940000D01*
X196718000Y-86938000D01*
X196716000Y-86936000D01*
X196715000Y-86934000D01*
X196713000Y-86932000D01*
X196712000Y-86930000D01*
X196710000Y-86928000D01*
X196709000Y-86925000D01*
X196708000Y-86923000D01*
X196707000Y-86920000D01*
X196707000Y-86918000D01*
X196706000Y-86915000D01*
X196706000Y-86913000D01*
X196705000Y-86910000D01*
X196705000Y-86908000D01*
X196705000Y-86905000D01*
X196705000Y-86265000D01*
X196705000Y-86262000D01*
X196705000Y-86260000D01*
X196706000Y-86257000D01*
X196706000Y-86255000D01*
X196707000Y-86252000D01*
X196707000Y-86250000D01*
X196708000Y-86247000D01*
X196709000Y-86245000D01*
X196710000Y-86242000D01*
X196712000Y-86240000D01*
X196713000Y-86238000D01*
X196715000Y-86236000D01*
X196716000Y-86234000D01*
X196718000Y-86232000D01*
X196720000Y-86230000D01*
X196722000Y-86228000D01*
X196724000Y-86226000D01*
X196726000Y-86225000D01*
X196728000Y-86223000D01*
X196730000Y-86222000D01*
X196732000Y-86220000D01*
X196735000Y-86219000D01*
X196737000Y-86218000D01*
X196740000Y-86217000D01*
X196742000Y-86217000D01*
X196745000Y-86216000D01*
X196747000Y-86216000D01*
X196750000Y-86215000D01*
X196752000Y-86215000D01*
X196755000Y-86215000D01*
X198345000Y-86215000D01*
X198348000Y-86215000D01*
X198350000Y-86215000D01*
X198353000Y-86216000D01*
G36*
X198353000Y-86216000D02*
G01*
X198355000Y-86216000D01*
X198358000Y-86217000D01*
X198360000Y-86217000D01*
X198363000Y-86218000D01*
X198365000Y-86219000D01*
X198368000Y-86220000D01*
X198370000Y-86222000D01*
X198372000Y-86223000D01*
X198374000Y-86225000D01*
X198376000Y-86226000D01*
X198378000Y-86228000D01*
X198380000Y-86230000D01*
X198382000Y-86232000D01*
X198384000Y-86234000D01*
X198385000Y-86236000D01*
X198387000Y-86238000D01*
X198388000Y-86240000D01*
X198390000Y-86242000D01*
X198391000Y-86245000D01*
X198392000Y-86247000D01*
X198393000Y-86250000D01*
X198393000Y-86252000D01*
X198394000Y-86255000D01*
X198394000Y-86257000D01*
X198395000Y-86260000D01*
X198395000Y-86262000D01*
X198395000Y-86265000D01*
X198395000Y-86905000D01*
X198395000Y-86908000D01*
X198395000Y-86910000D01*
X198394000Y-86913000D01*
X198394000Y-86915000D01*
X198393000Y-86918000D01*
X198393000Y-86920000D01*
X198392000Y-86923000D01*
X198391000Y-86925000D01*
X198390000Y-86928000D01*
X198388000Y-86930000D01*
X198387000Y-86932000D01*
X198385000Y-86934000D01*
X198384000Y-86936000D01*
X198382000Y-86938000D01*
X198380000Y-86940000D01*
X198378000Y-86942000D01*
X198376000Y-86944000D01*
X198374000Y-86945000D01*
X198372000Y-86947000D01*
X198370000Y-86948000D01*
X198368000Y-86950000D01*
X198365000Y-86951000D01*
X198363000Y-86952000D01*
X198360000Y-86953000D01*
X198358000Y-86953000D01*
X198355000Y-86954000D01*
X198353000Y-86954000D01*
X198350000Y-86955000D01*
X198348000Y-86955000D01*
X198345000Y-86955000D01*
X196755000Y-86955000D01*
X196752000Y-86955000D01*
X196750000Y-86955000D01*
X196747000Y-86954000D01*
X196745000Y-86954000D01*
X196742000Y-86953000D01*
X196740000Y-86953000D01*
X196737000Y-86952000D01*
X196735000Y-86951000D01*
X196732000Y-86950000D01*
X196730000Y-86948000D01*
X196728000Y-86947000D01*
X196726000Y-86945000D01*
X196724000Y-86944000D01*
X196722000Y-86942000D01*
X196720000Y-86940000D01*
X196718000Y-86938000D01*
X196716000Y-86936000D01*
X196715000Y-86934000D01*
X196713000Y-86932000D01*
X196712000Y-86930000D01*
X196710000Y-86928000D01*
X196709000Y-86925000D01*
X196708000Y-86923000D01*
X196707000Y-86920000D01*
X196707000Y-86918000D01*
X196706000Y-86915000D01*
X196706000Y-86913000D01*
X196705000Y-86910000D01*
X196705000Y-86908000D01*
X196705000Y-86905000D01*
X196705000Y-86265000D01*
X196705000Y-86262000D01*
X196705000Y-86260000D01*
X196706000Y-86257000D01*
X196706000Y-86255000D01*
X196707000Y-86252000D01*
X196707000Y-86250000D01*
X196708000Y-86247000D01*
X196709000Y-86245000D01*
X196710000Y-86242000D01*
X196712000Y-86240000D01*
X196713000Y-86238000D01*
X196715000Y-86236000D01*
X196716000Y-86234000D01*
X196718000Y-86232000D01*
X196720000Y-86230000D01*
X196722000Y-86228000D01*
X196724000Y-86226000D01*
X196726000Y-86225000D01*
X196728000Y-86223000D01*
X196730000Y-86222000D01*
X196732000Y-86220000D01*
X196735000Y-86219000D01*
X196737000Y-86218000D01*
X196740000Y-86217000D01*
X196742000Y-86217000D01*
X196745000Y-86216000D01*
X196747000Y-86216000D01*
X196750000Y-86215000D01*
X196752000Y-86215000D01*
X196755000Y-86215000D01*
X198345000Y-86215000D01*
X198348000Y-86215000D01*
X198350000Y-86215000D01*
X198353000Y-86216000D01*
G37*
X198353000Y-87486000D02*
X198355000Y-87486000D01*
X198358000Y-87487000D01*
X198360000Y-87487000D01*
X198363000Y-87488000D01*
X198365000Y-87489000D01*
X198368000Y-87490000D01*
X198370000Y-87492000D01*
X198372000Y-87493000D01*
X198374000Y-87495000D01*
X198376000Y-87496000D01*
X198378000Y-87498000D01*
X198380000Y-87500000D01*
X198382000Y-87502000D01*
X198384000Y-87504000D01*
X198385000Y-87506000D01*
X198387000Y-87508000D01*
X198388000Y-87510000D01*
X198390000Y-87512000D01*
X198391000Y-87515000D01*
X198392000Y-87517000D01*
X198393000Y-87520000D01*
X198393000Y-87522000D01*
X198394000Y-87525000D01*
X198394000Y-87527000D01*
X198395000Y-87530000D01*
X198395000Y-87532000D01*
X198395000Y-87535000D01*
X198395000Y-88175000D01*
X198395000Y-88178000D01*
X198395000Y-88180000D01*
X198394000Y-88183000D01*
X198394000Y-88185000D01*
X198393000Y-88188000D01*
X198393000Y-88190000D01*
X198392000Y-88193000D01*
X198391000Y-88195000D01*
X198390000Y-88198000D01*
X198388000Y-88200000D01*
X198387000Y-88202000D01*
X198385000Y-88204000D01*
X198384000Y-88206000D01*
X198382000Y-88208000D01*
X198380000Y-88210000D01*
X198378000Y-88212000D01*
X198376000Y-88214000D01*
X198374000Y-88215000D01*
X198372000Y-88217000D01*
X198370000Y-88218000D01*
X198368000Y-88220000D01*
X198365000Y-88221000D01*
X198363000Y-88222000D01*
X198360000Y-88223000D01*
X198358000Y-88223000D01*
X198355000Y-88224000D01*
X198353000Y-88224000D01*
X198350000Y-88225000D01*
X198348000Y-88225000D01*
X198345000Y-88225000D01*
X196755000Y-88225000D01*
X196752000Y-88225000D01*
X196750000Y-88225000D01*
X196747000Y-88224000D01*
X196745000Y-88224000D01*
X196742000Y-88223000D01*
X196740000Y-88223000D01*
X196737000Y-88222000D01*
X196735000Y-88221000D01*
X196732000Y-88220000D01*
X196730000Y-88218000D01*
X196728000Y-88217000D01*
X196726000Y-88215000D01*
X196724000Y-88214000D01*
X196722000Y-88212000D01*
X196720000Y-88210000D01*
X196718000Y-88208000D01*
X196716000Y-88206000D01*
X196715000Y-88204000D01*
X196713000Y-88202000D01*
X196712000Y-88200000D01*
X196710000Y-88198000D01*
X196709000Y-88195000D01*
X196708000Y-88193000D01*
X196707000Y-88190000D01*
X196707000Y-88188000D01*
X196706000Y-88185000D01*
X196706000Y-88183000D01*
X196705000Y-88180000D01*
X196705000Y-88178000D01*
X196705000Y-88175000D01*
X196705000Y-87535000D01*
X196705000Y-87532000D01*
X196705000Y-87530000D01*
X196706000Y-87527000D01*
X196706000Y-87525000D01*
X196707000Y-87522000D01*
X196707000Y-87520000D01*
X196708000Y-87517000D01*
X196709000Y-87515000D01*
X196710000Y-87512000D01*
X196712000Y-87510000D01*
X196713000Y-87508000D01*
X196715000Y-87506000D01*
X196716000Y-87504000D01*
X196718000Y-87502000D01*
X196720000Y-87500000D01*
X196722000Y-87498000D01*
X196724000Y-87496000D01*
X196726000Y-87495000D01*
X196728000Y-87493000D01*
X196730000Y-87492000D01*
X196732000Y-87490000D01*
X196735000Y-87489000D01*
X196737000Y-87488000D01*
X196740000Y-87487000D01*
X196742000Y-87487000D01*
X196745000Y-87486000D01*
X196747000Y-87486000D01*
X196750000Y-87485000D01*
X196752000Y-87485000D01*
X196755000Y-87485000D01*
X198345000Y-87485000D01*
X198348000Y-87485000D01*
X198350000Y-87485000D01*
X198353000Y-87486000D01*
G36*
X198353000Y-87486000D02*
G01*
X198355000Y-87486000D01*
X198358000Y-87487000D01*
X198360000Y-87487000D01*
X198363000Y-87488000D01*
X198365000Y-87489000D01*
X198368000Y-87490000D01*
X198370000Y-87492000D01*
X198372000Y-87493000D01*
X198374000Y-87495000D01*
X198376000Y-87496000D01*
X198378000Y-87498000D01*
X198380000Y-87500000D01*
X198382000Y-87502000D01*
X198384000Y-87504000D01*
X198385000Y-87506000D01*
X198387000Y-87508000D01*
X198388000Y-87510000D01*
X198390000Y-87512000D01*
X198391000Y-87515000D01*
X198392000Y-87517000D01*
X198393000Y-87520000D01*
X198393000Y-87522000D01*
X198394000Y-87525000D01*
X198394000Y-87527000D01*
X198395000Y-87530000D01*
X198395000Y-87532000D01*
X198395000Y-87535000D01*
X198395000Y-88175000D01*
X198395000Y-88178000D01*
X198395000Y-88180000D01*
X198394000Y-88183000D01*
X198394000Y-88185000D01*
X198393000Y-88188000D01*
X198393000Y-88190000D01*
X198392000Y-88193000D01*
X198391000Y-88195000D01*
X198390000Y-88198000D01*
X198388000Y-88200000D01*
X198387000Y-88202000D01*
X198385000Y-88204000D01*
X198384000Y-88206000D01*
X198382000Y-88208000D01*
X198380000Y-88210000D01*
X198378000Y-88212000D01*
X198376000Y-88214000D01*
X198374000Y-88215000D01*
X198372000Y-88217000D01*
X198370000Y-88218000D01*
X198368000Y-88220000D01*
X198365000Y-88221000D01*
X198363000Y-88222000D01*
X198360000Y-88223000D01*
X198358000Y-88223000D01*
X198355000Y-88224000D01*
X198353000Y-88224000D01*
X198350000Y-88225000D01*
X198348000Y-88225000D01*
X198345000Y-88225000D01*
X196755000Y-88225000D01*
X196752000Y-88225000D01*
X196750000Y-88225000D01*
X196747000Y-88224000D01*
X196745000Y-88224000D01*
X196742000Y-88223000D01*
X196740000Y-88223000D01*
X196737000Y-88222000D01*
X196735000Y-88221000D01*
X196732000Y-88220000D01*
X196730000Y-88218000D01*
X196728000Y-88217000D01*
X196726000Y-88215000D01*
X196724000Y-88214000D01*
X196722000Y-88212000D01*
X196720000Y-88210000D01*
X196718000Y-88208000D01*
X196716000Y-88206000D01*
X196715000Y-88204000D01*
X196713000Y-88202000D01*
X196712000Y-88200000D01*
X196710000Y-88198000D01*
X196709000Y-88195000D01*
X196708000Y-88193000D01*
X196707000Y-88190000D01*
X196707000Y-88188000D01*
X196706000Y-88185000D01*
X196706000Y-88183000D01*
X196705000Y-88180000D01*
X196705000Y-88178000D01*
X196705000Y-88175000D01*
X196705000Y-87535000D01*
X196705000Y-87532000D01*
X196705000Y-87530000D01*
X196706000Y-87527000D01*
X196706000Y-87525000D01*
X196707000Y-87522000D01*
X196707000Y-87520000D01*
X196708000Y-87517000D01*
X196709000Y-87515000D01*
X196710000Y-87512000D01*
X196712000Y-87510000D01*
X196713000Y-87508000D01*
X196715000Y-87506000D01*
X196716000Y-87504000D01*
X196718000Y-87502000D01*
X196720000Y-87500000D01*
X196722000Y-87498000D01*
X196724000Y-87496000D01*
X196726000Y-87495000D01*
X196728000Y-87493000D01*
X196730000Y-87492000D01*
X196732000Y-87490000D01*
X196735000Y-87489000D01*
X196737000Y-87488000D01*
X196740000Y-87487000D01*
X196742000Y-87487000D01*
X196745000Y-87486000D01*
X196747000Y-87486000D01*
X196750000Y-87485000D01*
X196752000Y-87485000D01*
X196755000Y-87485000D01*
X198345000Y-87485000D01*
X198348000Y-87485000D01*
X198350000Y-87485000D01*
X198353000Y-87486000D01*
G37*
%TD*%
D11*
%TO.C,C15*%
X189950000Y-86500000D03*
X188050000Y-86500000D03*
%TD*%
D12*
%TO.C,R4*%
X187856491Y-79740363D03*
X189051491Y-79740363D03*
%TD*%
D13*
%TO.C,S1*%
X181300000Y-88000000D03*
X184700000Y-88000000D03*
%TD*%
D14*
%TO.C,R2*%
X187733991Y-80940363D03*
X188753991Y-80940363D03*
%TD*%
D15*
%TO.C,C2*%
X183400000Y-73180000D03*
X183400000Y-72220000D03*
%TD*%
%TO.C,C13*%
X199500000Y-86480000D03*
X199500000Y-85520000D03*
%TD*%
D16*
%TO.C,D1*%
X190337500Y-72977500D03*
X192237500Y-72977500D03*
X191287500Y-71102500D03*
%TD*%
D17*
%TO.C,U2*%
X187245000Y-73320000D03*
X187245000Y-72380000D03*
X187245000Y-71440000D03*
X184755000Y-71440000D03*
X184755000Y-73320000D03*
%TD*%
D18*
%TO.C,R10*%
X197510000Y-89500000D03*
X196490000Y-89500000D03*
%TD*%
D14*
%TO.C,R11*%
X191490000Y-89500000D03*
X192510000Y-89500000D03*
%TD*%
D19*
%TO.C,S3*%
X189500000Y-89000000D03*
%TD*%
D20*
%TO.C,C14*%
X190000000Y-83000000D03*
X189040000Y-83000000D03*
%TD*%
D21*
%TO.C,J1*%
X184900000Y-76750000D03*
D22*
X181800000Y-78350000D03*
X181800000Y-81150000D03*
D23*
X184900000Y-82750000D03*
D24*
X186000000Y-76650000D03*
X186000000Y-77400000D03*
D25*
X186000000Y-78000000D03*
X186000000Y-79500000D03*
X186000000Y-80500000D03*
X186000000Y-81500000D03*
D24*
X186000000Y-82100000D03*
X186000000Y-82850000D03*
X186000000Y-82850000D03*
X186000000Y-82100000D03*
D25*
X186000000Y-81000000D03*
X186000000Y-80000000D03*
X186000000Y-79000000D03*
X186000000Y-78500000D03*
D24*
X186000000Y-77400000D03*
X186000000Y-76650000D03*
D26*
X185625000Y-75430000D03*
D27*
X181800000Y-75430000D03*
D26*
X185625000Y-84070000D03*
D27*
X181800000Y-84070000D03*
%TD*%
D12*
%TO.C,R3*%
X187856491Y-78740363D03*
X189051491Y-78740363D03*
%TD*%
D28*
%TO.C,S4*%
X187500000Y-89000000D03*
%TD*%
D29*
%TO.C,C10*%
X197075000Y-75800000D03*
X194125000Y-75800000D03*
%TD*%
D30*
%TO.C,S7*%
X181200000Y-71000000D03*
%TD*%
D31*
%TO.C,S2*%
X191680000Y-78120000D03*
X191680000Y-74720000D03*
%TD*%
D32*
%TO.C,U3*%
X194200000Y-84000000D03*
X195500000Y-84000000D03*
X194200000Y-85300000D03*
X195500000Y-85300000D03*
X194200000Y-86600000D03*
X195500000Y-86600000D03*
X194200000Y-87900000D03*
X195500000Y-87900000D03*
%TD*%
D18*
%TO.C,R1*%
X188860000Y-77690000D03*
X187840000Y-77690000D03*
%TD*%
D33*
%TO.C,D2*%
X201570000Y-86500000D03*
X208430000Y-86500000D03*
%TD*%
D30*
%TO.C,S5*%
X197000000Y-71000000D03*
%TD*%
D11*
%TO.C,C16*%
X189950000Y-84500000D03*
X188050000Y-84500000D03*
%TD*%
D30*
%TO.C,S8*%
X181200000Y-73000000D03*
%TD*%
D29*
%TO.C,C9*%
X197100000Y-78300000D03*
X194150000Y-78300000D03*
%TD*%
%TO.C,C11*%
X197075000Y-73300000D03*
X194125000Y-73300000D03*
%TD*%
D34*
%TO.C,C1*%
X188700000Y-71920000D03*
X188700000Y-72880000D03*
%TD*%
D35*
%TO.C,R9*%
X199500000Y-87990000D03*
X199500000Y-89010000D03*
%TD*%
D29*
%TO.C,C8*%
X197075000Y-80800000D03*
X194125000Y-80800000D03*
%TD*%
D30*
%TO.C,S6*%
X194150000Y-71350000D03*
%TD*%
D36*
%TO.C,C12*%
X196520000Y-82760000D03*
X197480000Y-82760000D03*
%TD*%
D37*
%TO.C,L2*%
X204000000Y-71875000D03*
X204000000Y-81125000D03*
%TD*%
M02*
