%TF.GenerationSoftware,KiCad,Pcbnew,8.0.6*%
%TF.CreationDate,2025-10-07T13:26:48+02:00*%
%TF.ProjectId,PCB WLED Spec 7,50434220-574c-4454-9420-537065632037,rev?*%
%TF.SameCoordinates,Original*%
%TF.FileFunction,Copper,L2,Bot*%
%TF.FilePolarity,Positive*%
%FSLAX46Y46*%
G04 Gerber Fmt 4.6, Leading zero omitted, Abs format (unit mm)*
G04 Created by KiCad (PCBNEW 8.0.6) date 2025-10-07 13:26:48*
%MOMM*%
%LPD*%
G01*
G04 APERTURE LIST*
G04 Aperture macros list*
%AMRoundRect*
0 Rectangle with rounded corners*
0 $1 Rounding radius*
0 $2 $3 $4 $5 $6 $7 $8 $9 X,Y pos of 4 corners*
0 Add a 4 corners polygon primitive as box body*
4,1,4,$2,$3,$4,$5,$6,$7,$8,$9,$2,$3,0*
0 Add four circle primitives for the rounded corners*
1,1,$1+$1,$2,$3*
1,1,$1+$1,$4,$5*
1,1,$1+$1,$6,$7*
1,1,$1+$1,$8,$9*
0 Add four rect primitives between the rounded corners*
20,1,$1+$1,$2,$3,$4,$5,0*
20,1,$1+$1,$4,$5,$6,$7,0*
20,1,$1+$1,$6,$7,$8,$9,0*
20,1,$1+$1,$8,$9,$2,$3,0*%
G04 Aperture macros list end*
%TA.AperFunction,ComponentPad*%
%ADD10O,2.300000X1.300000*%
%TD*%
%TA.AperFunction,ComponentPad*%
%ADD11O,2.600000X1.300000*%
%TD*%
%TA.AperFunction,ComponentPad*%
%ADD12C,0.300000*%
%TD*%
%TA.AperFunction,SMDPad,CuDef*%
%ADD13RoundRect,0.140000X-0.170000X0.140000X-0.170000X-0.140000X0.170000X-0.140000X0.170000X0.140000X0*%
%TD*%
%TA.AperFunction,SMDPad,CuDef*%
%ADD14RoundRect,0.218750X0.256250X-0.218750X0.256250X0.218750X-0.256250X0.218750X-0.256250X-0.218750X0*%
%TD*%
%TA.AperFunction,SMDPad,CuDef*%
%ADD15RoundRect,0.140000X0.170000X-0.140000X0.170000X0.140000X-0.170000X0.140000X-0.170000X-0.140000X0*%
%TD*%
%TA.AperFunction,SMDPad,CuDef*%
%ADD16RoundRect,0.140000X0.140000X0.170000X-0.140000X0.170000X-0.140000X-0.170000X0.140000X-0.170000X0*%
%TD*%
%TA.AperFunction,SMDPad,CuDef*%
%ADD17RoundRect,0.135000X-0.135000X-0.185000X0.135000X-0.185000X0.135000X0.185000X-0.135000X0.185000X0*%
%TD*%
%TA.AperFunction,SMDPad,CuDef*%
%ADD18RoundRect,0.062500X-0.062500X0.337500X-0.062500X-0.337500X0.062500X-0.337500X0.062500X0.337500X0*%
%TD*%
%TA.AperFunction,SMDPad,CuDef*%
%ADD19RoundRect,0.062500X-0.337500X0.062500X-0.337500X-0.062500X0.337500X-0.062500X0.337500X0.062500X0*%
%TD*%
%TA.AperFunction,HeatsinkPad*%
%ADD20R,3.700000X3.700000*%
%TD*%
%TA.AperFunction,SMDPad,CuDef*%
%ADD21RoundRect,0.140000X-0.140000X-0.170000X0.140000X-0.170000X0.140000X0.170000X-0.140000X0.170000X0*%
%TD*%
%TA.AperFunction,SMDPad,CuDef*%
%ADD22RoundRect,0.225000X0.225000X0.250000X-0.225000X0.250000X-0.225000X-0.250000X0.225000X-0.250000X0*%
%TD*%
%TA.AperFunction,SMDPad,CuDef*%
%ADD23R,0.700000X0.750000*%
%TD*%
%TA.AperFunction,SMDPad,CuDef*%
%ADD24RoundRect,0.150000X0.450000X0.760000X-0.450000X0.760000X-0.450000X-0.760000X0.450000X-0.760000X0*%
%TD*%
%TA.AperFunction,SMDPad,CuDef*%
%ADD25RoundRect,0.135000X0.135000X0.185000X-0.135000X0.185000X-0.135000X-0.185000X0.135000X-0.185000X0*%
%TD*%
%TA.AperFunction,SMDPad,CuDef*%
%ADD26RoundRect,0.135000X0.185000X-0.135000X0.185000X0.135000X-0.185000X0.135000X-0.185000X-0.135000X0*%
%TD*%
%TA.AperFunction,SMDPad,CuDef*%
%ADD27RoundRect,0.150000X0.587500X0.150000X-0.587500X0.150000X-0.587500X-0.150000X0.587500X-0.150000X0*%
%TD*%
%TA.AperFunction,ViaPad*%
%ADD28C,0.600000*%
%TD*%
%TA.AperFunction,Conductor*%
%ADD29C,0.250000*%
%TD*%
%TA.AperFunction,Conductor*%
%ADD30C,0.200000*%
%TD*%
%TA.AperFunction,Conductor*%
%ADD31C,0.500000*%
%TD*%
%TA.AperFunction,Conductor*%
%ADD32C,0.157000*%
%TD*%
%ADD33C,0.300000*%
%ADD34C,0.350000*%
%ADD35O,0.599999X0.849999*%
%ADD36O,1.600000X0.600000*%
%ADD37O,1.900000X0.600000*%
%ADD38C,0.200000*%
G04 APERTURE END LIST*
D10*
%TO.P,J1,S1,SHIELD*%
%TO.N,GND*%
X185625000Y-75430000D03*
D11*
X181800000Y-75430000D03*
D10*
X185625000Y-84070000D03*
D11*
X181800000Y-84070000D03*
%TD*%
D12*
%TO.P,U3,10,EXP*%
%TO.N,GND*%
X194200000Y-84000000D03*
%TO.P,U3,11,EXP*%
X195500000Y-84000000D03*
%TO.P,U3,12,EXP*%
X194200000Y-85300000D03*
%TO.P,U3,13,EXP*%
X195500000Y-85300000D03*
%TO.P,U3,14,EXP*%
X194200000Y-86600000D03*
%TO.P,U3,15,EXP*%
X195500000Y-86600000D03*
%TO.P,U3,16,EXP*%
X194200000Y-87900000D03*
%TO.P,U3,17,EXP*%
X195500000Y-87900000D03*
%TD*%
D13*
%TO.P,C20,1*%
%TO.N,3.3V*%
X187800000Y-77120000D03*
%TO.P,C20,2*%
%TO.N,GND*%
X187800000Y-78080000D03*
%TD*%
D14*
%TO.P,L1,1,1*%
%TO.N,VDD3P3*%
X193970000Y-73840000D03*
%TO.P,L1,2,2*%
%TO.N,3.3V*%
X193970000Y-72265000D03*
%TD*%
D15*
%TO.P,C4,1*%
%TO.N,VDD3P3*%
X192600000Y-74800000D03*
%TO.P,C4,2*%
%TO.N,GND*%
X192600000Y-73840000D03*
%TD*%
D16*
%TO.P,C17,1*%
%TO.N,3.3V*%
X195400000Y-82300000D03*
%TO.P,C17,2*%
%TO.N,GND*%
X194440000Y-82300000D03*
%TD*%
D17*
%TO.P,R6,1*%
%TO.N,Net-(U1-GPIO8)*%
X197590000Y-79000000D03*
%TO.P,R6,2*%
%TO.N,3.3V*%
X198610000Y-79000000D03*
%TD*%
%TO.P,R5,1*%
%TO.N,PWM1*%
X195600000Y-72800000D03*
%TO.P,R5,2*%
%TO.N,3.3V*%
X196620000Y-72800000D03*
%TD*%
D13*
%TO.P,C19,1*%
%TO.N,3.3V*%
X186800000Y-77120000D03*
%TO.P,C19,2*%
%TO.N,GND*%
X186800000Y-78080000D03*
%TD*%
D18*
%TO.P,U1,1,LNA_IN*%
%TO.N,WIFI_ANT*%
X192025000Y-76275000D03*
%TO.P,U1,2,VDD3P3*%
%TO.N,VDD3P3*%
X192525000Y-76275000D03*
%TO.P,U1,3,VDD3P3*%
X193025000Y-76275000D03*
%TO.P,U1,4,XTAL_32K_P*%
%TO.N,unconnected-(U1-XTAL_32K_P-Pad4)*%
X193525000Y-76275000D03*
%TO.P,U1,5,XTAL_32K_N*%
%TO.N,unconnected-(U1-XTAL_32K_N-Pad5)*%
X194025000Y-76275000D03*
%TO.P,U1,6,GPIO2*%
%TO.N,PWM1*%
X194525000Y-76275000D03*
%TO.P,U1,7,CHIP_EN*%
%TO.N,ENABLE*%
X195025000Y-76275000D03*
%TO.P,U1,8,GPIO3*%
%TO.N,unconnected-(U1-GPIO3-Pad8)*%
X195525000Y-76275000D03*
D19*
%TO.P,U1,9,MTMS*%
%TO.N,unconnected-(U1-MTMS-Pad9)*%
X196225000Y-76975000D03*
%TO.P,U1,10,MTDI*%
%TO.N,unconnected-(U1-MTDI-Pad10)*%
X196225000Y-77475000D03*
%TO.P,U1,11,VDD3P3_RTC*%
%TO.N,3.3V*%
X196225000Y-77975000D03*
%TO.P,U1,12,MTCK*%
%TO.N,unconnected-(U1-MTCK-Pad12)*%
X196225000Y-78475000D03*
%TO.P,U1,13,MTDO*%
%TO.N,unconnected-(U1-MTDO-Pad13)*%
X196225000Y-78975000D03*
%TO.P,U1,14,GPIO8*%
%TO.N,Net-(U1-GPIO8)*%
X196225000Y-79475000D03*
%TO.P,U1,15,GPIO9*%
%TO.N,BOOT*%
X196225000Y-79975000D03*
%TO.P,U1,16,GPIO10*%
%TO.N,LED1_IN*%
X196225000Y-80475000D03*
D18*
%TO.P,U1,17,VDD3P3_CPU*%
%TO.N,3.3V*%
X195525000Y-81175000D03*
%TO.P,U1,18,VDD_SPI*%
%TO.N,unconnected-(U1-VDD_SPI-Pad18)*%
X195025000Y-81175000D03*
%TO.P,U1,19,SPIHD*%
%TO.N,unconnected-(U1-SPIHD-Pad19)*%
X194525000Y-81175000D03*
%TO.P,U1,20,SPIWP*%
%TO.N,unconnected-(U1-SPIWP-Pad20)*%
X194025000Y-81175000D03*
%TO.P,U1,21,SPICS0*%
%TO.N,unconnected-(U1-SPICS0-Pad21)*%
X193525000Y-81175000D03*
%TO.P,U1,22,SPICLK*%
%TO.N,unconnected-(U1-SPICLK-Pad22)*%
X193025000Y-81175000D03*
%TO.P,U1,23,SPID*%
%TO.N,unconnected-(U1-SPID-Pad23)*%
X192525000Y-81175000D03*
%TO.P,U1,24,SPIQ*%
%TO.N,unconnected-(U1-SPIQ-Pad24)*%
X192025000Y-81175000D03*
D19*
%TO.P,U1,25,GPIO18*%
%TO.N,USB_D-*%
X191325000Y-80475000D03*
%TO.P,U1,26,GPIO19*%
%TO.N,USB_D+*%
X191325000Y-79975000D03*
%TO.P,U1,27,U0RXD*%
%TO.N,unconnected-(U1-U0RXD-Pad27)*%
X191325000Y-79475000D03*
%TO.P,U1,28,U0TXD*%
%TO.N,unconnected-(U1-U0TXD-Pad28)*%
X191325000Y-78975000D03*
%TO.P,U1,29,XTAL_N*%
%TO.N,XTAL_N*%
X191325000Y-78475000D03*
%TO.P,U1,30,XTAL_P*%
%TO.N,XTAL_P*%
X191325000Y-77975000D03*
%TO.P,U1,31,VDDA*%
%TO.N,3.3V*%
X191325000Y-77475000D03*
%TO.P,U1,32,VDDA*%
X191325000Y-76975000D03*
D20*
%TO.P,U1,33,GND*%
%TO.N,GND*%
X193775000Y-78725000D03*
%TD*%
D21*
%TO.P,C21,2*%
%TO.N,GND*%
X188912500Y-81712500D03*
%TO.P,C21,1*%
%TO.N,XTAL_N*%
X187952500Y-81712500D03*
%TD*%
D22*
%TO.P,C6,1*%
%TO.N,3.3V*%
X192345000Y-71440000D03*
%TO.P,C6,2*%
%TO.N,GND*%
X190795000Y-71440000D03*
%TD*%
D23*
%TO.P,Y1,1*%
%TO.N,XTAL_N*%
X187527500Y-80647500D03*
%TO.P,Y1,2*%
%TO.N,N/C*%
X187527500Y-79297500D03*
%TO.P,Y1,3*%
%TO.N,XTAL_P*%
X188527500Y-79297500D03*
%TO.P,Y1,4*%
%TO.N,N/C*%
X188527500Y-80647500D03*
%TD*%
D16*
%TO.P,C22,1*%
%TO.N,XTAL_P*%
X189780000Y-78100000D03*
%TO.P,C22,2*%
%TO.N,GND*%
X188820000Y-78100000D03*
%TD*%
D21*
%TO.P,C7,1*%
%TO.N,3.3V*%
X197520000Y-77800000D03*
%TO.P,C7,2*%
%TO.N,GND*%
X198480000Y-77800000D03*
%TD*%
D24*
%TO.P,AE1,1*%
%TO.N,WIFI_ANT*%
X190860000Y-74400000D03*
%TO.P,AE1,2*%
%TO.N,N/C*%
X187940000Y-74400000D03*
%TD*%
D21*
%TO.P,C5,1*%
%TO.N,3.3V*%
X193790000Y-71040000D03*
%TO.P,C5,2*%
%TO.N,GND*%
X194750000Y-71040000D03*
%TD*%
D25*
%TO.P,R7,1*%
%TO.N,3.3V*%
X198610000Y-80000000D03*
%TO.P,R7,2*%
%TO.N,BOOT*%
X197590000Y-80000000D03*
%TD*%
D26*
%TO.P,R13,1*%
%TO.N,GND*%
X182900000Y-74210000D03*
%TO.P,R13,2*%
%TO.N,LED1_OUT*%
X182900000Y-73190000D03*
%TD*%
D21*
%TO.P,C3,1*%
%TO.N,ENABLE*%
X195730000Y-75010000D03*
%TO.P,C3,2*%
%TO.N,GND*%
X196690000Y-75010000D03*
%TD*%
D25*
%TO.P,R8,1*%
%TO.N,3.3V*%
X196710000Y-74000000D03*
%TO.P,R8,2*%
%TO.N,ENABLE*%
X195690000Y-74000000D03*
%TD*%
D21*
%TO.P,C18,1*%
%TO.N,3.3V*%
X196340000Y-82300000D03*
%TO.P,C18,2*%
%TO.N,GND*%
X197300000Y-82300000D03*
%TD*%
D26*
%TO.P,R12,1*%
%TO.N,LED1_IN*%
X186640000Y-72140000D03*
%TO.P,R12,2*%
%TO.N,Net-(Q1-B)*%
X186640000Y-71120000D03*
%TD*%
D27*
%TO.P,Q1,1,B*%
%TO.N,Net-(Q1-B)*%
X185100000Y-71170000D03*
%TO.P,Q1,2,E*%
%TO.N,5V_BUCK*%
X185100000Y-73070000D03*
%TO.P,Q1,3,C*%
%TO.N,LED1_OUT*%
X183225000Y-72120000D03*
%TD*%
D28*
%TO.N,GND*%
X181000000Y-82750000D03*
X181000000Y-82000000D03*
X183250000Y-82000000D03*
X181750000Y-82750000D03*
X183250000Y-82750000D03*
X182500000Y-82000000D03*
X181750000Y-82000000D03*
X182500000Y-82750000D03*
X183500000Y-88500000D03*
X183500000Y-87000000D03*
X183500000Y-89250000D03*
X182750000Y-87750000D03*
X183500000Y-87750000D03*
X182750000Y-88500000D03*
X182750000Y-89250000D03*
X182750000Y-87000000D03*
X185500000Y-87000000D03*
X185500000Y-89250000D03*
X186250000Y-88500000D03*
X185500000Y-88500000D03*
X186250000Y-87000000D03*
X185500000Y-87750000D03*
X186250000Y-89250000D03*
X186250000Y-87750000D03*
X204000000Y-88000000D03*
X204750000Y-86500000D03*
X204000000Y-88750000D03*
X206250000Y-87250000D03*
X205500000Y-88750000D03*
X204000000Y-87250000D03*
X205500000Y-87250000D03*
X204750000Y-88000000D03*
X204000000Y-86500000D03*
X206250000Y-86500000D03*
X204750000Y-88750000D03*
X205500000Y-88000000D03*
X204750000Y-87250000D03*
X205500000Y-86500000D03*
X206250000Y-88000000D03*
X206250000Y-88750000D03*
X205500000Y-85750000D03*
X205500000Y-85000000D03*
X206250000Y-83500000D03*
X204000000Y-83500000D03*
X204750000Y-85750000D03*
X204000000Y-84250000D03*
X204750000Y-84250000D03*
X204750000Y-85000000D03*
X205500000Y-83500000D03*
X206250000Y-85000000D03*
X206250000Y-85750000D03*
X205500000Y-84250000D03*
X206250000Y-84250000D03*
X204000000Y-85750000D03*
X204000000Y-85000000D03*
X204750000Y-83500000D03*
X200250000Y-76000000D03*
X200250000Y-76750000D03*
X201000000Y-75250000D03*
X201000000Y-76750000D03*
X201000000Y-76000000D03*
X201000000Y-77500000D03*
X201000000Y-78250000D03*
X200250000Y-77500000D03*
X200250000Y-78250000D03*
X200250000Y-75250000D03*
X201000000Y-74500000D03*
X200250000Y-74500000D03*
X203250000Y-77500000D03*
X201750000Y-77500000D03*
X203250000Y-78250000D03*
X201750000Y-78250000D03*
X202500000Y-77500000D03*
X202500000Y-78250000D03*
X206250000Y-78250000D03*
X204000000Y-77500000D03*
X205500000Y-78250000D03*
X204750000Y-77500000D03*
X206250000Y-77500000D03*
X205500000Y-77500000D03*
X204000000Y-78250000D03*
X204750000Y-78250000D03*
X203250000Y-76750000D03*
X205500000Y-74500000D03*
X201750000Y-75250000D03*
X206250000Y-75250000D03*
X204000000Y-75250000D03*
X206250000Y-76000000D03*
X202500000Y-76750000D03*
X204750000Y-76750000D03*
X205500000Y-75250000D03*
X204750000Y-76000000D03*
X201750000Y-76000000D03*
X202500000Y-76000000D03*
X203250000Y-75250000D03*
X203250000Y-76000000D03*
X206250000Y-74500000D03*
X204000000Y-76000000D03*
X204750000Y-74500000D03*
X204750000Y-75250000D03*
X202500000Y-75250000D03*
X205500000Y-76750000D03*
X204000000Y-74500000D03*
X203250000Y-74500000D03*
X202500000Y-74500000D03*
X201750000Y-74500000D03*
X204000000Y-76750000D03*
X205500000Y-76000000D03*
X206250000Y-76750000D03*
X201750000Y-76750000D03*
X207750000Y-79750000D03*
X207000000Y-83500000D03*
X207750000Y-80500000D03*
X207000000Y-72250000D03*
X207000000Y-73000000D03*
X207000000Y-73750000D03*
X207750000Y-78250000D03*
X207000000Y-74500000D03*
X207000000Y-79000000D03*
X207000000Y-82750000D03*
X207000000Y-76750000D03*
X207750000Y-81250000D03*
X207000000Y-78250000D03*
X207000000Y-80500000D03*
X207000000Y-76000000D03*
X207750000Y-79000000D03*
X207750000Y-84250000D03*
X207000000Y-79750000D03*
X207000000Y-71500000D03*
X207750000Y-77500000D03*
X207000000Y-81250000D03*
X207000000Y-77500000D03*
X207750000Y-82750000D03*
X207000000Y-84250000D03*
X207750000Y-83500000D03*
X207000000Y-75250000D03*
X207000000Y-70750000D03*
X207000000Y-82000000D03*
X207750000Y-82000000D03*
X207750000Y-76750000D03*
X207750000Y-76000000D03*
X207750000Y-75250000D03*
X207750000Y-74500000D03*
X207750000Y-73750000D03*
X207750000Y-73000000D03*
X207750000Y-72250000D03*
X207750000Y-71500000D03*
X207750000Y-70750000D03*
X208500000Y-79750000D03*
X208500000Y-80500000D03*
X208500000Y-78250000D03*
X208500000Y-81250000D03*
X208500000Y-79000000D03*
X208500000Y-84250000D03*
X208500000Y-77500000D03*
X208500000Y-82750000D03*
X208500000Y-83500000D03*
X208500000Y-82000000D03*
X208500000Y-76750000D03*
X208500000Y-76000000D03*
X208500000Y-75250000D03*
X208500000Y-74500000D03*
X208500000Y-73750000D03*
X208500000Y-73000000D03*
X208500000Y-72250000D03*
X208500000Y-71500000D03*
X208500000Y-70750000D03*
X209250000Y-84250000D03*
X209250000Y-83500000D03*
X209250000Y-82750000D03*
X209250000Y-82000000D03*
X209250000Y-81250000D03*
X209250000Y-80500000D03*
X209250000Y-79750000D03*
X209250000Y-79000000D03*
X209250000Y-78250000D03*
X209250000Y-77500000D03*
X209250000Y-76750000D03*
X209250000Y-76000000D03*
X209250000Y-75250000D03*
X209250000Y-74500000D03*
X209250000Y-73750000D03*
X209250000Y-73000000D03*
X209250000Y-72250000D03*
X209250000Y-71500000D03*
X209250000Y-70750000D03*
X193030000Y-78250000D03*
X192500000Y-79850000D03*
X191500000Y-82810000D03*
X190830000Y-82120000D03*
X191470000Y-82170000D03*
X188620000Y-77960000D03*
X198490000Y-75050000D03*
X195240000Y-71080000D03*
X190870000Y-82810000D03*
X198900000Y-77810000D03*
X192851303Y-74024580D03*
X193300000Y-79060000D03*
X194150000Y-79870000D03*
X192510000Y-79010000D03*
X194170000Y-79080000D03*
X193270000Y-79860000D03*
%TO.N,5V_BUCK*%
X184076456Y-76154020D03*
X200240000Y-89030000D03*
X199743058Y-81096942D03*
X183991544Y-74097222D03*
X189090000Y-76000000D03*
%TO.N,BOOT*%
X181440000Y-86240000D03*
%TO.N,ENABLE*%
X195199999Y-75438966D03*
%TO.N,USB_D-*%
X189920761Y-80539774D03*
%TO.N,USB_D+*%
X189890000Y-79740363D03*
%TO.N,3.3V*%
X199180000Y-80080000D03*
X183373871Y-76768871D03*
X195870000Y-81620000D03*
X189320000Y-70500000D03*
%TO.N,LED1_OUT*%
X182880000Y-71220000D03*
%TO.N,PWM1*%
X181230000Y-72690000D03*
%TD*%
D29*
%TO.N,LED1_IN*%
X198820000Y-83720000D02*
X198820000Y-82460000D01*
X196835000Y-80475000D02*
X196225000Y-80475000D01*
X197890000Y-84650000D02*
X198820000Y-83720000D01*
X198820000Y-82460000D02*
X196835000Y-80475000D01*
X182710000Y-76548858D02*
X182710000Y-78490000D01*
X182710000Y-78490000D02*
X188870000Y-84650000D01*
X183690000Y-75320000D02*
X183690000Y-75568858D01*
X184555000Y-74455000D02*
X183690000Y-75320000D01*
X185128408Y-74455000D02*
X184555000Y-74455000D01*
X186640000Y-72943408D02*
X185128408Y-74455000D01*
X186640000Y-72140000D02*
X186640000Y-72943408D01*
X183690000Y-75568858D02*
X182710000Y-76548858D01*
X188870000Y-84650000D02*
X197890000Y-84650000D01*
%TO.N,BOOT*%
X181730000Y-85950000D02*
X181440000Y-86240000D01*
X197556396Y-85950000D02*
X181730000Y-85950000D01*
X199680000Y-82090000D02*
X199680000Y-83826396D01*
X199680000Y-83826396D02*
X197556396Y-85950000D01*
X197590000Y-80000000D02*
X199680000Y-82090000D01*
D30*
%TO.N,XTAL_N*%
X190745000Y-78475000D02*
X191325000Y-78475000D01*
X190230000Y-78990000D02*
X190745000Y-78475000D01*
X189290000Y-79840000D02*
X189290000Y-79491834D01*
X189157500Y-79972500D02*
X189290000Y-79840000D01*
X187737500Y-79972500D02*
X189157500Y-79972500D01*
X187527500Y-80182500D02*
X187737500Y-79972500D01*
X189791834Y-78990000D02*
X190230000Y-78990000D01*
X187527500Y-80647500D02*
X187527500Y-80182500D01*
X189290000Y-79491834D02*
X189791834Y-78990000D01*
%TO.N,XTAL_P*%
X188582500Y-79297500D02*
X189780000Y-78100000D01*
X188527500Y-79297500D02*
X188582500Y-79297500D01*
D29*
%TO.N,ENABLE*%
X195301034Y-75438966D02*
X195730000Y-75010000D01*
X195199999Y-75438966D02*
X195301034Y-75438966D01*
D30*
%TO.N,USB_D-*%
X189985535Y-80475000D02*
X191325000Y-80475000D01*
X189920761Y-80539774D02*
X189985535Y-80475000D01*
%TO.N,USB_D+*%
X189890000Y-79740363D02*
X190568890Y-79740363D01*
X190803527Y-79975000D02*
X191325000Y-79975000D01*
X190568890Y-79740363D02*
X190803527Y-79975000D01*
D29*
%TO.N,Net-(U1-GPIO8)*%
X197400000Y-79000000D02*
X197590000Y-79000000D01*
X196925000Y-79475000D02*
X197400000Y-79000000D01*
X196225000Y-79475000D02*
X196925000Y-79475000D01*
%TO.N,BOOT*%
X197590000Y-80000000D02*
X197565000Y-79975000D01*
X197565000Y-79975000D02*
X196225000Y-79975000D01*
%TO.N,5V_BUCK*%
X200240000Y-88960000D02*
X200240000Y-89030000D01*
X200800000Y-88400000D02*
X200240000Y-88960000D01*
X199743058Y-81096942D02*
X200800000Y-82153884D01*
X200800000Y-82153884D02*
X200800000Y-88400000D01*
%TO.N,GND*%
X198900000Y-77810000D02*
X198490000Y-77810000D01*
X187285000Y-73165000D02*
X185625000Y-74825000D01*
X192784580Y-74024580D02*
X192600000Y-73840000D01*
X192851303Y-74024580D02*
X192784580Y-74024580D01*
D30*
X182900000Y-74210000D02*
X182900000Y-74330000D01*
X182900000Y-74330000D02*
X181800000Y-75430000D01*
D29*
X198450000Y-75010000D02*
X198490000Y-75050000D01*
X194750000Y-71040000D02*
X195200000Y-71040000D01*
X194750000Y-70590000D02*
X194750000Y-71040000D01*
X191925000Y-73165000D02*
X187285000Y-73165000D01*
X192600000Y-73840000D02*
X191925000Y-73165000D01*
X194495000Y-70335000D02*
X194750000Y-70590000D01*
X198490000Y-77810000D02*
X198480000Y-77800000D01*
X196690000Y-75010000D02*
X198450000Y-75010000D01*
X190795000Y-71440000D02*
X191900000Y-70335000D01*
X195200000Y-71040000D02*
X195240000Y-71080000D01*
X185625000Y-74825000D02*
X185625000Y-75430000D01*
X191900000Y-70335000D02*
X194495000Y-70335000D01*
%TO.N,5V_BUCK*%
X185018766Y-73070000D02*
X183991544Y-74097222D01*
D30*
X184076456Y-76845695D02*
X184630761Y-77400000D01*
X188740000Y-76350000D02*
X189090000Y-76000000D01*
X184076456Y-76154020D02*
X184076456Y-76845695D01*
X186388959Y-76350000D02*
X188740000Y-76350000D01*
X185338959Y-77400000D02*
X186388959Y-76350000D01*
X184630761Y-77400000D02*
X185338959Y-77400000D01*
D29*
X185100000Y-73070000D02*
X185018766Y-73070000D01*
D30*
%TO.N,ENABLE*%
X195730000Y-75010000D02*
X195730000Y-74040000D01*
X195025000Y-76275000D02*
X195025000Y-75715000D01*
X195025000Y-75715000D02*
X195730000Y-75010000D01*
X195730000Y-74040000D02*
X195690000Y-74000000D01*
%TO.N,XTAL_N*%
X187497500Y-81212500D02*
X187497500Y-80677500D01*
X187952500Y-81712500D02*
X187952500Y-81667500D01*
X187497500Y-80677500D02*
X187527500Y-80647500D01*
X187952500Y-81667500D02*
X187497500Y-81212500D01*
%TO.N,XTAL_P*%
X189905000Y-77975000D02*
X191325000Y-77975000D01*
X189780000Y-78100000D02*
X189905000Y-77975000D01*
D29*
%TO.N,Net-(Q1-B)*%
X186640000Y-71120000D02*
X185150000Y-71120000D01*
X185150000Y-71120000D02*
X185100000Y-71170000D01*
D31*
%TO.N,VDD3P3*%
X192600000Y-74800000D02*
X193500000Y-74800000D01*
X192760000Y-74960000D02*
X192600000Y-74800000D01*
X193500000Y-74800000D02*
X194000000Y-74300000D01*
X192700000Y-76380000D02*
X192760000Y-76320000D01*
X192760000Y-76320000D02*
X192760000Y-74960000D01*
D29*
%TO.N,3.3V*%
X192345000Y-71440000D02*
X191545000Y-72240000D01*
D31*
X187800000Y-77120000D02*
X190020000Y-77120000D01*
X193145000Y-71440000D02*
X193201734Y-71440000D01*
D29*
X197520000Y-77640000D02*
X197520000Y-77800000D01*
D31*
X193201734Y-71440000D02*
X193601734Y-71040000D01*
D29*
X193970000Y-72265000D02*
X194080000Y-72155000D01*
X195525000Y-81175000D02*
X195525000Y-81860000D01*
X199115000Y-74791116D02*
X199115000Y-76045000D01*
D31*
X193145000Y-71440000D02*
X193970000Y-72265000D01*
X193601734Y-70910000D02*
X193790000Y-70910000D01*
D29*
X195525000Y-81860000D02*
X195525000Y-82175000D01*
X191545000Y-72240000D02*
X190175000Y-72240000D01*
X196340000Y-82300000D02*
X195860000Y-82300000D01*
X192345000Y-71440000D02*
X192345000Y-71755000D01*
X198610000Y-79000000D02*
X197520000Y-77910000D01*
D31*
X191475000Y-77205000D02*
X191475000Y-77200000D01*
D29*
X195525000Y-82175000D02*
X195400000Y-82300000D01*
X198323884Y-74000000D02*
X199115000Y-74791116D01*
X184140000Y-77850000D02*
X185490000Y-77850000D01*
D31*
X191470000Y-77200000D02*
X191475000Y-77205000D01*
D29*
X189320000Y-71385000D02*
X189320000Y-70500000D01*
D31*
X190100000Y-77200000D02*
X191470000Y-77200000D01*
X196710000Y-74000000D02*
X196710000Y-72890000D01*
D29*
X185490000Y-77850000D02*
X186220000Y-77120000D01*
X198690000Y-80080000D02*
X198610000Y-80000000D01*
X196710000Y-74000000D02*
X198323884Y-74000000D01*
D31*
X186800000Y-77120000D02*
X187800000Y-77120000D01*
D29*
X199115000Y-76045000D02*
X197520000Y-77640000D01*
X195860000Y-82195000D02*
X195525000Y-81860000D01*
X198610000Y-80000000D02*
X198610000Y-79000000D01*
X199180000Y-80080000D02*
X198690000Y-80080000D01*
X195975000Y-72155000D02*
X196620000Y-72800000D01*
X183373871Y-77083871D02*
X184140000Y-77850000D01*
X195860000Y-82300000D02*
X195860000Y-81630000D01*
X183373871Y-76768871D02*
X183373871Y-77083871D01*
X197345000Y-77975000D02*
X197520000Y-77800000D01*
X190175000Y-72240000D02*
X189320000Y-71385000D01*
X186220000Y-77120000D02*
X186800000Y-77120000D01*
X196225000Y-77975000D02*
X197345000Y-77975000D01*
X194080000Y-72155000D02*
X195975000Y-72155000D01*
D31*
X190020000Y-77120000D02*
X190100000Y-77200000D01*
X192345000Y-71440000D02*
X193145000Y-71440000D01*
D29*
X195860000Y-82300000D02*
X195860000Y-82195000D01*
X195860000Y-82300000D02*
X195400000Y-82300000D01*
X195860000Y-81630000D02*
X195870000Y-81620000D01*
X197520000Y-77910000D02*
X197520000Y-77800000D01*
D31*
X196710000Y-72890000D02*
X196620000Y-72800000D01*
D32*
%TO.N,WIFI_ANT*%
X190860000Y-74400000D02*
X192025000Y-75565000D01*
X192025000Y-75565000D02*
X192025000Y-76275000D01*
D30*
%TO.N,LED1_OUT*%
X183225000Y-72120000D02*
X183225000Y-71565000D01*
X182900000Y-72445000D02*
X183225000Y-72120000D01*
X182900000Y-73190000D02*
X182900000Y-72445000D01*
X183225000Y-71565000D02*
X182880000Y-71220000D01*
%TO.N,PWM1*%
X182660000Y-70520000D02*
X187850000Y-70520000D01*
X195120000Y-73280000D02*
X195170000Y-73230000D01*
X181230000Y-71950000D02*
X182660000Y-70520000D01*
X194525000Y-74989686D02*
X195120000Y-74394686D01*
X194972479Y-73032479D02*
X195170000Y-73230000D01*
X195120000Y-74394686D02*
X195120000Y-73280000D01*
X187850000Y-70520000D02*
X190010000Y-72680000D01*
X195170000Y-73230000D02*
X195600000Y-72800000D01*
X181230000Y-72690000D02*
X181230000Y-71950000D01*
X193213655Y-73032479D02*
X194972479Y-73032479D01*
X190010000Y-72680000D02*
X192861176Y-72680000D01*
X194525000Y-76275000D02*
X194525000Y-74989686D01*
X192861176Y-72680000D02*
X193213655Y-73032479D01*
%TD*%
%TA.AperFunction,Conductor*%
%TO.N,GND*%
G36*
X182373713Y-70219407D02*
G01*
X182409677Y-70268907D01*
X182409677Y-70330093D01*
X182385527Y-70369501D01*
X181045489Y-71709540D01*
X181045488Y-71709539D01*
X180989539Y-71765489D01*
X180949980Y-71834007D01*
X180949978Y-71834011D01*
X180929500Y-71910435D01*
X180929500Y-72236105D01*
X180910593Y-72294296D01*
X180903258Y-72302289D01*
X180903509Y-72302506D01*
X180898872Y-72307856D01*
X180898872Y-72307857D01*
X180830915Y-72386283D01*
X180804622Y-72416628D01*
X180744834Y-72547543D01*
X180724353Y-72689997D01*
X180724353Y-72690002D01*
X180744834Y-72832456D01*
X180776138Y-72901000D01*
X180804623Y-72963373D01*
X180857430Y-73024316D01*
X180898873Y-73072144D01*
X180999043Y-73136519D01*
X181019947Y-73149953D01*
X181123648Y-73180402D01*
X181158035Y-73190499D01*
X181158036Y-73190499D01*
X181158039Y-73190500D01*
X181158041Y-73190500D01*
X181301959Y-73190500D01*
X181301961Y-73190500D01*
X181440053Y-73149953D01*
X181561128Y-73072143D01*
X181655377Y-72963373D01*
X181715165Y-72832457D01*
X181729507Y-72732708D01*
X181735647Y-72690002D01*
X181735647Y-72689997D01*
X181715165Y-72547543D01*
X181684547Y-72480500D01*
X181655377Y-72416627D01*
X181561128Y-72307857D01*
X181561127Y-72307856D01*
X181556491Y-72302506D01*
X181558524Y-72300743D01*
X181533067Y-72258505D01*
X181530500Y-72236105D01*
X181530500Y-72115478D01*
X181549407Y-72057287D01*
X181559490Y-72045480D01*
X182246256Y-71358713D01*
X182300773Y-71330937D01*
X182361205Y-71340508D01*
X182404470Y-71383773D01*
X182406313Y-71387591D01*
X182454623Y-71493373D01*
X182477409Y-71519670D01*
X182501227Y-71576029D01*
X182487368Y-71635625D01*
X182446074Y-71673440D01*
X182431020Y-71680800D01*
X182431019Y-71680800D01*
X182348301Y-71763518D01*
X182296927Y-71868604D01*
X182296927Y-71868607D01*
X182287000Y-71936740D01*
X182287000Y-72303260D01*
X182291761Y-72335935D01*
X182296927Y-72371395D01*
X182335035Y-72449345D01*
X182348302Y-72476483D01*
X182431017Y-72559198D01*
X182482868Y-72584546D01*
X182514919Y-72600215D01*
X182558893Y-72642759D01*
X182569462Y-72703024D01*
X182542589Y-72757993D01*
X182525926Y-72769870D01*
X182526693Y-72770965D01*
X182519600Y-72775931D01*
X182435933Y-72859598D01*
X182385932Y-72966824D01*
X182385932Y-72966825D01*
X182379500Y-73015685D01*
X182379500Y-73364314D01*
X182385932Y-73413174D01*
X182385932Y-73413175D01*
X182435933Y-73520401D01*
X182435934Y-73520402D01*
X182435935Y-73520404D01*
X182519596Y-73604065D01*
X182519597Y-73604065D01*
X182519598Y-73604066D01*
X182626824Y-73654067D01*
X182626825Y-73654067D01*
X182626827Y-73654068D01*
X182675684Y-73660500D01*
X182675685Y-73660500D01*
X183124314Y-73660500D01*
X183124316Y-73660500D01*
X183173173Y-73654068D01*
X183280404Y-73604065D01*
X183364065Y-73520404D01*
X183414068Y-73413173D01*
X183420500Y-73364316D01*
X183420500Y-73015684D01*
X183414068Y-72966827D01*
X183412457Y-72963373D01*
X183364066Y-72859598D01*
X183364065Y-72859597D01*
X183364065Y-72859596D01*
X183293970Y-72789501D01*
X183266195Y-72734987D01*
X183275766Y-72674555D01*
X183319031Y-72631290D01*
X183363976Y-72620500D01*
X183845757Y-72620500D01*
X183845760Y-72620500D01*
X183913893Y-72610573D01*
X184018983Y-72559198D01*
X184101698Y-72476483D01*
X184153073Y-72371393D01*
X184163000Y-72303260D01*
X184163000Y-71936740D01*
X184153073Y-71868607D01*
X184144799Y-71851683D01*
X184101698Y-71763518D01*
X184101698Y-71763517D01*
X184018983Y-71680802D01*
X183997910Y-71670500D01*
X183913895Y-71629427D01*
X183886639Y-71625456D01*
X183845760Y-71619500D01*
X183845757Y-71619500D01*
X183624500Y-71619500D01*
X183566309Y-71600593D01*
X183530345Y-71551093D01*
X183527281Y-71531747D01*
X183526347Y-71531871D01*
X183525500Y-71525437D01*
X183516868Y-71493225D01*
X183516867Y-71493220D01*
X183505024Y-71449018D01*
X183505023Y-71449015D01*
X183505022Y-71449014D01*
X183505022Y-71449012D01*
X183465460Y-71380489D01*
X183438227Y-71353256D01*
X183410546Y-71325574D01*
X183382769Y-71271057D01*
X183382558Y-71241482D01*
X183385647Y-71220000D01*
X183384089Y-71209165D01*
X183365165Y-71077543D01*
X183311771Y-70960627D01*
X183304796Y-70899840D01*
X183334882Y-70846563D01*
X183390538Y-70821145D01*
X183401824Y-70820500D01*
X184071752Y-70820500D01*
X184129943Y-70839407D01*
X184165907Y-70888907D01*
X184169717Y-70933770D01*
X184162000Y-70986740D01*
X184162000Y-71353260D01*
X184166446Y-71383773D01*
X184171927Y-71421395D01*
X184210854Y-71501020D01*
X184223302Y-71526483D01*
X184306017Y-71609198D01*
X184359785Y-71635483D01*
X184411104Y-71660572D01*
X184411105Y-71660572D01*
X184411107Y-71660573D01*
X184479240Y-71670500D01*
X184479243Y-71670500D01*
X185720757Y-71670500D01*
X185720760Y-71670500D01*
X185788893Y-71660573D01*
X185893983Y-71609198D01*
X185976698Y-71526483D01*
X185989146Y-71501019D01*
X186031689Y-71457046D01*
X186078087Y-71445500D01*
X186130024Y-71445500D01*
X186188215Y-71464407D01*
X186200021Y-71474490D01*
X186259596Y-71534065D01*
X186259597Y-71534065D01*
X186259598Y-71534066D01*
X186272915Y-71540276D01*
X186317663Y-71582005D01*
X186329337Y-71642066D01*
X186303478Y-71697518D01*
X186272915Y-71719724D01*
X186259598Y-71725933D01*
X186175933Y-71809598D01*
X186125932Y-71916824D01*
X186125932Y-71916825D01*
X186119500Y-71965685D01*
X186119500Y-72314314D01*
X186125932Y-72363174D01*
X186125932Y-72363175D01*
X186175933Y-72470401D01*
X186175934Y-72470402D01*
X186175935Y-72470404D01*
X186259596Y-72554065D01*
X186259597Y-72554065D01*
X186259599Y-72554067D01*
X186266691Y-72559033D01*
X186265546Y-72560666D01*
X186302087Y-72594740D01*
X186314500Y-72642737D01*
X186314500Y-72767573D01*
X186295593Y-72825764D01*
X186285503Y-72837577D01*
X186202743Y-72920336D01*
X186148226Y-72948113D01*
X186087794Y-72938541D01*
X186044530Y-72895277D01*
X186034775Y-72864610D01*
X186028073Y-72818607D01*
X185976698Y-72713517D01*
X185893983Y-72630802D01*
X185872910Y-72620500D01*
X185788895Y-72579427D01*
X185761639Y-72575456D01*
X185720760Y-72569500D01*
X184479240Y-72569500D01*
X184445173Y-72574463D01*
X184411104Y-72579427D01*
X184306018Y-72630801D01*
X184223301Y-72713518D01*
X184171927Y-72818604D01*
X184171927Y-72818607D01*
X184162000Y-72886740D01*
X184162000Y-73253260D01*
X184170860Y-73314068D01*
X184171927Y-73321392D01*
X184185249Y-73348643D01*
X184193820Y-73409225D01*
X184166312Y-73462126D01*
X184060714Y-73567725D01*
X184006197Y-73595503D01*
X183990710Y-73596722D01*
X183919579Y-73596722D01*
X183781493Y-73637268D01*
X183781486Y-73637271D01*
X183660417Y-73715077D01*
X183566166Y-73823850D01*
X183506378Y-73954765D01*
X183485897Y-74097219D01*
X183485897Y-74097224D01*
X183506378Y-74239678D01*
X183545814Y-74326029D01*
X183566167Y-74370595D01*
X183655669Y-74473887D01*
X183660417Y-74479366D01*
X183709135Y-74510675D01*
X183781491Y-74557175D01*
X183781493Y-74557175D01*
X183781494Y-74557176D01*
X183784505Y-74558060D01*
X183786666Y-74559538D01*
X183787932Y-74560116D01*
X183787832Y-74560334D01*
X183835012Y-74592595D01*
X183855575Y-74650221D01*
X183838338Y-74708928D01*
X183826619Y-74723053D01*
X183429535Y-75120137D01*
X183386680Y-75194364D01*
X183386679Y-75194367D01*
X183373555Y-75243354D01*
X183373554Y-75243359D01*
X183364500Y-75277146D01*
X183364500Y-75393023D01*
X183345593Y-75451214D01*
X183335504Y-75463027D01*
X182449531Y-76349000D01*
X182406683Y-76423215D01*
X182400494Y-76446308D01*
X182400495Y-76446309D01*
X182400495Y-76446310D01*
X182384500Y-76506005D01*
X182384500Y-78447147D01*
X182384500Y-78532853D01*
X182392684Y-78563397D01*
X182406683Y-78615643D01*
X182449531Y-78689857D01*
X182449533Y-78689859D01*
X182449535Y-78689862D01*
X188609533Y-84849859D01*
X188609535Y-84849862D01*
X188670138Y-84910465D01*
X188744362Y-84953318D01*
X188744364Y-84953318D01*
X188744365Y-84953319D01*
X188785755Y-84964409D01*
X188827145Y-84975500D01*
X188827147Y-84975501D01*
X188827148Y-84975501D01*
X188918916Y-84975501D01*
X188918932Y-84975500D01*
X197831561Y-84975500D01*
X197889752Y-84994407D01*
X197925716Y-85043907D01*
X197925716Y-85105093D01*
X197901565Y-85144504D01*
X197450565Y-85595504D01*
X197396048Y-85623281D01*
X197380561Y-85624500D01*
X181772853Y-85624500D01*
X181687147Y-85624500D01*
X181636478Y-85638076D01*
X181604356Y-85646683D01*
X181530142Y-85689531D01*
X181530141Y-85689532D01*
X181530138Y-85689534D01*
X181530138Y-85689535D01*
X181509167Y-85710505D01*
X181454653Y-85738281D01*
X181439166Y-85739500D01*
X181368035Y-85739500D01*
X181229949Y-85780046D01*
X181229942Y-85780049D01*
X181108873Y-85857855D01*
X181014622Y-85966628D01*
X180954834Y-86097543D01*
X180934353Y-86239997D01*
X180934353Y-86240002D01*
X180954834Y-86382456D01*
X181014622Y-86513371D01*
X181014623Y-86513373D01*
X181108872Y-86622143D01*
X181108873Y-86622144D01*
X181229942Y-86699950D01*
X181229947Y-86699953D01*
X181336403Y-86731211D01*
X181368035Y-86740499D01*
X181368036Y-86740499D01*
X181368039Y-86740500D01*
X181368041Y-86740500D01*
X181511959Y-86740500D01*
X181511961Y-86740500D01*
X181650053Y-86699953D01*
X181771128Y-86622143D01*
X181865377Y-86513373D01*
X181925165Y-86382457D01*
X181928334Y-86360410D01*
X181955330Y-86305504D01*
X182009444Y-86276950D01*
X182026327Y-86275500D01*
X197599247Y-86275500D01*
X197599249Y-86275500D01*
X197682035Y-86253318D01*
X197682037Y-86253316D01*
X197682039Y-86253316D01*
X197756253Y-86210468D01*
X197756253Y-86210467D01*
X197756258Y-86210465D01*
X199879859Y-84086862D01*
X199879862Y-84086861D01*
X199940465Y-84026258D01*
X199983318Y-83952034D01*
X200005501Y-83869248D01*
X200005501Y-83783543D01*
X200005501Y-83777481D01*
X200005500Y-83777463D01*
X200005500Y-82058718D01*
X200024407Y-82000527D01*
X200073907Y-81964563D01*
X200135093Y-81964563D01*
X200174504Y-81988714D01*
X200445504Y-82259714D01*
X200473281Y-82314231D01*
X200474500Y-82329718D01*
X200474500Y-88224165D01*
X200455593Y-88282356D01*
X200445504Y-88294169D01*
X200239169Y-88500504D01*
X200184652Y-88528281D01*
X200169165Y-88529500D01*
X200168035Y-88529500D01*
X200029949Y-88570046D01*
X200029942Y-88570049D01*
X199908873Y-88647855D01*
X199814622Y-88756628D01*
X199754834Y-88887543D01*
X199734353Y-89029997D01*
X199734353Y-89030002D01*
X199754834Y-89172456D01*
X199814622Y-89303371D01*
X199814623Y-89303373D01*
X199908872Y-89412143D01*
X199908873Y-89412144D01*
X200029942Y-89489950D01*
X200029947Y-89489953D01*
X200136403Y-89521211D01*
X200168035Y-89530499D01*
X200168036Y-89530499D01*
X200168039Y-89530500D01*
X200168041Y-89530500D01*
X200311959Y-89530500D01*
X200311961Y-89530500D01*
X200450053Y-89489953D01*
X200571128Y-89412143D01*
X200665377Y-89303373D01*
X200725165Y-89172457D01*
X200745647Y-89030000D01*
X200738203Y-88978227D01*
X200748636Y-88917938D01*
X200766188Y-88894136D01*
X200999859Y-88660466D01*
X200999862Y-88660465D01*
X201060465Y-88599862D01*
X201103318Y-88525638D01*
X201125501Y-88442853D01*
X201125501Y-88357147D01*
X201125501Y-88351085D01*
X201125500Y-88351067D01*
X201125500Y-82204724D01*
X201125501Y-82204711D01*
X201125501Y-82111030D01*
X201125500Y-82111028D01*
X201103318Y-82028245D01*
X201068535Y-81968000D01*
X201068533Y-81967997D01*
X201066550Y-81964563D01*
X201060465Y-81954022D01*
X200999862Y-81893419D01*
X200999859Y-81893417D01*
X200277701Y-81171258D01*
X200249924Y-81116741D01*
X200248705Y-81101254D01*
X200248705Y-81096939D01*
X200228223Y-80954485D01*
X200213350Y-80921918D01*
X200168435Y-80823569D01*
X200074186Y-80714799D01*
X200074185Y-80714798D01*
X200074184Y-80714797D01*
X199953115Y-80636991D01*
X199953112Y-80636989D01*
X199953111Y-80636989D01*
X199946293Y-80634987D01*
X199815022Y-80596442D01*
X199815019Y-80596442D01*
X199671097Y-80596442D01*
X199671093Y-80596442D01*
X199623960Y-80610282D01*
X199562799Y-80608534D01*
X199514347Y-80571171D01*
X199497109Y-80512464D01*
X199517671Y-80454837D01*
X199521250Y-80450461D01*
X199605377Y-80353373D01*
X199665165Y-80222457D01*
X199674215Y-80159511D01*
X199685647Y-80080002D01*
X199685647Y-80079997D01*
X199665165Y-79937543D01*
X199605377Y-79806627D01*
X199511128Y-79697857D01*
X199511127Y-79697856D01*
X199511126Y-79697855D01*
X199390057Y-79620049D01*
X199390054Y-79620047D01*
X199390053Y-79620047D01*
X199388517Y-79619596D01*
X199251964Y-79579500D01*
X199251961Y-79579500D01*
X199108039Y-79579500D01*
X199108037Y-79579500D01*
X199079466Y-79587889D01*
X199018305Y-79586140D01*
X198969854Y-79548776D01*
X198952617Y-79490068D01*
X198973180Y-79432442D01*
X198981566Y-79422902D01*
X199024065Y-79380404D01*
X199074068Y-79273173D01*
X199080500Y-79224316D01*
X199080500Y-78775684D01*
X199074068Y-78726827D01*
X199071817Y-78722000D01*
X199024066Y-78619598D01*
X199024065Y-78619597D01*
X199024065Y-78619596D01*
X198940404Y-78535935D01*
X198940402Y-78535934D01*
X198940401Y-78535933D01*
X198833175Y-78485932D01*
X198800601Y-78481644D01*
X198784316Y-78479500D01*
X198784315Y-78479500D01*
X198590834Y-78479500D01*
X198532643Y-78460593D01*
X198520830Y-78450504D01*
X198029495Y-77959169D01*
X198001718Y-77904652D01*
X198000499Y-77889165D01*
X198000499Y-77660834D01*
X198019406Y-77602643D01*
X198029489Y-77590836D01*
X199314859Y-76305466D01*
X199314862Y-76305465D01*
X199375465Y-76244862D01*
X199418318Y-76170638D01*
X199422771Y-76154020D01*
X199440501Y-76087853D01*
X199440501Y-76002147D01*
X199440501Y-75996085D01*
X199440500Y-75996067D01*
X199440500Y-74748265D01*
X199440499Y-74748261D01*
X199430114Y-74709498D01*
X199430114Y-74709497D01*
X199418318Y-74665477D01*
X199418316Y-74665473D01*
X199375468Y-74591258D01*
X199375466Y-74591256D01*
X199375465Y-74591254D01*
X198523746Y-73739535D01*
X198523743Y-73739533D01*
X198523741Y-73739531D01*
X198449526Y-73696683D01*
X198449528Y-73696683D01*
X198417405Y-73688076D01*
X198366737Y-73674500D01*
X198366735Y-73674500D01*
X197259500Y-73674500D01*
X197201309Y-73655593D01*
X197165345Y-73606093D01*
X197160500Y-73575500D01*
X197160500Y-72830691D01*
X197134050Y-72731979D01*
X197134050Y-72731977D01*
X197129801Y-72716118D01*
X197129798Y-72716112D01*
X197128300Y-72713518D01*
X197105806Y-72674555D01*
X197103763Y-72671016D01*
X197090500Y-72621517D01*
X197090500Y-72575685D01*
X197088523Y-72560666D01*
X197084068Y-72526827D01*
X197075072Y-72507536D01*
X197034066Y-72419598D01*
X197034065Y-72419597D01*
X197034065Y-72419596D01*
X196950404Y-72335935D01*
X196950402Y-72335934D01*
X196950401Y-72335933D01*
X196843175Y-72285932D01*
X196810601Y-72281644D01*
X196794316Y-72279500D01*
X196794315Y-72279500D01*
X196600833Y-72279500D01*
X196542642Y-72260593D01*
X196530829Y-72250503D01*
X196354797Y-72074471D01*
X196174862Y-71894535D01*
X196174857Y-71894531D01*
X196100642Y-71851683D01*
X196100644Y-71851683D01*
X196068521Y-71843076D01*
X196017853Y-71829500D01*
X196017851Y-71829500D01*
X194643416Y-71829500D01*
X194585225Y-71810593D01*
X194573412Y-71800504D01*
X194569659Y-71796751D01*
X194569658Y-71796749D01*
X194475751Y-71702842D01*
X194465302Y-71697518D01*
X194357423Y-71642550D01*
X194357420Y-71642549D01*
X194332876Y-71638661D01*
X194259249Y-71627000D01*
X194259246Y-71627000D01*
X194233547Y-71627000D01*
X194175356Y-71608093D01*
X194139392Y-71558593D01*
X194139392Y-71497407D01*
X194163541Y-71457998D01*
X194213224Y-71408316D01*
X194263972Y-71299487D01*
X194270500Y-71249901D01*
X194270499Y-70830100D01*
X194263972Y-70780513D01*
X194263972Y-70780511D01*
X194213225Y-70671686D01*
X194213224Y-70671685D01*
X194213224Y-70671684D01*
X194128316Y-70586776D01*
X194128314Y-70586775D01*
X194128313Y-70586774D01*
X194098345Y-70572800D01*
X194070184Y-70553082D01*
X194066613Y-70549511D01*
X194066610Y-70549509D01*
X194066608Y-70549507D01*
X193963889Y-70490202D01*
X193963890Y-70490202D01*
X193950351Y-70486574D01*
X193849309Y-70459500D01*
X193542425Y-70459500D01*
X193472301Y-70478289D01*
X193427843Y-70490202D01*
X193325125Y-70549507D01*
X193241241Y-70633391D01*
X193181937Y-70736108D01*
X193181935Y-70736112D01*
X193181935Y-70736114D01*
X193159324Y-70820500D01*
X193157110Y-70828763D01*
X193131487Y-70873142D01*
X193063193Y-70941437D01*
X193008677Y-70969215D01*
X192948245Y-70959644D01*
X192923185Y-70941438D01*
X192918529Y-70936782D01*
X192918528Y-70936780D01*
X192823220Y-70841472D01*
X192823217Y-70841470D01*
X192703132Y-70780283D01*
X192703127Y-70780281D01*
X192703126Y-70780281D01*
X192669913Y-70775020D01*
X192603490Y-70764500D01*
X192603488Y-70764500D01*
X192086512Y-70764500D01*
X192086510Y-70764500D01*
X191986874Y-70780281D01*
X191986867Y-70780283D01*
X191866782Y-70841470D01*
X191771470Y-70936782D01*
X191710283Y-71056867D01*
X191710281Y-71056874D01*
X191694500Y-71156510D01*
X191694500Y-71589165D01*
X191675593Y-71647356D01*
X191665504Y-71659169D01*
X191439169Y-71885504D01*
X191384652Y-71913281D01*
X191369165Y-71914500D01*
X190350834Y-71914500D01*
X190292643Y-71895593D01*
X190280830Y-71885504D01*
X189674496Y-71279169D01*
X189646719Y-71224652D01*
X189645500Y-71209165D01*
X189645500Y-70925562D01*
X189664407Y-70867371D01*
X189669681Y-70860731D01*
X189678381Y-70850691D01*
X189745377Y-70773373D01*
X189805165Y-70642457D01*
X189818015Y-70553080D01*
X189825647Y-70500002D01*
X189825647Y-70499997D01*
X189805165Y-70357543D01*
X189797440Y-70340627D01*
X189790465Y-70279840D01*
X189820551Y-70226563D01*
X189876207Y-70201145D01*
X189887493Y-70200500D01*
X209700500Y-70200500D01*
X209758691Y-70219407D01*
X209794655Y-70268907D01*
X209799500Y-70299500D01*
X209799500Y-89700500D01*
X209780593Y-89758691D01*
X209731093Y-89794655D01*
X209700500Y-89799500D01*
X180299500Y-89799500D01*
X180241309Y-89780593D01*
X180205345Y-89731093D01*
X180200500Y-89700500D01*
X180200500Y-82552525D01*
X184349500Y-82552525D01*
X184349500Y-82947474D01*
X184387017Y-83087489D01*
X184459487Y-83213010D01*
X184459489Y-83213012D01*
X184459491Y-83213015D01*
X184561985Y-83315509D01*
X184561987Y-83315510D01*
X184561989Y-83315512D01*
X184687511Y-83387982D01*
X184687512Y-83387982D01*
X184687515Y-83387984D01*
X184827525Y-83425500D01*
X184827526Y-83425500D01*
X184972474Y-83425500D01*
X184972475Y-83425500D01*
X185112485Y-83387984D01*
X185112487Y-83387982D01*
X185112489Y-83387982D01*
X185238010Y-83315512D01*
X185238010Y-83315511D01*
X185238015Y-83315509D01*
X185340509Y-83213015D01*
X185412984Y-83087485D01*
X185450500Y-82947475D01*
X185450500Y-82552525D01*
X185412984Y-82412515D01*
X185412982Y-82412512D01*
X185412982Y-82412510D01*
X185340512Y-82286989D01*
X185340510Y-82286987D01*
X185340509Y-82286985D01*
X185238015Y-82184491D01*
X185238012Y-82184489D01*
X185238010Y-82184487D01*
X185112488Y-82112017D01*
X185112489Y-82112017D01*
X185082896Y-82104087D01*
X184972475Y-82074500D01*
X184827525Y-82074500D01*
X184765790Y-82091041D01*
X184687510Y-82112017D01*
X184561989Y-82184487D01*
X184459487Y-82286989D01*
X184387017Y-82412510D01*
X184349500Y-82552525D01*
X180200500Y-82552525D01*
X180200500Y-70299500D01*
X180219407Y-70241309D01*
X180268907Y-70205345D01*
X180299500Y-70200500D01*
X182315522Y-70200500D01*
X182373713Y-70219407D01*
G37*
%TD.AperFunction*%
%TA.AperFunction,Conductor*%
G36*
X183204501Y-77374828D02*
G01*
X183940138Y-78110465D01*
X183940140Y-78110466D01*
X183940142Y-78110468D01*
X184014357Y-78153316D01*
X184014355Y-78153316D01*
X184014359Y-78153317D01*
X184014361Y-78153318D01*
X184097147Y-78175500D01*
X184097149Y-78175500D01*
X185532851Y-78175500D01*
X185532853Y-78175500D01*
X185615639Y-78153318D01*
X185615641Y-78153316D01*
X185615643Y-78153316D01*
X185689857Y-78110468D01*
X185689857Y-78110467D01*
X185689862Y-78110465D01*
X186274391Y-77525934D01*
X186328906Y-77498159D01*
X186389338Y-77507730D01*
X186414393Y-77525933D01*
X186431684Y-77543224D01*
X186540513Y-77593972D01*
X186590099Y-77600500D01*
X187009900Y-77600499D01*
X187059487Y-77593972D01*
X187072418Y-77587942D01*
X187089934Y-77579775D01*
X187131772Y-77570500D01*
X187468228Y-77570500D01*
X187510067Y-77579776D01*
X187540506Y-77593970D01*
X187540509Y-77593971D01*
X187540511Y-77593971D01*
X187540513Y-77593972D01*
X187590099Y-77600500D01*
X188009900Y-77600499D01*
X188059487Y-77593972D01*
X188072418Y-77587942D01*
X188089934Y-77579775D01*
X188131772Y-77570500D01*
X189279461Y-77570500D01*
X189337652Y-77589407D01*
X189373616Y-77638907D01*
X189373616Y-77700093D01*
X189360557Y-77726284D01*
X189356774Y-77731685D01*
X189306029Y-77840510D01*
X189306028Y-77840511D01*
X189299500Y-77890100D01*
X189299500Y-78114520D01*
X189280593Y-78172711D01*
X189270504Y-78184524D01*
X188762025Y-78693004D01*
X188707508Y-78720781D01*
X188692021Y-78722000D01*
X188157752Y-78722000D01*
X188157751Y-78722000D01*
X188157741Y-78722001D01*
X188099272Y-78733632D01*
X188099267Y-78733634D01*
X188082501Y-78744837D01*
X188023613Y-78761445D01*
X187972499Y-78744837D01*
X187955732Y-78733634D01*
X187955733Y-78733634D01*
X187955731Y-78733633D01*
X187955728Y-78733632D01*
X187955727Y-78733632D01*
X187897258Y-78722001D01*
X187897248Y-78722000D01*
X187157752Y-78722000D01*
X187157751Y-78722000D01*
X187157741Y-78722001D01*
X187099272Y-78733632D01*
X187099266Y-78733634D01*
X187032951Y-78777945D01*
X187032945Y-78777951D01*
X186988634Y-78844266D01*
X186988632Y-78844272D01*
X186977001Y-78902741D01*
X186977000Y-78902753D01*
X186977000Y-79692246D01*
X186977001Y-79692258D01*
X186988632Y-79750727D01*
X186988634Y-79750733D01*
X187032945Y-79817048D01*
X187032948Y-79817052D01*
X187099269Y-79861367D01*
X187143731Y-79870211D01*
X187157741Y-79872998D01*
X187157746Y-79872998D01*
X187157752Y-79873000D01*
X187187730Y-79873000D01*
X187245921Y-79891907D01*
X187281885Y-79941407D01*
X187281885Y-80002593D01*
X187273442Y-80021542D01*
X187272864Y-80022542D01*
X187227375Y-80063461D01*
X187187152Y-80072000D01*
X187157752Y-80072000D01*
X187157751Y-80072000D01*
X187157741Y-80072001D01*
X187099272Y-80083632D01*
X187099266Y-80083634D01*
X187032951Y-80127945D01*
X187032945Y-80127951D01*
X186988634Y-80194266D01*
X186988632Y-80194272D01*
X186977001Y-80252741D01*
X186977000Y-80252753D01*
X186977000Y-81042246D01*
X186977001Y-81042258D01*
X186988632Y-81100727D01*
X186988634Y-81100733D01*
X187032945Y-81167048D01*
X187032948Y-81167052D01*
X187099269Y-81211367D01*
X187130606Y-81217600D01*
X187183988Y-81247495D01*
X187206916Y-81289070D01*
X187210679Y-81303110D01*
X187217480Y-81328492D01*
X187217481Y-81328493D01*
X187239711Y-81366999D01*
X187239712Y-81366999D01*
X187239713Y-81367000D01*
X187257040Y-81397011D01*
X187443005Y-81582976D01*
X187470781Y-81637491D01*
X187472000Y-81652978D01*
X187472000Y-81922395D01*
X187472001Y-81922407D01*
X187478527Y-81971986D01*
X187478527Y-81971988D01*
X187529274Y-82080813D01*
X187529275Y-82080814D01*
X187529276Y-82080816D01*
X187614184Y-82165724D01*
X187723013Y-82216472D01*
X187772599Y-82223000D01*
X188132400Y-82222999D01*
X188181987Y-82216472D01*
X188181988Y-82216472D01*
X188250579Y-82184487D01*
X188290816Y-82165724D01*
X188375724Y-82080816D01*
X188426472Y-81971987D01*
X188433000Y-81922401D01*
X188432999Y-81502600D01*
X188426472Y-81453013D01*
X188426472Y-81453011D01*
X188384890Y-81363839D01*
X188377433Y-81303110D01*
X188407096Y-81249596D01*
X188462549Y-81223738D01*
X188474614Y-81223000D01*
X188897247Y-81223000D01*
X188897248Y-81223000D01*
X188955731Y-81211367D01*
X189022052Y-81167052D01*
X189066367Y-81100731D01*
X189078000Y-81042248D01*
X189078000Y-80372000D01*
X189096907Y-80313809D01*
X189146407Y-80277845D01*
X189177000Y-80273000D01*
X189197063Y-80273000D01*
X189197063Y-80272999D01*
X189273489Y-80252521D01*
X189315241Y-80228415D01*
X189375087Y-80215694D01*
X189430983Y-80240580D01*
X189461576Y-80293567D01*
X189455182Y-80354418D01*
X189454794Y-80355277D01*
X189435595Y-80397317D01*
X189415114Y-80539771D01*
X189415114Y-80539776D01*
X189435595Y-80682230D01*
X189495383Y-80813145D01*
X189495384Y-80813147D01*
X189543699Y-80868906D01*
X189589634Y-80921918D01*
X189679995Y-80979989D01*
X189710708Y-80999727D01*
X189781677Y-81020565D01*
X189848796Y-81040273D01*
X189848797Y-81040273D01*
X189848800Y-81040274D01*
X189848802Y-81040274D01*
X189992720Y-81040274D01*
X189992722Y-81040274D01*
X190130814Y-80999727D01*
X190251889Y-80921917D01*
X190346138Y-80813147D01*
X190346138Y-80813145D01*
X190349151Y-80809669D01*
X190401547Y-80778073D01*
X190423971Y-80775500D01*
X190841676Y-80775500D01*
X190879558Y-80783034D01*
X190884878Y-80785236D01*
X190884883Y-80785240D01*
X190943207Y-80796841D01*
X190961588Y-80800498D01*
X190961589Y-80800498D01*
X190961599Y-80800500D01*
X191600500Y-80800499D01*
X191658691Y-80819406D01*
X191694655Y-80868906D01*
X191699500Y-80899499D01*
X191699500Y-81538397D01*
X191699501Y-81538404D01*
X191714759Y-81615116D01*
X191714760Y-81615118D01*
X191755715Y-81676411D01*
X191772888Y-81702112D01*
X191859883Y-81760240D01*
X191936599Y-81775500D01*
X192113400Y-81775499D01*
X192190117Y-81760240D01*
X192219998Y-81740273D01*
X192278886Y-81723665D01*
X192330002Y-81740274D01*
X192359879Y-81760238D01*
X192359880Y-81760238D01*
X192359883Y-81760240D01*
X192436599Y-81775500D01*
X192613400Y-81775499D01*
X192690117Y-81760240D01*
X192719998Y-81740273D01*
X192778886Y-81723665D01*
X192830002Y-81740274D01*
X192859879Y-81760238D01*
X192859880Y-81760238D01*
X192859883Y-81760240D01*
X192936599Y-81775500D01*
X193113400Y-81775499D01*
X193190117Y-81760240D01*
X193219998Y-81740273D01*
X193278886Y-81723665D01*
X193330002Y-81740274D01*
X193359879Y-81760238D01*
X193359880Y-81760238D01*
X193359883Y-81760240D01*
X193436599Y-81775500D01*
X193613400Y-81775499D01*
X193690117Y-81760240D01*
X193719998Y-81740273D01*
X193778886Y-81723665D01*
X193830002Y-81740274D01*
X193859879Y-81760238D01*
X193859880Y-81760238D01*
X193859883Y-81760240D01*
X193936599Y-81775500D01*
X194113400Y-81775499D01*
X194190117Y-81760240D01*
X194219998Y-81740273D01*
X194278886Y-81723665D01*
X194330002Y-81740274D01*
X194359879Y-81760238D01*
X194359880Y-81760238D01*
X194359883Y-81760240D01*
X194436599Y-81775500D01*
X194613400Y-81775499D01*
X194690117Y-81760240D01*
X194719998Y-81740273D01*
X194778886Y-81723665D01*
X194830001Y-81740273D01*
X194859883Y-81760240D01*
X194919052Y-81772009D01*
X194972435Y-81801906D01*
X194998050Y-81857472D01*
X194986113Y-81917481D01*
X194980833Y-81925890D01*
X194976774Y-81931686D01*
X194926029Y-82040510D01*
X194926028Y-82040511D01*
X194919500Y-82090100D01*
X194919500Y-82509896D01*
X194919501Y-82509907D01*
X194926027Y-82559486D01*
X194926027Y-82559488D01*
X194976774Y-82668313D01*
X194976775Y-82668314D01*
X194976776Y-82668316D01*
X195061684Y-82753224D01*
X195170513Y-82803972D01*
X195220099Y-82810500D01*
X195579900Y-82810499D01*
X195629487Y-82803972D01*
X195629488Y-82803972D01*
X195688137Y-82776622D01*
X195738316Y-82753224D01*
X195799998Y-82691541D01*
X195854513Y-82663766D01*
X195914945Y-82673337D01*
X195940000Y-82691540D01*
X196001684Y-82753224D01*
X196110513Y-82803972D01*
X196160099Y-82810500D01*
X196519900Y-82810499D01*
X196569487Y-82803972D01*
X196569488Y-82803972D01*
X196628137Y-82776622D01*
X196678316Y-82753224D01*
X196763224Y-82668316D01*
X196813972Y-82559487D01*
X196820500Y-82509901D01*
X196820499Y-82090100D01*
X196813972Y-82040513D01*
X196813972Y-82040511D01*
X196763225Y-81931686D01*
X196763224Y-81931685D01*
X196763224Y-81931684D01*
X196678316Y-81846776D01*
X196678314Y-81846775D01*
X196678313Y-81846774D01*
X196569489Y-81796029D01*
X196569488Y-81796028D01*
X196540501Y-81792212D01*
X196519901Y-81789500D01*
X196519900Y-81789500D01*
X196465529Y-81789500D01*
X196407338Y-81770593D01*
X196371374Y-81721093D01*
X196367537Y-81676411D01*
X196375647Y-81620003D01*
X196375647Y-81619997D01*
X196355165Y-81477543D01*
X196304681Y-81367000D01*
X196295377Y-81346627D01*
X196201128Y-81237857D01*
X196201127Y-81237856D01*
X196201126Y-81237855D01*
X196080057Y-81160049D01*
X196080054Y-81160047D01*
X196080053Y-81160047D01*
X196076140Y-81158898D01*
X195941959Y-81119499D01*
X195935406Y-81118557D01*
X195880500Y-81091559D01*
X195851948Y-81037443D01*
X195850499Y-81020565D01*
X195850499Y-80899499D01*
X195869406Y-80841308D01*
X195918906Y-80805344D01*
X195949494Y-80800499D01*
X196170615Y-80800499D01*
X196170625Y-80800500D01*
X196182147Y-80800500D01*
X196659165Y-80800500D01*
X196717356Y-80819407D01*
X196729169Y-80829496D01*
X198465504Y-82565831D01*
X198493281Y-82620348D01*
X198494500Y-82635835D01*
X198494500Y-83544165D01*
X198475593Y-83602356D01*
X198465504Y-83614169D01*
X197784169Y-84295504D01*
X197729652Y-84323281D01*
X197714165Y-84324500D01*
X189045834Y-84324500D01*
X188987643Y-84305593D01*
X188975830Y-84295504D01*
X183064496Y-78384169D01*
X183036719Y-78329652D01*
X183035500Y-78314165D01*
X183035500Y-77444834D01*
X183054407Y-77386643D01*
X183103907Y-77350679D01*
X183165093Y-77350679D01*
X183204501Y-77374828D01*
G37*
%TD.AperFunction*%
%TA.AperFunction,Conductor*%
G36*
X195330002Y-76840274D02*
G01*
X195359879Y-76860238D01*
X195359880Y-76860238D01*
X195359883Y-76860240D01*
X195436599Y-76875500D01*
X195525500Y-76875499D01*
X195583690Y-76894406D01*
X195619654Y-76943905D01*
X195624500Y-76974498D01*
X195624500Y-77063396D01*
X195624501Y-77063404D01*
X195639759Y-77140115D01*
X195639759Y-77140116D01*
X195639760Y-77140117D01*
X195659726Y-77169999D01*
X195676334Y-77228887D01*
X195659727Y-77279999D01*
X195639761Y-77309880D01*
X195639759Y-77309886D01*
X195624501Y-77386589D01*
X195624500Y-77386599D01*
X195624500Y-77563397D01*
X195624501Y-77563404D01*
X195639759Y-77640115D01*
X195639759Y-77640116D01*
X195639760Y-77640117D01*
X195659726Y-77669999D01*
X195676334Y-77728887D01*
X195659727Y-77779999D01*
X195639761Y-77809880D01*
X195639759Y-77809886D01*
X195624501Y-77886589D01*
X195624500Y-77886599D01*
X195624500Y-78063397D01*
X195624501Y-78063404D01*
X195639759Y-78140115D01*
X195639759Y-78140116D01*
X195639760Y-78140117D01*
X195659726Y-78169999D01*
X195676334Y-78228887D01*
X195659727Y-78279999D01*
X195639761Y-78309880D01*
X195639759Y-78309886D01*
X195624501Y-78386589D01*
X195624500Y-78386599D01*
X195624500Y-78563397D01*
X195624501Y-78563404D01*
X195639759Y-78640115D01*
X195639759Y-78640116D01*
X195639760Y-78640117D01*
X195659726Y-78669999D01*
X195676334Y-78728887D01*
X195659727Y-78779999D01*
X195639761Y-78809880D01*
X195639759Y-78809886D01*
X195624501Y-78886589D01*
X195624500Y-78886599D01*
X195624500Y-79063397D01*
X195624501Y-79063404D01*
X195639759Y-79140115D01*
X195639759Y-79140116D01*
X195639760Y-79140117D01*
X195659726Y-79169999D01*
X195676334Y-79228887D01*
X195659727Y-79279999D01*
X195639761Y-79309880D01*
X195639759Y-79309886D01*
X195624501Y-79386589D01*
X195624500Y-79386599D01*
X195624500Y-79563397D01*
X195624501Y-79563404D01*
X195639759Y-79640115D01*
X195639759Y-79640116D01*
X195639760Y-79640117D01*
X195659726Y-79669999D01*
X195676334Y-79728887D01*
X195659727Y-79779999D01*
X195639761Y-79809880D01*
X195639759Y-79809886D01*
X195624501Y-79886589D01*
X195624500Y-79886599D01*
X195624500Y-80063397D01*
X195624501Y-80063404D01*
X195639759Y-80140115D01*
X195639759Y-80140116D01*
X195639760Y-80140117D01*
X195659726Y-80169999D01*
X195676334Y-80228887D01*
X195659727Y-80279999D01*
X195639761Y-80309880D01*
X195639759Y-80309886D01*
X195624501Y-80386589D01*
X195624500Y-80386599D01*
X195624500Y-80475500D01*
X195605593Y-80533691D01*
X195556093Y-80569655D01*
X195525501Y-80574500D01*
X195436603Y-80574500D01*
X195436595Y-80574501D01*
X195359884Y-80589759D01*
X195330000Y-80609727D01*
X195271111Y-80626334D01*
X195219999Y-80609726D01*
X195190119Y-80589761D01*
X195190117Y-80589760D01*
X195190114Y-80589759D01*
X195190113Y-80589759D01*
X195113410Y-80574501D01*
X195113402Y-80574500D01*
X195113401Y-80574500D01*
X195113400Y-80574500D01*
X194936602Y-80574500D01*
X194936595Y-80574501D01*
X194859884Y-80589759D01*
X194830000Y-80609727D01*
X194771111Y-80626334D01*
X194719999Y-80609726D01*
X194690119Y-80589761D01*
X194690117Y-80589760D01*
X194690114Y-80589759D01*
X194690113Y-80589759D01*
X194613410Y-80574501D01*
X194613402Y-80574500D01*
X194613401Y-80574500D01*
X194613400Y-80574500D01*
X194436602Y-80574500D01*
X194436595Y-80574501D01*
X194359884Y-80589759D01*
X194330000Y-80609727D01*
X194271111Y-80626334D01*
X194219999Y-80609726D01*
X194190119Y-80589761D01*
X194190117Y-80589760D01*
X194190114Y-80589759D01*
X194190113Y-80589759D01*
X194113410Y-80574501D01*
X194113402Y-80574500D01*
X194113401Y-80574500D01*
X194113400Y-80574500D01*
X193936602Y-80574500D01*
X193936595Y-80574501D01*
X193859884Y-80589759D01*
X193830000Y-80609727D01*
X193771111Y-80626334D01*
X193719999Y-80609726D01*
X193690119Y-80589761D01*
X193690117Y-80589760D01*
X193690114Y-80589759D01*
X193690113Y-80589759D01*
X193613410Y-80574501D01*
X193613402Y-80574500D01*
X193613401Y-80574500D01*
X193613400Y-80574500D01*
X193436602Y-80574500D01*
X193436595Y-80574501D01*
X193359884Y-80589759D01*
X193330000Y-80609727D01*
X193271111Y-80626334D01*
X193219999Y-80609726D01*
X193190119Y-80589761D01*
X193190117Y-80589760D01*
X193190114Y-80589759D01*
X193190113Y-80589759D01*
X193113410Y-80574501D01*
X193113402Y-80574500D01*
X193113401Y-80574500D01*
X193113400Y-80574500D01*
X192936602Y-80574500D01*
X192936595Y-80574501D01*
X192859884Y-80589759D01*
X192830000Y-80609727D01*
X192771111Y-80626334D01*
X192719999Y-80609726D01*
X192690119Y-80589761D01*
X192690117Y-80589760D01*
X192690114Y-80589759D01*
X192690113Y-80589759D01*
X192613410Y-80574501D01*
X192613402Y-80574500D01*
X192613401Y-80574500D01*
X192613400Y-80574500D01*
X192436602Y-80574500D01*
X192436595Y-80574501D01*
X192359884Y-80589759D01*
X192330000Y-80609727D01*
X192271111Y-80626334D01*
X192219999Y-80609726D01*
X192190119Y-80589761D01*
X192190117Y-80589760D01*
X192190114Y-80589759D01*
X192190113Y-80589759D01*
X192113410Y-80574501D01*
X192113402Y-80574500D01*
X192113401Y-80574500D01*
X192113400Y-80574500D01*
X192024499Y-80574500D01*
X191966308Y-80555593D01*
X191930344Y-80506093D01*
X191925499Y-80475503D01*
X191925499Y-80386600D01*
X191910240Y-80309883D01*
X191903970Y-80300500D01*
X191890274Y-80280002D01*
X191873665Y-80221114D01*
X191890274Y-80169998D01*
X191898538Y-80157631D01*
X191910240Y-80140117D01*
X191925500Y-80063401D01*
X191925499Y-79886600D01*
X191910240Y-79809883D01*
X191908064Y-79806627D01*
X191890274Y-79780002D01*
X191873665Y-79721114D01*
X191890274Y-79669998D01*
X191910238Y-79640120D01*
X191910238Y-79640119D01*
X191910240Y-79640117D01*
X191925500Y-79563401D01*
X191925499Y-79386600D01*
X191910240Y-79309883D01*
X191890273Y-79280001D01*
X191873665Y-79221114D01*
X191890274Y-79169998D01*
X191910238Y-79140120D01*
X191910238Y-79140119D01*
X191910240Y-79140117D01*
X191925500Y-79063401D01*
X191925499Y-78886600D01*
X191910240Y-78809883D01*
X191890273Y-78780001D01*
X191873665Y-78721114D01*
X191890274Y-78669998D01*
X191910238Y-78640120D01*
X191910238Y-78640119D01*
X191910240Y-78640117D01*
X191925500Y-78563401D01*
X191925499Y-78386600D01*
X191910240Y-78309883D01*
X191907208Y-78305346D01*
X191890274Y-78280002D01*
X191873665Y-78221114D01*
X191890274Y-78169998D01*
X191910238Y-78140120D01*
X191910238Y-78140119D01*
X191910240Y-78140117D01*
X191925500Y-78063401D01*
X191925499Y-77886600D01*
X191910240Y-77809883D01*
X191890273Y-77780001D01*
X191873665Y-77721114D01*
X191890274Y-77669998D01*
X191910238Y-77640120D01*
X191910238Y-77640119D01*
X191910240Y-77640117D01*
X191925500Y-77563401D01*
X191925499Y-77386600D01*
X191916041Y-77339050D01*
X191917512Y-77294115D01*
X191925500Y-77264309D01*
X191925500Y-77140691D01*
X191922650Y-77130058D01*
X191921180Y-77085116D01*
X191925499Y-77063404D01*
X191925500Y-77063401D01*
X191925499Y-76974498D01*
X191944406Y-76916309D01*
X191993905Y-76880345D01*
X192024495Y-76875499D01*
X192113400Y-76875499D01*
X192190117Y-76860240D01*
X192219998Y-76840273D01*
X192278886Y-76823665D01*
X192330002Y-76840274D01*
X192359879Y-76860238D01*
X192359880Y-76860238D01*
X192359883Y-76860240D01*
X192436599Y-76875500D01*
X192613400Y-76875499D01*
X192690117Y-76860240D01*
X192709657Y-76847184D01*
X192753222Y-76833968D01*
X192752877Y-76831346D01*
X192765745Y-76829652D01*
X192766043Y-76831919D01*
X192817064Y-76834574D01*
X192836616Y-76844693D01*
X192859883Y-76860240D01*
X192936599Y-76875500D01*
X193113400Y-76875499D01*
X193190117Y-76860240D01*
X193219998Y-76840273D01*
X193278886Y-76823665D01*
X193330002Y-76840274D01*
X193359879Y-76860238D01*
X193359880Y-76860238D01*
X193359883Y-76860240D01*
X193436599Y-76875500D01*
X193613400Y-76875499D01*
X193690117Y-76860240D01*
X193719998Y-76840273D01*
X193778886Y-76823665D01*
X193830002Y-76840274D01*
X193859879Y-76860238D01*
X193859880Y-76860238D01*
X193859883Y-76860240D01*
X193936599Y-76875500D01*
X194113400Y-76875499D01*
X194190117Y-76860240D01*
X194219998Y-76840273D01*
X194278886Y-76823665D01*
X194330002Y-76840274D01*
X194359879Y-76860238D01*
X194359880Y-76860238D01*
X194359883Y-76860240D01*
X194436599Y-76875500D01*
X194613400Y-76875499D01*
X194690117Y-76860240D01*
X194719998Y-76840273D01*
X194778886Y-76823665D01*
X194830002Y-76840274D01*
X194859879Y-76860238D01*
X194859880Y-76860238D01*
X194859883Y-76860240D01*
X194936599Y-76875500D01*
X195113400Y-76875499D01*
X195190117Y-76860240D01*
X195219998Y-76840273D01*
X195278886Y-76823665D01*
X195330002Y-76840274D01*
G37*
%TD.AperFunction*%
%TA.AperFunction,Conductor*%
G36*
X196267517Y-74336519D02*
G01*
X196289724Y-74367084D01*
X196295935Y-74380404D01*
X196379596Y-74464065D01*
X196379597Y-74464065D01*
X196379598Y-74464066D01*
X196486824Y-74514067D01*
X196486825Y-74514067D01*
X196486827Y-74514068D01*
X196535684Y-74520500D01*
X196535685Y-74520500D01*
X196884314Y-74520500D01*
X196884316Y-74520500D01*
X196933173Y-74514068D01*
X197040404Y-74464065D01*
X197124065Y-74380404D01*
X197124067Y-74380400D01*
X197129033Y-74373309D01*
X197130666Y-74374453D01*
X197164740Y-74337913D01*
X197212737Y-74325500D01*
X198148049Y-74325500D01*
X198206240Y-74344407D01*
X198218053Y-74354496D01*
X198760504Y-74896947D01*
X198788281Y-74951464D01*
X198789500Y-74966951D01*
X198789500Y-75869164D01*
X198770593Y-75927355D01*
X198760504Y-75939168D01*
X197439167Y-77260504D01*
X197384650Y-77288281D01*
X197369166Y-77289500D01*
X197340105Y-77289500D01*
X197340092Y-77289501D01*
X197290513Y-77296027D01*
X197290511Y-77296027D01*
X197181686Y-77346774D01*
X197096774Y-77431686D01*
X197046029Y-77540510D01*
X197046028Y-77540511D01*
X197046028Y-77540513D01*
X197043015Y-77563404D01*
X197043012Y-77563423D01*
X197016670Y-77618648D01*
X196962899Y-77647842D01*
X196944859Y-77649500D01*
X196924500Y-77649500D01*
X196866309Y-77630593D01*
X196830345Y-77581093D01*
X196825500Y-77550501D01*
X196825499Y-77386602D01*
X196825498Y-77386595D01*
X196810240Y-77309883D01*
X196810239Y-77309881D01*
X196790274Y-77280002D01*
X196773665Y-77221114D01*
X196790274Y-77169998D01*
X196810238Y-77140120D01*
X196810238Y-77140119D01*
X196810240Y-77140117D01*
X196825500Y-77063401D01*
X196825499Y-76886600D01*
X196810240Y-76809883D01*
X196805990Y-76803523D01*
X196781176Y-76766385D01*
X196752112Y-76722888D01*
X196665117Y-76664760D01*
X196665113Y-76664759D01*
X196588411Y-76649501D01*
X196588401Y-76649500D01*
X196588400Y-76649500D01*
X195949499Y-76649500D01*
X195891308Y-76630593D01*
X195855344Y-76581093D01*
X195850499Y-76550505D01*
X195850499Y-75911600D01*
X195835240Y-75834883D01*
X195777112Y-75747888D01*
X195720000Y-75709727D01*
X195718463Y-75708700D01*
X195680584Y-75660651D01*
X195678182Y-75599512D01*
X195683415Y-75585250D01*
X195685164Y-75581423D01*
X195685163Y-75581423D01*
X195686564Y-75578359D01*
X195727943Y-75533288D01*
X195776611Y-75520499D01*
X195909897Y-75520499D01*
X195909900Y-75520499D01*
X195959487Y-75513972D01*
X195959488Y-75513972D01*
X196018137Y-75486622D01*
X196068316Y-75463224D01*
X196153224Y-75378316D01*
X196203972Y-75269487D01*
X196210500Y-75219901D01*
X196210499Y-74800100D01*
X196203972Y-74750513D01*
X196203972Y-74750511D01*
X196153225Y-74641686D01*
X196153224Y-74641685D01*
X196153224Y-74641684D01*
X196068316Y-74556776D01*
X196068314Y-74556775D01*
X196068007Y-74556468D01*
X196040230Y-74501951D01*
X196049801Y-74441519D01*
X196068005Y-74416463D01*
X196104065Y-74380404D01*
X196110275Y-74367085D01*
X196152003Y-74322337D01*
X196212064Y-74310662D01*
X196267517Y-74336519D01*
G37*
%TD.AperFunction*%
%TA.AperFunction,Conductor*%
G36*
X187074571Y-73100893D02*
G01*
X187099458Y-73156789D01*
X187100000Y-73167138D01*
X187100000Y-75600000D01*
X188568405Y-75600000D01*
X188626596Y-75618907D01*
X188662560Y-75668407D01*
X188662560Y-75729593D01*
X188658459Y-75740122D01*
X188650251Y-75758097D01*
X188604834Y-75857543D01*
X188589444Y-75964589D01*
X188562448Y-76019496D01*
X188508334Y-76048050D01*
X188491452Y-76049500D01*
X186349394Y-76049500D01*
X186272973Y-76069977D01*
X186272969Y-76069979D01*
X186215107Y-76103384D01*
X186215108Y-76103385D01*
X186204450Y-76109538D01*
X186204447Y-76109540D01*
X185611047Y-76702938D01*
X185556531Y-76730715D01*
X185496099Y-76721144D01*
X185452834Y-76677879D01*
X185445417Y-76658557D01*
X185443729Y-76652256D01*
X185412984Y-76537515D01*
X185412982Y-76537512D01*
X185412982Y-76537510D01*
X185340512Y-76411989D01*
X185340510Y-76411987D01*
X185340509Y-76411985D01*
X185238015Y-76309491D01*
X185238012Y-76309489D01*
X185238010Y-76309487D01*
X185112488Y-76237017D01*
X185112489Y-76237017D01*
X185082801Y-76229062D01*
X184972475Y-76199500D01*
X184827525Y-76199500D01*
X184758381Y-76218027D01*
X184705245Y-76232265D01*
X184644144Y-76229062D01*
X184596594Y-76190557D01*
X184581630Y-76150727D01*
X184561621Y-76011563D01*
X184523164Y-75927355D01*
X184501833Y-75880647D01*
X184407584Y-75771877D01*
X184407583Y-75771876D01*
X184407582Y-75771875D01*
X184286513Y-75694069D01*
X184286510Y-75694067D01*
X184286509Y-75694067D01*
X184286506Y-75694066D01*
X184148420Y-75653520D01*
X184148417Y-75653520D01*
X184114500Y-75653520D01*
X184056309Y-75634613D01*
X184020345Y-75585113D01*
X184015500Y-75554520D01*
X184015500Y-75495834D01*
X184034407Y-75437643D01*
X184044496Y-75425830D01*
X184660830Y-74809496D01*
X184715347Y-74781719D01*
X184730834Y-74780500D01*
X185171259Y-74780500D01*
X185171261Y-74780500D01*
X185254047Y-74758318D01*
X185254049Y-74758316D01*
X185254051Y-74758316D01*
X185328265Y-74715468D01*
X185328265Y-74715467D01*
X185328270Y-74715465D01*
X186900465Y-73143270D01*
X186915263Y-73117638D01*
X186960732Y-73076697D01*
X187021582Y-73070301D01*
X187074571Y-73100893D01*
G37*
%TD.AperFunction*%
%TA.AperFunction,Conductor*%
G36*
X192753888Y-72999407D02*
G01*
X192765700Y-73009496D01*
X193029143Y-73272938D01*
X193029148Y-73272942D01*
X193097663Y-73312499D01*
X193097661Y-73312499D01*
X193097665Y-73312500D01*
X193097667Y-73312501D01*
X193174093Y-73332979D01*
X193228543Y-73332979D01*
X193286734Y-73351886D01*
X193322698Y-73401386D01*
X193322698Y-73462572D01*
X193316754Y-73476919D01*
X193315440Y-73479500D01*
X193310049Y-73490079D01*
X193310049Y-73490080D01*
X193294500Y-73588251D01*
X193294500Y-74091748D01*
X193310049Y-74189919D01*
X193310050Y-74189923D01*
X193318015Y-74205554D01*
X193327587Y-74265985D01*
X193299811Y-74320502D01*
X193245295Y-74348281D01*
X193229806Y-74349500D01*
X192931772Y-74349500D01*
X192889933Y-74340224D01*
X192859493Y-74326029D01*
X192859490Y-74326028D01*
X192829735Y-74322111D01*
X192809901Y-74319500D01*
X192809899Y-74319500D01*
X192390103Y-74319500D01*
X192390092Y-74319501D01*
X192340513Y-74326027D01*
X192340511Y-74326027D01*
X192231686Y-74376774D01*
X192146774Y-74461686D01*
X192096029Y-74570510D01*
X192096028Y-74570511D01*
X192089500Y-74620100D01*
X192089500Y-74979895D01*
X192089501Y-74979897D01*
X192090101Y-74984456D01*
X192078947Y-75044616D01*
X192034563Y-75086731D01*
X191973901Y-75094714D01*
X191921943Y-75067377D01*
X191728996Y-74874430D01*
X191701219Y-74819913D01*
X191700000Y-74804426D01*
X191700000Y-73079500D01*
X191718907Y-73021309D01*
X191768407Y-72985345D01*
X191799000Y-72980500D01*
X192695697Y-72980500D01*
X192753888Y-72999407D01*
G37*
%TD.AperFunction*%
%TD*%
D33*
X181000000Y-82750000D03*
X181000000Y-82000000D03*
X183250000Y-82000000D03*
X181750000Y-82750000D03*
X183250000Y-82750000D03*
X182500000Y-82000000D03*
X181750000Y-82000000D03*
X182500000Y-82750000D03*
X183500000Y-88500000D03*
X183500000Y-87000000D03*
X183500000Y-89250000D03*
X182750000Y-87750000D03*
X183500000Y-87750000D03*
X182750000Y-88500000D03*
X182750000Y-89250000D03*
X182750000Y-87000000D03*
X185500000Y-87000000D03*
X185500000Y-89250000D03*
X186250000Y-88500000D03*
X185500000Y-88500000D03*
X186250000Y-87000000D03*
X185500000Y-87750000D03*
X186250000Y-89250000D03*
X186250000Y-87750000D03*
X204000000Y-88000000D03*
X204750000Y-86500000D03*
X204000000Y-88750000D03*
X206250000Y-87250000D03*
X205500000Y-88750000D03*
X204000000Y-87250000D03*
X205500000Y-87250000D03*
X204750000Y-88000000D03*
X204000000Y-86500000D03*
X206250000Y-86500000D03*
X204750000Y-88750000D03*
X205500000Y-88000000D03*
X204750000Y-87250000D03*
X205500000Y-86500000D03*
X206250000Y-88000000D03*
X206250000Y-88750000D03*
X205500000Y-85750000D03*
X205500000Y-85000000D03*
X206250000Y-83500000D03*
X204000000Y-83500000D03*
X204750000Y-85750000D03*
X204000000Y-84250000D03*
X204750000Y-84250000D03*
X204750000Y-85000000D03*
X205500000Y-83500000D03*
X206250000Y-85000000D03*
X206250000Y-85750000D03*
X205500000Y-84250000D03*
X206250000Y-84250000D03*
X204000000Y-85750000D03*
X204000000Y-85000000D03*
X204750000Y-83500000D03*
X200250000Y-76000000D03*
X200250000Y-76750000D03*
X201000000Y-75250000D03*
X201000000Y-76750000D03*
X201000000Y-76000000D03*
X201000000Y-77500000D03*
X201000000Y-78250000D03*
X200250000Y-77500000D03*
X200250000Y-78250000D03*
X200250000Y-75250000D03*
X201000000Y-74500000D03*
X200250000Y-74500000D03*
X203250000Y-77500000D03*
X201750000Y-77500000D03*
X203250000Y-78250000D03*
X201750000Y-78250000D03*
X202500000Y-77500000D03*
X202500000Y-78250000D03*
X206250000Y-78250000D03*
X204000000Y-77500000D03*
X205500000Y-78250000D03*
X204750000Y-77500000D03*
X206250000Y-77500000D03*
X205500000Y-77500000D03*
X204000000Y-78250000D03*
X204750000Y-78250000D03*
X203250000Y-76750000D03*
X205500000Y-74500000D03*
X201750000Y-75250000D03*
X206250000Y-75250000D03*
X204000000Y-75250000D03*
X206250000Y-76000000D03*
X202500000Y-76750000D03*
X204750000Y-76750000D03*
X205500000Y-75250000D03*
X204750000Y-76000000D03*
X201750000Y-76000000D03*
X202500000Y-76000000D03*
X203250000Y-75250000D03*
X203250000Y-76000000D03*
X206250000Y-74500000D03*
X204000000Y-76000000D03*
X204750000Y-74500000D03*
X204750000Y-75250000D03*
X202500000Y-75250000D03*
X205500000Y-76750000D03*
X204000000Y-74500000D03*
X203250000Y-74500000D03*
X202500000Y-74500000D03*
X201750000Y-74500000D03*
X204000000Y-76750000D03*
X205500000Y-76000000D03*
X206250000Y-76750000D03*
X201750000Y-76750000D03*
X207750000Y-79750000D03*
X207000000Y-83500000D03*
X207750000Y-80500000D03*
X207000000Y-72250000D03*
X207000000Y-73000000D03*
X207000000Y-73750000D03*
X207750000Y-78250000D03*
X207000000Y-74500000D03*
X207000000Y-79000000D03*
X207000000Y-82750000D03*
X207000000Y-76750000D03*
X207750000Y-81250000D03*
X207000000Y-78250000D03*
X207000000Y-80500000D03*
X207000000Y-76000000D03*
X207750000Y-79000000D03*
X207750000Y-84250000D03*
X207000000Y-79750000D03*
X207000000Y-71500000D03*
X207750000Y-77500000D03*
X207000000Y-81250000D03*
X207000000Y-77500000D03*
X207750000Y-82750000D03*
X207000000Y-84250000D03*
X207750000Y-83500000D03*
X207000000Y-75250000D03*
X207000000Y-70750000D03*
X207000000Y-82000000D03*
X207750000Y-82000000D03*
X207750000Y-76750000D03*
X207750000Y-76000000D03*
X207750000Y-75250000D03*
X207750000Y-74500000D03*
X207750000Y-73750000D03*
X207750000Y-73000000D03*
X207750000Y-72250000D03*
X207750000Y-71500000D03*
X207750000Y-70750000D03*
X208500000Y-79750000D03*
X208500000Y-80500000D03*
X208500000Y-78250000D03*
X208500000Y-81250000D03*
X208500000Y-79000000D03*
X208500000Y-84250000D03*
X208500000Y-77500000D03*
X208500000Y-82750000D03*
X208500000Y-83500000D03*
X208500000Y-82000000D03*
X208500000Y-76750000D03*
X208500000Y-76000000D03*
X208500000Y-75250000D03*
X208500000Y-74500000D03*
X208500000Y-73750000D03*
X208500000Y-73000000D03*
X208500000Y-72250000D03*
X208500000Y-71500000D03*
X208500000Y-70750000D03*
X209250000Y-84250000D03*
X209250000Y-83500000D03*
X209250000Y-82750000D03*
X209250000Y-82000000D03*
X209250000Y-81250000D03*
X209250000Y-80500000D03*
X209250000Y-79750000D03*
X209250000Y-79000000D03*
X209250000Y-78250000D03*
X209250000Y-77500000D03*
X209250000Y-76750000D03*
X209250000Y-76000000D03*
X209250000Y-75250000D03*
X209250000Y-74500000D03*
X209250000Y-73750000D03*
X209250000Y-73000000D03*
X209250000Y-72250000D03*
X209250000Y-71500000D03*
X209250000Y-70750000D03*
X193030000Y-78250000D03*
X192500000Y-79850000D03*
X191500000Y-82810000D03*
X190830000Y-82120000D03*
X191470000Y-82170000D03*
X188620000Y-77960000D03*
X198490000Y-75050000D03*
X195240000Y-71080000D03*
X190870000Y-82810000D03*
X198900000Y-77810000D03*
X192851303Y-74024580D03*
X193300000Y-79060000D03*
X194150000Y-79870000D03*
X192510000Y-79010000D03*
X194170000Y-79080000D03*
X193270000Y-79860000D03*
X184076456Y-76154020D03*
X200240000Y-89030000D03*
X199743058Y-81096942D03*
X183991544Y-74097222D03*
X189090000Y-76000000D03*
X181440000Y-86240000D03*
X195199999Y-75438966D03*
X189920761Y-80539774D03*
X189890000Y-79740363D03*
X199180000Y-80080000D03*
X183373871Y-76768871D03*
X195870000Y-81620000D03*
X189320000Y-70500000D03*
X182880000Y-71220000D03*
X181230000Y-72690000D03*
D34*
X184900000Y-76750000D03*
D35*
X184900000Y-82750000D03*
D36*
X185625000Y-75430000D03*
D37*
X181800000Y-75430000D03*
D36*
X185625000Y-84070000D03*
D37*
X181800000Y-84070000D03*
D38*
X194200000Y-84000000D03*
X195500000Y-84000000D03*
X194200000Y-85300000D03*
X195500000Y-85300000D03*
X194200000Y-86600000D03*
X195500000Y-86600000D03*
X194200000Y-87900000D03*
X195500000Y-87900000D03*
M02*
