%TF.GenerationSoftware,KiCad,Pcbnew,8.0.6*%
%TF.CreationDate,2025-02-20T11:34:01+01:00*%
%TF.ProjectId,wled usermod,776c6564-2075-4736-9572-6d6f642e6b69,rev?*%
%TF.SameCoordinates,Original*%
%TF.FileFunction,Copper,L1,Top*%
%TF.FilePolarity,Positive*%
%FSLAX46Y46*%
G04 Gerber Fmt 4.6, Leading zero omitted, Abs format (unit mm)*
G04 Created by KiCad (PCBNEW 8.0.6) date 2025-02-20 11:34:01*
%MOMM*%
%LPD*%
G01*
G04 APERTURE LIST*
G04 Aperture macros list*
%AMRoundRect*
0 Rectangle with rounded corners*
0 $1 Rounding radius*
0 $2 $3 $4 $5 $6 $7 $8 $9 X,Y pos of 4 corners*
0 Add a 4 corners polygon primitive as box body*
4,1,4,$2,$3,$4,$5,$6,$7,$8,$9,$2,$3,0*
0 Add four circle primitives for the rounded corners*
1,1,$1+$1,$2,$3*
1,1,$1+$1,$4,$5*
1,1,$1+$1,$6,$7*
1,1,$1+$1,$8,$9*
0 Add four rect primitives between the rounded corners*
20,1,$1+$1,$2,$3,$4,$5,0*
20,1,$1+$1,$4,$5,$6,$7,0*
20,1,$1+$1,$6,$7,$8,$9,0*
20,1,$1+$1,$8,$9,$2,$3,0*%
G04 Aperture macros list end*
%TA.AperFunction,Conductor*%
%ADD10C,0.200000*%
%TD*%
%TA.AperFunction,SMDPad,CuDef*%
%ADD11RoundRect,0.237500X0.237500X-0.300000X0.237500X0.300000X-0.237500X0.300000X-0.237500X-0.300000X0*%
%TD*%
%TA.AperFunction,SMDPad,CuDef*%
%ADD12RoundRect,0.160000X0.160000X-0.197500X0.160000X0.197500X-0.160000X0.197500X-0.160000X-0.197500X0*%
%TD*%
%TA.AperFunction,SMDPad,CuDef*%
%ADD13RoundRect,0.155000X0.155000X-0.212500X0.155000X0.212500X-0.155000X0.212500X-0.155000X-0.212500X0*%
%TD*%
%TA.AperFunction,SMDPad,CuDef*%
%ADD14RoundRect,0.325000X-0.325000X-0.475000X0.325000X-0.475000X0.325000X0.475000X-0.325000X0.475000X0*%
%TD*%
%TA.AperFunction,SMDPad,CuDef*%
%ADD15RoundRect,0.325000X0.475000X-0.325000X0.475000X0.325000X-0.475000X0.325000X-0.475000X-0.325000X0*%
%TD*%
%TA.AperFunction,SMDPad,CuDef*%
%ADD16RoundRect,0.081250X-0.528750X-0.243750X0.528750X-0.243750X0.528750X0.243750X-0.528750X0.243750X0*%
%TD*%
%TA.AperFunction,SMDPad,CuDef*%
%ADD17RoundRect,0.155000X-0.212500X-0.155000X0.212500X-0.155000X0.212500X0.155000X-0.212500X0.155000X0*%
%TD*%
%TA.AperFunction,SMDPad,CuDef*%
%ADD18RoundRect,0.155000X0.212500X0.155000X-0.212500X0.155000X-0.212500X-0.155000X0.212500X-0.155000X0*%
%TD*%
%TA.AperFunction,SMDPad,CuDef*%
%ADD19RoundRect,0.160000X-0.160000X0.197500X-0.160000X-0.197500X0.160000X-0.197500X0.160000X0.197500X0*%
%TD*%
%TA.AperFunction,SMDPad,CuDef*%
%ADD20RoundRect,0.237500X0.300000X0.237500X-0.300000X0.237500X-0.300000X-0.237500X0.300000X-0.237500X0*%
%TD*%
%TA.AperFunction,SMDPad,CuDef*%
%ADD21R,0.700000X0.750000*%
%TD*%
%TA.AperFunction,SMDPad,CuDef*%
%ADD22RoundRect,0.160000X-0.160000X0.222500X-0.160000X-0.222500X0.160000X-0.222500X0.160000X0.222500X0*%
%TD*%
%TA.AperFunction,SMDPad,CuDef*%
%ADD23RoundRect,0.325000X0.325000X0.475000X-0.325000X0.475000X-0.325000X-0.475000X0.325000X-0.475000X0*%
%TD*%
%TA.AperFunction,SMDPad,CuDef*%
%ADD24RoundRect,0.237500X-0.237500X0.250000X-0.237500X-0.250000X0.237500X-0.250000X0.237500X0.250000X0*%
%TD*%
%TA.AperFunction,SMDPad,CuDef*%
%ADD25R,0.990600X0.304800*%
%TD*%
%TA.AperFunction,SMDPad,CuDef*%
%ADD26RoundRect,0.325000X-0.475000X0.325000X-0.475000X-0.325000X0.475000X-0.325000X0.475000X0.325000X0*%
%TD*%
%TA.AperFunction,SMDPad,CuDef*%
%ADD27RoundRect,0.100000X0.100000X0.575000X-0.100000X0.575000X-0.100000X-0.575000X0.100000X-0.575000X0*%
%TD*%
%TA.AperFunction,ComponentPad*%
%ADD28O,0.890000X1.550000*%
%TD*%
%TA.AperFunction,SMDPad,CuDef*%
%ADD29RoundRect,0.250000X0.475000X0.525000X-0.475000X0.525000X-0.475000X-0.525000X0.475000X-0.525000X0*%
%TD*%
%TA.AperFunction,ComponentPad*%
%ADD30O,1.250000X0.950000*%
%TD*%
%TA.AperFunction,SMDPad,CuDef*%
%ADD31RoundRect,0.250000X0.500000X0.525000X-0.500000X0.525000X-0.500000X-0.525000X0.500000X-0.525000X0*%
%TD*%
%TA.AperFunction,SMDPad,CuDef*%
%ADD32RoundRect,0.250000X-0.412500X-0.650000X0.412500X-0.650000X0.412500X0.650000X-0.412500X0.650000X0*%
%TD*%
%TA.AperFunction,SMDPad,CuDef*%
%ADD33C,1.000000*%
%TD*%
%TA.AperFunction,SMDPad,CuDef*%
%ADD34RoundRect,0.150000X0.150000X-0.587500X0.150000X0.587500X-0.150000X0.587500X-0.150000X-0.587500X0*%
%TD*%
%TA.AperFunction,SMDPad,CuDef*%
%ADD35RoundRect,0.237500X0.250000X0.237500X-0.250000X0.237500X-0.250000X-0.237500X0.250000X-0.237500X0*%
%TD*%
%TA.AperFunction,SMDPad,CuDef*%
%ADD36RoundRect,0.050000X0.100000X-0.285000X0.100000X0.285000X-0.100000X0.285000X-0.100000X-0.285000X0*%
%TD*%
%TA.AperFunction,SMDPad,CuDef*%
%ADD37RoundRect,0.737500X-1.012500X-0.737500X1.012500X-0.737500X1.012500X0.737500X-1.012500X0.737500X0*%
%TD*%
%TA.AperFunction,SMDPad,CuDef*%
%ADD38RoundRect,0.160000X-0.197500X-0.160000X0.197500X-0.160000X0.197500X0.160000X-0.197500X0.160000X0*%
%TD*%
%TA.AperFunction,SMDPad,CuDef*%
%ADD39RoundRect,0.135000X-0.185000X0.135000X-0.185000X-0.135000X0.185000X-0.135000X0.185000X0.135000X0*%
%TD*%
%TA.AperFunction,SMDPad,CuDef*%
%ADD40R,2.200000X1.050000*%
%TD*%
%TA.AperFunction,SMDPad,CuDef*%
%ADD41RoundRect,0.062500X-0.062500X0.337500X-0.062500X-0.337500X0.062500X-0.337500X0.062500X0.337500X0*%
%TD*%
%TA.AperFunction,SMDPad,CuDef*%
%ADD42RoundRect,0.062500X-0.337500X0.062500X-0.337500X-0.062500X0.337500X-0.062500X0.337500X0.062500X0*%
%TD*%
%TA.AperFunction,HeatsinkPad*%
%ADD43R,3.700000X3.700000*%
%TD*%
%TA.AperFunction,SMDPad,CuDef*%
%ADD44RoundRect,0.155000X-0.155000X0.212500X-0.155000X-0.212500X0.155000X-0.212500X0.155000X0.212500X0*%
%TD*%
%TA.AperFunction,ViaPad*%
%ADD45C,0.800000*%
%TD*%
%TA.AperFunction,ViaPad*%
%ADD46C,0.600000*%
%TD*%
%TA.AperFunction,Conductor*%
%ADD47C,0.250000*%
%TD*%
%TA.AperFunction,Conductor*%
%ADD48C,1.000000*%
%TD*%
%TA.AperFunction,Conductor*%
%ADD49C,0.500000*%
%TD*%
%ADD50C,0.350000*%
%ADD51C,0.300000*%
%ADD52O,0.500000X1.150000*%
%ADD53O,0.850000X0.550000*%
G04 APERTURE END LIST*
D10*
%TO.N,GND*%
X139300000Y-95190000D02*
X137390000Y-95010000D01*
X137370000Y-94080000D01*
X139190000Y-93900000D01*
X139310000Y-93900000D01*
X139300000Y-95190000D01*
%TA.AperFunction,Conductor*%
G36*
X139300000Y-95190000D02*
G01*
X137390000Y-95010000D01*
X137370000Y-94080000D01*
X139190000Y-93900000D01*
X139310000Y-93900000D01*
X139300000Y-95190000D01*
G37*
%TD.AperFunction*%
%TO.N,Net-(U1-SW)*%
X149440000Y-104700000D02*
X145500000Y-104090000D01*
X144460000Y-104000000D01*
X144430000Y-103390000D01*
X145300000Y-103310000D01*
X147820000Y-101800000D01*
X149440000Y-101730000D01*
X149440000Y-104700000D01*
%TA.AperFunction,Conductor*%
G36*
X149440000Y-104700000D02*
G01*
X145500000Y-104090000D01*
X144460000Y-104000000D01*
X144430000Y-103390000D01*
X145300000Y-103310000D01*
X147820000Y-101800000D01*
X149440000Y-101730000D01*
X149440000Y-104700000D01*
G37*
%TD.AperFunction*%
%TD*%
D11*
%TO.P,C6,1*%
%TO.N,5VBUCK*%
X144770000Y-109242500D03*
%TO.P,C6,2*%
%TO.N,GND*%
X144770000Y-107517500D03*
%TD*%
D12*
%TO.P,R5,1*%
%TO.N,D+*%
X140260000Y-97800000D03*
%TO.P,R5,2*%
%TO.N,Net-(J1-D+)*%
X140260000Y-96605000D03*
%TD*%
D13*
%TO.P,C8,1*%
%TO.N,5VBUCK*%
X141770000Y-109485000D03*
%TO.P,C8,2*%
%TO.N,GND*%
X141770000Y-108350000D03*
%TD*%
D12*
%TO.P,R4,1*%
%TO.N,D-*%
X141440000Y-97707500D03*
%TO.P,R4,2*%
%TO.N,Net-(J1-D-)*%
X141440000Y-96512500D03*
%TD*%
D14*
%TO.P,S7,1,solder*%
%TO.N,GND*%
X137470000Y-104220000D03*
%TD*%
D15*
%TO.P,S6,1,solder*%
%TO.N,LEDDATA5V*%
X163570000Y-107920000D03*
%TD*%
D16*
%TO.P,U3,1,VIN*%
%TO.N,5V*%
X151040000Y-93430000D03*
%TO.P,U3,2,GND*%
%TO.N,GND*%
X151040000Y-94370000D03*
%TO.P,U3,3,EN*%
%TO.N,5V*%
X151040000Y-95310000D03*
%TO.P,U3,4*%
%TO.N,N/C*%
X153530000Y-95310000D03*
%TO.P,U3,5,VOUT*%
%TO.N,3V3*%
X153530000Y-93430000D03*
%TD*%
D17*
%TO.P,C5,1*%
%TO.N,Net-(U1-BST)*%
X144000000Y-102510000D03*
%TO.P,C5,2*%
%TO.N,Net-(U1-SW)*%
X145135000Y-102510000D03*
%TD*%
D18*
%TO.P,C21,1*%
%TO.N,GND*%
X155460000Y-104990000D03*
%TO.P,C21,2*%
%TO.N,3V3*%
X154325000Y-104990000D03*
%TD*%
D15*
%TO.P,S5,1,solder*%
%TO.N,GPIO45V*%
X163580000Y-110160000D03*
%TD*%
D19*
%TO.P,R6,1*%
%TO.N,3V3*%
X156497500Y-93487500D03*
%TO.P,R6,2*%
%TO.N,EN*%
X156497500Y-94682500D03*
%TD*%
D20*
%TO.P,C2,1*%
%TO.N,+BATT*%
X141090000Y-104610000D03*
%TO.P,C2,2*%
%TO.N,GND*%
X139365000Y-104610000D03*
%TD*%
D21*
%TO.P,Y1,1*%
%TO.N,Net-(U2-XTAL_P)*%
X162050000Y-102265000D03*
%TO.P,Y1,2*%
%TO.N,N/C*%
X162050000Y-103615000D03*
%TO.P,Y1,3*%
%TO.N,Net-(U2-XTAL_N)*%
X163050000Y-103615000D03*
%TO.P,Y1,4*%
%TO.N,N/C*%
X163050000Y-102265000D03*
%TD*%
D22*
%TO.P,L2,1,1*%
%TO.N,3V3*%
X158817500Y-93442500D03*
%TO.P,L2,2,2*%
%TO.N,VDD3P3*%
X158817500Y-94587500D03*
%TD*%
D23*
%TO.P,S4,1,solder*%
%TO.N,5VBUCK*%
X140240000Y-109110000D03*
%TD*%
D18*
%TO.P,C11,1*%
%TO.N,GND*%
X163597500Y-100840000D03*
%TO.P,C11,2*%
%TO.N,Net-(U2-XTAL_P)*%
X162462500Y-100840000D03*
%TD*%
D13*
%TO.P,C16,1*%
%TO.N,GND*%
X153765000Y-100112500D03*
%TO.P,C16,2*%
%TO.N,3V3*%
X153765000Y-98977500D03*
%TD*%
D24*
%TO.P,R2,1*%
%TO.N,Net-(R1-Pad2)*%
X141260000Y-100177500D03*
%TO.P,R2,2*%
%TO.N,Net-(U1-FB)*%
X141260000Y-102002500D03*
%TD*%
D18*
%TO.P,C12,1*%
%TO.N,Net-(U2-XTAL_N)*%
X163070000Y-104780000D03*
%TO.P,C12,2*%
%TO.N,GND*%
X161935000Y-104780000D03*
%TD*%
%TO.P,C20,1*%
%TO.N,EN*%
X156485000Y-95815000D03*
%TO.P,C20,2*%
%TO.N,GND*%
X155350000Y-95815000D03*
%TD*%
%TO.P,C15,1*%
%TO.N,GND*%
X163667500Y-98550000D03*
%TO.P,C15,2*%
%TO.N,3V3*%
X162532500Y-98550000D03*
%TD*%
D25*
%TO.P,IC1,1,VCCA*%
%TO.N,3V3*%
X154332200Y-106330000D03*
%TO.P,IC1,2,A1*%
%TO.N,LEDDATA*%
X154332200Y-106980000D03*
%TO.P,IC1,3,A2*%
%TO.N,GPIO4*%
X154332200Y-107630000D03*
%TO.P,IC1,4,A3*%
%TO.N,unconnected-(IC1-A3-Pad4)*%
X154332200Y-108280000D03*
%TO.P,IC1,5,A4*%
%TO.N,unconnected-(IC1-A4-Pad5)*%
X154332200Y-108930000D03*
%TO.P,IC1,6*%
%TO.N,N/C*%
X154332200Y-109580000D03*
%TO.P,IC1,7,GND*%
%TO.N,GND*%
X154332200Y-110230000D03*
%TO.P,IC1,8,EN*%
%TO.N,3V3*%
X160167800Y-110230000D03*
%TO.P,IC1,9*%
%TO.N,N/C*%
X160167800Y-109580000D03*
%TO.P,IC1,10,Y4*%
%TO.N,unconnected-(IC1-Y4-Pad10)*%
X160167800Y-108930000D03*
%TO.P,IC1,11,Y3*%
%TO.N,unconnected-(IC1-Y3-Pad11)*%
X160167800Y-108280000D03*
%TO.P,IC1,12,Y2*%
%TO.N,GPIO45V*%
X160167800Y-107630000D03*
%TO.P,IC1,13,Y1*%
%TO.N,LEDDATA5V*%
X160167800Y-106980000D03*
%TO.P,IC1,14,VCCY*%
%TO.N,5V*%
X160167800Y-106330000D03*
%TD*%
D26*
%TO.P,S8,1,solder*%
%TO.N,GPIO4*%
X161760000Y-110130000D03*
%TD*%
D27*
%TO.P,J1,1,VBUS*%
%TO.N,5VUSB*%
X141770000Y-94540000D03*
%TO.P,J1,2,D-*%
%TO.N,Net-(J1-D-)*%
X141120000Y-94540000D03*
%TO.P,J1,3,D+*%
%TO.N,Net-(J1-D+)*%
X140470000Y-94540000D03*
%TO.P,J1,4,ID*%
%TO.N,unconnected-(J1-ID-Pad4)*%
X139820000Y-94540000D03*
%TO.P,J1,5,GND*%
%TO.N,GND*%
X139170000Y-94540000D03*
D28*
%TO.P,J1,6,Shield*%
X143970000Y-91840000D03*
D29*
X143495000Y-91840000D03*
D30*
X142970000Y-94540000D03*
D31*
X141470000Y-91840000D03*
X139470000Y-91840000D03*
D30*
X137970000Y-94540000D03*
D29*
X137445000Y-91840000D03*
D28*
X136970000Y-91840000D03*
%TD*%
D32*
%TO.P,C4,1*%
%TO.N,Net-(U1-SS)*%
X143387500Y-100140000D03*
%TO.P,C4,2*%
%TO.N,GND*%
X146512500Y-100140000D03*
%TD*%
D14*
%TO.P,S1,1,solder*%
%TO.N,+BATT*%
X137600000Y-109390000D03*
%TD*%
D15*
%TO.P,S3,1,solder*%
%TO.N,PWM*%
X163590000Y-106390000D03*
%TD*%
D18*
%TO.P,C19,1*%
%TO.N,VDD3P3*%
X158835000Y-95755000D03*
%TO.P,C19,2*%
%TO.N,GND*%
X157700000Y-95755000D03*
%TD*%
D33*
%TO.P,TP1,1,1*%
%TO.N,BOOT*%
X151720000Y-99520000D03*
%TD*%
D14*
%TO.P,S2,1,solder*%
%TO.N,GND*%
X137560000Y-106890000D03*
%TD*%
D13*
%TO.P,C10,1*%
%TO.N,GND*%
X149275000Y-94597500D03*
%TO.P,C10,2*%
%TO.N,5V*%
X149275000Y-93462500D03*
%TD*%
D18*
%TO.P,C13,1*%
%TO.N,GND*%
X157302500Y-103675000D03*
%TO.P,C13,2*%
%TO.N,3V3*%
X156167500Y-103675000D03*
%TD*%
D34*
%TO.P,D1,1*%
%TO.N,5VUSB*%
X145930000Y-97045000D03*
%TO.P,D1,2*%
%TO.N,5VBUCK*%
X147830000Y-97045000D03*
%TO.P,D1,3*%
%TO.N,5V*%
X146880000Y-95170000D03*
%TD*%
D18*
%TO.P,C14,1*%
%TO.N,GND*%
X163637500Y-99700000D03*
%TO.P,C14,2*%
%TO.N,3V3*%
X162502500Y-99700000D03*
%TD*%
D35*
%TO.P,R3,1*%
%TO.N,Net-(U1-FB)*%
X139340000Y-101930000D03*
%TO.P,R3,2*%
%TO.N,GND*%
X137515000Y-101930000D03*
%TD*%
D36*
%TO.P,U1,1,RT*%
%TO.N,unconnected-(U1-RT-Pad1)*%
X143020000Y-105210000D03*
%TO.P,U1,2,EN*%
%TO.N,unconnected-(U1-EN-Pad2)*%
X143520000Y-105210000D03*
%TO.P,U1,3,VIN*%
%TO.N,+BATT*%
X144020000Y-105210000D03*
%TO.P,U1,4,GND*%
%TO.N,GND*%
X144520000Y-105210000D03*
%TO.P,U1,5,SW*%
%TO.N,Net-(U1-SW)*%
X144520000Y-103730000D03*
%TO.P,U1,6,BST*%
%TO.N,Net-(U1-BST)*%
X144020000Y-103730000D03*
%TO.P,U1,7,SS*%
%TO.N,Net-(U1-SS)*%
X143520000Y-103730000D03*
%TO.P,U1,8,FB*%
%TO.N,Net-(U1-FB)*%
X143020000Y-103730000D03*
%TD*%
D20*
%TO.P,C1,1*%
%TO.N,+BATT*%
X141132500Y-106285000D03*
%TO.P,C1,2*%
%TO.N,GND*%
X139407500Y-106285000D03*
%TD*%
%TO.P,C17,1*%
%TO.N,3V3*%
X158795000Y-91980000D03*
%TO.P,C17,2*%
%TO.N,GND*%
X157070000Y-91980000D03*
%TD*%
D37*
%TO.P,L1,1*%
%TO.N,Net-(U1-SW)*%
X149220000Y-103220000D03*
%TO.P,L1,2*%
%TO.N,5VBUCK*%
X149220000Y-108670000D03*
%TD*%
D38*
%TO.P,R1,1*%
%TO.N,5VBUCK*%
X138572500Y-100300000D03*
%TO.P,R1,2*%
%TO.N,Net-(R1-Pad2)*%
X139767500Y-100300000D03*
%TD*%
D39*
%TO.P,R7,1*%
%TO.N,BOOT*%
X153790000Y-101290000D03*
%TO.P,R7,2*%
%TO.N,3V3*%
X153790000Y-102310000D03*
%TD*%
D40*
%TO.P,ANT1,1,FEED*%
%TO.N,Net-(ANT1-FEED)*%
X162700000Y-96840000D03*
%TO.P,ANT1,2,NC*%
%TO.N,unconnected-(ANT1-NC-Pad2)*%
X162700000Y-91640000D03*
%TD*%
D18*
%TO.P,C3,1*%
%TO.N,+BATT*%
X141405000Y-103235000D03*
%TO.P,C3,2*%
%TO.N,GND*%
X140270000Y-103235000D03*
%TD*%
D41*
%TO.P,U2,1,LNA_IN*%
%TO.N,Net-(ANT1-FEED)*%
X159560000Y-97390000D03*
%TO.P,U2,2,VDD3P3*%
%TO.N,VDD3P3*%
X159060000Y-97390000D03*
%TO.P,U2,3,VDD3P3*%
X158560000Y-97390000D03*
%TO.P,U2,4,XTAL_32K_P*%
%TO.N,unconnected-(U2-XTAL_32K_P-Pad4)*%
X158060000Y-97390000D03*
%TO.P,U2,5,XTAL_32K_N*%
%TO.N,unconnected-(U2-XTAL_32K_N-Pad5)*%
X157560000Y-97390000D03*
%TO.P,U2,6,GPIO2*%
%TO.N,PWM*%
X157060000Y-97390000D03*
%TO.P,U2,7,CHIP_EN*%
%TO.N,EN*%
X156560000Y-97390000D03*
%TO.P,U2,8,GPIO3*%
%TO.N,LEDDATA*%
X156060000Y-97390000D03*
D42*
%TO.P,U2,9,MTMS*%
%TO.N,GPIO4*%
X155360000Y-98090000D03*
%TO.P,U2,10,MTDI*%
%TO.N,unconnected-(U2-MTDI-Pad10)*%
X155360000Y-98590000D03*
%TO.P,U2,11,VDD3P3_RTC*%
%TO.N,3V3*%
X155360000Y-99090000D03*
%TO.P,U2,12,MTCK*%
%TO.N,unconnected-(U2-MTCK-Pad12)*%
X155360000Y-99590000D03*
%TO.P,U2,13,MTDO*%
%TO.N,unconnected-(U2-MTDO-Pad13)*%
X155360000Y-100090000D03*
%TO.P,U2,14,GPIO8*%
%TO.N,unconnected-(U2-GPIO8-Pad14)*%
X155360000Y-100590000D03*
%TO.P,U2,15,GPIO9*%
%TO.N,BOOT*%
X155360000Y-101090000D03*
%TO.P,U2,16,GPIO10*%
%TO.N,unconnected-(U2-GPIO10-Pad16)*%
X155360000Y-101590000D03*
D41*
%TO.P,U2,17,VDD3P3_CPU*%
%TO.N,3V3*%
X156060000Y-102290000D03*
%TO.P,U2,18,VDD_SPI*%
%TO.N,unconnected-(U2-VDD_SPI-Pad18)*%
X156560000Y-102290000D03*
%TO.P,U2,19,SPIHD*%
%TO.N,unconnected-(U2-SPIHD-Pad19)*%
X157060000Y-102290000D03*
%TO.P,U2,20,SPIWP*%
%TO.N,unconnected-(U2-SPIWP-Pad20)*%
X157560000Y-102290000D03*
%TO.P,U2,21,SPICS0*%
%TO.N,unconnected-(U2-SPICS0-Pad21)*%
X158060000Y-102290000D03*
%TO.P,U2,22,SPICLK*%
%TO.N,unconnected-(U2-SPICLK-Pad22)*%
X158560000Y-102290000D03*
%TO.P,U2,23,SPID*%
%TO.N,unconnected-(U2-SPID-Pad23)*%
X159060000Y-102290000D03*
%TO.P,U2,24,SPIQ*%
%TO.N,unconnected-(U2-SPIQ-Pad24)*%
X159560000Y-102290000D03*
D42*
%TO.P,U2,25,GPIO18*%
%TO.N,D-*%
X160260000Y-101590000D03*
%TO.P,U2,26,GPIO19*%
%TO.N,D+*%
X160260000Y-101090000D03*
%TO.P,U2,27,U0RXD*%
%TO.N,unconnected-(U2-U0RXD-Pad27)*%
X160260000Y-100590000D03*
%TO.P,U2,28,U0TXD*%
%TO.N,unconnected-(U2-U0TXD-Pad28)*%
X160260000Y-100090000D03*
%TO.P,U2,29,XTAL_N*%
%TO.N,Net-(U2-XTAL_N)*%
X160260000Y-99590000D03*
%TO.P,U2,30,XTAL_P*%
%TO.N,Net-(U2-XTAL_P)*%
X160260000Y-99090000D03*
%TO.P,U2,31,VDDA*%
%TO.N,3V3*%
X160260000Y-98590000D03*
%TO.P,U2,32,VDDA*%
X160260000Y-98090000D03*
D43*
%TO.P,U2,33,GND*%
%TO.N,GND*%
X157810000Y-99840000D03*
%TD*%
D17*
%TO.P,C22,1*%
%TO.N,GND*%
X158870000Y-105050000D03*
%TO.P,C22,2*%
%TO.N,5V*%
X160005000Y-105050000D03*
%TD*%
D44*
%TO.P,C9,1*%
%TO.N,3V3*%
X155372500Y-93485000D03*
%TO.P,C9,2*%
%TO.N,GND*%
X155372500Y-94620000D03*
%TD*%
%TO.P,C18,1*%
%TO.N,3V3*%
X157712500Y-93362500D03*
%TO.P,C18,2*%
%TO.N,GND*%
X157712500Y-94497500D03*
%TD*%
D11*
%TO.P,C7,1*%
%TO.N,5VBUCK*%
X143120000Y-109317500D03*
%TO.P,C7,2*%
%TO.N,GND*%
X143120000Y-107592500D03*
%TD*%
D45*
%TO.N,GND*%
X145000000Y-99000000D03*
X156410000Y-105790000D03*
X154442861Y-94585754D03*
X155600000Y-110190000D03*
D46*
X152990000Y-99910000D03*
D45*
X150000000Y-97000000D03*
D46*
X157690000Y-94980000D03*
D45*
X138180000Y-105180000D03*
X145830000Y-106430000D03*
D46*
X157810000Y-99840000D03*
D45*
%TO.N,3V3*%
X154380000Y-103070000D03*
D46*
X152960000Y-98730000D03*
X155332500Y-92280000D03*
D45*
X161700000Y-98300000D03*
%TO.N,5V*%
X147000000Y-93000000D03*
X161000000Y-106000000D03*
D46*
%TO.N,LEDDATA*%
X153500000Y-104090000D03*
X155260000Y-97270000D03*
%TO.N,D-*%
X140120000Y-99490000D03*
X160260000Y-102320000D03*
%TO.N,D+*%
X139970000Y-98730000D03*
X160875000Y-101080000D03*
%TO.N,PWM*%
X157200000Y-96515000D03*
X162190000Y-106460000D03*
%TD*%
D47*
%TO.N,Net-(U1-SW)*%
X144520000Y-103125000D02*
X145135000Y-102510000D01*
X144520000Y-103730000D02*
X144520000Y-103125000D01*
%TO.N,BOOT*%
X153990000Y-101090000D02*
X155360000Y-101090000D01*
X153790000Y-101290000D02*
X153990000Y-101090000D01*
%TO.N,Net-(ANT1-FEED)*%
X160110000Y-96840000D02*
X162700000Y-96840000D01*
X159560000Y-97390000D02*
X160110000Y-96840000D01*
D48*
%TO.N,+BATT*%
X137600000Y-109160000D02*
X139160000Y-107600000D01*
X141405000Y-104295000D02*
X141405000Y-103235000D01*
X141132500Y-104652500D02*
X141090000Y-104610000D01*
D49*
X144020000Y-105647930D02*
X143382930Y-106285000D01*
X144020000Y-105210000D02*
X144020000Y-105647930D01*
D48*
X139160000Y-107600000D02*
X139817500Y-107600000D01*
X141090000Y-104610000D02*
X141405000Y-104295000D01*
X141132500Y-106285000D02*
X141132500Y-104652500D01*
D49*
X143382930Y-106285000D02*
X141132500Y-106285000D01*
D48*
X139817500Y-107600000D02*
X141132500Y-106285000D01*
%TO.N,GND*%
X139365000Y-104610000D02*
X139365000Y-104140000D01*
D47*
X155987500Y-104990000D02*
X155460000Y-104990000D01*
D49*
X149275000Y-95275000D02*
X149275000Y-94597500D01*
D48*
X143120000Y-107592500D02*
X144695000Y-107592500D01*
D47*
X163667500Y-98550000D02*
X163667500Y-99670000D01*
D48*
X139407500Y-104652500D02*
X139365000Y-104610000D01*
D47*
X153765000Y-100112500D02*
X153192500Y-100112500D01*
X163940000Y-101182500D02*
X163940000Y-104940000D01*
D49*
X149275000Y-94597500D02*
X150812500Y-94597500D01*
D47*
X163380000Y-105500000D02*
X162655000Y-105500000D01*
X163940000Y-104940000D02*
X163380000Y-105500000D01*
D48*
X144695000Y-107592500D02*
X144770000Y-107517500D01*
D47*
X155460000Y-104990000D02*
X155610000Y-104990000D01*
D48*
X139407500Y-106285000D02*
X139407500Y-104652500D01*
X138165000Y-106285000D02*
X139407500Y-106285000D01*
D49*
X157700000Y-95755000D02*
X157700000Y-94990000D01*
D47*
X159580000Y-104340000D02*
X158870000Y-105050000D01*
D49*
X155338254Y-94585754D02*
X155372500Y-94620000D01*
D48*
X137560000Y-106890000D02*
X138165000Y-106285000D01*
D49*
X157690000Y-94520000D02*
X157712500Y-94497500D01*
D47*
X163667500Y-99670000D02*
X163637500Y-99700000D01*
X155610000Y-104990000D02*
X156410000Y-105790000D01*
D48*
X142030000Y-108090000D02*
X142622500Y-108090000D01*
D49*
X155372500Y-94620000D02*
X155372500Y-95792500D01*
D47*
X158677500Y-105050000D02*
X157302500Y-103675000D01*
X154372200Y-110190000D02*
X154332200Y-110230000D01*
D49*
X151040000Y-94370000D02*
X151115000Y-94370000D01*
D48*
X138180000Y-105180000D02*
X137560000Y-105800000D01*
D47*
X163597500Y-100840000D02*
X163940000Y-101182500D01*
D48*
X142622500Y-108090000D02*
X143120000Y-107592500D01*
D49*
X155372500Y-95792500D02*
X155350000Y-95815000D01*
X154442861Y-94585754D02*
X155338254Y-94585754D01*
D48*
X140270000Y-103235000D02*
X138820000Y-103235000D01*
D47*
X163637500Y-99700000D02*
X163637500Y-100800000D01*
X158870000Y-105050000D02*
X158677500Y-105050000D01*
X162655000Y-105500000D02*
X161935000Y-104780000D01*
D49*
X146512500Y-100140000D02*
X146140000Y-100140000D01*
D47*
X163637500Y-100800000D02*
X163597500Y-100840000D01*
D48*
X144770000Y-107490000D02*
X145830000Y-106430000D01*
D49*
X146140000Y-100140000D02*
X145000000Y-99000000D01*
D48*
X137445000Y-91840000D02*
X143495000Y-91840000D01*
D47*
X155600000Y-110190000D02*
X154372200Y-110190000D01*
D49*
X157700000Y-94990000D02*
X157690000Y-94980000D01*
X157690000Y-94980000D02*
X157690000Y-94520000D01*
D48*
X139365000Y-104140000D02*
X140270000Y-103235000D01*
D49*
X151000000Y-97000000D02*
X149275000Y-95275000D01*
D48*
X138750000Y-104610000D02*
X139365000Y-104610000D01*
X144770000Y-107517500D02*
X144770000Y-107490000D01*
D47*
X153192500Y-100112500D02*
X152990000Y-99910000D01*
D48*
X138180000Y-105180000D02*
X138180000Y-104760000D01*
D47*
X157302500Y-103675000D02*
X155987500Y-104990000D01*
D48*
X138820000Y-103235000D02*
X137515000Y-101930000D01*
X137560000Y-105800000D02*
X137560000Y-106890000D01*
D47*
X161495000Y-104340000D02*
X159580000Y-104340000D01*
X144610000Y-105210000D02*
X145830000Y-106430000D01*
D48*
X138180000Y-105180000D02*
X138750000Y-104610000D01*
D47*
X161935000Y-104780000D02*
X161495000Y-104340000D01*
D49*
X155357500Y-95975000D02*
X154332500Y-97000000D01*
X150812500Y-94597500D02*
X151040000Y-94370000D01*
X151000000Y-97000000D02*
X150000000Y-97000000D01*
D48*
X138180000Y-104760000D02*
X137560000Y-104140000D01*
D47*
X144520000Y-105210000D02*
X144610000Y-105210000D01*
D48*
X141770000Y-108350000D02*
X142030000Y-108090000D01*
D49*
X154332500Y-97000000D02*
X151000000Y-97000000D01*
D47*
%TO.N,Net-(U1-SS)*%
X143250000Y-100277500D02*
X143387500Y-100140000D01*
X143520000Y-103730000D02*
X143520000Y-103395000D01*
X143520000Y-103395000D02*
X143250000Y-103125000D01*
X143250000Y-103125000D02*
X143250000Y-100277500D01*
%TO.N,Net-(U1-BST)*%
X144000000Y-103710000D02*
X144020000Y-103730000D01*
X144000000Y-102510000D02*
X144000000Y-103710000D01*
D48*
%TO.N,5VBUCK*%
X144527500Y-109485000D02*
X144770000Y-109242500D01*
X140615000Y-109485000D02*
X141770000Y-109485000D01*
X148647500Y-109242500D02*
X149220000Y-108670000D01*
X141770000Y-109485000D02*
X144527500Y-109485000D01*
X149220000Y-108670000D02*
X151820000Y-106070000D01*
X147830000Y-97970000D02*
X147830000Y-97045000D01*
X144770000Y-109242500D02*
X148647500Y-109242500D01*
D47*
X136910000Y-110540000D02*
X138810000Y-110540000D01*
X138810000Y-110540000D02*
X140240000Y-109110000D01*
D48*
X151820000Y-106070000D02*
X151820000Y-101960000D01*
X151820000Y-101960000D02*
X147830000Y-97970000D01*
X140240000Y-109110000D02*
X140615000Y-109485000D01*
D47*
X136650000Y-100300000D02*
X136415000Y-100535000D01*
X136415000Y-100535000D02*
X136415000Y-110045000D01*
X136415000Y-110045000D02*
X136910000Y-110540000D01*
X138572500Y-100300000D02*
X136650000Y-100300000D01*
D49*
%TO.N,3V3*%
X158817500Y-93442500D02*
X158817500Y-92002500D01*
X157587500Y-93487500D02*
X157712500Y-93362500D01*
X158817500Y-92002500D02*
X158795000Y-91980000D01*
D47*
X162502500Y-98580000D02*
X162532500Y-98550000D01*
D49*
X153605000Y-93430000D02*
X155165000Y-93430000D01*
X155157500Y-93270000D02*
X155372500Y-93485000D01*
D47*
X161490000Y-98090000D02*
X160260000Y-98090000D01*
X153810000Y-102290000D02*
X153790000Y-102310000D01*
X155640000Y-103675000D02*
X154325000Y-104990000D01*
X160167800Y-110230000D02*
X159460000Y-110230000D01*
X153765000Y-98977500D02*
X155247500Y-98977500D01*
X161700000Y-98300000D02*
X161950000Y-98550000D01*
X156167500Y-103675000D02*
X155640000Y-103675000D01*
X153790000Y-102310000D02*
X153790000Y-102480000D01*
D49*
X156497500Y-93487500D02*
X157587500Y-93487500D01*
D47*
X161950000Y-98550000D02*
X162532500Y-98550000D01*
X153207500Y-98977500D02*
X152960000Y-98730000D01*
X155560000Y-106330000D02*
X154332200Y-106330000D01*
X160300000Y-98550000D02*
X160260000Y-98590000D01*
X159460000Y-110230000D02*
X155560000Y-106330000D01*
X153765000Y-98977500D02*
X153207500Y-98977500D01*
X156167500Y-103675000D02*
X156167500Y-102397500D01*
X154325000Y-106322800D02*
X154332200Y-106330000D01*
D49*
X155372500Y-93485000D02*
X156495000Y-93485000D01*
X158737500Y-93362500D02*
X158817500Y-93442500D01*
D47*
X156060000Y-102290000D02*
X153810000Y-102290000D01*
X162532500Y-98550000D02*
X160300000Y-98550000D01*
D49*
X157712500Y-93362500D02*
X158737500Y-93362500D01*
D47*
X155332500Y-93445000D02*
X155372500Y-93485000D01*
X155332500Y-92280000D02*
X155332500Y-93445000D01*
X155247500Y-98977500D02*
X155360000Y-99090000D01*
X156167500Y-102397500D02*
X156060000Y-102290000D01*
X153790000Y-102480000D02*
X154380000Y-103070000D01*
D49*
X156495000Y-93485000D02*
X156497500Y-93487500D01*
D47*
X161700000Y-98300000D02*
X161490000Y-98090000D01*
X162502500Y-99700000D02*
X162502500Y-98580000D01*
X154325000Y-104990000D02*
X154325000Y-106322800D01*
%TO.N,5V*%
X160005000Y-105050000D02*
X160050000Y-105050000D01*
X147000000Y-93000000D02*
X147000000Y-95050000D01*
D49*
X149275000Y-93462500D02*
X151082500Y-93462500D01*
X146880000Y-95170000D02*
X146880000Y-93950000D01*
D47*
X160167800Y-105212800D02*
X160005000Y-105050000D01*
D49*
X151724999Y-93430000D02*
X152270000Y-93975001D01*
X151780000Y-95310000D02*
X151115000Y-95310000D01*
D47*
X160050000Y-105050000D02*
X161000000Y-106000000D01*
D49*
X152270000Y-94820000D02*
X151780000Y-95310000D01*
X151115000Y-93430000D02*
X151724999Y-93430000D01*
X147367500Y-93462500D02*
X149275000Y-93462500D01*
X152270000Y-93975001D02*
X152270000Y-94820000D01*
D47*
X160167800Y-106330000D02*
X160167800Y-105212800D01*
D49*
X151082500Y-93462500D02*
X151115000Y-93430000D01*
X146880000Y-93950000D02*
X147367500Y-93462500D01*
D47*
X147000000Y-95050000D02*
X146880000Y-95170000D01*
%TO.N,Net-(U2-XTAL_P)*%
X162050000Y-102265000D02*
X162050000Y-101252500D01*
X161700000Y-99160000D02*
X161630000Y-99090000D01*
X162462500Y-100840000D02*
X161700000Y-100077500D01*
X161630000Y-99090000D02*
X160260000Y-99090000D01*
X161700000Y-100077500D02*
X161700000Y-99160000D01*
X162050000Y-101252500D02*
X162462500Y-100840000D01*
%TO.N,Net-(U2-XTAL_N)*%
X162520000Y-102930000D02*
X161420000Y-102930000D01*
X161360000Y-99890000D02*
X161060000Y-99590000D01*
X161060000Y-99590000D02*
X160260000Y-99590000D01*
X163070000Y-104780000D02*
X163070000Y-103635000D01*
X163070000Y-103635000D02*
X163050000Y-103615000D01*
X161390000Y-100248333D02*
X161360000Y-100218333D01*
X161360000Y-100218333D02*
X161360000Y-99890000D01*
X161420000Y-102930000D02*
X161390000Y-102900000D01*
X163050000Y-103615000D02*
X163050000Y-103460000D01*
X161390000Y-102900000D02*
X161390000Y-100248333D01*
X163050000Y-103460000D02*
X162520000Y-102930000D01*
D49*
%TO.N,VDD3P3*%
X158817500Y-94587500D02*
X158817500Y-95737500D01*
X158842500Y-97172500D02*
X159060000Y-97390000D01*
X158777500Y-97172500D02*
X158560000Y-97390000D01*
X158842500Y-95915000D02*
X158842500Y-97172500D01*
X158817500Y-95737500D02*
X158835000Y-95755000D01*
X158842500Y-97172500D02*
X158777500Y-97172500D01*
D47*
%TO.N,EN*%
X156497500Y-94682500D02*
X156497500Y-95802500D01*
X156492500Y-97322500D02*
X156560000Y-97390000D01*
X156497500Y-95802500D02*
X156485000Y-95815000D01*
X156492500Y-95975000D02*
X156492500Y-97322500D01*
D49*
%TO.N,5VUSB*%
X141770000Y-95214999D02*
X143600001Y-97045000D01*
X143600001Y-97045000D02*
X145930000Y-97045000D01*
X141770000Y-94540000D02*
X141770000Y-95214999D01*
D47*
%TO.N,LEDDATA*%
X153400000Y-104190000D02*
X153500000Y-104090000D01*
X153400000Y-105890000D02*
X153400000Y-104190000D01*
X155260000Y-97270000D02*
X155940000Y-97270000D01*
X155940000Y-97270000D02*
X156060000Y-97390000D01*
X153720000Y-106980000D02*
X153700000Y-106960000D01*
X153700000Y-106960000D02*
X153400000Y-106660000D01*
X153400000Y-106660000D02*
X153400000Y-105890000D01*
X154332200Y-106980000D02*
X153720000Y-106980000D01*
%TO.N,GPIO4*%
X150910000Y-98960000D02*
X151780000Y-98090000D01*
D10*
X161740000Y-109970000D02*
X161000000Y-110710000D01*
D47*
X152870000Y-106930000D02*
X152870000Y-101870000D01*
X152870000Y-101870000D02*
X150910000Y-99910000D01*
X154332200Y-107630000D02*
X153570000Y-107630000D01*
X150910000Y-99910000D02*
X150910000Y-98960000D01*
D10*
X161000000Y-110710000D02*
X159060000Y-110710000D01*
D47*
X151780000Y-98090000D02*
X155360000Y-98090000D01*
X153570000Y-107630000D02*
X152870000Y-106930000D01*
D10*
X159060000Y-110710000D02*
X155980000Y-107630000D01*
X155980000Y-107630000D02*
X154332200Y-107630000D01*
D47*
%TO.N,LEDDATA5V*%
X163400000Y-108300000D02*
X163680000Y-108020000D01*
X163680000Y-108020000D02*
X163680000Y-107870000D01*
X163680000Y-107870000D02*
X163119167Y-107870000D01*
X162229167Y-106980000D02*
X160167800Y-106980000D01*
X163119167Y-107870000D02*
X162229167Y-106980000D01*
%TO.N,GPIO45V*%
X163230000Y-109780000D02*
X161080000Y-107630000D01*
X163600000Y-109780000D02*
X163230000Y-109780000D01*
X161080000Y-107630000D02*
X160167800Y-107630000D01*
%TO.N,Net-(J1-D-)*%
X141120000Y-94540000D02*
X141120000Y-96192500D01*
X141120000Y-96192500D02*
X141440000Y-96512500D01*
%TO.N,Net-(J1-D+)*%
X140470000Y-94540000D02*
X140470000Y-96395000D01*
X140470000Y-96395000D02*
X140260000Y-96605000D01*
%TO.N,Net-(R1-Pad2)*%
X141260000Y-100177500D02*
X139890000Y-100177500D01*
X139890000Y-100177500D02*
X139767500Y-100300000D01*
%TO.N,Net-(U1-FB)*%
X143020000Y-103730000D02*
X142987500Y-103730000D01*
X141260000Y-102002500D02*
X139412500Y-102002500D01*
X139412500Y-102002500D02*
X139340000Y-101930000D01*
X142987500Y-103730000D02*
X141260000Y-102002500D01*
%TO.N,D-*%
X141440000Y-98448320D02*
X141440000Y-97707500D01*
X140135000Y-99475000D02*
X140413320Y-99475000D01*
X140413320Y-99475000D02*
X141440000Y-98448320D01*
X160260000Y-101590000D02*
X160260000Y-102320000D01*
X140120000Y-99490000D02*
X140135000Y-99475000D01*
%TO.N,D+*%
X160865000Y-101090000D02*
X160875000Y-101080000D01*
X160260000Y-101090000D02*
X160865000Y-101090000D01*
X140260000Y-98440000D02*
X140260000Y-97800000D01*
X139970000Y-98730000D02*
X140260000Y-98440000D01*
%TO.N,PWM*%
X163300000Y-106790000D02*
X163380000Y-106710000D01*
X157060000Y-96655000D02*
X157200000Y-96515000D01*
X162520000Y-106790000D02*
X163300000Y-106790000D01*
X162190000Y-106460000D02*
X162520000Y-106790000D01*
X157060000Y-97390000D02*
X157060000Y-96655000D01*
%TO.N,BOOT*%
X153490000Y-101290000D02*
X151720000Y-99520000D01*
X153790000Y-101290000D02*
X153490000Y-101290000D01*
%TD*%
%TA.AperFunction,Conductor*%
%TO.N,GND*%
G36*
X155746942Y-108250185D02*
G01*
X155767584Y-108266819D01*
X158168583Y-110667819D01*
X158202068Y-110729142D01*
X158197084Y-110798834D01*
X158155212Y-110854767D01*
X158089748Y-110879184D01*
X158080902Y-110879500D01*
X155327674Y-110879500D01*
X155260635Y-110859815D01*
X155214880Y-110807011D01*
X155204936Y-110737853D01*
X155228408Y-110681189D01*
X155270850Y-110624493D01*
X155270854Y-110624486D01*
X155321096Y-110489779D01*
X155321098Y-110489772D01*
X155327499Y-110430244D01*
X155327500Y-110430227D01*
X155327500Y-110382400D01*
X155166935Y-110382400D01*
X155099896Y-110362715D01*
X155054141Y-110309911D01*
X155044197Y-110240753D01*
X155073222Y-110177197D01*
X155092624Y-110159133D01*
X155168499Y-110102333D01*
X155233963Y-110077916D01*
X155242810Y-110077600D01*
X155327500Y-110077600D01*
X155327500Y-110029772D01*
X155327499Y-110029755D01*
X155321098Y-109970223D01*
X155313200Y-109949049D01*
X155308214Y-109879357D01*
X155313199Y-109862382D01*
X155321591Y-109839883D01*
X155328000Y-109780273D01*
X155327999Y-109379728D01*
X155321591Y-109320117D01*
X155313465Y-109298333D01*
X155308480Y-109228644D01*
X155313461Y-109211679D01*
X155321591Y-109189883D01*
X155328000Y-109130273D01*
X155327999Y-108729728D01*
X155321591Y-108670117D01*
X155313465Y-108648333D01*
X155308480Y-108578644D01*
X155313461Y-108561679D01*
X155321591Y-108539883D01*
X155328000Y-108480273D01*
X155327999Y-108354499D01*
X155347683Y-108287461D01*
X155400487Y-108241706D01*
X155451999Y-108230500D01*
X155679903Y-108230500D01*
X155746942Y-108250185D01*
G37*
%TD.AperFunction*%
%TA.AperFunction,Conductor*%
G36*
X160749246Y-103043599D02*
G01*
X160794463Y-103096864D01*
X160795706Y-103099761D01*
X160797663Y-103104484D01*
X160797666Y-103104500D01*
X160797669Y-103104499D01*
X160827288Y-103176006D01*
X160835688Y-103196286D01*
X160855732Y-103226283D01*
X160855733Y-103226286D01*
X160855734Y-103226286D01*
X160904140Y-103298731D01*
X160904141Y-103298732D01*
X160904142Y-103298733D01*
X160934142Y-103328733D01*
X161021267Y-103415858D01*
X161021269Y-103415860D01*
X161021271Y-103415861D01*
X161094064Y-103464500D01*
X161098475Y-103467447D01*
X161123714Y-103484311D01*
X161123717Y-103484312D01*
X161129092Y-103487186D01*
X161128435Y-103488414D01*
X161177356Y-103527837D01*
X161199421Y-103594132D01*
X161199500Y-103598557D01*
X161199500Y-104037870D01*
X161199501Y-104037876D01*
X161205908Y-104097483D01*
X161211356Y-104112088D01*
X161216340Y-104181780D01*
X161201907Y-104218541D01*
X161116591Y-104362804D01*
X161116591Y-104362805D01*
X161070422Y-104521716D01*
X161070421Y-104521722D01*
X161067500Y-104558842D01*
X161067500Y-104599909D01*
X161047815Y-104666948D01*
X160995011Y-104712703D01*
X160925853Y-104722647D01*
X160862297Y-104693622D01*
X160827528Y-104639521D01*
X160826970Y-104639763D01*
X160825497Y-104636359D01*
X160824523Y-104634844D01*
X160824424Y-104634506D01*
X160824164Y-104633614D01*
X160823870Y-104632600D01*
X160754649Y-104515555D01*
X160739565Y-104490049D01*
X160739558Y-104490040D01*
X160622459Y-104372941D01*
X160622450Y-104372934D01*
X160480681Y-104289092D01*
X160479900Y-104288630D01*
X160479899Y-104288629D01*
X160479898Y-104288629D01*
X160479895Y-104288628D01*
X160320862Y-104242424D01*
X160320856Y-104242423D01*
X160283703Y-104239500D01*
X159726309Y-104239500D01*
X159726284Y-104239501D01*
X159689141Y-104242424D01*
X159530104Y-104288628D01*
X159530096Y-104288631D01*
X159500127Y-104306355D01*
X159432403Y-104323536D01*
X159373889Y-104306355D01*
X159344699Y-104289093D01*
X159344694Y-104289091D01*
X159185783Y-104242922D01*
X159185777Y-104242921D01*
X159148657Y-104240000D01*
X159120000Y-104240000D01*
X159120000Y-105860000D01*
X159137382Y-105877382D01*
X159145223Y-105879685D01*
X159190978Y-105932489D01*
X159200922Y-106001647D01*
X159194366Y-106027333D01*
X159190034Y-106038950D01*
X159178409Y-106070117D01*
X159172000Y-106129727D01*
X159172000Y-106129734D01*
X159172000Y-106129735D01*
X159172000Y-106530270D01*
X159172001Y-106530276D01*
X159178408Y-106589883D01*
X159186534Y-106611669D01*
X159191517Y-106681361D01*
X159186534Y-106698331D01*
X159180926Y-106713368D01*
X159178409Y-106720117D01*
X159172000Y-106779727D01*
X159172000Y-106779734D01*
X159172000Y-106779735D01*
X159172000Y-107180270D01*
X159172001Y-107180276D01*
X159178408Y-107239883D01*
X159186534Y-107261669D01*
X159191517Y-107331361D01*
X159186534Y-107348331D01*
X159182282Y-107359732D01*
X159178409Y-107370117D01*
X159172000Y-107429727D01*
X159172000Y-107429734D01*
X159172000Y-107429735D01*
X159172000Y-107830270D01*
X159172001Y-107830276D01*
X159178408Y-107889883D01*
X159186534Y-107911669D01*
X159191517Y-107981361D01*
X159186534Y-107998331D01*
X159178410Y-108020113D01*
X159178409Y-108020117D01*
X159172000Y-108079727D01*
X159172000Y-108079734D01*
X159172000Y-108079735D01*
X159172000Y-108480270D01*
X159172001Y-108480276D01*
X159178408Y-108539883D01*
X159186534Y-108561669D01*
X159191517Y-108631361D01*
X159186534Y-108648331D01*
X159178408Y-108670117D01*
X159172001Y-108729716D01*
X159172001Y-108729723D01*
X159172000Y-108729735D01*
X159172000Y-108758048D01*
X159152315Y-108825087D01*
X159099511Y-108870842D01*
X159030353Y-108880786D01*
X158966797Y-108851761D01*
X158960319Y-108845729D01*
X156050198Y-105935608D01*
X156050178Y-105935586D01*
X156004253Y-105889661D01*
X155970768Y-105828338D01*
X155975752Y-105758646D01*
X156017624Y-105702713D01*
X156028814Y-105695247D01*
X156077144Y-105666665D01*
X156077150Y-105666660D01*
X156194160Y-105549650D01*
X156194166Y-105549642D01*
X156278407Y-105407197D01*
X156278409Y-105407194D01*
X156309552Y-105300000D01*
X158004770Y-105300000D01*
X158005421Y-105308281D01*
X158051590Y-105467194D01*
X158051592Y-105467197D01*
X158135833Y-105609642D01*
X158135839Y-105609650D01*
X158252849Y-105726660D01*
X158252857Y-105726666D01*
X158395302Y-105810907D01*
X158395305Y-105810908D01*
X158554216Y-105857077D01*
X158554222Y-105857078D01*
X158591342Y-105859999D01*
X158591358Y-105860000D01*
X158620000Y-105860000D01*
X158620000Y-105300000D01*
X158004770Y-105300000D01*
X156309552Y-105300000D01*
X156324578Y-105248281D01*
X156325230Y-105240000D01*
X155334000Y-105240000D01*
X155266961Y-105220315D01*
X155221206Y-105167511D01*
X155210000Y-105116000D01*
X155210000Y-105040951D01*
X155229685Y-104973912D01*
X155246319Y-104953270D01*
X155399589Y-104800000D01*
X158004770Y-104800000D01*
X158620000Y-104800000D01*
X158620000Y-104240000D01*
X158591342Y-104240000D01*
X158554222Y-104242921D01*
X158554216Y-104242922D01*
X158395305Y-104289091D01*
X158395302Y-104289092D01*
X158252857Y-104373333D01*
X158252849Y-104373339D01*
X158135839Y-104490349D01*
X158135833Y-104490357D01*
X158051592Y-104632802D01*
X158051590Y-104632805D01*
X158005421Y-104791718D01*
X158004770Y-104800000D01*
X155399589Y-104800000D01*
X155423270Y-104776319D01*
X155484593Y-104742834D01*
X155510951Y-104740000D01*
X156325230Y-104740000D01*
X156324578Y-104731720D01*
X156299120Y-104644095D01*
X156299319Y-104574225D01*
X156337261Y-104515555D01*
X156400899Y-104486711D01*
X156418195Y-104485499D01*
X156446202Y-104485499D01*
X156483358Y-104482576D01*
X156642400Y-104436370D01*
X156672369Y-104418645D01*
X156740088Y-104401461D01*
X156798613Y-104418645D01*
X156827800Y-104435906D01*
X156827805Y-104435908D01*
X156986716Y-104482077D01*
X156986722Y-104482078D01*
X157023842Y-104484999D01*
X157023858Y-104485000D01*
X157052500Y-104485000D01*
X157552500Y-104485000D01*
X157581142Y-104485000D01*
X157581157Y-104484999D01*
X157618277Y-104482078D01*
X157618283Y-104482077D01*
X157777194Y-104435908D01*
X157777197Y-104435907D01*
X157919642Y-104351666D01*
X157919650Y-104351660D01*
X158036660Y-104234650D01*
X158036666Y-104234642D01*
X158120907Y-104092197D01*
X158120909Y-104092194D01*
X158167078Y-103933281D01*
X158167730Y-103925000D01*
X157552500Y-103925000D01*
X157552500Y-104485000D01*
X157052500Y-104485000D01*
X157052500Y-103549000D01*
X157072185Y-103481961D01*
X157124989Y-103436206D01*
X157176500Y-103425000D01*
X158167730Y-103425000D01*
X158167078Y-103416720D01*
X158143784Y-103336544D01*
X158143983Y-103266675D01*
X158181924Y-103208004D01*
X158245562Y-103179160D01*
X158246341Y-103179053D01*
X158269472Y-103176009D01*
X158269478Y-103176006D01*
X158269480Y-103176006D01*
X158277326Y-103173905D01*
X158278210Y-103177207D01*
X158331925Y-103171392D01*
X158342514Y-103174501D01*
X158342674Y-103173905D01*
X158350524Y-103176008D01*
X158350526Y-103176008D01*
X158350528Y-103176009D01*
X158460599Y-103190500D01*
X158659400Y-103190499D01*
X158659401Y-103190499D01*
X158676087Y-103188302D01*
X158769472Y-103176009D01*
X158769475Y-103176007D01*
X158777326Y-103173905D01*
X158778210Y-103177207D01*
X158831925Y-103171392D01*
X158842514Y-103174501D01*
X158842674Y-103173905D01*
X158850524Y-103176008D01*
X158850526Y-103176008D01*
X158850528Y-103176009D01*
X158960599Y-103190500D01*
X159159400Y-103190499D01*
X159159401Y-103190499D01*
X159176087Y-103188302D01*
X159269472Y-103176009D01*
X159269475Y-103176007D01*
X159277326Y-103173905D01*
X159278210Y-103177207D01*
X159331925Y-103171392D01*
X159342514Y-103174501D01*
X159342674Y-103173905D01*
X159350524Y-103176008D01*
X159350526Y-103176008D01*
X159350528Y-103176009D01*
X159460599Y-103190500D01*
X159659400Y-103190499D01*
X159659403Y-103190499D01*
X159769463Y-103176011D01*
X159769467Y-103176009D01*
X159769472Y-103176009D01*
X159906429Y-103119279D01*
X159920300Y-103108635D01*
X159985467Y-103083441D01*
X160036740Y-103089969D01*
X160080745Y-103105368D01*
X160080748Y-103105369D01*
X160259996Y-103125565D01*
X160260000Y-103125565D01*
X160260004Y-103125565D01*
X160439249Y-103105369D01*
X160439252Y-103105368D01*
X160439255Y-103105368D01*
X160609522Y-103045789D01*
X160615175Y-103042236D01*
X160682410Y-103023234D01*
X160749246Y-103043599D01*
G37*
%TD.AperFunction*%
%TA.AperFunction,Conductor*%
G36*
X142095960Y-107055185D02*
G01*
X142141715Y-107107989D01*
X142152279Y-107172103D01*
X142145000Y-107243345D01*
X142145000Y-107360464D01*
X142125315Y-107427503D01*
X142072511Y-107473258D01*
X142022985Y-107482009D01*
X142020000Y-107484769D01*
X142020000Y-108360500D01*
X142000315Y-108427539D01*
X141947511Y-108473294D01*
X141896000Y-108484500D01*
X141644000Y-108484500D01*
X141576961Y-108464815D01*
X141531206Y-108412011D01*
X141520000Y-108360500D01*
X141520000Y-107480925D01*
X141489276Y-107429566D01*
X141491518Y-107359732D01*
X141521630Y-107310788D01*
X141561214Y-107271204D01*
X141609885Y-107241183D01*
X141746516Y-107195908D01*
X141893350Y-107105340D01*
X141926871Y-107071819D01*
X141988194Y-107038334D01*
X142014552Y-107035500D01*
X142028921Y-107035500D01*
X142095960Y-107055185D01*
G37*
%TD.AperFunction*%
%TA.AperFunction,Conductor*%
G36*
X145296157Y-104680121D02*
G01*
X145423355Y-104691129D01*
X145431584Y-104692120D01*
X147544182Y-105019198D01*
X147588600Y-105036929D01*
X147589218Y-105035841D01*
X147594068Y-105038593D01*
X147687220Y-105080904D01*
X147796962Y-105130751D01*
X147796966Y-105130752D01*
X148013042Y-105185199D01*
X148013045Y-105185199D01*
X148013051Y-105185201D01*
X148143916Y-105195500D01*
X148673372Y-105195500D01*
X148692344Y-105196960D01*
X149347359Y-105298371D01*
X149347370Y-105298371D01*
X149347371Y-105298372D01*
X149378191Y-105300743D01*
X149440000Y-105305500D01*
X149596715Y-105284868D01*
X149742750Y-105224378D01*
X149746991Y-105221123D01*
X149812159Y-105195930D01*
X149822477Y-105195500D01*
X150296076Y-105195500D01*
X150296084Y-105195500D01*
X150426949Y-105185201D01*
X150643038Y-105130751D01*
X150644212Y-105130217D01*
X150644802Y-105130133D01*
X150648291Y-105128913D01*
X150648533Y-105129604D01*
X150713387Y-105120410D01*
X150776886Y-105149559D01*
X150814545Y-105208411D01*
X150819500Y-105243113D01*
X150819500Y-105604217D01*
X150799815Y-105671256D01*
X150783181Y-105691898D01*
X149816899Y-106658181D01*
X149755576Y-106691666D01*
X149729218Y-106694500D01*
X148143910Y-106694500D01*
X148013048Y-106704799D01*
X148013042Y-106704800D01*
X147796966Y-106759247D01*
X147796963Y-106759248D01*
X147594069Y-106851406D01*
X147594067Y-106851407D01*
X147410887Y-106978315D01*
X147253315Y-107135887D01*
X147126407Y-107319067D01*
X147126406Y-107319069D01*
X147034248Y-107521963D01*
X147034247Y-107521966D01*
X146979800Y-107738042D01*
X146979799Y-107738048D01*
X146969500Y-107868910D01*
X146969500Y-108118000D01*
X146949815Y-108185039D01*
X146897011Y-108230794D01*
X146845500Y-108242000D01*
X145815491Y-108242000D01*
X145748452Y-108222315D01*
X145702697Y-108169511D01*
X145692753Y-108100353D01*
X145697785Y-108078996D01*
X145734680Y-107967651D01*
X145744999Y-107866654D01*
X145745000Y-107866641D01*
X145745000Y-107767500D01*
X144138000Y-107767500D01*
X144101681Y-107803819D01*
X144099609Y-107801747D01*
X144065511Y-107831294D01*
X144014000Y-107842500D01*
X142994000Y-107842500D01*
X142926961Y-107822815D01*
X142881206Y-107770011D01*
X142870000Y-107718500D01*
X142870000Y-107466500D01*
X142889685Y-107399461D01*
X142942489Y-107353706D01*
X142994000Y-107342500D01*
X143752000Y-107342500D01*
X143788319Y-107306181D01*
X143790390Y-107308252D01*
X143824489Y-107278706D01*
X143876000Y-107267500D01*
X144520000Y-107267500D01*
X145020000Y-107267500D01*
X145744999Y-107267500D01*
X145744999Y-107168360D01*
X145744998Y-107168345D01*
X145734680Y-107067347D01*
X145680453Y-106903699D01*
X145680448Y-106903688D01*
X145589947Y-106756965D01*
X145589944Y-106756961D01*
X145468038Y-106635055D01*
X145468034Y-106635052D01*
X145321311Y-106544551D01*
X145321300Y-106544546D01*
X145157652Y-106490319D01*
X145056654Y-106480000D01*
X145020000Y-106480000D01*
X145020000Y-107267500D01*
X144520000Y-107267500D01*
X144520000Y-106480000D01*
X144508084Y-106468084D01*
X144481621Y-106460314D01*
X144435866Y-106407510D01*
X144425922Y-106338352D01*
X144454947Y-106274796D01*
X144460952Y-106268345D01*
X144602952Y-106126346D01*
X144625113Y-106093179D01*
X144678723Y-106048372D01*
X144713434Y-106038950D01*
X144751443Y-106034386D01*
X144892096Y-105978920D01*
X144997134Y-105899266D01*
X144806819Y-105708951D01*
X144773334Y-105647628D01*
X144770500Y-105621270D01*
X144770500Y-105547730D01*
X144790185Y-105480691D01*
X144842989Y-105434936D01*
X144912147Y-105424992D01*
X144975703Y-105454017D01*
X144982181Y-105460049D01*
X145156329Y-105634197D01*
X145159385Y-105626446D01*
X145170000Y-105538053D01*
X145170000Y-104881939D01*
X145162375Y-104818446D01*
X145173925Y-104749538D01*
X145220897Y-104697813D01*
X145288377Y-104679695D01*
X145296157Y-104680121D01*
G37*
%TD.AperFunction*%
%TA.AperFunction,Conductor*%
G36*
X138470479Y-102607516D02*
G01*
X138514827Y-102636017D01*
X138629150Y-102750340D01*
X138775984Y-102840908D01*
X138939747Y-102895174D01*
X139040823Y-102905500D01*
X139277044Y-102905499D01*
X139344082Y-102925183D01*
X139368101Y-102945330D01*
X139404770Y-102985000D01*
X140283533Y-102985000D01*
X140350572Y-103004685D01*
X140396327Y-103057489D01*
X140406271Y-103126647D01*
X140405149Y-103133197D01*
X140404500Y-103136458D01*
X140404500Y-103361000D01*
X140384815Y-103428039D01*
X140332011Y-103473794D01*
X140280500Y-103485000D01*
X139404770Y-103485000D01*
X139405421Y-103493281D01*
X139434102Y-103591999D01*
X139434103Y-103592000D01*
X139491000Y-103592000D01*
X139558039Y-103611685D01*
X139603794Y-103664489D01*
X139615000Y-103716000D01*
X139615000Y-105267000D01*
X139621181Y-105273181D01*
X139654666Y-105334504D01*
X139657500Y-105360862D01*
X139657500Y-106293717D01*
X139637815Y-106360756D01*
X139621183Y-106381396D01*
X139503897Y-106498682D01*
X139442577Y-106532166D01*
X139416218Y-106535000D01*
X139281500Y-106535000D01*
X139214461Y-106515315D01*
X139168706Y-106462511D01*
X139157500Y-106411000D01*
X139157500Y-105628000D01*
X139151319Y-105621819D01*
X139117834Y-105560496D01*
X139115000Y-105534138D01*
X139115000Y-103634999D01*
X139015860Y-103635000D01*
X139015844Y-103635001D01*
X138914846Y-103645319D01*
X138769799Y-103693382D01*
X138699971Y-103695783D01*
X138639929Y-103660051D01*
X138610461Y-103605602D01*
X138576103Y-103467447D01*
X137557680Y-104485871D01*
X137496357Y-104519356D01*
X137426665Y-104514372D01*
X137382318Y-104485871D01*
X137204127Y-104307680D01*
X137170642Y-104246357D01*
X137175626Y-104176665D01*
X137204127Y-104132318D01*
X138268956Y-103067488D01*
X138241940Y-103045771D01*
X138241939Y-103045770D01*
X138167219Y-103008713D01*
X138115906Y-102961292D01*
X138098376Y-102893657D01*
X138120196Y-102827282D01*
X138157216Y-102792086D01*
X138225536Y-102749945D01*
X138339464Y-102636017D01*
X138400787Y-102602532D01*
X138470479Y-102607516D01*
G37*
%TD.AperFunction*%
%TA.AperFunction,Conductor*%
G36*
X164378834Y-101454991D02*
G01*
X164434767Y-101496863D01*
X164459184Y-101562327D01*
X164459500Y-101571173D01*
X164459500Y-105153848D01*
X164439815Y-105220887D01*
X164387011Y-105266642D01*
X164317853Y-105276586D01*
X164305575Y-105274183D01*
X164177105Y-105242235D01*
X164177103Y-105242234D01*
X164152910Y-105240593D01*
X164136784Y-105239500D01*
X164136782Y-105239500D01*
X164041791Y-105239500D01*
X163974752Y-105219815D01*
X163928997Y-105167011D01*
X163919053Y-105097853D01*
X163922715Y-105080904D01*
X163935076Y-105038358D01*
X163938000Y-105001203D01*
X163937999Y-104558798D01*
X163935076Y-104521642D01*
X163888870Y-104362600D01*
X163861575Y-104316448D01*
X163844393Y-104248725D01*
X163852124Y-104210000D01*
X163894091Y-104097483D01*
X163900500Y-104037873D01*
X163900499Y-103192128D01*
X163894091Y-103132517D01*
X163843796Y-102997669D01*
X163843794Y-102997666D01*
X163840696Y-102989360D01*
X163842426Y-102988714D01*
X163829902Y-102931163D01*
X163841691Y-102891011D01*
X163840696Y-102890640D01*
X163843794Y-102882333D01*
X163843796Y-102882331D01*
X163894091Y-102747483D01*
X163900500Y-102687873D01*
X163900499Y-101842128D01*
X163894091Y-101782517D01*
X163892482Y-101775709D01*
X163896218Y-101705939D01*
X163937082Y-101649266D01*
X163978563Y-101628110D01*
X164072198Y-101600906D01*
X164214642Y-101516666D01*
X164214650Y-101516660D01*
X164247819Y-101483492D01*
X164309142Y-101450007D01*
X164378834Y-101454991D01*
G37*
%TD.AperFunction*%
%TA.AperFunction,Conductor*%
G36*
X142381592Y-96898030D02*
G01*
X142415914Y-96922281D01*
X142730565Y-97236931D01*
X143017050Y-97523416D01*
X143085533Y-97591899D01*
X143121586Y-97627952D01*
X143244499Y-97710080D01*
X143244512Y-97710087D01*
X143381083Y-97766656D01*
X143381088Y-97766658D01*
X143381092Y-97766658D01*
X143381093Y-97766659D01*
X143526080Y-97795500D01*
X143526083Y-97795500D01*
X145056857Y-97795500D01*
X145123896Y-97815185D01*
X145169651Y-97867989D01*
X145175933Y-97884904D01*
X145178254Y-97892894D01*
X145178255Y-97892896D01*
X145261917Y-98034362D01*
X145261923Y-98034370D01*
X145378129Y-98150576D01*
X145378133Y-98150579D01*
X145378135Y-98150581D01*
X145519602Y-98234244D01*
X145561224Y-98246336D01*
X145677426Y-98280097D01*
X145677429Y-98280097D01*
X145677431Y-98280098D01*
X145714306Y-98283000D01*
X145714314Y-98283000D01*
X146145686Y-98283000D01*
X146145694Y-98283000D01*
X146182569Y-98280098D01*
X146182571Y-98280097D01*
X146182573Y-98280097D01*
X146245413Y-98261840D01*
X146340398Y-98234244D01*
X146481865Y-98150581D01*
X146598081Y-98034365D01*
X146601083Y-98029287D01*
X146652146Y-97981604D01*
X146720887Y-97969096D01*
X146785478Y-97995737D01*
X146825413Y-98053069D01*
X146829434Y-98068212D01*
X146843814Y-98140499D01*
X146843814Y-98140501D01*
X146867947Y-98261828D01*
X146867950Y-98261840D01*
X146881880Y-98295469D01*
X146881881Y-98295471D01*
X146943364Y-98443907D01*
X146943371Y-98443920D01*
X147012320Y-98547109D01*
X147033198Y-98613787D01*
X147014713Y-98681167D01*
X146962735Y-98727857D01*
X146909218Y-98740000D01*
X146762500Y-98740000D01*
X146762500Y-99890000D01*
X147674999Y-99890000D01*
X147674999Y-99529281D01*
X147694684Y-99462242D01*
X147747488Y-99416487D01*
X147816646Y-99406543D01*
X147880202Y-99435568D01*
X147886680Y-99441600D01*
X149364278Y-100919198D01*
X149397763Y-100980521D01*
X149392779Y-101050213D01*
X149350907Y-101106146D01*
X149285443Y-101130563D01*
X149281950Y-101130763D01*
X147793866Y-101195063D01*
X147770650Y-101198824D01*
X147701326Y-101190111D01*
X147647717Y-101145302D01*
X147626844Y-101078623D01*
X147633118Y-101037414D01*
X147664505Y-100942694D01*
X147664506Y-100942690D01*
X147674999Y-100839986D01*
X147675000Y-100839973D01*
X147675000Y-100390000D01*
X146762500Y-100390000D01*
X146762500Y-101539999D01*
X146767552Y-101545051D01*
X146801037Y-101606374D01*
X146796053Y-101676066D01*
X146754181Y-101731999D01*
X146743606Y-101739098D01*
X146113125Y-102116887D01*
X146045502Y-102134460D01*
X145979112Y-102112683D01*
X145942658Y-102073642D01*
X145869565Y-101950049D01*
X145869558Y-101950040D01*
X145752459Y-101832941D01*
X145752450Y-101832934D01*
X145609898Y-101748629D01*
X145609895Y-101748628D01*
X145450862Y-101702424D01*
X145450856Y-101702423D01*
X145413703Y-101699500D01*
X144856309Y-101699500D01*
X144856284Y-101699501D01*
X144819145Y-101702423D01*
X144660098Y-101748630D01*
X144630619Y-101766064D01*
X144562894Y-101783245D01*
X144504381Y-101766064D01*
X144474900Y-101748630D01*
X144474895Y-101748628D01*
X144315862Y-101702424D01*
X144315856Y-101702423D01*
X144278710Y-101699500D01*
X144278703Y-101699500D01*
X144192298Y-101699500D01*
X144125259Y-101679815D01*
X144079504Y-101627011D01*
X144069560Y-101557853D01*
X144098585Y-101494297D01*
X144127202Y-101469961D01*
X144165718Y-101446204D01*
X144268656Y-101382712D01*
X144392712Y-101258656D01*
X144484814Y-101109334D01*
X144539999Y-100942797D01*
X144550500Y-100840009D01*
X144550500Y-100839986D01*
X145350001Y-100839986D01*
X145360494Y-100942697D01*
X145415641Y-101109119D01*
X145415643Y-101109124D01*
X145507684Y-101258345D01*
X145631654Y-101382315D01*
X145780875Y-101474356D01*
X145780880Y-101474358D01*
X145947302Y-101529505D01*
X145947309Y-101529506D01*
X146050019Y-101539999D01*
X146262499Y-101539999D01*
X146262500Y-101539998D01*
X146262500Y-100390000D01*
X145350001Y-100390000D01*
X145350001Y-100839986D01*
X144550500Y-100839986D01*
X144550499Y-99440013D01*
X145350000Y-99440013D01*
X145350000Y-99890000D01*
X146262500Y-99890000D01*
X146262500Y-98740000D01*
X146050029Y-98740000D01*
X146050012Y-98740001D01*
X145947302Y-98750494D01*
X145780880Y-98805641D01*
X145780875Y-98805643D01*
X145631654Y-98897684D01*
X145507684Y-99021654D01*
X145415643Y-99170875D01*
X145415641Y-99170880D01*
X145360494Y-99337302D01*
X145360493Y-99337309D01*
X145350000Y-99440013D01*
X144550499Y-99440013D01*
X144550499Y-99439992D01*
X144542539Y-99362073D01*
X144539999Y-99337203D01*
X144539998Y-99337200D01*
X144512459Y-99254093D01*
X144484814Y-99170666D01*
X144392712Y-99021344D01*
X144268656Y-98897288D01*
X144166845Y-98834491D01*
X144119336Y-98805187D01*
X144119331Y-98805185D01*
X144102078Y-98799468D01*
X143952797Y-98750001D01*
X143952795Y-98750000D01*
X143850010Y-98739500D01*
X142924998Y-98739500D01*
X142924980Y-98739501D01*
X142822203Y-98750000D01*
X142822200Y-98750001D01*
X142655668Y-98805185D01*
X142655663Y-98805187D01*
X142506342Y-98897289D01*
X142382289Y-99021342D01*
X142290187Y-99170663D01*
X142290185Y-99170668D01*
X142290115Y-99170880D01*
X142241340Y-99318075D01*
X142235001Y-99337204D01*
X142233583Y-99343827D01*
X142231889Y-99343464D01*
X142208786Y-99400077D01*
X142151603Y-99440225D01*
X142081792Y-99443084D01*
X142024148Y-99410458D01*
X141958351Y-99344661D01*
X141958350Y-99344660D01*
X141811516Y-99254092D01*
X141782495Y-99244475D01*
X141725051Y-99204703D01*
X141698228Y-99140187D01*
X141710543Y-99071411D01*
X141733816Y-99039092D01*
X141838729Y-98934180D01*
X141838733Y-98934178D01*
X141925858Y-98847053D01*
X141982387Y-98762451D01*
X141994312Y-98744605D01*
X142041463Y-98630771D01*
X142065500Y-98509927D01*
X142065500Y-98424950D01*
X142085185Y-98357911D01*
X142101819Y-98337269D01*
X142110290Y-98328798D01*
X142123753Y-98315335D01*
X142133024Y-98300000D01*
X142164024Y-98248717D01*
X142206733Y-98178069D01*
X142254452Y-98024933D01*
X142260500Y-97958381D01*
X142260499Y-97456620D01*
X142260499Y-97456611D01*
X142254453Y-97390073D01*
X142254452Y-97390070D01*
X142254452Y-97390067D01*
X142217038Y-97270000D01*
X142206734Y-97236933D01*
X142206733Y-97236931D01*
X142168779Y-97174149D01*
X142150944Y-97106595D01*
X142168780Y-97045850D01*
X142206733Y-96983069D01*
X142209847Y-96973073D01*
X142248582Y-96914927D01*
X142312606Y-96886951D01*
X142381592Y-96898030D01*
G37*
%TD.AperFunction*%
%TA.AperFunction,Conductor*%
G36*
X158842514Y-98274501D02*
G01*
X158842674Y-98273905D01*
X158850524Y-98276008D01*
X158850526Y-98276008D01*
X158850528Y-98276009D01*
X158960599Y-98290500D01*
X159159400Y-98290499D01*
X159229623Y-98281254D01*
X159298654Y-98292019D01*
X159350910Y-98338399D01*
X159369796Y-98405668D01*
X159368744Y-98420377D01*
X159359500Y-98490596D01*
X159359500Y-98689403D01*
X159373989Y-98799468D01*
X159376094Y-98807322D01*
X159372814Y-98808200D01*
X159378581Y-98862073D01*
X159375517Y-98872522D01*
X159376095Y-98872677D01*
X159373990Y-98880529D01*
X159359500Y-98990598D01*
X159359500Y-99189403D01*
X159373989Y-99299468D01*
X159376094Y-99307322D01*
X159372814Y-99308200D01*
X159378581Y-99362073D01*
X159375517Y-99372522D01*
X159376095Y-99372677D01*
X159373990Y-99380529D01*
X159359500Y-99490598D01*
X159359500Y-99689403D01*
X159373989Y-99799468D01*
X159376094Y-99807322D01*
X159372814Y-99808200D01*
X159378581Y-99862073D01*
X159375517Y-99872522D01*
X159376095Y-99872677D01*
X159373990Y-99880529D01*
X159359500Y-99990598D01*
X159359500Y-100189403D01*
X159373989Y-100299468D01*
X159376094Y-100307322D01*
X159372814Y-100308200D01*
X159378581Y-100362073D01*
X159375517Y-100372522D01*
X159376095Y-100372677D01*
X159373990Y-100380529D01*
X159359500Y-100490598D01*
X159359500Y-100689403D01*
X159373989Y-100799468D01*
X159376094Y-100807322D01*
X159372814Y-100808200D01*
X159378581Y-100862073D01*
X159375517Y-100872522D01*
X159376095Y-100872677D01*
X159373990Y-100880529D01*
X159359500Y-100990598D01*
X159359500Y-101189403D01*
X159368744Y-101259622D01*
X159357977Y-101328657D01*
X159311596Y-101380912D01*
X159244327Y-101399796D01*
X159229620Y-101398744D01*
X159159402Y-101389500D01*
X158960596Y-101389500D01*
X158850531Y-101403989D01*
X158842678Y-101406094D01*
X158841802Y-101402824D01*
X158787853Y-101408567D01*
X158777477Y-101405518D01*
X158777323Y-101406095D01*
X158769470Y-101403990D01*
X158659401Y-101389500D01*
X158460596Y-101389500D01*
X158350531Y-101403989D01*
X158342678Y-101406094D01*
X158341802Y-101402824D01*
X158287853Y-101408567D01*
X158277477Y-101405518D01*
X158277323Y-101406095D01*
X158269470Y-101403990D01*
X158159401Y-101389500D01*
X157960596Y-101389500D01*
X157850531Y-101403989D01*
X157842678Y-101406094D01*
X157841802Y-101402824D01*
X157787853Y-101408567D01*
X157777477Y-101405518D01*
X157777323Y-101406095D01*
X157769470Y-101403990D01*
X157659401Y-101389500D01*
X157460596Y-101389500D01*
X157350531Y-101403989D01*
X157342678Y-101406094D01*
X157341802Y-101402824D01*
X157287853Y-101408567D01*
X157277477Y-101405518D01*
X157277323Y-101406095D01*
X157269470Y-101403990D01*
X157159401Y-101389500D01*
X156960596Y-101389500D01*
X156850531Y-101403989D01*
X156842678Y-101406094D01*
X156841802Y-101402824D01*
X156787853Y-101408567D01*
X156777477Y-101405518D01*
X156777323Y-101406095D01*
X156769470Y-101403990D01*
X156659401Y-101389500D01*
X156460604Y-101389500D01*
X156390377Y-101398745D01*
X156321341Y-101387977D01*
X156269087Y-101341596D01*
X156250203Y-101274327D01*
X156251255Y-101259622D01*
X156260500Y-101189401D01*
X156260499Y-100990600D01*
X156246009Y-100880528D01*
X156246008Y-100880525D01*
X156243905Y-100872674D01*
X156247207Y-100871789D01*
X156241392Y-100818075D01*
X156244501Y-100807485D01*
X156243905Y-100807326D01*
X156246008Y-100799475D01*
X156246008Y-100799474D01*
X156246009Y-100799472D01*
X156260500Y-100689401D01*
X156260499Y-100490600D01*
X156246009Y-100380528D01*
X156246008Y-100380525D01*
X156243905Y-100372674D01*
X156247207Y-100371789D01*
X156241392Y-100318075D01*
X156244501Y-100307485D01*
X156243905Y-100307326D01*
X156246008Y-100299475D01*
X156246008Y-100299474D01*
X156246009Y-100299472D01*
X156260500Y-100189401D01*
X156260499Y-99990600D01*
X156260227Y-99988537D01*
X156256105Y-99957224D01*
X156246009Y-99880528D01*
X156246008Y-99880525D01*
X156243905Y-99872674D01*
X156247207Y-99871789D01*
X156241392Y-99818075D01*
X156244501Y-99807485D01*
X156243905Y-99807326D01*
X156246008Y-99799475D01*
X156246008Y-99799474D01*
X156246009Y-99799472D01*
X156260500Y-99689401D01*
X156260499Y-99490600D01*
X156258945Y-99478798D01*
X156254054Y-99441642D01*
X156246009Y-99380528D01*
X156246008Y-99380525D01*
X156243905Y-99372674D01*
X156247207Y-99371789D01*
X156241392Y-99318075D01*
X156244501Y-99307485D01*
X156243905Y-99307326D01*
X156246008Y-99299475D01*
X156246008Y-99299474D01*
X156246009Y-99299472D01*
X156260500Y-99189401D01*
X156260499Y-98990600D01*
X156246009Y-98880528D01*
X156246008Y-98880525D01*
X156243905Y-98872674D01*
X156247207Y-98871789D01*
X156241392Y-98818075D01*
X156244501Y-98807485D01*
X156243905Y-98807326D01*
X156246008Y-98799475D01*
X156246008Y-98799474D01*
X156246009Y-98799472D01*
X156260500Y-98689401D01*
X156260499Y-98490600D01*
X156251254Y-98420375D01*
X156262019Y-98351344D01*
X156308399Y-98299088D01*
X156375668Y-98280203D01*
X156390371Y-98281254D01*
X156460599Y-98290500D01*
X156659400Y-98290499D01*
X156659401Y-98290499D01*
X156676087Y-98288302D01*
X156769472Y-98276009D01*
X156769475Y-98276007D01*
X156777326Y-98273905D01*
X156778210Y-98277207D01*
X156831925Y-98271392D01*
X156842514Y-98274501D01*
X156842674Y-98273905D01*
X156850524Y-98276008D01*
X156850526Y-98276008D01*
X156850528Y-98276009D01*
X156960599Y-98290500D01*
X157159400Y-98290499D01*
X157159401Y-98290499D01*
X157176087Y-98288302D01*
X157269472Y-98276009D01*
X157269475Y-98276007D01*
X157277326Y-98273905D01*
X157278210Y-98277207D01*
X157331925Y-98271392D01*
X157342514Y-98274501D01*
X157342674Y-98273905D01*
X157350524Y-98276008D01*
X157350526Y-98276008D01*
X157350528Y-98276009D01*
X157460599Y-98290500D01*
X157659400Y-98290499D01*
X157659401Y-98290499D01*
X157676087Y-98288302D01*
X157769472Y-98276009D01*
X157769475Y-98276007D01*
X157777326Y-98273905D01*
X157778210Y-98277207D01*
X157831925Y-98271392D01*
X157842514Y-98274501D01*
X157842674Y-98273905D01*
X157850524Y-98276008D01*
X157850526Y-98276008D01*
X157850528Y-98276009D01*
X157960599Y-98290500D01*
X158159400Y-98290499D01*
X158159401Y-98290499D01*
X158176087Y-98288302D01*
X158269472Y-98276009D01*
X158269475Y-98276007D01*
X158277326Y-98273905D01*
X158278210Y-98277207D01*
X158331925Y-98271392D01*
X158342514Y-98274501D01*
X158342674Y-98273905D01*
X158350524Y-98276008D01*
X158350526Y-98276008D01*
X158350528Y-98276009D01*
X158460599Y-98290500D01*
X158659400Y-98290499D01*
X158659401Y-98290499D01*
X158676087Y-98288302D01*
X158769472Y-98276009D01*
X158769475Y-98276007D01*
X158777326Y-98273905D01*
X158778210Y-98277207D01*
X158831925Y-98271392D01*
X158842514Y-98274501D01*
G37*
%TD.AperFunction*%
%TA.AperFunction,Conductor*%
G36*
X163860539Y-98319685D02*
G01*
X163906294Y-98372489D01*
X163917500Y-98424000D01*
X163917500Y-99321638D01*
X163897815Y-99388677D01*
X163887500Y-99401477D01*
X163887500Y-100461638D01*
X163867815Y-100528677D01*
X163851181Y-100549319D01*
X163847500Y-100553000D01*
X163847500Y-100966000D01*
X163827815Y-101033039D01*
X163775011Y-101078794D01*
X163723500Y-101090000D01*
X163471500Y-101090000D01*
X163404461Y-101070315D01*
X163358706Y-101017511D01*
X163347500Y-100966000D01*
X163347500Y-100078362D01*
X163367185Y-100011323D01*
X163383819Y-99990681D01*
X163387500Y-99987000D01*
X163387500Y-98928362D01*
X163407185Y-98861323D01*
X163417500Y-98848522D01*
X163417500Y-98424000D01*
X163437185Y-98356961D01*
X163489989Y-98311206D01*
X163541500Y-98300000D01*
X163793500Y-98300000D01*
X163860539Y-98319685D01*
G37*
%TD.AperFunction*%
%TA.AperFunction,Conductor*%
G36*
X160980864Y-90600185D02*
G01*
X161026619Y-90652989D01*
X161037817Y-90705882D01*
X160977806Y-96091882D01*
X160957376Y-96158698D01*
X160904066Y-96203861D01*
X160853814Y-96214500D01*
X160171606Y-96214500D01*
X160048393Y-96214500D01*
X159958402Y-96232400D01*
X159958401Y-96232399D01*
X159927554Y-96238535D01*
X159927541Y-96238539D01*
X159833159Y-96277633D01*
X159763689Y-96285102D01*
X159701210Y-96253826D01*
X159665559Y-96193737D01*
X159666631Y-96128477D01*
X159700075Y-96013362D01*
X159700076Y-96013356D01*
X159700125Y-96012738D01*
X159703000Y-95976203D01*
X159702999Y-95533798D01*
X159700076Y-95496642D01*
X159653870Y-95337600D01*
X159585268Y-95221601D01*
X159568000Y-95158480D01*
X159568000Y-95144489D01*
X159582988Y-95090734D01*
X159581155Y-95089909D01*
X159584231Y-95083074D01*
X159584233Y-95083069D01*
X159631952Y-94929933D01*
X159638000Y-94863381D01*
X159637999Y-94311620D01*
X159637999Y-94311619D01*
X159637999Y-94311611D01*
X159631953Y-94245073D01*
X159631952Y-94245070D01*
X159631952Y-94245067D01*
X159584233Y-94091931D01*
X159576506Y-94079150D01*
X159558670Y-94011596D01*
X159576507Y-93950849D01*
X159584233Y-93938069D01*
X159631952Y-93784933D01*
X159638000Y-93718381D01*
X159637999Y-93166620D01*
X159637999Y-93166611D01*
X159631953Y-93100073D01*
X159631952Y-93100070D01*
X159631952Y-93100067D01*
X159584233Y-92946931D01*
X159581155Y-92940092D01*
X159582985Y-92939268D01*
X159568000Y-92885511D01*
X159568000Y-92839552D01*
X159587685Y-92772513D01*
X159604319Y-92751871D01*
X159634017Y-92722173D01*
X159677840Y-92678350D01*
X159768408Y-92531516D01*
X159822674Y-92367753D01*
X159833000Y-92266677D01*
X159832999Y-91693324D01*
X159822674Y-91592247D01*
X159768408Y-91428484D01*
X159677840Y-91281650D01*
X159555850Y-91159660D01*
X159464629Y-91103395D01*
X159409018Y-91069093D01*
X159409013Y-91069091D01*
X159407569Y-91068612D01*
X159245253Y-91014826D01*
X159245251Y-91014825D01*
X159144178Y-91004500D01*
X158445830Y-91004500D01*
X158445812Y-91004501D01*
X158344747Y-91014825D01*
X158180984Y-91069092D01*
X158180981Y-91069093D01*
X158034148Y-91159661D01*
X158019825Y-91173984D01*
X157958501Y-91207468D01*
X157888809Y-91202482D01*
X157844465Y-91173982D01*
X157830538Y-91160055D01*
X157830534Y-91160052D01*
X157683811Y-91069551D01*
X157683800Y-91069546D01*
X157520152Y-91015319D01*
X157419154Y-91005000D01*
X157320000Y-91005000D01*
X157320000Y-92106000D01*
X157300315Y-92173039D01*
X157247511Y-92218794D01*
X157196000Y-92230000D01*
X156944000Y-92230000D01*
X156876961Y-92210315D01*
X156831206Y-92157511D01*
X156820000Y-92106000D01*
X156820000Y-91004999D01*
X156720860Y-91005000D01*
X156720844Y-91005001D01*
X156619847Y-91015319D01*
X156456199Y-91069546D01*
X156456188Y-91069551D01*
X156309465Y-91160052D01*
X156309461Y-91160055D01*
X156187555Y-91281961D01*
X156187552Y-91281965D01*
X156097051Y-91428688D01*
X156097046Y-91428699D01*
X156040689Y-91598776D01*
X156038453Y-91598035D01*
X156010368Y-91649866D01*
X155949153Y-91683547D01*
X155879445Y-91678786D01*
X155840663Y-91653950D01*
X155840205Y-91654525D01*
X155834762Y-91650184D01*
X155682023Y-91554211D01*
X155511754Y-91494631D01*
X155511749Y-91494630D01*
X155332504Y-91474435D01*
X155332496Y-91474435D01*
X155153250Y-91494630D01*
X155153245Y-91494631D01*
X154982976Y-91554211D01*
X154830237Y-91650184D01*
X154702684Y-91777737D01*
X154606711Y-91930476D01*
X154547131Y-92100745D01*
X154547130Y-92100750D01*
X154526935Y-92279996D01*
X154526935Y-92280003D01*
X154547130Y-92459249D01*
X154547133Y-92459262D01*
X154566478Y-92514545D01*
X154570040Y-92584324D01*
X154535312Y-92644951D01*
X154473318Y-92677179D01*
X154449437Y-92679500D01*
X154380199Y-92679500D01*
X154332747Y-92670061D01*
X154210620Y-92619475D01*
X154210618Y-92619474D01*
X154210617Y-92619474D01*
X154196399Y-92617602D01*
X154096887Y-92604500D01*
X154096880Y-92604500D01*
X152963120Y-92604500D01*
X152963112Y-92604500D01*
X152849383Y-92619474D01*
X152849379Y-92619475D01*
X152707867Y-92678090D01*
X152586341Y-92771341D01*
X152493092Y-92892865D01*
X152492684Y-92893851D01*
X152492115Y-92894556D01*
X152489028Y-92899904D01*
X152488193Y-92899422D01*
X152448841Y-92948252D01*
X152382546Y-92970315D01*
X152314847Y-92953034D01*
X152290443Y-92934075D01*
X152203420Y-92847052D01*
X152203413Y-92847046D01*
X152129233Y-92797481D01*
X152129134Y-92797416D01*
X152080494Y-92764916D01*
X152080493Y-92764915D01*
X152080491Y-92764914D01*
X151943914Y-92708342D01*
X151943907Y-92708340D01*
X151915090Y-92702608D01*
X151869336Y-92681876D01*
X151869175Y-92682156D01*
X151866339Y-92680519D01*
X151863797Y-92679367D01*
X151862134Y-92678091D01*
X151862135Y-92678091D01*
X151720620Y-92619475D01*
X151720618Y-92619474D01*
X151720617Y-92619474D01*
X151706399Y-92617602D01*
X151606887Y-92604500D01*
X151606880Y-92604500D01*
X150473120Y-92604500D01*
X150473112Y-92604500D01*
X150359383Y-92619474D01*
X150359379Y-92619475D01*
X150217864Y-92678091D01*
X150207070Y-92686375D01*
X150141901Y-92711570D01*
X150131583Y-92712000D01*
X149841930Y-92712000D01*
X149778809Y-92694732D01*
X149692401Y-92643630D01*
X149692396Y-92643628D01*
X149533362Y-92597424D01*
X149533356Y-92597423D01*
X149496203Y-92594500D01*
X149053809Y-92594500D01*
X149053784Y-92594501D01*
X149016645Y-92597423D01*
X149016642Y-92597424D01*
X148878153Y-92637659D01*
X148857597Y-92643631D01*
X148771191Y-92694732D01*
X148708070Y-92712000D01*
X147943356Y-92712000D01*
X147876317Y-92692315D01*
X147830562Y-92639511D01*
X147829838Y-92637652D01*
X147829825Y-92637659D01*
X147827180Y-92631720D01*
X147827179Y-92631716D01*
X147732533Y-92467784D01*
X147605871Y-92327112D01*
X147577658Y-92306614D01*
X147452734Y-92215851D01*
X147452729Y-92215848D01*
X147279807Y-92138857D01*
X147279802Y-92138855D01*
X147125226Y-92106000D01*
X147094646Y-92099500D01*
X146905354Y-92099500D01*
X146874774Y-92106000D01*
X146720197Y-92138855D01*
X146720192Y-92138857D01*
X146547270Y-92215848D01*
X146547265Y-92215851D01*
X146394129Y-92327111D01*
X146267466Y-92467785D01*
X146172821Y-92631715D01*
X146172818Y-92631722D01*
X146118981Y-92797416D01*
X146114326Y-92811744D01*
X146094540Y-93000000D01*
X146114326Y-93188256D01*
X146114327Y-93188259D01*
X146172818Y-93368277D01*
X146172821Y-93368284D01*
X146214745Y-93440899D01*
X146223846Y-93456661D01*
X146240319Y-93524561D01*
X146219565Y-93587547D01*
X146214918Y-93594502D01*
X146214914Y-93594508D01*
X146158342Y-93731086D01*
X146158340Y-93731092D01*
X146129500Y-93876079D01*
X146129500Y-94300170D01*
X146124576Y-94334765D01*
X146082402Y-94479926D01*
X146082401Y-94479932D01*
X146079500Y-94516798D01*
X146079500Y-95683000D01*
X146059815Y-95750039D01*
X146007011Y-95795794D01*
X145955500Y-95807000D01*
X145714298Y-95807000D01*
X145677432Y-95809901D01*
X145677426Y-95809902D01*
X145519606Y-95855754D01*
X145519603Y-95855755D01*
X145378137Y-95939417D01*
X145378129Y-95939423D01*
X145261923Y-96055629D01*
X145261917Y-96055637D01*
X145178255Y-96197103D01*
X145178254Y-96197105D01*
X145175933Y-96205096D01*
X145138326Y-96263982D01*
X145074853Y-96293187D01*
X145056857Y-96294500D01*
X143962230Y-96294500D01*
X143895191Y-96274815D01*
X143874549Y-96258181D01*
X143309455Y-95693086D01*
X143275970Y-95631763D01*
X143280954Y-95562071D01*
X143322826Y-95506138D01*
X143372947Y-95483787D01*
X143404396Y-95477531D01*
X143404397Y-95477531D01*
X143581833Y-95404035D01*
X143581842Y-95404030D01*
X143741526Y-95297332D01*
X143741530Y-95297329D01*
X143877329Y-95161530D01*
X143877332Y-95161526D01*
X143984030Y-95001842D01*
X143984035Y-95001833D01*
X144057531Y-94824397D01*
X144057533Y-94824389D01*
X144064374Y-94790000D01*
X143235057Y-94790000D01*
X143275775Y-94773134D01*
X143353134Y-94695775D01*
X143395000Y-94594701D01*
X143395000Y-94485299D01*
X143353134Y-94384225D01*
X143275775Y-94306866D01*
X143235057Y-94290000D01*
X144064374Y-94290000D01*
X144057533Y-94255610D01*
X144057531Y-94255602D01*
X143984035Y-94078166D01*
X143984030Y-94078157D01*
X143877332Y-93918473D01*
X143877329Y-93918469D01*
X143741530Y-93782670D01*
X143741526Y-93782667D01*
X143581842Y-93675969D01*
X143581833Y-93675964D01*
X143404397Y-93602468D01*
X143404389Y-93602466D01*
X143220000Y-93565788D01*
X143220000Y-94283763D01*
X143174701Y-94265000D01*
X142765299Y-94265000D01*
X142720000Y-94283763D01*
X142720000Y-93565789D01*
X142719999Y-93565788D01*
X142535610Y-93602465D01*
X142535606Y-93602467D01*
X142481707Y-93624792D01*
X142412237Y-93632259D01*
X142349759Y-93600983D01*
X142335881Y-93585717D01*
X142298284Y-93536720D01*
X142298282Y-93536719D01*
X142298282Y-93536718D01*
X142172841Y-93440464D01*
X142026762Y-93379956D01*
X142026760Y-93379955D01*
X141909361Y-93364500D01*
X141630636Y-93364500D01*
X141513246Y-93379953D01*
X141513234Y-93379957D01*
X141492450Y-93388566D01*
X141422981Y-93396033D01*
X141397550Y-93388566D01*
X141376765Y-93379957D01*
X141376760Y-93379955D01*
X141259361Y-93364500D01*
X140980636Y-93364500D01*
X140863246Y-93379953D01*
X140863234Y-93379957D01*
X140842450Y-93388566D01*
X140772981Y-93396033D01*
X140747550Y-93388566D01*
X140726765Y-93379957D01*
X140726760Y-93379955D01*
X140609361Y-93364500D01*
X140330636Y-93364500D01*
X140213246Y-93379953D01*
X140213234Y-93379957D01*
X140192450Y-93388566D01*
X140122981Y-93396033D01*
X140097550Y-93388566D01*
X140076765Y-93379957D01*
X140076760Y-93379955D01*
X139959361Y-93364500D01*
X139680636Y-93364500D01*
X139563241Y-93379954D01*
X139563239Y-93379955D01*
X139541796Y-93388837D01*
X139472327Y-93396304D01*
X139446895Y-93388837D01*
X139426631Y-93380444D01*
X139370000Y-93372987D01*
X139370000Y-93415499D01*
X139350315Y-93482538D01*
X139321489Y-93513873D01*
X139291719Y-93536716D01*
X139247379Y-93594502D01*
X139219165Y-93631272D01*
X139192376Y-93666184D01*
X139135948Y-93707386D01*
X139066202Y-93711541D01*
X139005281Y-93677329D01*
X138972529Y-93615611D01*
X138970000Y-93590697D01*
X138970000Y-93372987D01*
X138913368Y-93380444D01*
X138767413Y-93440899D01*
X138642072Y-93537077D01*
X138604597Y-93585916D01*
X138548169Y-93627118D01*
X138478423Y-93631272D01*
X138458771Y-93624990D01*
X138404393Y-93602467D01*
X138404389Y-93602465D01*
X138220000Y-93565788D01*
X138220000Y-94283763D01*
X138174701Y-94265000D01*
X137765299Y-94265000D01*
X137720000Y-94283763D01*
X137720000Y-93565789D01*
X137719999Y-93565788D01*
X137535610Y-93602466D01*
X137535602Y-93602468D01*
X137358166Y-93675964D01*
X137358157Y-93675969D01*
X137198473Y-93782667D01*
X137198469Y-93782670D01*
X137062670Y-93918469D01*
X137062667Y-93918473D01*
X136955969Y-94078157D01*
X136955964Y-94078166D01*
X136882468Y-94255602D01*
X136882466Y-94255610D01*
X136875626Y-94290000D01*
X137704943Y-94290000D01*
X137664225Y-94306866D01*
X137586866Y-94384225D01*
X137545000Y-94485299D01*
X137545000Y-94594701D01*
X137586866Y-94695775D01*
X137664225Y-94773134D01*
X137704943Y-94790000D01*
X136875626Y-94790000D01*
X136882466Y-94824389D01*
X136882468Y-94824397D01*
X136955964Y-95001833D01*
X136955969Y-95001842D01*
X137062667Y-95161526D01*
X137062670Y-95161530D01*
X137198469Y-95297329D01*
X137198473Y-95297332D01*
X137358157Y-95404030D01*
X137358166Y-95404035D01*
X137535602Y-95477531D01*
X137535610Y-95477533D01*
X137719999Y-95514210D01*
X137720000Y-95514210D01*
X137720000Y-94796236D01*
X137765299Y-94815000D01*
X138174701Y-94815000D01*
X138220000Y-94796236D01*
X138220000Y-95514210D01*
X138404389Y-95477533D01*
X138404398Y-95477531D01*
X138458767Y-95455010D01*
X138528237Y-95447540D01*
X138590716Y-95478814D01*
X138604598Y-95494083D01*
X138642075Y-95542924D01*
X138767414Y-95639100D01*
X138913366Y-95699555D01*
X138913372Y-95699557D01*
X138969998Y-95707011D01*
X138970000Y-95707010D01*
X138970000Y-95489302D01*
X138989685Y-95422263D01*
X139042489Y-95376508D01*
X139111647Y-95366564D01*
X139175203Y-95395589D01*
X139192376Y-95413816D01*
X139195463Y-95417839D01*
X139195464Y-95417841D01*
X139291718Y-95543282D01*
X139321485Y-95566123D01*
X139362688Y-95622548D01*
X139370000Y-95664499D01*
X139370000Y-95707010D01*
X139426631Y-95699555D01*
X139446887Y-95691165D01*
X139516356Y-95683693D01*
X139541798Y-95691163D01*
X139563238Y-95700044D01*
X139587995Y-95703303D01*
X139651887Y-95731566D01*
X139690360Y-95789890D01*
X139691193Y-95859754D01*
X139659490Y-95913922D01*
X139576242Y-95997170D01*
X139493267Y-96134429D01*
X139493265Y-96134433D01*
X139445548Y-96287565D01*
X139439500Y-96354121D01*
X139439500Y-96855888D01*
X139445546Y-96922426D01*
X139445548Y-96922433D01*
X139493265Y-97075566D01*
X139493267Y-97075570D01*
X139531219Y-97138351D01*
X139549055Y-97205906D01*
X139531219Y-97266649D01*
X139493267Y-97329429D01*
X139493265Y-97329433D01*
X139445548Y-97482565D01*
X139445548Y-97482567D01*
X139440721Y-97535689D01*
X139439500Y-97549121D01*
X139439500Y-98050883D01*
X139440704Y-98064129D01*
X139427164Y-98132674D01*
X139404895Y-98163025D01*
X139340184Y-98227736D01*
X139244211Y-98380476D01*
X139184631Y-98550745D01*
X139184630Y-98550750D01*
X139164435Y-98729996D01*
X139164435Y-98730003D01*
X139184630Y-98909249D01*
X139184631Y-98909254D01*
X139244211Y-99079523D01*
X139322486Y-99204097D01*
X139341486Y-99271334D01*
X139335789Y-99303869D01*
X139336181Y-99303959D01*
X139334630Y-99310750D01*
X139317316Y-99464419D01*
X139290249Y-99528833D01*
X139258247Y-99556651D01*
X139234151Y-99571218D01*
X139166597Y-99589055D01*
X139105851Y-99571219D01*
X139043070Y-99533267D01*
X139043066Y-99533265D01*
X138889933Y-99485548D01*
X138889935Y-99485548D01*
X138863312Y-99483128D01*
X138823381Y-99479500D01*
X138823378Y-99479500D01*
X138321611Y-99479500D01*
X138255073Y-99485546D01*
X138255066Y-99485548D01*
X138101933Y-99533265D01*
X138101929Y-99533267D01*
X137964670Y-99616242D01*
X137964665Y-99616246D01*
X137942731Y-99638181D01*
X137881408Y-99671666D01*
X137855050Y-99674500D01*
X136588389Y-99674500D01*
X136527971Y-99686518D01*
X136467548Y-99698537D01*
X136467546Y-99698537D01*
X136467545Y-99698538D01*
X136461946Y-99700857D01*
X136392477Y-99708322D01*
X136329999Y-99677043D01*
X136294350Y-99616952D01*
X136290500Y-99586293D01*
X136290500Y-93114999D01*
X137695000Y-93114999D01*
X137969972Y-93114999D01*
X137969986Y-93114998D01*
X138072697Y-93104505D01*
X138239119Y-93049358D01*
X138239130Y-93049353D01*
X138379903Y-92962523D01*
X138447295Y-92944082D01*
X138510097Y-92962523D01*
X138650869Y-93049353D01*
X138650880Y-93049358D01*
X138817302Y-93104505D01*
X138817309Y-93104506D01*
X138920019Y-93114999D01*
X139219999Y-93114999D01*
X139720000Y-93114999D01*
X140019972Y-93114999D01*
X140019986Y-93114998D01*
X140122697Y-93104505D01*
X140289119Y-93049358D01*
X140289124Y-93049356D01*
X140404903Y-92977943D01*
X140472295Y-92959503D01*
X140535097Y-92977943D01*
X140650875Y-93049356D01*
X140650880Y-93049358D01*
X140817302Y-93104505D01*
X140817309Y-93104506D01*
X140920019Y-93114999D01*
X141219999Y-93114999D01*
X141720000Y-93114999D01*
X142019972Y-93114999D01*
X142019986Y-93114998D01*
X142122697Y-93104505D01*
X142289119Y-93049358D01*
X142289130Y-93049353D01*
X142429903Y-92962523D01*
X142497295Y-92944082D01*
X142560097Y-92962523D01*
X142700869Y-93049353D01*
X142700880Y-93049358D01*
X142867302Y-93104505D01*
X142867309Y-93104506D01*
X142970019Y-93114999D01*
X143244999Y-93114999D01*
X143245000Y-93114998D01*
X143245000Y-92090000D01*
X141720000Y-92090000D01*
X141720000Y-93114999D01*
X141219999Y-93114999D01*
X141220000Y-93114998D01*
X141220000Y-92090000D01*
X139720000Y-92090000D01*
X139720000Y-93114999D01*
X139219999Y-93114999D01*
X139220000Y-93114998D01*
X139220000Y-92090000D01*
X137695000Y-92090000D01*
X137695000Y-93114999D01*
X136290500Y-93114999D01*
X136290500Y-93084502D01*
X136310185Y-93017463D01*
X136362989Y-92971708D01*
X136432147Y-92961764D01*
X136483391Y-92981400D01*
X136522369Y-93007444D01*
X136522381Y-93007451D01*
X136694350Y-93078682D01*
X136694355Y-93078683D01*
X136720000Y-93083784D01*
X136720000Y-92214728D01*
X136758060Y-92306614D01*
X136828386Y-92376940D01*
X136920272Y-92415000D01*
X137019728Y-92415000D01*
X137111614Y-92376940D01*
X137181940Y-92306614D01*
X137220000Y-92214728D01*
X137220000Y-91590000D01*
X143720000Y-91590000D01*
X143720000Y-92214728D01*
X143758060Y-92306614D01*
X143828386Y-92376940D01*
X143920272Y-92415000D01*
X144019728Y-92415000D01*
X144111614Y-92376940D01*
X144181940Y-92306614D01*
X144220000Y-92214728D01*
X144220000Y-93083783D01*
X144245644Y-93078683D01*
X144245649Y-93078682D01*
X144417618Y-93007451D01*
X144417631Y-93007444D01*
X144572401Y-92904029D01*
X144572405Y-92904026D01*
X144704026Y-92772405D01*
X144704029Y-92772401D01*
X144807444Y-92617631D01*
X144807449Y-92617622D01*
X144878683Y-92445646D01*
X144878685Y-92445638D01*
X144914999Y-92263078D01*
X144915000Y-92263076D01*
X144915000Y-92090000D01*
X144220000Y-92090000D01*
X144220000Y-91590000D01*
X144915000Y-91590000D01*
X144915000Y-91416923D01*
X144914999Y-91416921D01*
X144878685Y-91234361D01*
X144878683Y-91234353D01*
X144807449Y-91062377D01*
X144807444Y-91062368D01*
X144704029Y-90907598D01*
X144704026Y-90907594D01*
X144588613Y-90792181D01*
X144555128Y-90730858D01*
X144560112Y-90661166D01*
X144601984Y-90605233D01*
X144667448Y-90580816D01*
X144676294Y-90580500D01*
X160913825Y-90580500D01*
X160980864Y-90600185D01*
G37*
%TD.AperFunction*%
%TA.AperFunction,Conductor*%
G36*
X148408039Y-94232685D02*
G01*
X148453794Y-94285489D01*
X148465000Y-94337000D01*
X148465000Y-94347500D01*
X149887000Y-94347500D01*
X149887000Y-94337000D01*
X149906685Y-94269961D01*
X149959489Y-94224206D01*
X150011000Y-94213000D01*
X150268264Y-94213000D01*
X150315716Y-94222439D01*
X150338260Y-94231776D01*
X150359383Y-94240526D01*
X150409021Y-94247061D01*
X150472917Y-94275328D01*
X150511388Y-94333652D01*
X150512219Y-94403517D01*
X150475147Y-94462740D01*
X150411941Y-94492519D01*
X150409026Y-94492938D01*
X150359383Y-94499474D01*
X150359379Y-94499475D01*
X150217864Y-94558091D01*
X150170580Y-94594375D01*
X150142939Y-94605061D01*
X150103458Y-94644542D01*
X150100859Y-94646821D01*
X150096342Y-94651338D01*
X150003091Y-94772864D01*
X149999029Y-94779902D01*
X149997421Y-94778973D01*
X149960042Y-94825357D01*
X149893748Y-94847421D01*
X149889323Y-94847500D01*
X149525000Y-94847500D01*
X149525000Y-95462728D01*
X149525001Y-95462729D01*
X149533275Y-95462079D01*
X149533282Y-95462077D01*
X149692193Y-95415909D01*
X149742378Y-95386230D01*
X149810102Y-95369047D01*
X149876365Y-95391207D01*
X149920128Y-95445672D01*
X149929500Y-95492962D01*
X149929500Y-95591887D01*
X149944474Y-95705616D01*
X149944475Y-95705620D01*
X150003090Y-95847132D01*
X150003091Y-95847134D01*
X150003092Y-95847135D01*
X150096341Y-95968659D01*
X150217865Y-96061908D01*
X150217866Y-96061908D01*
X150217867Y-96061909D01*
X150229748Y-96066830D01*
X150359383Y-96120526D01*
X150473120Y-96135500D01*
X150473127Y-96135500D01*
X151606873Y-96135500D01*
X151606880Y-96135500D01*
X151720617Y-96120526D01*
X151862135Y-96061908D01*
X151862138Y-96061905D01*
X151864986Y-96060726D01*
X151888237Y-96053672D01*
X151998913Y-96031658D01*
X152132777Y-95976210D01*
X152135488Y-95975087D01*
X152135488Y-95975086D01*
X152135495Y-95975084D01*
X152193005Y-95936657D01*
X152258416Y-95892952D01*
X152298919Y-95852449D01*
X152311112Y-95840256D01*
X152372435Y-95806770D01*
X152442127Y-95811754D01*
X152497169Y-95852449D01*
X152544340Y-95913922D01*
X152586341Y-95968659D01*
X152707865Y-96061908D01*
X152707866Y-96061908D01*
X152707867Y-96061909D01*
X152719748Y-96066830D01*
X152849383Y-96120526D01*
X152963120Y-96135500D01*
X152963127Y-96135500D01*
X154096873Y-96135500D01*
X154096880Y-96135500D01*
X154210617Y-96120526D01*
X154340252Y-96066829D01*
X154409721Y-96059361D01*
X154472200Y-96090636D01*
X154506780Y-96146796D01*
X154531590Y-96232194D01*
X154531592Y-96232197D01*
X154615833Y-96374642D01*
X154615839Y-96374650D01*
X154731874Y-96490685D01*
X154765359Y-96552008D01*
X154760375Y-96621700D01*
X154731875Y-96666047D01*
X154630183Y-96767739D01*
X154534211Y-96920476D01*
X154474631Y-97090745D01*
X154474630Y-97090750D01*
X154454435Y-97269996D01*
X154454435Y-97270002D01*
X154460814Y-97326616D01*
X154448760Y-97395438D01*
X154401411Y-97446817D01*
X154337594Y-97464500D01*
X151718392Y-97464500D01*
X151698326Y-97468491D01*
X151678259Y-97472483D01*
X151613601Y-97485343D01*
X151597547Y-97488537D01*
X151557919Y-97504952D01*
X151557918Y-97504952D01*
X151483715Y-97535686D01*
X151473627Y-97542428D01*
X151473626Y-97542429D01*
X151381268Y-97604140D01*
X151357458Y-97627951D01*
X151294142Y-97691267D01*
X151294139Y-97691270D01*
X150511270Y-98474139D01*
X150511267Y-98474142D01*
X150475482Y-98509927D01*
X150424144Y-98561264D01*
X150424142Y-98561267D01*
X150404151Y-98591186D01*
X150404150Y-98591188D01*
X150404149Y-98591187D01*
X150355689Y-98663712D01*
X150355687Y-98663716D01*
X150325628Y-98736286D01*
X150306206Y-98783175D01*
X150304724Y-98782561D01*
X150270687Y-98834491D01*
X150206872Y-98862942D01*
X150137806Y-98852375D01*
X150102651Y-98827731D01*
X148866819Y-97591899D01*
X148833334Y-97530576D01*
X148830500Y-97504218D01*
X148830500Y-96946456D01*
X148792052Y-96753170D01*
X148792051Y-96753169D01*
X148792051Y-96753165D01*
X148716632Y-96571086D01*
X148651398Y-96473456D01*
X148630520Y-96406778D01*
X148630500Y-96404565D01*
X148630500Y-96391813D01*
X148630499Y-96391798D01*
X148627598Y-96354932D01*
X148627597Y-96354926D01*
X148581745Y-96197106D01*
X148581744Y-96197103D01*
X148581744Y-96197102D01*
X148498081Y-96055635D01*
X148498079Y-96055633D01*
X148498076Y-96055629D01*
X148381870Y-95939423D01*
X148381862Y-95939417D01*
X148240396Y-95855755D01*
X148240393Y-95855754D01*
X148082573Y-95809902D01*
X148082567Y-95809901D01*
X148045701Y-95807000D01*
X148045694Y-95807000D01*
X147804500Y-95807000D01*
X147737461Y-95787315D01*
X147691706Y-95734511D01*
X147680500Y-95683000D01*
X147680500Y-94876157D01*
X148465000Y-94876157D01*
X148467921Y-94913277D01*
X148467922Y-94913283D01*
X148514091Y-95072194D01*
X148514092Y-95072197D01*
X148598333Y-95214642D01*
X148598339Y-95214650D01*
X148715349Y-95331660D01*
X148715357Y-95331666D01*
X148857802Y-95415907D01*
X148857805Y-95415909D01*
X149016717Y-95462077D01*
X149016724Y-95462079D01*
X149024998Y-95462729D01*
X149025000Y-95462728D01*
X149025000Y-94847500D01*
X148465000Y-94847500D01*
X148465000Y-94876157D01*
X147680500Y-94876157D01*
X147680500Y-94516813D01*
X147680499Y-94516798D01*
X147678588Y-94492519D01*
X147677598Y-94479931D01*
X147674150Y-94468063D01*
X147646124Y-94371595D01*
X147646323Y-94301725D01*
X147684265Y-94243055D01*
X147747904Y-94214212D01*
X147765200Y-94213000D01*
X148341000Y-94213000D01*
X148408039Y-94232685D01*
G37*
%TD.AperFunction*%
%TA.AperFunction,Conductor*%
G36*
X155565539Y-94389685D02*
G01*
X155611294Y-94442489D01*
X155622500Y-94494000D01*
X155622500Y-95456638D01*
X155602815Y-95523677D01*
X155600000Y-95527170D01*
X155600000Y-95941000D01*
X155580315Y-96008039D01*
X155527511Y-96053794D01*
X155476000Y-96065000D01*
X155224000Y-96065000D01*
X155156961Y-96045315D01*
X155111206Y-95992511D01*
X155100000Y-95941000D01*
X155100000Y-95035862D01*
X155119685Y-94968823D01*
X155122500Y-94965329D01*
X155122500Y-94494000D01*
X155142185Y-94426961D01*
X155194989Y-94381206D01*
X155246500Y-94370000D01*
X155498500Y-94370000D01*
X155565539Y-94389685D01*
G37*
%TD.AperFunction*%
%TA.AperFunction,Conductor*%
G36*
X157905539Y-94267185D02*
G01*
X157951294Y-94319989D01*
X157962500Y-94371500D01*
X157962500Y-95344138D01*
X157950000Y-95386707D01*
X157950000Y-95833560D01*
X157930315Y-95900599D01*
X157877511Y-95946354D01*
X157808353Y-95956298D01*
X157744797Y-95927273D01*
X157738319Y-95921241D01*
X157702262Y-95885184D01*
X157549524Y-95789212D01*
X157549525Y-95789212D01*
X157546803Y-95788259D01*
X157533042Y-95783444D01*
X157476268Y-95742722D01*
X157450522Y-95677769D01*
X157450000Y-95666404D01*
X157450000Y-94965862D01*
X157462500Y-94923292D01*
X157462500Y-94371500D01*
X157482185Y-94304461D01*
X157534989Y-94258706D01*
X157586500Y-94247500D01*
X157838500Y-94247500D01*
X157905539Y-94267185D01*
G37*
%TD.AperFunction*%
%TA.AperFunction,Conductor*%
G36*
X139062539Y-94309685D02*
G01*
X139108294Y-94362489D01*
X139119500Y-94414000D01*
X139119501Y-94666000D01*
X139099817Y-94733039D01*
X139047013Y-94778794D01*
X138995501Y-94790000D01*
X138235057Y-94790000D01*
X138275775Y-94773134D01*
X138353134Y-94695775D01*
X138395000Y-94594701D01*
X138395000Y-94485299D01*
X138353134Y-94384225D01*
X138275775Y-94306866D01*
X138235057Y-94290000D01*
X138995500Y-94290000D01*
X139062539Y-94309685D01*
G37*
%TD.AperFunction*%
%TA.AperFunction,Conductor*%
G36*
X154508055Y-94200185D02*
G01*
X154553810Y-94252989D01*
X154564634Y-94314227D01*
X154562500Y-94341339D01*
X154562500Y-94468063D01*
X154542815Y-94535102D01*
X154490011Y-94580857D01*
X154420853Y-94590801D01*
X154363016Y-94566441D01*
X154352134Y-94558091D01*
X154352133Y-94558090D01*
X154210620Y-94499475D01*
X154210618Y-94499474D01*
X154210617Y-94499474D01*
X154160977Y-94492938D01*
X154097082Y-94464672D01*
X154058611Y-94406348D01*
X154057780Y-94336483D01*
X154094852Y-94277260D01*
X154158058Y-94247481D01*
X154160961Y-94247063D01*
X154210617Y-94240526D01*
X154308010Y-94200185D01*
X154332747Y-94189939D01*
X154380199Y-94180500D01*
X154441016Y-94180500D01*
X154508055Y-94200185D01*
G37*
%TD.AperFunction*%
%TD*%
D50*
X145000000Y-99000000D03*
X156410000Y-105790000D03*
X154442861Y-94585754D03*
X155600000Y-110190000D03*
D51*
X152990000Y-99910000D03*
D50*
X150000000Y-97000000D03*
D51*
X157690000Y-94980000D03*
D50*
X138180000Y-105180000D03*
X145830000Y-106430000D03*
D51*
X157810000Y-99840000D03*
D50*
X154380000Y-103070000D03*
D51*
X152960000Y-98730000D03*
X155332500Y-92280000D03*
D50*
X161700000Y-98300000D03*
X147000000Y-93000000D03*
X161000000Y-106000000D03*
D51*
X153500000Y-104090000D03*
X155260000Y-97270000D03*
X140120000Y-99490000D03*
X160260000Y-102320000D03*
X139970000Y-98730000D03*
X160875000Y-101080000D03*
X157200000Y-96515000D03*
X162190000Y-106460000D03*
D52*
X143970000Y-91840000D03*
D53*
X142970000Y-94540000D03*
X137970000Y-94540000D03*
D52*
X136970000Y-91840000D03*
M02*
